<svg width="500" height="500" fill="none" xmlns="http://www.w3.org/2000/svg"><path d="M250 475.17c122.977 0 222.67-57.59 222.67-128.63 0-71.04-99.693-128.63-222.67-128.63-122.977 0-222.67 57.59-222.67 128.63 0 71.04 99.693 128.63 222.67 128.63z" fill="#F5F5F5"/><path d="M438.45 332.2c-5.78-2.08-19.62-4.12-42.75-5.8-30.4-2.21-38.21-3.8-40.06 2.62L321 322.34c.25-8.13-5-16.31-15.74-22.51-21-12.13-55.07-12.13-76.08 0-21.01 12.13-21 31.8 0 43.93 12.23 7.06 28.88 10 44.81 8.84l24.45 28.22s-3.65 2.26 1 8.61c5 6.82 30.46 41.32 34.39 44.71 6.19 5.34 18.13 9.16 34.8-.32 19.06-10.84-.56-21-11.71-28.65-13.48-9.26-42.43-28.95-46.09-31.62-2.79-2-5.64.79-5.64.79l-20.77-23.11a67.909 67.909 0 0020.86-7.47c8.05-4.65 13-10.4 14.88-16.41l34.07 6.79s-1.56 3 5.65 5c6.17 1.67 52.54 13.47 60.81 12.46 8.06-1 14.56-5.7 18.63-10.4 4.98-5.8 1.97-7.97-.87-9zM155.52 409.4a3.855 3.855 0 01-3.73-3.08l-.87-4.56a50.759 50.759 0 01-5.78-1.42H145l-8 3.72a4.48 4.48 0 01-1.88.4 4.61 4.61 0 01-2.27-.58l-8-4.62a3.254 3.254 0 01-1.66-2.64 3.198 3.198 0 011.39-2.78l4.85-3.49a18.953 18.953 0 01-1.22-1.83l-10.2-.65a3.647 3.647 0 01-3.42-3.64v-6a3.647 3.647 0 013.42-3.64l10.2-.65c.371-.633.778-1.244 1.22-1.83l-4.85-3.49a3.165 3.165 0 01-1.394-2.786 3.177 3.177 0 011.664-2.634l8-4.62a4.739 4.739 0 014.15-.19l8 3.73h.11a51.577 51.577 0 015.85-1.44l.87-4.56a3.834 3.834 0 013.73-3.08h11.77a3.831 3.831 0 013.72 3.08l.87 4.56c1.953.36 3.883.834 5.78 1.42h.15l8-3.73a4.753 4.753 0 014.16.19l8 4.62a3.177 3.177 0 011.664 2.634 3.173 3.173 0 01-1.394 2.786l-4.84 3.49c.435.588.839 1.199 1.21 1.83l10.2.65a3.647 3.647 0 013.42 3.64v6a3.647 3.647 0 01-3.42 3.64l-10.2.65a20.822 20.822 0 01-1.21 1.83l4.84 3.48a3.18 3.18 0 01-.27 5.43l-8 4.62a4.682 4.682 0 01-2.28.58 4.577 4.577 0 01-1.87-.39l-8-3.73h-.08a51.577 51.577 0 01-5.85 1.44l-.87 4.56a3.837 3.837 0 01-3.72 3.08h-11.82zm5.88-36.6a24.897 24.897 0 00-12.23 2.88c-2.74 1.59-4.31 3.62-4.31 5.57 0 1.95 1.57 4 4.31 5.57a27.316 27.316 0 0024.46 0c2.74-1.58 4.31-3.61 4.31-5.57 0-1.96-1.57-4-4.31-5.57a24.897 24.897 0 00-12.23-2.88zM70.79 365.73a3.39 3.39 0 01-.79-.09l-9-2.14a3.137 3.137 0 01-2.14-1.73 3.308 3.308 0 01.07-2.91l1.36-2.7c-.83-.45-1.61-.93-2.35-1.43l-8.06 1.35c-.231.04-.465.061-.7.06a3.839 3.839 0 01-3.12-1.46l-3.49-4.86-.75-.45.14-2.1.1-.19c.062-.216.149-.425.26-.62l.07-.11a3.623 3.623 0 011.94-1.46l6.22-2v-.61l-6.42-2a3.085 3.085 0 01-2.1-2.37l-.06-.16v-.42c.014-.72.248-1.418.67-2l3.24-4.51a4.23 4.23 0 013.3-1.72c.191.002.382.018.57.05l8.25 1.36c.55-.38 1.17-.77 1.83-1.15l.48-.27-1.46-2.88a3.001 3.001 0 01-.32-1.39 3.3 3.3 0 012.66-3.1l8.61-2.06c.328-.079.663-.12 1-.12a3.915 3.915 0 012.84 1.12l3.73 3.93c.82 0 1.69-.07 2.55-.07.86 0 1.8 0 2.71.08l3.53-3.72a4.443 4.443 0 013.1-1.35c.28-.002.559.032.83.1l8.93 2.13a3.127 3.127 0 012.42 2.68v.49a3.413 3.413 0 01-.39 1.5l-1.34 2.66.43.24c.653.367 1.288.768 1.9 1.2l8.07-1.36c.231-.039.465-.059.7-.06a3.816 3.816 0 013.13 1.47l3.57 5a3 3 0 01.56 1.73v.17a3.32 3.32 0 01-2.44 2.91l-6.18 2v.61l6.4 2a3.056 3.056 0 012.17 2.94 3.513 3.513 0 01-.64 2l-3.27 4.56a4.173 4.173 0 01-3.29 1.72 3.758 3.758 0 01-.59-.05l-8.19-1.38c-.748.517-1.522.994-2.32 1.43l1.45 2.88a3 3 0 010 2.62 3.46 3.46 0 01-2.36 1.87l-8.64 2.06a4.27 4.27 0 01-1 .13 3.884 3.884 0 01-2.83-1.12l-3.75-3.94c-.83 0-1.72.07-2.6.07-.88 0-1.77 0-2.65-.07l-3.53 3.71a4.402 4.402 0 01-3.02 1.3zM68 340.23a2.637 2.637 0 00-.21.26c-.1.12-.17.23-.24.33l-.16.27a3.001 3.001 0 00.27 3.5c.438.591.964 1.11 1.56 1.54.351.26.719.497 1.1.71a20.463 20.463 0 009.79 2.28 23.46 23.46 0 005.41-.62 16.783 16.783 0 004.36-1.66c.366-.207.72-.434 1.06-.68a6.998 6.998 0 001.78-1.84l.22-.38.09-.22a2.998 2.998 0 00-.51-3c-1.94-2.71-6.94-4.53-12.44-4.53a23.46 23.46 0 00-5.41.62c-2.386.47-4.6 1.576-6.41 3.2l-.26.22z" fill="#E0E0E0"/><path d="M205.67 369.57v-4.77a1.078 1.078 0 00-1-1.06l-7.6-.48V352.6a.644.644 0 00-.37-.58l-8-4.62a2.114 2.114 0 00-1.77-.08l-8.11 3.76a2.999 2.999 0 01-1.86.11 47.107 47.107 0 00-6.3-1.5 1.527 1.527 0 01-1.17-1.14l-1-5.35a1.248 1.248 0 00-1.18-1h-11.79a1.253 1.253 0 00-1.19 1l-1 5.35a1.52 1.52 0 01-1.17 1.14 47.417 47.417 0 00-6.3 1.5 2.933 2.933 0 01-1.85-.12l-8.12-3.75a2.147 2.147 0 00-1.77.07l-8 4.63a.657.657 0 00-.37.57v10.67l-7.59.48a1.081 1.081 0 00-1 1.06v16.12c0 .13.1.23.14.34a.998.998 0 00.16.38c.146.123.322.206.51.24.07 0 .11.09.19.09h.14l7.45.47v10.7a.551.551 0 00.06.21c.07.111.166.204.28.27l8 4.62c.237.127.501.195.77.2h.21c.093.01.187.01.28 0v-.05c.166-.005.331-.032.49-.08l8.12-3.76a2.926 2.926 0 011.85-.11 49.526 49.526 0 006.3 1.5 1.525 1.525 0 011.18 1.14l1 5.34c.047.118.115.226.2.32v.13c0 .06.11.09.16.14.046.054.1.102.16.14.19.155.425.243.67.25h11.77c.27-.003.532-.098.74-.27.226-.173.382-.422.44-.7l1-5.34a1.52 1.52 0 011.17-1.14 48.776 48.776 0 006.3-1.5 2.999 2.999 0 011.86.11l8.11 3.76c.241.099.5.147.76.14a2 2 0 001-.21l8-4.62a.655.655 0 00.37-.55v-10.7l7.6-.48a1.068 1.068 0 001-1.06v-11.11a.785.785 0 00.07-.16zm-29.18 5c-.501.362-1.022.695-1.56 1-7.47 4.31-19.58 4.31-27.05 0a15.668 15.668 0 01-1.57-1c.48-.34 1-.67 1.57-1 7.47-4.31 19.58-4.31 27.05 0 .56.32 1.07.65 1.56.99v.01z" fill="#37474F"/><path d="M205.7 369.78v11.11a1.078 1.078 0 01-1 1.06l-7.6.48v10.7a.648.648 0 01-.37.55l-8 4.62c-.31.155-.654.228-1 .21a1.869 1.869 0 01-.76-.14l-8.11-3.76a2.24 2.24 0 00-.76-.18 2.817 2.817 0 00-1.1.08 46.92 46.92 0 01-6.3 1.49c-.174.04-.34.112-.49.21v.06a1.415 1.415 0 00-.68.88l-1 5.34a1.227 1.227 0 01-1.18.97H155.3a1.219 1.219 0 01-.77-.5v-.13c-.07-.11-.18-.19-.2-.32l-1-5.34a1.41 1.41 0 00-.48-.77 1.52 1.52 0 00-.7-.36 47.772 47.772 0 01-6.3-1.49 2.823 2.823 0 00-1.24-.06c-.208.023-.413.07-.61.14l-8.12 3.76a1.813 1.813 0 01-.49.08v.05a1.996 1.996 0 01-1.26-.21l-8-4.62a.91.91 0 01-.3-.29.671.671 0 01-.07-.24v-10.7l-1.39-.1-6.07-.38h-.14a1.078 1.078 0 01-1-1v-10.22a1.078 1.078 0 001 1.06l10.67.67a1.99 1.99 0 011.45 1 15.992 15.992 0 002.26 3.15.842.842 0 01.25.674.837.837 0 01-.37.616l-6.42 4.53a.587.587 0 000 1.08l8 4.63a2.144 2.144 0 001.77.07l8.11-3.75a2.901 2.901 0 011.86-.11 48.947 48.947 0 006.3 1.49 1.564 1.564 0 011.18 1.14l1 5.35a1.273 1.273 0 001.19 1h11.77a1.246 1.246 0 001.18-1l1-5.35a1.556 1.556 0 011.17-1.14 47.107 47.107 0 006.3-1.5 3.007 3.007 0 011.86.12l8.11 3.75a2.147 2.147 0 001.77-.07l8-4.63a.584.584 0 00.256-.218.582.582 0 000-.644.584.584 0 00-.256-.218l-6.34-4.57a.846.846 0 01-.322-.989.845.845 0 01.202-.311 16.157 16.157 0 002.27-3.14 1.996 1.996 0 011.44-1l10.67-.67a1.081 1.081 0 001-1.06v-1.19a.757.757 0 01.21.25zM197.08 352.6v10.66l-3.07-.19a1.996 1.996 0 01-1.44-1 15.824 15.824 0 00-2.27-3.07.843.843 0 01-.136-1.038.843.843 0 01.256-.272l6.34-4.56a.693.693 0 00.32-.5v-.03zM132.5 359a15.372 15.372 0 00-2.26 3.14 2 2 0 01-1.45 1l-3.06.19v-10.75a.677.677 0 00.32.52l6.34 4.56a.849.849 0 01.11 1.34z" fill="#263238"/><path d="M134.1 347.39l-8 4.63a.592.592 0 00-.257.862.592.592 0 00.257.218l6.34 4.57a.846.846 0 01.322.989.845.845 0 01-.202.311 15.372 15.372 0 00-2.26 3.14 2 2 0 01-1.45 1l-10.66.67a1.081 1.081 0 00-1 1.06v6a1.078 1.078 0 001 1.06l10.66.67a1.99 1.99 0 011.45 1 15.427 15.427 0 002.26 3.14.843.843 0 01.136 1.038.853.853 0 01-.256.272l-6.44 4.44a.6.6 0 000 1.08l8 4.63a2.144 2.144 0 001.77.07l8.12-3.75a2.933 2.933 0 011.85-.12 47.417 47.417 0 006.3 1.5 1.519 1.519 0 011.17 1.14l1 5.35a1.248 1.248 0 001.19 1h11.77a1.246 1.246 0 001.18-1l1-5.35a1.528 1.528 0 011.17-1.14 47.107 47.107 0 006.3-1.5 2.993 2.993 0 011.86.12l8.11 3.75a2.147 2.147 0 001.77-.07l8-4.63a.587.587 0 000-1.08l-6.34-4.56a.853.853 0 01-.322-.996.836.836 0 01.202-.314 15.903 15.903 0 002.27-3.14 1.996 1.996 0 011.44-1l10.67-.67a1.081 1.081 0 001-1.06v-6a1.078 1.078 0 00-1-1.06l-10.48-.59a1.996 1.996 0 01-1.44-1 15.846 15.846 0 00-2.26-3.07.833.833 0 01-.25-.679.832.832 0 01.37-.621l6.34-4.57a.587.587 0 000-1.08l-8-4.62a2.114 2.114 0 00-1.77-.08l-8.11 3.76a2.999 2.999 0 01-1.86.11 47.107 47.107 0 00-6.3-1.5 1.527 1.527 0 01-1.17-1.14l-1-5.35a1.248 1.248 0 00-1.18-1h-11.85a1.248 1.248 0 00-1.19 1l-1 5.35a1.52 1.52 0 01-1.17 1.14 47.417 47.417 0 00-6.3 1.5 2.933 2.933 0 01-1.85-.12l-8.12-3.75a2.138 2.138 0 00-1.79.04zM174.93 360c7.46 4.31 7.46 11.31 0 15.62-7.46 4.31-19.58 4.31-27.05 0-7.47-4.31-7.47-11.31 0-15.62 7.47-4.31 19.58-4.34 27.05 0z" fill="#455A64"/><path d="M125.72 383a.666.666 0 01.32-.53l3.19-2.3v-7.57a1.362 1.362 0 00-.44-.11l-10.67-.67a1.081 1.081 0 01-1-1.06v10.15a1.078 1.078 0 001 1h.14l6.07.38 1.39.1v.61zM144.6 384.32a2.663 2.663 0 00-.62.17l-8.11 3.75c-.317.128-.66.176-1 .14v10.13c.179.02.361.02.54 0v-.05c.166-.004.331-.031.49-.08l8.12-3.76c.197-.072.402-.119.61-.14l-.03-10.16zM154.48 392.74a1.37 1.37 0 01-.15-.38l-1-5.35a1.602 1.602 0 00-.16-.41v10.15c.074.124.128.259.16.4l1 5.34c.03.097.081.186.15.26v-10.01z" fill="#37474F"/><path opacity=".15" d="M169.65 386.61c-.076.123-.13.258-.16.4l-1 5.35a.987.987 0 01-.15.38v10.13a.987.987 0 00.15-.38l1-5.34a.825.825 0 01.16-.37v-10.17zM188 388.37a1.998 1.998 0 01-1-.13l-8.11-3.75a2.584 2.584 0 00-.61-.17v10.14c.21.024.416.077.61.16l8.11 3.76c.241.099.5.147.76.14h.24v-10.15zM204.68 371.82l-10.67.67c-.152.012-.3.049-.44.11v7.56l3.19 2.3a.675.675 0 01.32.54v-.57l7.6-.48a1.081 1.081 0 001-1.06v-11.11c.01-.07.01-.14 0-.21v1.19a1.078 1.078 0 01-1 1.06z" fill="#000"/><path d="M44.54 334.49v9.07a.4.4 0 00.08.23l3.56 5a1.458 1.458 0 001.31.38l8.21-1.38a2.268 2.268 0 011.48.25c.643.459 1.31.883 2 1.27v6.81a.591.591 0 00.46.5l8.95 2.14a1.718 1.718 0 001.41-.56l3.69-3.89a2.228 2.228 0 011.51-.65c1.868.115 3.742.115 5.61 0 .487-.037.97.113 1.35.42l4.12 4.33a1.585 1.585 0 001.39.26l8.61-2.05c.42-.1.69-.37.67-.65v-6.72c.59-.34 1.15-.69 1.68-1.06a2.637 2.637 0 011.62-.46l8.48 1.42a1.567 1.567 0 001.34-.62l3.24-4.53a.818.818 0 00.18-.52v-6.54a.369.369 0 00.07-.2v-12.91a.399.399 0 00-.08-.22l-3.56-5a1.478 1.478 0 00-1.31-.38l-8.21 1.39a2.404 2.404 0 01-1.48-.25c-.643-.463-1.31-.89-2-1.28v-6.68a.58.58 0 00-.46-.59l-8.95-2.14a1.71 1.71 0 00-1.44.53l-3.68 3.88a2.25 2.25 0 01-1.51.66 43.756 43.756 0 00-5.61 0 1.999 1.999 0 01-1.35-.42L71.8 309a1.644 1.644 0 00-1.39-.26l-8.61 2.06c-.42.1-.68.36-.67.63v6.74c-.58.34-1.15.7-1.68 1.06a2.65 2.65 0 01-1.62.47l-8.48-1.43a1.572 1.572 0 00-1.34.63l-3.24 4.52a.901.901 0 00-.18.5v10.39a.39.39 0 00-.06.2l.01-.02zm46.58 1.12a19.133 19.133 0 01-5.05 1.93c-6 1.44-12.71.56-17.07-1.92a12.245 12.245 0 01-1.36-.88c.39-.27.81-.54 1.26-.8 6.14-3.55 16.1-3.55 22.25 0 .46.27.89.54 1.28.81-.419.313-.856.6-1.31.86z" fill="#37474F"/><path d="M97 317.08c.69.32 1.35.66 2 1v-6.68a.929.929 0 01-.1.34L96.68 316a.775.775 0 00.076.884c.068.081.15.148.244.196z" fill="#263238"/><path opacity=".15" d="M106.82 327.7a8.83 8.83 0 010 2.81.922.922 0 00.57 1l7.75 2.44a.514.514 0 01.36.5v2.51a.385.385 0 00.06-.18v-12.93c0 .23-.25.46-.63.58l-7.31 2.32a.996.996 0 00-.8.95zM102 338.65v9.08c.103-.01.207-.01.31 0l8.48 1.42a.92.92 0 00.43 0v-9.07a1.175 1.175 0 01-.45 0l-8.48-1.43a.94.94 0 00-.29 0z" fill="#000"/><path d="M99 349.26c.58-.34 1.15-.69 1.68-1.06a3.008 3.008 0 011.31-.47v-9.08a2.864 2.864 0 00-1.32.48 25.546 25.546 0 01-3.44 2c-.5.25-.78.68-.62 1l2.33 4.61a.49.49 0 010 .19c.06.26.06 2.33.06 2.33z" fill="#263238"/><path opacity=".15" d="M83.67 344.72v9.08c.194.055.372.154.52.29l4.12 4.33c.21.182.473.287.75.3v-9.08a1.262 1.262 0 01-.77-.29L84.17 345a1.208 1.208 0 00-.5-.28z" fill="#000"/><path d="M76.69 344.67v9.08c.173-.061.356-.091.54-.09 1.868.115 3.742.115 5.61 0 .282-.011.564.033.83.13v-9.08a2.004 2.004 0 00-.85-.13 45.492 45.492 0 01-5.6 0 1.52 1.52 0 00-.53.09z" fill="#263238"/><path opacity=".15" d="M71.21 349.6v9.08c.309-.09.59-.254.82-.48l3.69-3.89a2.479 2.479 0 011-.56v-9.08c-.376.104-.72.3-1 .57L72 349.12c-.222.22-.493.384-.79.48z" fill="#000"/><path d="M61.18 347v9.06a.59.59 0 00.46.5l8.95 2.13c.2.053.41.053.61 0v-9.09a1.268 1.268 0 01-.63 0l-8.95-2.14a.55.55 0 01-.44-.46z" fill="#37474F"/><path opacity=".15" d="M58.29 338.66v9.08c.317.02.625.113.9.27.643.459 1.31.883 2 1.27v-2.36a.872.872 0 01.09-.37l2.15-4.26a.76.76 0 00-.27-1.07 25.739 25.739 0 01-4-2.28 1.762 1.762 0 00-.87-.28z" fill="#000"/><path d="M44.54 334.5v9.06a.4.4 0 00.08.23l3.57 5c.158.182.373.305.61.35V340a1.09 1.09 0 01-.64-.36l-3.56-5a.326.326 0 01-.06-.14z" fill="#37474F"/><path d="M89.51 308.65l8.95 2.14a.59.59 0 01.442.481.578.578 0 01-.012.229.75.75 0 01-.09.34l-2.15 4.25a.782.782 0 00.27 1.08 21.758 21.758 0 014 2.28c.454.239.973.327 1.48.25l8.21-1.39a1.485 1.485 0 011.31.38l3.56 5c.048.064.076.14.08.22-.02.23-.25.46-.63.58l-7.31 2.32a1 1 0 00-.8 1c.15.927.15 1.873 0 2.8a.91.91 0 00.57 1l7.74 2.45a.489.489 0 01.37.49 1 1 0 01-.18.5l-3.25 4.52a1.553 1.553 0 01-1.34.63l-8.48-1.43a2.54 2.54 0 00-1.61.46 24.58 24.58 0 01-3.44 2c-.5.23-.78.67-.62 1l2.33 4.61c.17.33-.12.69-.63.82l-8.61 2.06a1.62 1.62 0 01-1.38-.26l-4.13-4.34a1.999 1.999 0 00-1.35-.42c-1.865.11-3.735.11-5.6 0a2.15 2.15 0 00-1.51.65l-3.69 3.88a1.735 1.735 0 01-1.44.53l-8.95-2.14a.62.62 0 01-.36-1l2.14-4.25a.767.767 0 00-.27-1.08 25.734 25.734 0 01-4-2.28 2.192 2.192 0 00-1.47-.26l-8.22 1.38a1.41 1.41 0 01-1.3-.38l-3.57-5a.36.36 0 01-.07-.22.39.39 0 01.06-.2.997.997 0 01.56-.39l7.31-2.31c.52-.2.87-.63.8-1a8.767 8.767 0 010-2.8.899.899 0 00-.58-1l-7.74-2.46a.492.492 0 01-.36-.47.9.9 0 01.18-.5l3.24-4.52a1.572 1.572 0 011.34-.63l8.48 1.43a2.65 2.65 0 001.62-.47c.53-.36 1.12-.75 1.68-1.06.56-.31 1.24-.68 1.75-.91.51-.23.79-.68.62-1l-2.33-4.63a.391.391 0 010-.18c-.01-.27.25-.53.67-.63l8.61-2.06a1.655 1.655 0 011.39.26l4.12 4.3c.384.3.864.449 1.35.42 1.868-.12 3.742-.12 5.61 0a2.25 2.25 0 001.51-.66l3.68-3.88a1.715 1.715 0 011.44-.53zM364.78 326.84a6.207 6.207 0 01-1.13-.1l-63.72-12a6.01 6.01 0 112.24-11.81l63.72 12a5.997 5.997 0 013.022 10.405 6.003 6.003 0 01-4.132 1.515v-.01z" fill="#455A64"/><path d="M351.12 325H351c-2.08-.39-3-2.93-2.4-6.3.68-3.66 3.08-7 6.32-6.42a.6.6 0 01.221 1.089.599.599 0 01-.451.091c-2.45-.46-4.35 2.47-4.91 5.46-.41 2.15-.13 4.6 1.44 4.9a.6.6 0 01-.11 1.19l.01-.01zM340.51 323h-.11a2.994 2.994 0 01-2.26-2.13c-.89-2.54 0-6.61 2-8.89a4.32 4.32 0 014.18-1.7.611.611 0 01.191 1.061.616.616 0 01-.411.129 3.144 3.144 0 00-3 1.29c-1.66 1.93-2.5 5.61-1.76 7.71a1.813 1.813 0 001.34 1.35.595.595 0 01.369.228.596.596 0 01-.479.962l-.06-.01zM329.9 321h-.12c-2.07-.39-3-2.93-2.4-6.31.69-3.65 3.08-7 6.32-6.41a.598.598 0 01.393.917.61.61 0 01-.379.26.614.614 0 01-.234.003c-2.46-.47-4.35 2.47-4.92 5.46-.4 2.15-.13 4.6 1.45 4.89a.621.621 0 01.48.71.607.607 0 01-.59.48zM319.28 319h-.11a3.003 3.003 0 01-2.26-2.14c-.89-2.53 0-6.6 2-8.89a4.316 4.316 0 014.19-1.69.6.6 0 01.221 1.088.6.6 0 01-.451.092 3.182 3.182 0 00-3.05 1.3c-1.66 1.93-2.5 5.6-1.76 7.71a1.813 1.813 0 001.34 1.35.595.595 0 01.369.228.596.596 0 01-.479.962l-.01-.01zM308.67 317h-.11c-2.08-.39-3.05-2.92-2.41-6.3.69-3.65 3.09-7 6.32-6.42a.611.611 0 01.191 1.061.616.616 0 01-.411.129c-2.44-.46-4.35 2.46-4.92 5.45-.4 2.15-.12 4.6 1.45 4.9a.593.593 0 01.385.251.587.587 0 01.095.449.62.62 0 01-.59.48z" fill="#37474F"/><path opacity=".15" d="M295 308.82a5.998 5.998 0 004.89 5.88l63.72 12c.373.068.751.101 1.13.1a6 6 0 005.9-4.9v-.21L295 308.82z" fill="#000"/><path d="M433.42 274.36c-4.76-1.26-12.25-1.65-18.56 3.38-5.14 4.1-11.08 22.59-13.07 29l-33.69-.08a8.674 8.674 0 00-4.93 2.34c-5.64 5.6-6.71 11.86-6.23 17.82.3 3.68 2.8 6.22 4.59 6.53.54.11 44.86 9.08 51.15 10.19 10.47 1.85 8.19 1.83 14.38-7.05 4.07-5.83 4.07-14.45 4.07-20.15 0-5.7 2.56-15.13 4.72-22.52 2.16-7.39 2.33-18.2-2.43-19.46z" class="svg-primary-color" fill="#999"/><path opacity=".15" d="M426.66 274.49c-5.6 2.08-9.07 7-10.77 14.53-1.7 7.53-.19 13.76-1.78 24.63a64.187 64.187 0 01-5.6 17.05c-2.16 4.09-5.23 5.79-11 4.79s-26.15-4-31.48-6.47a8.272 8.272 0 01-4.9-7.82 29.296 29.296 0 0010.12-1.86c4.55-1.92 4.21-4.1 4.07-5.29l-5.5-7.39h-1.7a8.674 8.674 0 00-4.93 2.34c-5.64 5.6-6.71 11.86-6.23 17.82.3 3.68 2.8 6.22 4.59 6.53.54.11 44.86 9.08 51.15 10.19 10.47 1.85 8.19 1.83 14.38-7.05 4.07-5.83 4.07-14.45 4.07-20.15 0-5.7 2.56-15.13 4.72-22.52a37.428 37.428 0 001.37-7.78c-4.24-6.94-8.4-12.37-10.58-11.55z" fill="#000"/><path d="M433.42 274.36l-.93-.23a25.278 25.278 0 00-3.12-.48c-7.19 1.44-10.58 7.8-11.61 16.54-1.03 8.74-.09 18.53-.73 24.62s-4.43 15.89-4.18 22.36A11.363 11.363 0 00415 344c7.79 1.37 6.35.67 12-7.47 4.07-5.83 4.07-14.45 4.07-20.15 0-5.7 2.56-15.13 4.72-22.52 2.16-7.39 2.39-18.24-2.37-19.5z" fill="#455A64"/><path opacity=".15" d="M401.79 306.74a150.718 150.718 0 00-3.21 16.69 61.133 61.133 0 010-16.69h3.21z" fill="#000"/><path d="M423 284.35c-3.27 8.4-2 21.16-2.72 29.42-.72 8.26-4.46 19.82-3.89 24.19.57 4.37 2.76 7.42 6.1 5.47a14.002 14.002 0 004.17-5c1-1.93 1.69-4 2.17-5.19 2.31-5.48 2.31-12.19 2.31-16.91 0-5.7 2.56-15.13 4.72-22.52 1.62-5.53 2.12-13 .27-16.88-1.44-3.2-9.54-1.81-13.13 7.42z" fill="#37474F"/><path d="M420.56 305.41v1.17l14-8.07c.12-.46.25-.92.38-1.38l-14.38 8.28zM436.42 277.63l-13.87 8c-.14.45-.27.91-.4 1.39l14.58-8.42c-.09-.33-.2-.66-.31-.97zM433 304.45l-12.58 7.26c0 .41-.05.81-.07 1.2l12.33-7.12c.09-.45.2-.89.32-1.34zM418 326.65l13.13-7.58v-1.16l-12.86 7.43c-.09.44-.18.88-.27 1.31zM420.68 299.14v1.17l15.87-9.16c.09-.43.17-.86.25-1.3l-16.12 9.29zM419.66 318.35c-.08.43-.15.86-.23 1.29l12-6.91c.05-.41.11-.83.17-1.25l-11.94 6.87zM437.3 284.49v-1.16l-16.17 9.34c0 .41-.09.81-.13 1.23l16.3-9.41zM429.06 332.69c.18-.48.34-1 .5-1.45l-13 7.52c.073.341.173.675.3 1l12.2-7.07zM430.73 325.56c0-.42.1-.83.14-1.24l-14 8.12c-.08.44-.15.87-.21 1.28l14.07-8.16z" fill="#263238"/><path d="M360.9 318.65c7.78.74 14.1-2.09 14.4-4.6 0 0 1.88-10.48-12-11.6-13.88-1.12-14.26 9.05-14.26 9.05-.04 2.4 4.07 6.42 11.86 7.15z" class="svg-primary-color" fill="#999"/><path opacity=".7" d="M360.9 318.65c7.78.74 14.1-2.09 14.4-4.6 0 0 1.88-10.48-12-11.6-13.88-1.12-14.26 9.05-14.26 9.05-.04 2.4 4.07 6.42 11.86 7.15z" fill="#fff"/><path d="M375.3 314.05a9.692 9.692 0 00-2.54-7.93c.53 1 2.75 6.1-5.38 8.44-9.06 2.59-17.37-3.1-17.83-5.34a8.733 8.733 0 00-.5 2.28c0 2.4 4.06 6.42 11.85 7.15 7.79.73 14.1-2.09 14.4-4.6z" class="svg-primary-color" fill="#999"/><path opacity=".05" d="M375.3 314.05a9.692 9.692 0 00-2.54-7.93c.53 1 2.75 6.1-5.38 8.44-9.06 2.59-17.37-3.1-17.83-5.34a8.733 8.733 0 00-.5 2.28c0 2.4 4.06 6.42 11.85 7.15 7.79.73 14.1-2.09 14.4-4.6z" fill="#000"/><path d="M345.66 218.05c-.2-2.17-1-6.68-4.79-8.46-3.79-1.78-5.84 0-5.3 1.66s4.45 2.19 4.61 7.89c0 0 3.4 1.47 5.48-1.09z" fill="#455A64"/><path opacity=".15" d="M342.36 217.17a8.771 8.771 0 00-4-5.94c-1.21-.95-1.4-1.94 0-2.36-2.16-.19-3.23 1.12-2.82 2.38.55 1.69 4.45 2.19 4.61 7.89a6.05 6.05 0 002.45.41c-.02-.71-.11-1.55-.24-2.38z" fill="#000"/><path d="M337.52 222c2.45-5 10.23-5.64 16.28 0 9.08 8.47 10.57 16.86 6.74 21.32-3.83 4.46-9.68 3.18-14.88-1.5-4-3.63-11.66-12.65-8.14-19.82z" class="svg-primary-color" fill="#999"/><path opacity=".1" d="M360.54 243.3a8.366 8.366 0 001.95-5.06c-.47 2.5-1.73 4.27-3.43 4.87-2.08.74-5.78 1.89-11.92-4.46s-9.36-16.9-5.18-20.27a7.002 7.002 0 00-4.44 3.6c-3.54 7.19 4.14 16.21 8.14 19.82 5.2 4.68 11.05 5.97 14.88 1.5z" fill="#000"/><path d="M324.41 241.33c-15.39-8.19-23.77-12.28-31.35-8.35l-3.69-7.12c11.67-6.05 23.05 0 38.81 8.4l-3.77 7.07z" fill="#455A64"/><path d="M303.56 232.51a.525.525 0 01-.41-.82 5.631 5.631 0 00.87-4.22 5.297 5.297 0 00-1.79-3.42.52.52 0 01-.229-.333.51.51 0 01.819-.497 6.207 6.207 0 012.21 4.09 6.66 6.66 0 01-1.06 5 .505.505 0 01-.41.2zM312 235.55a.519.519 0 01-.37-.87 6.067 6.067 0 001.57-4.58 5.002 5.002 0 00-1.18-3.27.505.505 0 01-.184-.346.5.5 0 01.268-.5.504.504 0 01.39-.038.5.5 0 01.176.094 5.798 5.798 0 011.55 4 7.056 7.056 0 01-1.86 5.36.507.507 0 01-.36.15z" fill="#37474F"/><path opacity=".15" d="M293.06 233c7.58-3.93 16 .16 31.35 8.35l1.56-2.92a89.52 89.52 0 00-11-6c-10.83-4.9-14.95-5.45-23.44-2.28l1.53 2.85z" fill="#000"/><path d="M288.792 243.041c6.633-2.747 9.783-10.352 7.035-16.985-2.747-6.633-10.352-9.783-16.985-7.036-6.633 2.748-9.783 10.352-7.036 16.986 2.748 6.633 10.353 9.783 16.986 7.035z" class="svg-primary-color" fill="#999"/><path opacity=".25" d="M288.792 243.041c6.633-2.747 9.783-10.352 7.035-16.985-2.747-6.633-10.352-9.783-16.985-7.036-6.633 2.748-9.783 10.352-7.036 16.986 2.748 6.633 10.353 9.783 16.986 7.035z" fill="#000"/><path d="M270.95 334.42c17.861 0 32.34-14.479 32.34-32.34 0-17.861-14.479-32.34-32.34-32.34-17.861 0-32.34 14.479-32.34 32.34 0 17.861 14.479 32.34 32.34 32.34z" class="svg-primary-color" fill="#999"/><path opacity=".35" d="M270.95 334.42c17.861 0 32.34-14.479 32.34-32.34 0-17.861-14.479-32.34-32.34-32.34-17.861 0-32.34 14.479-32.34 32.34 0 17.861 14.479 32.34 32.34 32.34z" fill="#000"/><path opacity=".15" d="M273 327.42c-8-.92-11.82-5.75-11.82-5.75s28.06.08 41.5-26a32.376 32.376 0 00-17.36-22.56l-37.79 6.72a32.34 32.34 0 1051.15 39c-6.46 7.59-17.56 9.54-25.68 8.59z" fill="#000"/><path d="M302.42 284.8l-.17-.34c-.05-.09-.09-.18-.13-.26a154.397 154.397 0 01-8.81-24 139.689 139.689 0 01-4.64-29.78h-74.54c0 27.92 5.36 55.35 17.57 76.58 2.08 4.09 6.48 7.47 13 9.45 16.09 4.87 39.07-.51 51.33-12 7.1-6.6 9.05-13.8 6.39-19.65z" class="svg-primary-color" fill="#999"/><path opacity=".1" d="M294.25 306.06c-5.22 3.84-17.06 8.61-25.92 8.53-10.14-.1-30.47-5.72-37.74-21.59-7.27-15.87-9.59-45.23-9.59-45.23s8.61 4.94 28.1 4.46l-2.55-21.78h-32.4c0 27.92 5.36 55.35 17.57 76.58 2.08 4.09 6.48 7.47 13 9.45 15.34 4.64 36.92-.03 49.53-10.42z" fill="#000"/><path d="M298.16 274.83c-.1-.27-.21-.54-.31-.82-.1-.28-.12-.32-.19-.48v-.11c-1.35-3.65-2.85-8.08-4.31-13.19a126.4 126.4 0 01-3.55-17.65v-.08c.83 6.05-2.76 12.28-10.8 16.91-9.6 5.54-23.14 7.44-35.42 5.66 1.44 13.77 6.08 28.26 13.72 39.18 12 .88 26.09-3.57 34.07-11 6.49-6.18 8.63-12.82 6.79-18.42z" fill="#37474F"/><path d="M296.26 274.1c-.1-.26-.19-.54-.29-.82l-.18-.48v-.11c-1.28-3.68-2.7-8.14-4.05-13.27a112.685 112.685 0 01-2.38-11.59c-1.25 4.24-4.7 8.31-10.38 11.58-9.6 5.54-23.14 7.44-35.42 5.66 1.34 12.76 5.42 26.12 12.09 36.7 11.66.73 25.66-2.42 33.44-9.42 6.63-6.01 8.91-12.61 7.17-18.25z" fill="#455A64"/><path d="M274.18 270.69l-3.76-1.7s-13.73 3.21-22 2.44a53.2 53.2 0 001.58 12.19 39.642 39.642 0 004.5 10.82l4.33 2.1 15.35-25.85z" fill="#263238"/><path d="M251.49 274.86c0 5.23 4.33 18.09 7.35 21.68 0 0 15.17-.71 21.7-6.69-.21-1.67-6.36-19.16-6.36-19.16-4.01 2.96-15.86 4.18-22.69 4.17z" fill="#37474F"/><path d="M275.79 289.04a1.51 1.51 0 100-3.02 1.51 1.51 0 000 3.02zM271.16 289.78a.74.74 0 100-1.48.74.74 0 000 1.48zM275.07 279.12a.481.481 0 01-.2 0 .505.505 0 01-.46-.3.52.52 0 01.27-.66 2.94 2.94 0 001.7-3.51l-3.53-12.42c.31-.12.63-.24.93-.37l3.56 12.52a3.927 3.927 0 01-2.27 4.74zM269 281.05a.481.481 0 01-.2 0 .515.515 0 01-.46-.31.52.52 0 01.27-.66 2.932 2.932 0 001.69-3.5l-3.55-12.52 1-.24 3.55 12.49a3.926 3.926 0 01-2.3 4.74zM263 283a.435.435 0 01-.19 0 .508.508 0 01-.281-.078.51.51 0 01-.189-.222.52.52 0 01.27-.66 2.93 2.93 0 001.69-3.51l-3.78-13.31 1-.13 3.73 13.17A3.923 3.923 0 01263 283z" class="svg-primary-color" fill="#999"/><g opacity=".3" fill="#000"><path opacity=".3" d="M275.07 279.12a.481.481 0 01-.2 0 .505.505 0 01-.46-.3.52.52 0 01.27-.66 2.94 2.94 0 001.7-3.51l-3.53-12.42c.31-.12.63-.24.93-.37l3.56 12.52a3.927 3.927 0 01-2.27 4.74zM269 281.05a.481.481 0 01-.2 0 .515.515 0 01-.46-.31.52.52 0 01.27-.66 2.932 2.932 0 001.69-3.5l-3.55-12.52 1-.24 3.55 12.49a3.926 3.926 0 01-2.3 4.74zM263 283a.435.435 0 01-.19 0 .5.5 0 01-.47-.3.52.52 0 01.27-.66 2.932 2.932 0 001.69-3.51l-3.78-13.31 1-.13 3.73 13.17A3.924 3.924 0 01263 283z"/></g><path d="M279 259.41c-.77.45-1.58.86-2.4 1.26.88 4.47 2.5 11.42 4.14 15.19 0 0 8-2.42 10.65-7.68a124.443 124.443 0 01-4-16.19 24.763 24.763 0 01-8.39 7.42z" fill="#37474F"/><path d="M286.28 258.28a.866.866 0 01-.537.804.866.866 0 01-.948-.189.866.866 0 01-.189-.948.868.868 0 01.804-.537.867.867 0 01.87.87zM287.51 262.23a.87.87 0 11-.86-.87.873.873 0 01.612.255.856.856 0 01.248.615zM289.25 266.25a.866.866 0 01-.537.804.874.874 0 01-.948-.189.866.866 0 01-.189-.948.876.876 0 01.804-.537.87.87 0 01.87.87zM282.12 272.73a.515.515 0 01-.47-.31 93.647 93.647 0 01-2.78-10.81.513.513 0 01.41-.58.52.52 0 01.58.42 94.705 94.705 0 002.72 10.55.503.503 0 01-.27.65.452.452 0 01-.19.08zM284.87 271a.515.515 0 01-.47-.31 95.843 95.843 0 01-2.78-10.81.51.51 0 01.415-.585.51.51 0 01.585.415 93.75 93.75 0 002.72 10.59.513.513 0 01-.27.66.653.653 0 01-.2.04zM349.73 264.32s-6.49 10.29-21.47 15.77a65.3 65.3 0 01-26.33 3.68 157.449 157.449 0 01-8.61-23.54 125.226 125.226 0 01-3.55-17.65s11.56 1.5 23.94-6.25c14.12-8.83 17.35-18.3 17.35-18.3 8.76 12.35 14.94 27.91 18.67 46.29z" class="svg-primary-color" fill="#999"/><path opacity=".25" d="M349.73 264.32s-6.49 10.29-21.47 15.77a65.3 65.3 0 01-26.33 3.68 157.449 157.449 0 01-8.61-23.54 125.226 125.226 0 01-3.55-17.65s11.56 1.5 23.94-6.25c14.12-8.83 17.35-18.3 17.35-18.3 8.76 12.35 14.94 27.91 18.67 46.29z" fill="#000"/><path opacity=".25" d="M349.73 264.32c-3.77-18.38-9.91-33.94-18.67-46.29a19.203 19.203 0 01-1.64 3.24c7.48 8.72 16.51 30.46 18 46a26.618 26.618 0 002.31-2.95z" fill="#000"/><path d="M331.84 252.33a2.57 2.57 0 10-.001-5.141 2.57 2.57 0 00.001 5.141z" fill="#37474F"/><path d="M251.4 252.26c20.589 0 37.28-9.635 37.28-21.52s-16.691-21.52-37.28-21.52c-20.589 0-37.28 9.635-37.28 21.52s16.691 21.52 37.28 21.52z" class="svg-primary-color" fill="#999"/><path opacity=".5" d="M251.4 252.26c20.589 0 37.28-9.635 37.28-21.52s-16.691-21.52-37.28-21.52c-20.589 0-37.28 9.635-37.28 21.52s16.691 21.52 37.28 21.52z" fill="#fff"/><path opacity=".1" d="M225 215.52c-5.68 3.29-9.14 7.36-10.38 11.61 1 3.68 3.94 7.21 8.84 10 12.31 7.11 32.26 7.11 44.57 0 12.31-7.11 12.3-18.5.2-25.61-13.95-4.07-31.49-2.75-43.23 4z" fill="#000"/><path d="M300.33 273a7.567 7.567 0 00-4.89-1.19 9.364 9.364 0 00-5.39 2.37c-.17.15-.33.31-.48.48a9.202 9.202 0 00-4.94 3.26 6.998 6.998 0 00-1.34 2.86 5.437 5.437 0 00-1.2 2.71 6.108 6.108 0 001.27 4.38 9.337 9.337 0 006.65 3.62c.51-.5 1-1 1.45-1.51a8.12 8.12 0 01-5.34-1.55 5.666 5.666 0 01-2.62-4.76v.1a6.898 6.898 0 004 3.82 5.005 5.005 0 005.2-.71 4.216 4.216 0 001-1.38c.313.02.627.02.94 0a4.715 4.715 0 004.32-2.25 5.74 5.74 0 00.13-4.79 6.004 6.004 0 00-2.51-2.93 7.222 7.222 0 00-1.18-.59 9.394 9.394 0 00-3.64-.64 8.26 8.26 0 014-1.54 8.544 8.544 0 012.32.05 7.14 7.14 0 012.07.66c.42.21.45-.31.18-.47zm-14.81 5.9a7.769 7.769 0 012.9-2.5 7.248 7.248 0 00-.6 1.86 8.172 8.172 0 00-2.41.82c.032-.073.069-.143.11-.21v.03zm3.41 7.59a5.672 5.672 0 01-3.66-2.45 4.215 4.215 0 01-.65-2.77 5.858 5.858 0 013.1-1.69 5.684 5.684 0 001.8 4.12 7.22 7.22 0 002.72 1.49 3.077 3.077 0 01-3.31 1.27v.03zm2-3.47a4.596 4.596 0 01-1.74-3.51 3.5 3.5 0 012.52 1.36 4.56 4.56 0 011 3 5.989 5.989 0 01-1.82-.87l.04.02zm3.33-7.09a5.662 5.662 0 012.58 1.52c.31.309.566.667.76 1.06a4.996 4.996 0 01.42 3.64 2.943 2.943 0 01-2.62 2 5.31 5.31 0 01-1.26 0 5.392 5.392 0 00-.2-2.31 5.15 5.15 0 00-3.58-3.57 6.32 6.32 0 00-1.07-.14 6.004 6.004 0 011.08-2.43 7.996 7.996 0 013.85.2l.04.03z" class="svg-primary-color" fill="#999"/><path opacity=".5" d="M300.33 273a7.567 7.567 0 00-4.89-1.19 9.364 9.364 0 00-5.39 2.37c-.17.15-.33.31-.48.48a9.202 9.202 0 00-4.94 3.26 6.998 6.998 0 00-1.34 2.86 5.437 5.437 0 00-1.2 2.71 6.108 6.108 0 001.27 4.38 9.337 9.337 0 006.65 3.62c.51-.5 1-1 1.45-1.51a8.12 8.12 0 01-5.34-1.55 5.666 5.666 0 01-2.62-4.76v.1a6.898 6.898 0 004 3.82 5.005 5.005 0 005.2-.71 4.216 4.216 0 001-1.38c.313.02.627.02.94 0a4.715 4.715 0 004.32-2.25 5.74 5.74 0 00.13-4.79 6.004 6.004 0 00-2.51-2.93 7.222 7.222 0 00-1.18-.59 9.394 9.394 0 00-3.64-.64 8.26 8.26 0 014-1.54 8.544 8.544 0 012.32.05 7.14 7.14 0 012.07.66c.42.21.45-.31.18-.47zm-14.81 5.9a7.769 7.769 0 012.9-2.5 7.248 7.248 0 00-.6 1.86 8.172 8.172 0 00-2.41.82c.032-.073.069-.143.11-.21v.03zm3.41 7.59a5.672 5.672 0 01-3.66-2.45 4.215 4.215 0 01-.65-2.77 5.858 5.858 0 013.1-1.69 5.684 5.684 0 001.8 4.12 7.22 7.22 0 002.72 1.49 3.077 3.077 0 01-3.31 1.27v.03zm2-3.47a4.596 4.596 0 01-1.74-3.51 3.5 3.5 0 012.52 1.36 4.56 4.56 0 011 3 5.989 5.989 0 01-1.82-.87l.04.02zm3.33-7.09a5.662 5.662 0 012.58 1.52c.31.309.566.667.76 1.06a4.996 4.996 0 01.42 3.64 2.943 2.943 0 01-2.62 2 5.31 5.31 0 01-1.26 0 5.392 5.392 0 00-.2-2.31 5.15 5.15 0 00-3.58-3.57 6.32 6.32 0 00-1.07-.14 6.004 6.004 0 011.08-2.43 7.996 7.996 0 013.85.2l.04.03z" fill="#fff"/><path opacity=".15" d="M282.12 283.33c.32.838.893 1.554 1.64 2.05a4.314 4.314 0 01-.26-1.74v.1a7.674 7.674 0 01-.24-3 5.45 5.45 0 00-1.14 2.59zM285 280.88a6.24 6.24 0 01.39-1.83 4.669 4.669 0 00-.79 2.19c.126-.128.26-.248.4-.36zM287.19 277.15a7.238 7.238 0 011.23-.78 6.676 6.676 0 011.15-1.74 9.341 9.341 0 00-1 .34 4.93 4.93 0 00-1.38 2.18zM287.82 278.23c-.189.03-.375.07-.56.12-.113.457-.19.921-.23 1.39.23-.07.46-.14.69-.19a4.37 4.37 0 01.1-1.32zM293.72 285.47a14.957 14.957 0 01-1.48-.31 2.88 2.88 0 01-.58.67c.434.29.925.485 1.44.57.242-.285.45-.597.62-.93zM291.78 274.32c-.523.423-1.008.892-1.45 1.4.18 0 .36-.05.53-.08.27-.465.577-.906.92-1.32zM289.15 279.48l.3.06a4.432 4.432 0 010-1.37h-.2a6.462 6.462 0 00-.1 1.31zM294.15 283.61a4.562 4.562 0 01-1.52 0c.005.09.005.18 0 .27.473.156.963.253 1.46.29.03-.186.05-.373.06-.56z" fill="#000"/><path d="M231.67 268.64c0 2.8-.94 4.8-2.47 5.81-.388.208-.789.392-1.2.55a13 13 0 01-17.73-12.12 12.948 12.948 0 015.12-10.33.161.161 0 01.039-.057.152.152 0 01.061-.033c.16-.11.3-.22.46-.32 1.65-1 3.94-.82 6.48.64 5.13 2.89 9.24 10 9.24 15.86z" class="svg-primary-color" fill="#999"/><path opacity=".25" d="M231.67 268.64c0 2.8-.94 4.8-2.47 5.81-.388.208-.789.392-1.2.55a13 13 0 01-17.73-12.12 12.948 12.948 0 015.12-10.33.161.161 0 01.039-.057.152.152 0 01.061-.033c.16-.11.3-.22.46-.32 1.65-1 3.94-.82 6.48.64 5.13 2.89 9.24 10 9.24 15.86z" fill="#000"/><path opacity=".1" d="M231.67 268.64c0-4.52-2.45-9.78-5.9-13.3 2.57 3.22 5 11.43 1.86 15.62-3.14 4.19-14.72 1.81-17-5.07a12.996 12.996 0 0011.925 9.977A12.994 12.994 0 00228 275c.407-.155.805-.336 1.19-.54 1.54-1.02 2.48-3.02 2.48-5.82z" fill="#000"/><path d="M216.48 348.39a13.355 13.355 0 00-.13 5.79c.16.8 1 1.46 1.37 1.07l7.9-8.1 6.34 1.57 1.81 6.29-8.27 8.49c-.31.32-.27.65.05.74l.59.16a13.214 13.214 0 0016.052-15.728 13.213 13.213 0 00-4.672-7.442l10.39-43.31a13.228 13.228 0 0010.35-15.54c-.17-.81-1-1.47-1.38-1.08l-7.9 8.1-6.34-1.57-1.81-6.29 8.27-8.5c.3-.3.26-.65 0-.74l-.59-.16a13.214 13.214 0 00-15.041 6.999 13.213 13.213 0 003.661 16.181l-10.39 43.31a13.197 13.197 0 00-10.26 9.76z" class="svg-primary-color" fill="#999"/><path opacity=".8" d="M216.48 348.39a13.355 13.355 0 00-.13 5.79c.16.8 1 1.46 1.37 1.07l7.9-8.1 6.34 1.57 1.81 6.29-8.27 8.49c-.31.32-.27.65.05.74l.59.16a13.214 13.214 0 0016.052-15.728 13.213 13.213 0 00-4.672-7.442l10.39-43.31a13.228 13.228 0 0010.35-15.54c-.17-.81-1-1.47-1.38-1.08l-7.9 8.1-6.34-1.57-1.81-6.29 8.27-8.5c.3-.3.26-.65 0-.74l-.59-.16a13.214 13.214 0 00-15.041 6.999 13.213 13.213 0 003.661 16.181l-10.39 43.31a13.197 13.197 0 00-10.26 9.76z" fill="#fff"/><path d="M243.12 315.63a6.447 6.447 0 01-6.45.71 7 7 0 01-3.84-3.31l-5.44 22.68a12.83 12.83 0 0011.22 1l4.94-20.61c-.14-.16-.28-.32-.43-.47z" class="svg-primary-color" fill="#999"/><path opacity=".05" d="M243.12 315.63a6.447 6.447 0 01-6.45.71 7 7 0 01-3.84-3.31l-5.44 22.68a12.83 12.83 0 0011.22 1l4.94-20.61c-.14-.16-.28-.32-.43-.47z" fill="#000"/><path d="M223.26 319.09c-8.44.6-20.64-3.93-26.18-9.25-2.93-2.83-3.57-6.79-2-12.49 3.05-11 16.24-26.21 22.5-29.16a1.935 1.935 0 00.91-1.86 6.255 6.255 0 00-2.84-4.91 2.007 2.007 0 00-1.95-.22c-8.72 4.11-23.31 21.47-26.87 34.29-2.39 8.6-1 15.47 4.15 20.41 6.65 6.39 20.18 11.29 30.64 11.29.75 0 1.5 0 2.22-.08l-.58-8.02z" fill="#455A64"/><path d="M210.62 274.25a.597.597 0 01-.557-.377.599.599 0 01-.043-.233 4.725 4.725 0 00-1.92-3.46 4.668 4.668 0 00-3.62-1.25.612.612 0 01-.62-.253.617.617 0 01-.09-.217.61.61 0 01.47-.71 6.59 6.59 0 017 5.9.59.59 0 01-.183.431.602.602 0 01-.437.169zM205.64 279.75a.597.597 0 01-.57-.4c-.82-2.27-4.35-4.32-6.52-3.79a.6.6 0 01-.741-.675.606.606 0 01.451-.495c2.76-.68 6.92 1.71 7.94 4.55a.606.606 0 01-.016.462.607.607 0 01-.544.348zM200.19 287.25a.61.61 0 01-.337-.099.609.609 0 01-.223-.271 6.44 6.44 0 00-6.64-3.57.586.586 0 01-.456-.08.587.587 0 01-.264-.38.61.61 0 01.45-.72 7.574 7.574 0 018 4.3.606.606 0 01-.008.461.6.6 0 01-.522.359zM196.24 294.7a.597.597 0 01-.57-.4c-.26-.69-1.65-1.42-3.24-1.68-1.59-.26-3.49-.12-4.42 1a.602.602 0 01-.85.09.605.605 0 01-.213-.409.606.606 0 01.133-.441c1.06-1.31 3.13-1.85 5.55-1.45 1.6.26 3.66 1.07 4.17 2.46a.586.586 0 01-.15.649.602.602 0 01-.2.121.518.518 0 01-.21.06zM185.73 304.67a.67.67 0 01-.2 0 .611.611 0 01-.37-.77c.77-2.18 3.5-3.26 5.87-3.35 1.91-.08 3.33.48 3.78 1.5a.606.606 0 01-.107.663.596.596 0 01-.193.137.623.623 0 01-.8-.31c-.23-.52-1.3-.84-2.63-.79-2 .08-4.23 1-4.78 2.55a.6.6 0 01-.57.37zM188.91 314.1a.593.593 0 01-.41-.211.6.6 0 01-.14-.439c.24-2.65 2.89-4.31 5.08-4.93.65-.18 2.83-.69 3.62.37a.616.616 0 11-1 .72c-.11-.15-.95-.32-2.38.09-1.8.52-4 1.84-4.15 3.86a.6.6 0 01-.62.54zM197.37 321.09a.609.609 0 01-.54-.33 4.801 4.801 0 01.91-5.42c1.48-1.71 3.66-2.58 5.2-2.07a.613.613 0 01.327.752.606.606 0 01-.282.337.604.604 0 01-.435.061c-1.05-.36-2.77.39-3.9 1.71a3.706 3.706 0 00-1.001 1.925 3.706 3.706 0 00.251 2.155.613.613 0 01.038.459.6.6 0 01-.298.351.53.53 0 01-.27.07zM205.51 324.75a.608.608 0 01-.55-.37 6.624 6.624 0 01.77-5.88 4.59 4.59 0 011.354-1.601 4.592 4.592 0 011.926-.829.59.59 0 01.433.154.6.6 0 01.197.416.595.595 0 01-.341.576.605.605 0 01-.229.054 3.625 3.625 0 00-2.32 1.87 5.407 5.407 0 00-.68 4.77.608.608 0 01.005.462.6.6 0 01-.325.328.682.682 0 01-.24.05zM213.75 327a.606.606 0 01-.54-.34 7.306 7.306 0 01-.548-2.883 7.303 7.303 0 01.628-2.867 4.86 4.86 0 012.6-2.86.596.596 0 01.825.594.603.603 0 01-.425.536 3.8 3.8 0 00-1.89 2.19 6.176 6.176 0 00-.1 4.77.599.599 0 01-.29.8.587.587 0 01-.26.06z" fill="#37474F"/><path opacity=".15" d="M188.16 297.57c2.84-12.78 13.43-23.57 18.94-28.74 3.54-3.3 7.53-5.41 10.24-5.82a5.426 5.426 0 00-1.68-1.6 2.007 2.007 0 00-1.95-.22c-8.72 4.11-23.31 21.47-26.87 34.29-2.39 8.6-1 15.47 4.15 20.41.01-.01-5.66-5.53-2.83-18.32z" fill="#000"/><path opacity=".15" d="M223.26 319.09c-8.44.6-20.64-3.93-26.18-9.25a9.002 9.002 0 01-2.66-5h-.16c.65 4.08 1.17 8.9 12.84 13.57a38 38 0 0016.31 2.7l-.15-2.02z" fill="#000"/><path d="M228.6 312.15c-.35-3.61.13-7.73 1.69-10.25 1.56-2.52 4.09-4.25 5.28-2.18.8 1.38-.89 3.49-1.68 6.08a11.705 11.705 0 00-.17 4.78l-5.12 1.57z" fill="#455A64"/><path opacity=".15" d="M233.89 305.8c.79-2.59 2.48-4.7 1.68-6.08a1.692 1.692 0 00-1-.84c.68.93-.92 2.67-2.05 4.9a14.095 14.095 0 00-1 7.47l2.2-.67a11.705 11.705 0 01.17-4.78z" fill="#000"/><path d="M247.6 325.38a12.853 12.853 0 01-9.298 9.602 12.847 12.847 0 01-15.25-16.993 12.854 12.854 0 0110.548-8.209c.13 1.67 2 3.68 4.11 4.44a6.45 6.45 0 006.45-.72 12.85 12.85 0 013.245 5.498c.601 2.077.668 4.272.195 6.382z" class="svg-primary-color" fill="#999"/><path d="M247.6 325.38a12.853 12.853 0 01-9.298 9.602 12.847 12.847 0 01-15.25-16.993 12.854 12.854 0 0110.548-8.209c.13 1.67 2 3.68 4.11 4.44a6.45 6.45 0 006.45-.72 12.85 12.85 0 013.245 5.498c.601 2.077.668 4.272.195 6.382z" class="svg-primary-color" fill="#999"/><path opacity=".1" d="M247.6 325.38c.098-.429.172-.863.22-1.3-1.77 3.57-6.06 8.54-14.57 7.08-8.74-1.5-10.55-12-9.41-14.83a12.445 12.445 0 00-1.31 3.43 12.858 12.858 0 001.528 9.863 12.852 12.852 0 0017.95 4.024 12.852 12.852 0 005.592-8.267z" fill="#000"/><path d="M247.67 320c4.38-1.77 5.82-5.78 5.14-9.84-.68-4.06-6.49-5.65-6.49-5.65l-1.12 4.68s2.86 1.07 2.72 3.07a4.209 4.209 0 01-.765 1.76 4.205 4.205 0 01-1.465 1.24 3.503 3.503 0 00-.041 2.801A3.507 3.507 0 00247.67 320z" fill="#455A64"/><path opacity=".15" d="M246.32 304.55l-1.12 4.68s2.86 1.07 2.72 3.07a4.209 4.209 0 01-.765 1.76 4.205 4.205 0 01-1.465 1.24 3.5 3.5 0 00.88 4c-.46-1.57.54-2.33 2.1-4s.94-4.49-.06-6.26a5.092 5.092 0 01-.3-3.77 12.441 12.441 0 00-1.99-.72z" fill="#000"/><path d="M247.09 327.09c3.41 1 7.53-.39 8.08-3.17.55-2.78-.37-5.08-3.59-7a8.448 8.448 0 01-3.91 3.08l.21 1.5a4.832 4.832 0 00-.79 5.59z" fill="#455A64"/><path opacity=".15" d="M251.58 317a8.448 8.448 0 01-3.91 3.08l.21 1.5h4.17s-1.08-.35-.77-1.06c.31-.71 2.06-.44 2.91.66a3.755 3.755 0 01.22 4.31c.381-.436.643-.963.76-1.53.56-2.82-.37-5.12-3.59-6.96z" fill="#000"/><path d="M242.46 333.08a14 14 0 004.57 2.7c1.31.49 3.6.52 4.83-.79s.38-2.76-.54-3.41a30.552 30.552 0 00-5-2.8s-3.56 0-3.86 4.3z" fill="#455A64"/><path opacity=".15" d="M251.32 331.58a30.552 30.552 0 00-5-2.8 3.993 3.993 0 00-2.94 1.54c.75-.75 3.26.64 5.31 1.88 2.05 1.24 3.66 1.94 2.82 3.08.123-.088.24-.185.35-.29 1.31-1.42.38-2.76-.54-3.41z" fill="#000"/><path d="M345.49 230a2.78 2.78 0 001.48-3.45c-.83-2.41-3.74-3.12-3.74-3.12s-5.39-1.49-9.5 1-4.17 7.7-4.05 9.37a2.348 2.348 0 003.584 1.709c.45-.282.79-.709.966-1.209.95-2.05.94-4.89 4.37-5.89 2.83-.84 5.21 2.33 6.89 1.59z" fill="#455A64"/><path opacity=".15" d="M343.84 227.82c-2.86-1.17-5.92-2.7-8.35 0-2.43 2.7-1.93 5.34-2.94 6.45-1.01 1.11-2.22.92-2.76 0a2.35 2.35 0 004.44 0c.95-2.05.94-4.89 4.37-5.89 2.83-.82 5.21 2.35 6.89 1.61a2.78 2.78 0 001.48-3.45c.03 1.22-.89 2.19-3.13 1.28z" fill="#000"/><path d="M351.06 241.68a2.108 2.108 0 012.59-.22 2.765 2.765 0 011.66 2.31s.15 3.54-3.69 7.17a11.205 11.205 0 01-9 2.79c-2.52-.68-2.95-3.52 0-4.16 2.21-.48 4.16-.43 6.53-3.09 1.45-1.64 1.45-3.81 1.91-4.8z" fill="#455A64"/><path opacity=".15" d="M350.11 249.76c-3.89 3-6.28 2.65-7.73 2.29-1.45-.36-1.43-1.76-.82-2.07-1.7 1-1.09 3.17 1.07 3.75a11.205 11.205 0 009-2.79c3.84-3.63 3.69-7.17 3.69-7.17a2.765 2.765 0 00-1.66-2.31c.72.95.62 5.15-3.55 8.3z" fill="#000"/><path d="M347.28 231.6a3.995 3.995 0 013.64 2c1.92 2.91-.34 4.13-.34 4.13-1.49.18-3.37-.76-6.42.45-3.79 1.5-4.21 4.38-5.1 6.65-1 2.52-4.85 1.15-4.22-2.78.63-3.93 2.25-6.47 4.82-8.13a14.515 14.515 0 017.62-2.32z" fill="#455A64"/><path opacity=".15" d="M348.53 235.44c-2.67-.14-6.64.27-8.44 3.14-1.21 1.94-1.51 4.65-2.57 5.45a1.678 1.678 0 01-2.74-1.05c.06 3.21 3.38 4.17 4.28 1.86.9-2.31 1.31-5.15 5.1-6.65 3-1.21 4.93-.27 6.42-.45 0 0 2.06-1.12.56-3.77.42 1.03.05 1.62-2.61 1.47z" fill="#000"/><path d="M280.45 322.5a5.999 5.999 0 00-6.433-1.768 5.988 5.988 0 00-3.475 3.008 6.014 6.014 0 00-.33 4.583 5.988 5.988 0 001.158 2.037l38.34 44.37 9.1-7.86-38.36-44.37z" fill="#455A64"/><path d="M277.26 337.77a.637.637 0 01-.46-.2 6.606 6.606 0 01-1.711-4.845 6.617 6.617 0 014.561-5.894 6.602 6.602 0 015.12.441c.78.412 1.471.975 2.03 1.658a.598.598 0 01-.045.868.6.6 0 01-.865-.088 5.411 5.411 0 00-9.629 3.088 5.41 5.41 0 001.449 3.982.603.603 0 01-.06.85.57.57 0 01-.39.14zM283.77 345.31a.596.596 0 01-.46-.21 6.606 6.606 0 01-1.711-4.845 6.617 6.617 0 014.561-5.894 6.602 6.602 0 015.12.441c.78.412 1.471.975 2.03 1.658a.603.603 0 01-.91.79 5.41 5.41 0 00-3.694-1.858 5.397 5.397 0 00-5.222 2.96 5.4 5.4 0 00.736 5.958.603.603 0 01-.45 1zM290.28 352.84a.637.637 0 01-.46-.2 6.597 6.597 0 01-1.345-2.25 6.598 6.598 0 01.307-5.129A6.608 6.608 0 01299.82 344a.6.6 0 01-.91.78 5.411 5.411 0 00-9.629 3.088 5.409 5.409 0 001.449 3.982.603.603 0 01-.06.85.57.57 0 01-.39.14zM296.79 360.38a.596.596 0 01-.46-.21 6.606 6.606 0 01-1.711-4.846 6.616 6.616 0 014.561-5.893 6.604 6.604 0 015.12.441c.78.412 1.471.975 2.03 1.658a.603.603 0 11-.91.79 5.399 5.399 0 00-7.62-.56 5.4 5.4 0 00-.56 7.62.603.603 0 01-.45 1zM303.3 367.91a.596.596 0 01-.46-.21 6.606 6.606 0 01-1.711-4.845 6.617 6.617 0 014.561-5.894 6.602 6.602 0 015.12.441c.78.412 1.471.975 2.03 1.658a.603.603 0 11-.91.79 5.411 5.411 0 00-9.629 3.088 5.409 5.409 0 001.449 3.982.603.603 0 01-.06.85.623.623 0 01-.39.14z" fill="#37474F"/><path opacity=".15" d="M275.9 320.42a5.995 5.995 0 00-5.473 3.507 6.002 6.002 0 00.933 6.433l38.34 44.37 3.78-3.27c-11.71-13.11-30.71-34.39-35.83-40.22-7.56-8.6-4.48-10.17-1.75-10.82z" fill="#000"/><path d="M380.27 372.91s-11.22-9.79-20.21-3.39a67.535 67.535 0 00-14.4 14l-24.22-21.41c-1.49-1.29-4.09-1.32-6.66.16-4.5 2.6-8.14 8.91-8.14 14.1a7 7 0 001.12 4.1s26.63 37.23 31.16 43c4.53 5.77 10.28 8.8 18 5.28 7.72-3.52 10-13.6 10.93-20.41.93-6.81 9.65-16.36 12-22.47 2.45-6.68 1.86-10.71.42-12.96z" class="svg-primary-color" fill="#999"/><path opacity=".15" d="M371.52 370.22c-4.29.36-14.58 5.68-17.59 17a93.111 93.111 0 01-4.2 12.72 29.431 29.431 0 01-5.66 8.42c-3.55 3.77-7.8 1.2-11.48-1.85-3.68-3.05-14.08-16.72-17.59-22.61-2.57-4.26-3.38-7.49-2.68-10.59.24.32.49.63.74.91 3.46 3.84 10.07 7 15.11 3.15 2.46-1.87 2.66-4.82 1.85-7.74l-8.54-7.55c-1.49-1.29-4.09-1.32-6.66.16-.27.16-.53.33-.79.5l-.27.2-.49.37-.32.27-.42.37-.34.32-.36.36-.35.37-.32.37c-.12.13-.24.27-.35.41l-.28.36c-.12.15-.24.31-.35.47-.11.16-.15.21-.22.31a17.34 17.34 0 00-3.28 9.42 7 7 0 001.12 4.1s26.63 37.23 31.16 43c4.53 5.77 10.28 8.8 18 5.28 7.72-3.52 10-13.6 10.93-20.41.68-5 5.62-11.55 9.09-17.08l-5.46-21.01z" fill="#000"/><path d="M379.77 385.84c2.53-6.65 1.94-10.68.5-12.93a27.146 27.146 0 00-4.74-3.15c-6.19-.79-13.79 6.47-16.6 11.12-2.81 4.65-4.32 10.27-6.35 17.77-1.8 6.65-6.31 10.36-8.87 16.61-1.86 4.54-2.28 8-1 12 3.86 3 8.49 4 14.19 1.43 7.67-3.51 10-13.6 10.93-20.41.93-6.81 9.62-16.28 11.94-22.44z" fill="#455A64"/><path d="M360.72 383.49c-4 7.13-4.8 17-8.18 22.77s-8.5 12.16-7.91 17.7c.38 3.62 1.65 5.52 4 6.09 1.282.205 2.588.205 3.87 0l.52-.1a16.769 16.769 0 003.83-1.25c7.67-3.51 10-13.6 10.93-20.41.93-6.81 9.65-16.36 12-22.47 2.53-6.65 1.94-10.68.5-12.93-4.9-3.14-14.28 1.2-19.56 10.6z" fill="#37474F"/><path opacity=".15" d="M344.07 382.09c-5.35 5.13-6.79 13-6.79 13a118.96 118.96 0 018.38-11.59l-1.59-1.41z" fill="#000"/><path d="M354.54 401.67c-.15.43-.3.84-.45 1.25l16.73-2.13c.24-.42.49-.85.75-1.28l-17.03 2.16zM351.67 407.7c-.26.433-.53.863-.81 1.29l17.27-2.19c.11-.41.24-.82.39-1.24l-16.85 2.14zM345.21 426.7l16.79-2.14c.34-.42.65-.86 1-1.31l-18.09 2.3c.08.388.18.772.3 1.15zM345.09 419.86c-.12.407-.22.817-.3 1.23l20.6-2.62c.16-.41.3-.83.44-1.25l-20.74 2.64zM347.86 413.85c-.25.42-.49.85-.72 1.28l19.93-2.54c.09-.41.17-.81.24-1.22l-19.45 2.48zM365.08 377.69c-.42.42-.83.87-1.24 1.34l17.62-2.24a10.453 10.453 0 00-.15-1.17l-16.23 2.07zM360.49 383.93c-.23.42-.44.84-.65 1.27l21-2.67c.11-.42.21-.83.29-1.22l-20.64 2.62zM358 389.91c-.13.41-.27.82-.39 1.24l20.9-2.66c.24-.44.46-.86.66-1.27L358 389.91zM356.28 395.79c-.12.41-.23.83-.34 1.23l18.74-2.38.85-1.3-19.25 2.45z" fill="#263238"/><path d="M313.08 357c-5.55 3.83-2.81 11.88.65 15.73 3.46 3.85 10.07 7 15.11 3.14 4.63-3.52 1.28-10.89-1.84-14.65-3.26-3.98-9.54-7.28-13.92-4.22z" class="svg-primary-color" fill="#999"/><path opacity=".7" d="M313.08 357c-5.55 3.83-2.81 11.88.65 15.73 3.46 3.85 10.07 7 15.11 3.14 4.63-3.52 1.28-10.89-1.84-14.65-3.26-3.98-9.54-7.28-13.92-4.22z" fill="#fff"/><path d="M331.11 371c-.39 2.73-4.57 6.27-11.62.82-7.05-5.45-7.21-13.61-4.89-15.61a6.984 6.984 0 00-1.52.77c-5.55 3.83-2.81 11.88.65 15.73 3.46 3.85 10.06 7 15.11 3.14a5.805 5.805 0 002.27-4.85z" class="svg-primary-color" fill="#999"/><path opacity=".05" d="M331.11 371c-.39 2.73-4.57 6.27-11.62.82-7.05-5.45-7.21-13.61-4.89-15.61a6.984 6.984 0 00-1.52.77c-5.55 3.83-2.81 11.88.65 15.73 3.46 3.85 10.06 7 15.11 3.14a5.805 5.805 0 002.27-4.85z" fill="#000"/><path d="M258.89 228.39v-24.52h-15v24.52a3.71 3.71 0 002.19 3.06 11.703 11.703 0 0010.6 0 3.713 3.713 0 002.21-3.06z" fill="#455A64"/><path d="M251.4 228.52a11.385 11.385 0 01-5.55-1.32 4.22 4.22 0 01-2.45-3.51c0-.135.054-.265.149-.361a.514.514 0 01.722 0 .514.514 0 01.149.361 3.247 3.247 0 001.94 2.62 11.117 11.117 0 0010.08 0 3.247 3.247 0 001.94-2.62.519.519 0 011 0 4.227 4.227 0 01-2.38 3.51 11.452 11.452 0 01-5.6 1.32z" fill="#37474F"/><path d="M251.4 223.82a11.385 11.385 0 01-5.55-1.32 4.224 4.224 0 01-2.45-3.5.515.515 0 01.313-.48.5.5 0 01.561.113.499.499 0 01.146.367 3.258 3.258 0 001.94 2.61 11.117 11.117 0 0010.08 0 3.247 3.247 0 001.94-2.62.519.519 0 011 0 4.227 4.227 0 01-2.38 3.51 11.452 11.452 0 01-5.6 1.32z" fill="#37474F"/><path d="M251.4 219.12a11.385 11.385 0 01-5.55-1.32 4.224 4.224 0 01-2.45-3.5.515.515 0 01.313-.48.5.5 0 01.561.113.499.499 0 01.146.367 3.258 3.258 0 001.94 2.61 11.117 11.117 0 0010.08 0 3.247 3.247 0 001.94-2.62.519.519 0 011 0 4.227 4.227 0 01-2.38 3.51 11.452 11.452 0 01-5.6 1.32z" fill="#37474F"/><path opacity=".15" d="M247.14 203.87h-3.23v24.52a3.71 3.71 0 002.19 3.06c.32.189.654.353 1 .49v-16.05a45.116 45.116 0 0011.79 1.11v-13.13h-11.75z" fill="#000"/><path d="M220.37 168.12c0-18.57 15-30.57 33.62-30.57 18.62 0 33.61 12 33.61 30.57v20.32S280.91 199 254 199s-33.62-10-33.62-10l-.01-20.88z" class="svg-primary-color" fill="#999"/><path opacity=".2" d="M259.33 144.05a3.46 3.46 0 00-1.88 1.9 2.631 2.631 0 00.78 2.44 7.24 7.24 0 002.28 1.38 77.245 77.245 0 0013.72 4.57c1.18.27 3.49 1.09 4.36 0 1-1.32.4-4-.95-5.72a13.642 13.642 0 00-8-5.42 14.003 14.003 0 00-10.31.85z" fill="#fff"/><path opacity=".2" d="M287.6 175.64s-1.88 10.18-15.2 15.15c-13.32 4.97-27.78 3.39-36.62 1.16 0 0 18.92 9.23 38.45.37 17.09-7.75 13.37-16.68 13.37-16.68z" fill="#000"/><path opacity=".15" d="M265.61 139.24a40.01 40.01 0 00-11.61-1.69c-18.57 0-33.62 12-33.62 30.57v20.81s2.75 4.1 11.76 7.06c-1.41-13.51-3.22-30.75 2.16-41.3 6.14-12.05 23.23-17.8 31.31-15.45z" fill="#000"/><path d="M253 181.92a5.004 5.004 0 01-3.536-1.464A5.004 5.004 0 01248 176.92v-2.31c0-1.326.527-2.598 1.464-3.536a5.004 5.004 0 017.072 0A5.004 5.004 0 01258 174.61v2.31a5.004 5.004 0 01-1.464 3.536A5.004 5.004 0 01253 181.92zM278 173.93c-2.37.88-3.62-.22-4.07-1.45a13.106 13.106 0 01-.31-5 6.483 6.483 0 013.57-5.38 2.845 2.845 0 012.518-.229 2.846 2.846 0 011.702 1.869c.317 1.474.401 2.989.25 4.49-.12 1.92-1.31 4.68-3.66 5.7z" fill="#DED5E6"/><path d="M291.08 174.34a5.77 5.77 0 00-3.48-1.72v3c0 5-3.28 9.94-9.84 13.73-11.41 6.58-29 7.44-42 2.58v-1a13.591 13.591 0 00-6.16-10.66c-3.4-2-6.15-.38-6.15 3.55a12.997 12.997 0 01-3.1-8.15c-1.15 0-2.67.62-2.67 5 0 5.45-.27 11.57 4.9 18.32 8.35 10.91 30.31 20.53 49.21 13 20.15-8 20.26-23.13 20.26-29.27.02-4.57.38-6.83-.97-8.38z" class="svg-primary-color" fill="#999"/><path opacity=".1" d="M291.08 174.34a5.77 5.77 0 00-3.48-1.72v3c0 5-3.28 9.94-9.84 13.73-11.41 6.58-29 7.44-42 2.58v-1a13.591 13.591 0 00-6.16-10.66c-3.4-2-6.15-.38-6.15 3.55a12.997 12.997 0 01-3.1-8.15c-1.15 0-2.67.62-2.67 5 0 5.45-.27 11.57 4.9 18.32 8.35 10.91 30.31 20.53 49.21 13 20.15-8 20.26-23.13 20.26-29.27.02-4.57.38-6.83-.97-8.38z" fill="#000"/><path opacity=".15" d="M260.19 213.09c-22.25-.34-33-11.9-35.78-17.1-2.78-5.2-2.56-10.53-.94-9.84v-2.36a12.999 12.999 0 01-3.1-8.15c-1.15 0-2.67.62-2.67 5 0 5.45-.27 11.57 4.9 18.32 8.35 10.91 30.31 20.53 49.21 13a36.154 36.154 0 0012.47-7.88c-5.12 3.86-13.37 9.17-24.09 9.01z" fill="#000"/><path opacity=".2" d="M230.59 180.89c2.11 1.64 3.7 5.12 3.7 11.93l1.49-.87v-1a13.799 13.799 0 00-5.19-10.06z" fill="#000"/><path d="M287.6 175.64c0 5-3.28 9.94-9.84 13.73-11.41 6.58-29 7.44-42 2.58l-1.49.87s18.2 10 38.74 1.88c19.17-7.55 18.76-17.76 18.05-20.36a5.77 5.77 0 00-3.48-1.72l.02 3.02z" class="svg-primary-color" fill="#999"/><path opacity=".6" d="M287.6 175.64c0 5-3.28 9.94-9.84 13.73-11.41 6.58-29 7.44-42 2.58l-1.49.87s18.2 10 38.74 1.88c19.17-7.55 18.76-17.76 18.05-20.36a5.77 5.77 0 00-3.48-1.72l.02 3.02z" fill="#fff"/><path d="M228.74 183.62a5.622 5.622 0 012.54 4.4c0 1.62-1.14 2.28-2.54 1.47a5.612 5.612 0 01-1.798-1.895 5.613 5.613 0 01-.742-2.505c0-1.62 1.13-2.28 2.54-1.47z" fill="#37474F"/><path d="M228.74 183.62a2.195 2.195 0 00-1.25-.33 2.102 2.102 0 00-.4 1.34c.048.881.303 1.739.745 2.503a5.61 5.61 0 001.795 1.897c.374.233.81.348 1.25.33.283-.388.424-.861.4-1.34a5.62 5.62 0 00-2.54-4.4z" fill="#455A64"/><path d="M223.47 183.79a12.999 12.999 0 01-3.1-8.15 2.097 2.097 0 00-.818.138c-.261.099-.5.249-.702.442a6.532 6.532 0 00.36 5 10.223 10.223 0 004.26 4.92 13.365 13.365 0 010-2.35z" class="svg-primary-color" fill="#999"/><path opacity=".5" d="M223.47 183.79a12.999 12.999 0 01-3.1-8.15 2.097 2.097 0 00-.818.138c-.261.099-.5.249-.702.442a6.532 6.532 0 00.36 5 10.223 10.223 0 004.26 4.92 13.365 13.365 0 010-2.35z" fill="#fff"/><path d="M250.17 144.19v-18h-4.39v18a1.112 1.112 0 00.65.9 3.45 3.45 0 003.1 0 1.122 1.122 0 00.64-.9z" fill="#455A64"/><path opacity=".15" d="M245.78 129.23a8.09 8.09 0 002.16.3 8.243 8.243 0 002.23-.32v-3.07h-4.39v3.09z" fill="#000"/><path d="M247.94 127.56a8.14 8.14 0 008.14-8.14 8.14 8.14 0 00-8.14-8.14 8.14 8.14 0 00-8.14 8.14 8.14 8.14 0 008.14 8.14z" class="svg-secondary-color" fill="#999"/><path opacity=".15" d="M247.94 123.68c-5.87-1-7.89-6.25-5.3-10.44a8.14 8.14 0 1013.44 6.18c-.35 2.58-2.93 5.18-8.14 4.26z" fill="#000"/><path opacity=".3" d="M247.62 116.68c1.283.363 2.496.938 3.59 1.7.69.47 1.79 1.18 2.58.47s.58-2 .28-2.81a5.18 5.18 0 00-2.1-2.45 5.518 5.518 0 00-3.87-.71c-.84.15-2.22.58-2.45 1.55-.23.97 1.07 1.99 1.97 2.25z" fill="#fff"/><path d="M248 105.57a.997.997 0 01-1-1v-7a.998.998 0 011.707-.707.998.998 0 01.293.707v7a.997.997 0 01-1 1zM255.39 107.58a1.006 1.006 0 01-.5-.13.995.995 0 01-.464-.61.992.992 0 01.104-.76L258 100a1.013 1.013 0 01.607-.497 1.003 1.003 0 011.079.36.999.999 0 01.044 1.137l-3.51 6.08a.998.998 0 01-.83.5zM260.81 113a1.005 1.005 0 01-.973-.742.999.999 0 01.473-1.128l6.09-3.51a.997.997 0 011.329.386 1 1 0 01-.329 1.344l-6.09 3.52a1.006 1.006 0 01-.5.13zM269.81 120.46h-7a1 1 0 110-2h7a.997.997 0 011 1 .997.997 0 01-1 1zM266.86 131.39a1 1 0 01-.5-.14l-6.09-3.51a1.011 1.011 0 01-.529-1.007.988.988 0 01.393-.679.99.99 0 01.762-.187c.133.022.26.071.374.143l6.08 3.51a1 1 0 01-.49 1.87zM229 131.32a.999.999 0 01-.5-1.87l6.08-3.51a1.005 1.005 0 111 1.74l-6.08 3.51a1.006 1.006 0 01-.5.13zM233.09 120.38h-7a1 1 0 110-2h7a.997.997 0 011 1 1 1 0 01-1 1zM235.1 113a1.006 1.006 0 01-.5-.13l-6.08-3.51a1.012 1.012 0 01-.469-.608 1.012 1.012 0 01.099-.762 1 1 0 01.999-.495.995.995 0 01.371.125l6.08 3.51a1 1 0 01-.5 1.87zM240.55 107.54a.995.995 0 01-.87-.5l-3.51-6.04a1.01 1.01 0 01-.127-.774.999.999 0 011.857-.226l3.52 6.08a1 1 0 01-.87 1.5v-.04z" fill="#E0E0E0"/></svg>