<svg xmlns="http://www.w3.org/2000/svg" width="60" height="60" fill="none">
<g transform="translate(0.000000,60.000000) scale(0.100000,-0.100000)"
fill="#999" stroke="none" class="svg-primary-color">
<path d="M185 556 c-104 -48 -165 -143 -165 -256 0 -158 122 -280 280 -280
158 0 280 122 280 280 0 158 -122 280 -280 280 -47 0 -79 -7 -115 -24z m303
-108 c17 -17 17 -229 0 -246 -17 -17 -359 -17 -376 0 -17 17 -17 229 0 246 17
17 359 17 376 0z m25 -283 c-4 -15 -425 -13 -430 2 -3 9 51 11 214 10 139 -1
217 -6 216 -12z"/>
<path d="M130 325 l0 -105 35 0 c30 0 35 3 35 24 0 27 33 56 62 56 17 0 18 1
2 25 -24 37 -6 75 36 75 42 0 60 -38 36 -75 -16 -24 -15 -25 2 -25 29 0 62
-29 62 -56 0 -21 5 -24 35 -24 l35 0 0 105 0 105 -170 0 -170 0 0 -105z"/>
</g>
</svg>
