<svg width="60" height="60" viewBox="0 0 60 60" fill="none" xmlns="http://www.w3.org/2000/svg">
<circle cx="30" cy="30" r="30" fill="#999" class="svg-secondary-color"/>
<path d="M43.5625 28.1875C43.8125 27.5 44 26.8125 44 26C44 22.6875 41.3125 20 38 20C36.75 20 35.5625 20.375 34.625 21.0625C32.9375 18.0625 29.6875 16 26 16C20.4375 16 16 20.5 16 26C16 26.1875 16 26.375 16 26.5625C12.5 27.75 10 31.125 10 35C10 40 14 44 19 44H42C46.375 44 50 40.4375 50 36C50 32.1875 47.25 28.9375 43.5625 28.1875ZM35.25 33.75L28.6875 40.3125C28.3125 40.6875 27.625 40.6875 27.25 40.3125L20.6875 33.75C20.0625 33.125 20.5 32 21.375 32H25.5V25C25.5 24.5 25.9375 24 26.5 24H29.5C30 24 30.5 24.5 30.5 25V32H34.5625C35.4375 32 35.875 33.125 35.25 33.75Z" fill="white"/>
</svg>
