<svg width="112" height="63" fill="none" xmlns="http://www.w3.org/2000/svg"><path d="M70 63h-2v-8h2v8zM76 63h-1.518v-3.367a.997.997 0 00-.285-.72.922.922 0 00-.679-.294.9.9 0 00-.679.294.99.99 0 00-.277.72V63H71v-5.844h1.525v.31A1.59 1.59 0 0173.694 57a2.053 2.053 0 011.62.774 2.8 2.8 0 01.65 1.866L76 63zM79.993 58.645h-.734V63h-1.525v-4.355H77v-1.667h.734V55h1.532v1.978H80l-.007 1.667zM83 58.62h-.28a1.034 1.034 0 00-.744.293.974.974 0 00-.304.72V63H80v-5.844h1.672v.31c.363-.317.84-.484 1.328-.464v1.617z" fill="#fff"/><path fill-rule="evenodd" clip-rule="evenodd" d="M87.425 62.846H89l-.015-5.687h-1.576v.399a2.005 2.005 0 00-1.567-.55 2.669 2.669 0 00-2.02.874 3.148 3.148 0 000 4.241c.519.572 1.262.889 2.035.867a1.983 1.983 0 001.568-.535v.392zm-1.147-4.229a1.416 1.416 0 011.147 1.382c.009.38-.141.746-.415 1.01a1.418 1.418 0 01-2.313-1.54 1.417 1.417 0 011.58-.852zM94.43 62.84H96L95.985 55h-1.57v2.347a1.987 1.987 0 00-1.578-.57 2.65 2.65 0 00-2.022.907 3.384 3.384 0 000 4.405c.522.592 1.265.92 2.038.9a1.95 1.95 0 001.577-.556v.407zm-.415-3.998c.269.274.419.65.415 1.04.005.394-.145.773-.415 1.049-.265.283-.631.44-1.011.43a1.328 1.328 0 01-1.004-.43 1.443 1.443 0 01-.415-1.048c0-.813.635-1.472 1.419-1.472.38-.008.746.148 1.011.43zM102.13 62.138c.568-.55.883-1.31.87-2.1a2.992 2.992 0 00-2.208-2.932 3.005 3.005 0 00-3.399 1.404 2.981 2.981 0 00.522 3.628 3.008 3.008 0 004.215 0zm-1.106-3.096c.266.264.416.622.416.996.004.376-.144.738-.413 1.002a1.374 1.374 0 01-1.005.41 1.345 1.345 0 01-.997-.41 1.395 1.395 0 010-1.995c.26-.27.622-.42.997-.412.375-.002.736.146 1.002.41z" fill="#fff"/><path fill-rule="evenodd" clip-rule="evenodd" d="M110.768 51L106 53.416h2.819l2.761-1.033v-1.101l-.812-.282zm.609 4l-2.899-.309-2.478-.973h5.435l.565.61-.623.672z" fill="#A2D45E"/><path fill-rule="evenodd" clip-rule="evenodd" d="M98.427 52.394l2.761 1.043H104L99.243 51l-.816.284v1.11zm.137 1.313H104l-2.487.982-2.891.311-.622-.677.564-.616z" fill="#00B2E3"/><path d="M105.737 60l.263-6h-1l.254 6h.483z" fill="#fff"/><circle cx="105.5" cy="52.5" r=".5" fill="#fff"/><path fill-rule="evenodd" clip-rule="evenodd" d="M59.03 29.56l-.045.236c-.627 3.59.09 7.283 2.015 10.383-.183.276-.384.55-.602.82-2.826 3.525-6.916 4.264-9.073 4.597-1.963.355-5.302.953-8.805-.695-5.95-2.793-7.14-9.614-7.295-10.568a65.64 65.64 0 00-.012-.082c-.21-1.436-.867-5.953 2.05-9.894 2.662-3.592 6.677-4.494 8.477-4.863l.092-.019c1.867-.384 6.602-1.36 11.063 1.497a12.491 12.491 0 013.785 3.791 18.133 18.133 0 00-1.65 4.796zm-13.755 9.539a6.898 6.898 0 005.135 1.139c3.206-.554 5.583-3.264 5.697-6.496a.664.664 0 00-.325-.577.673.673 0 00-.664-.014 18.835 18.835 0 01-5.08 1.478c-6.09 1.138-7.577.052-7.577.052a6.816 6.816 0 002.814 4.418z" fill="#00B2E3"/><path d="M33.323 34.446c-.684-4.318.074-8.01 2.23-10.97A12.358 12.358 0 0139 20.27c-.045-1.134-.104-2.058-.193-2.67-.587-3.99-2.868-5.6-6.301-5.6-3.433 0-6.398 2.424-6.116 5.51.141 1.649.282 3.774.372 6.235-.743 2.498-9.118 2.565-9.854.91-.133-1.73-.282-3.177-.423-4.14-.535-3.989-2.764-5.085-6.19-5.085-3.425 0-6.791 2.036-6.234 5.086a70.45 70.45 0 01.98 22.147c-.237 2.483 2.69 4.832 5.982 4.832 3.292 0 5.484-1.312 5.945-4.802.21-1.79.324-3.59.342-5.392 1.575-2.773 9.043-2.557 9.363.47-.134 2.55-.335 5.16-.632 7.756C25.759 48.01 28.463 51 31.748 51c3.284 0 5.825-3.08 6.293-6.57 0-.156.045-.328.067-.507-3.648-3.475-4.614-8.359-4.785-9.477z" fill="#00B2E3"/><path fill-rule="evenodd" clip-rule="evenodd" d="M63.125 40.681a14.22 14.22 0 01-2.931-11.236l.046-.22c.323-1.555 1.326-6.381 5.568-9.082 4.81-3.077 8.954-2.082 10.998-1.59l.306.073.118.027c1.956.456 5.83 1.36 8.473 4.972 3.014 4.128 2.276 8.87 2.057 10.235l-.02.137c-.196 1.351-1.115 7.689-6.913 10.447a14.436 14.436 0 01-8.659 1.396 14.913 14.913 0 01-9.043-5.159zm4.5-8.05c-.453-.242-1.01-.432-1.01.091.075 3.232 2.448 6.609 5.787 7.185 3.791.66 7.397-1.896 8.056-5.713 0 0-2.382 1.055-7.853.402a10.78 10.78 0 01-4.98-1.965z" fill="#A2D45E"/><path d="M98.014 5.031c-4.19.522-18.095 2.922-24.558 3.332-3.206.21-4.456 1.894-4.456 4.25a4.383 4.383 0 001.487 3.154 4.533 4.533 0 003.347 1.116c3.031-.216 7.472-.924 7.426 2.184v.269a12.98 12.98 0 015.426 4.189c2.22 2.981 2.985 6.649 2.273 10.965v.126c-.758 5.278-3.508 9.243-7.646 11.181l-.19.082a5.87 5.87 0 004.888 2.11c3.183 0 5.449-2.475 5.767-5.963.386-4.19.94-21.788 1.19-24.599.151-1.759 2.553-2.377 5.486-2.407 2.72 0 4.546-2.31 4.546-5.173s-2.485-5.144-4.986-4.816z" fill="#A2D45E"/><path fill-rule="evenodd" clip-rule="evenodd" d="M98.1 0c4.822 0 8.896 4.224 8.896 9.226a9.599 9.599 0 01-5.211 8.8 2.991 2.991 0 01-4.904 3.343 962.553 962.553 0 00-.232 5.697l-.13 2.935c-.22 4.978-.437 9.92-.618 11.967-.53 5.914-4.695 10.041-10.116 10.041a10.602 10.602 0 01-6.96-2.37c-1.548.409-3.14.62-4.74.628-.95.006-1.899-.074-2.834-.24a19.545 19.545 0 01-9.526-4.485 19.946 19.946 0 01-9.614 4.075 24.11 24.11 0 01-4.524.478 16.508 16.508 0 01-5.899-1.076c-1.922 3.588-5.42 5.981-9.3 5.981a10.467 10.467 0 01-7.77-3.544 8.972 8.972 0 01-2.384-6.886c.187-1.66.351-3.417.47-5.234h-.507a43.475 43.475 0 01-.3 3.514c-.725 5.428-4.613 8.673-10.392 8.673a11.252 11.252 0 01-8.359-3.619 7.828 7.828 0 01-2.041-6.183 66.053 66.053 0 00-.942-20.786 7.791 7.791 0 011.675-6.61c1.966-2.384 5.3-3.813 8.92-3.813 7.715 0 10.048 4.823 10.646 8.876.067.44.127.934.187 1.495.4.003.8-.02 1.196-.067a92.69 92.69 0 00-.247-3.38 8.972 8.972 0 012.378-6.879 11.252 11.252 0 018.224-3.491c5.256 0 9.017 2.848 10.363 7.7.486-.119.89-.216 1.233-.29a23.655 23.655 0 015.144-.621 16.56 16.56 0 0111.44 4.254 15.006 15.006 0 012.07-1.578c.614-.387 1.25-.737 1.907-1.046a8.507 8.507 0 01-.747-3.41c0-4.95 3.327-8.351 8.56-8.688C77.3 3.11 85.068 1.899 90.757 1.009c2.535-.396 4.927-.77 6.318-.942.34-.045.682-.068 1.024-.067zm-4.247 16.935c.067-.77 1.72-1.308 4.216-1.308 3.245-.03 5.698-2.782 5.727-6.445A5.92 5.92 0 0098.129 3.2c-.208 0-.415.015-.62.045-1.316.18-3.59.516-6.221.927-5.75.912-13.622 2.124-17.944 2.408-3.521.231-5.533 2.22-5.533 5.465a5.465 5.465 0 001.645 3.858c.495.49 1.075.886 1.712 1.167a14.207 14.207 0 00-6.048 2.168 12.129 12.129 0 00-3.739 3.739 13.615 13.615 0 00-11.499-5.9c-1.495.018-2.985.2-4.44.546-1.584.307-3.124.81-4.584 1.495a21.42 21.42 0 00-.18-2.198c-.642-4.351-3.244-6.647-7.536-6.647a7.947 7.947 0 00-5.824 2.438 5.735 5.735 0 00-1.495 4.441c.112 1.219.261 3.215.366 5.9-.344.418-1.974 1.068-4.553 1.068a7.743 7.743 0 01-2.99-.448c-.128-1.555-.263-2.879-.397-3.798-.83-5.421-4.426-6.116-7.477-6.116-2.624 0-5.084 1.016-6.43 2.639a4.583 4.583 0 00-1.01 3.888 69.126 69.126 0 01.995 21.825 4.658 4.658 0 001.256 3.656 8.097 8.097 0 005.937 2.52c5.293 0 6.826-3.193 7.185-5.87.205-1.72.315-3.45.329-5.181.576-.68 2.034-1.151 3.626-1.151 1.742 0 3.237.523 3.394 1.27-.134 2.64-.343 5.19-.62 7.582a5.72 5.72 0 001.615 4.36 7.2 7.2 0 005.353 2.467c3.634 0 6.811-3.17 7.477-7.403a12.28 12.28 0 002.07 1.249c1.76.824 3.68 1.246 5.623 1.234a21.681 21.681 0 003.955-.427c2.161-.388 6.662-1.203 9.825-5.106.111-.136.21-.276.308-.416l.08-.115c.127.18.255.359.397.53a15.896 15.896 0 009.674 5.511c.74.134 1.491.2 2.243.195a16.187 16.187 0 005.735-1.107c.156.247.331.482.523.703a7.14 7.14 0 005.443 2.146c3.746 0 6.513-2.856 6.894-7.103.232-2.241.478-8.21.706-13.74l.041-1.005c.18-4.493.352-8.74.457-9.974z" fill="#fff"/><path d="M77.249 17c-.406 0-.796 0-1.249.044l.795.152.374.08c.959.19 1.904.432 2.831.724a.73.73 0 00-.199-.478c-.278-.254-.914-.522-2.552-.522zM72.127 36.292A10.653 10.653 0 0168 35c.62 1.83 2.165 3.565 4.286 3.917.311.055.628.083.945.083 1.97.003 3.791-1.007 4.769-2.646-.823.1-1.652.148-2.482.145a29.374 29.374 0 01-3.391-.207zM45.014 35.863H44c1.055 1.94 3.024 3.139 5.157 3.137.343 0 .685-.033 1.022-.098C52.594 38.459 54.505 36.515 55 34a27.372 27.372 0 01-4.759 1.315c-1.723.347-3.472.53-5.227.548z" fill="#582D82"/><path d="M29.288 23.887l.074-.247v-.255c-.088-2.225-.213-4.363-.383-6.152-.05-.806.24-1.597.803-2.182a5.059 5.059 0 013.684-1.455 5.564 5.564 0 012.534.51 4.569 4.569 0 00-3.345-1.092 5.081 5.081 0 00-3.683 1.455 2.815 2.815 0 00-.796 2.182c.162 1.803.295 3.934.376 6.16v.254l-.074.248c-.87 2.909-5.746 3.112-7.22 3.112a9.738 9.738 0 01-4.258-.8C18.09 26.738 20.278 27 22.076 27c1.503 0 6.35-.226 7.212-3.113zM7.792 43.335c.838-7.53.51-15.15-.97-22.574a1.805 1.805 0 01.395-1.538 5.46 5.46 0 014.089-1.628c.92-.051 1.84.108 2.694.468C13.281 17.32 12.225 17 10.515 17s-3.32.64-4.08 1.598c-.365.417-.512.99-.396 1.539a73.998 73.998 0 01.963 22.603c-.018.534.18 1.051.546 1.427.293.334.638.616 1.02.833a3.519 3.519 0 01-.23-.238 1.946 1.946 0 01-.546-1.427zM28.59 46.41c.322-2.583.569-5.33.722-8.176v-.256C29.123 36.7 28.259 35.587 27 35c.746.6 1.227 1.427 1.351 2.327v.256a121.847 121.847 0 01-.73 8.175c-.005.864.387 1.69 1.079 2.28.375.381.814.706 1.3.962a3.63 3.63 0 01-.365-.341c-.671-.588-1.05-1.4-1.046-2.25zM37.005 34.597c-.548-3.64 0-6.698 1.713-9.083 2.268-3.22 5.612-3.991 7.404-4.404 1.23-.31 2.489-.474 3.754-.49a10.57 10.57 0 016.014 1.774l.11.077a9.33 9.33 0 00-.907-.689 10.627 10.627 0 00-6.022-1.781c-1.265.014-2.525.18-3.754.497-1.792.413-5.121 1.177-7.404 4.396-1.705 2.432-2.261 5.49-1.705 9.084.168 1.093 1.156 6.285 5.122 9.022-3.307-2.837-4.17-7.394-4.325-8.403zM50.135 41.296a8.354 8.354 0 01-1.491.122A8.667 8.667 0 0144 40.082 8.661 8.661 0 0049.464 42c.5 0 .998-.04 1.49-.122 3.956-.676 6.889-3.918 7.044-7.788a2.113 2.113 0 00-.633-1.587 2.283 2.283 0 00-.746-.503c.385.416.589.959.567 1.516-.154 3.87-3.092 7.112-7.051 7.78z" fill="#95D8F1"/><path d="M73.656 9.797c4.423-.279 12.222-1.428 17.935-2.327 2.58-.385 4.8-.714 6.053-.878h.265A2.45 2.45 0 0199 6.871 2.772 2.772 0 0097.098 6h-.258c-1.26.157-3.48.492-6.06.878-5.712.863-13.541 2.048-17.927 2.326C70.347 9.361 70 10.51 70 11.731c.012.666.299 1.3.796 1.762.217.205.466.376.737.507a2.487 2.487 0 01-.737-1.698c.015-1.2.354-2.348 2.86-2.505zM82.997 19.264c.04-.976-.348-1.927-1.078-2.637A4.18 4.18 0 0081 16l.048.044c.742.703 1.132 1.659 1.077 2.637v.845c.286.146.579.306.872.474a11.267 11.267 0 010-.736zM65.576 40.269a12.308 12.308 0 01-2.607-9.702l.06-.276c.286-1.38 1.176-5.597 4.823-7.88a11.438 11.438 0 016.142-1.829c1.2.02 2.395.18 3.557.478l.377.09c1.797.316 3.517.964 5.072 1.91a13.634 13.634 0 00-5.893-2.493l-.377-.09A15.295 15.295 0 0073.173 20c-2.18.009-4.31.641-6.135 1.82-3.655 2.292-4.521 6.508-4.83 7.889l-.06.269a12.352 12.352 0 002.6 9.664A12.171 12.171 0 0067.37 42a11.69 11.69 0 01-1.794-1.731zM73.286 41.4c-.5.003-1-.04-1.493-.127A7.69 7.69 0 0169 40.16a7.952 7.952 0 003.636 1.714c.493.084.993.126 1.494.126 4.136-.01 7.664-2.98 8.355-7.033L83 32l-1 .43-.344 1.959c-.699 4.05-4.234 7.011-8.37 7.01z" fill="#D2E9AE"/><path d="M45.014 35.863H44c1.055 1.94 3.024 3.139 5.157 3.137.343 0 .685-.033 1.022-.098C52.594 38.459 54.505 36.515 55 34a27.372 27.372 0 01-4.759 1.315c-1.723.347-3.472.53-5.227.548zM80 18a.76.76 0 00-.2-.492c-.249-.232-.89-.508-2.541-.508-.41 0-.802 0-1.259.045l.802.156.376.083A26.62 26.62 0 0180 18zM72.127 36.292A10.653 10.653 0 0168 35c.62 1.83 2.165 3.565 4.286 3.917.311.055.628.083.945.083 1.97.003 3.791-1.007 4.769-2.646-.823.1-1.652.148-2.482.145a29.374 29.374 0 01-3.391-.207z" fill="#fff"/><path fill-rule="evenodd" clip-rule="evenodd" d="M49.787 34.517a20.067 20.067 0 005.22-1.45.72.72 0 01.666.03.646.646 0 01.327.55c-.186 3.383-3.006 6.102-6.57 6.337-3.565.234-6.753-2.09-7.43-5.416 0 0 1.559 1.065 7.787-.051zm-.833 4.434c.336 0 .671-.03 1.001-.087v-.007c2.377-.399 4.253-2.14 4.723-4.384a29.026 29.026 0 01-4.662 1.167c-1.686.322-3.4.5-5.12.529h-.993c1.033 1.72 2.962 2.783 5.051 2.782z" fill="#592D82"/><path fill-rule="evenodd" clip-rule="evenodd" d="M97.67 3.045c.207-.03.415-.045.623-.045 3.216.13 5.745 2.81 5.706 6.046 0 3.653-2.462 6.46-5.72 6.46-2.508.023-4.167.567-4.235 1.322-.105 1.245-.278 5.54-.458 10.068-.063 1.369-.126 2.783-.188 4.177v.007c-.203 4.54-.396 8.865-.563 10.7-.382 4.288-3.168 7.17-6.921 7.17a7.15 7.15 0 01-5.466-2.166 5.783 5.783 0 01-.525-.709 16.178 16.178 0 01-5.758 1.117c-.756.005-1.51-.061-2.253-.196a15.941 15.941 0 01-9.714-5.563 8.957 8.957 0 01-.398-.536l-.08.116h-.001c-.1.142-.197.284-.31.42-3.175 3.94-7.695 4.763-9.864 5.155-1.308.266-2.638.41-3.972.43a13.057 13.057 0 01-5.66-1.237 12.283 12.283 0 01-2.095-1.246C39.165 48.807 35.967 52 32.31 52a7.213 7.213 0 01-5.375-2.49 5.792 5.792 0 01-1.599-4.409c.278-2.415.488-4.989.623-7.653-.157-.717-1.659-1.283-3.408-1.283-1.6 0-3.063.475-3.641 1.162a47.74 47.74 0 01-.353 5.23c-.36 2.703-1.9 5.926-7.215 5.926a8.11 8.11 0 01-5.96-2.544 4.718 4.718 0 01-1.262-3.69A70.147 70.147 0 003.09 20.185a4.645 4.645 0 011.014-3.925c1.351-1.637 3.821-2.664 6.456-2.664 3.086 0 6.697.702 7.508 6.174.135.928.27 2.25.398 3.834a7.74 7.74 0 003.003.453c2.59 0 4.226-.656 4.572-1.08a116.11 116.11 0 00-.368-5.954 5.808 5.808 0 011.546-4.454 7.96 7.96 0 015.849-2.445c4.309 0 6.922 2.317 7.567 6.71.098.734.158 1.472.18 2.212a19.445 19.445 0 014.602-1.51 20.257 20.257 0 014.46-.551 13.65 13.65 0 0111.516 5.978 12.211 12.211 0 013.754-3.774A14.216 14.216 0 0171.222 17a5.725 5.725 0 01-1.72-1.177 5.532 5.532 0 01-1.651-3.895c0-3.253 2.02-5.283 5.555-5.517 4.347-.287 12.252-1.525 18.018-2.43 2.643-.416 4.925-.77 6.246-.937zM32.31 50.777c3.356 0 5.886-3.117 6.36-6.65l.01-.078c.02-.137.04-.287.072-.457-3.709-3.495-4.685-8.386-4.858-9.533-.713-4.37.053-8.084 2.253-11.103a12.497 12.497 0 013.483-3.245c-.045-1.147-.105-2.083-.195-2.702-.6-4.038-2.905-5.669-6.366-5.669s-6.464 2.453-6.179 5.578c.143 1.668.285 3.82.375 6.31-.743 2.528-9.204 2.596-9.954.92-.136-1.75-.286-3.215-.428-4.188-.593-4.038-2.816-5.125-6.277-5.125-3.46 0-6.861 2.06-6.298 5.147A71.437 71.437 0 015.366 42.37c-.315 2.514 2.695 4.86 6.006 4.86 3.31 0 5.533-1.328 6.006-4.86.212-1.812.327-3.633.345-5.457 1.6-2.808 9.107-2.589 9.46.476a129.43 129.43 0 01-.638 7.85c-.286 2.52 2.41 5.54 5.765 5.54zm28.13-10.106c-2.83 3.6-6.959 4.355-9.12 4.717-1.983.363-5.353.974-8.89-.71-6.005-2.852-7.207-9.811-7.364-10.793l-.002-.01c-.212-1.381-.936-6.084 2.059-10.18 2.646-3.61 6.529-4.5 8.468-4.945l.09-.02c1.907-.438 6.667-1.51 11.261 1.51a12.685 12.685 0 013.822 3.871 18.666 18.666 0 00-1.652 4.876l-.045.241a15.3 15.3 0 002.035 10.567c-.206.307-.418.6-.639.876h-.022zm2.681-.023a14.861 14.861 0 009.009 5.133c2.949.433 5.959-.06 8.619-1.412 5.776-2.744 6.691-9.049 6.886-10.393l.02-.136.008-.052c.213-1.422.909-6.074-2.057-10.13-2.688-3.668-6.742-4.596-8.559-4.974-.13-.027-.273-.059-.43-.093-2.023-.45-6.162-1.368-10.83 1.603-4.228 2.695-5.212 7.465-5.536 9.034v.001l-.05.241c-.663 3.974.4 8.044 2.92 11.178zm13.123-23.375c.2 0 .402-.012.6-.023.196-.011.39-.023.579-.023 1.546 0 2.147.28 2.38.514.117.14.183.315.187.498a23.47 23.47 0 00-2.672-.755l-.353-.083-.721-.128zm16.576-.581c.18-1.782 2.53-2.438 5.436-2.438v.037c2.695-.022 4.512-2.332 4.512-5.223 0-2.89-2.47-5.117-4.948-4.8-1.301.16-3.536.507-6.188.918-5.85.908-13.737 2.132-18.143 2.365-3.176.212-4.415 1.917-4.415 4.303a4.478 4.478 0 001.473 3.194 4.43 4.43 0 003.317 1.13c.291-.021.596-.047.91-.074 2.896-.248 6.488-.555 6.448 2.286v.272a12.9 12.9 0 015.375 4.241c2.177 2.997 2.935 6.733 2.252 11.103v.129c-.818 5.358-3.476 9.374-7.575 11.321l-.188.083a5.76 5.76 0 004.843 2.136c3.153 0 5.397-2.483 5.713-6.038.214-2.373.48-8.992.716-14.87.186-4.633.353-8.805.462-10.075z" fill="#582D82"/><path fill-rule="evenodd" clip-rule="evenodd" d="M67.022 32.255a10.677 10.677 0 005.037 2.062c5.533.685 7.941-.422 7.941-.422-.666 4.005-4.313 6.689-8.147 5.996-3.345-.605-5.746-4.133-5.852-7.54-.023-.55.564-.35 1.02-.096zm5.045 6.362c.329.064.663.096.998.096 2.082.003 4.005-1.162 5.037-3.05-.87.114-1.745.17-2.621.167a28.462 28.462 0 01-3.567-.239 10.591 10.591 0 01-4.374-1.489c.655 2.126 2.286 4.109 4.527 4.515z" fill="#582D82"/><path d="M99 19.373h-.781V21h-.476v-1.627H97V19h1.962l.038.373zM100.964 21h-.36v-1.508l-.453 1.31h-.381l-.446-1.302V21H99v-2h.532l.468 1.35.468-1.35H101l-.036 2z" fill="#582D82"/></svg>