<svg width="460" height="460" fill="none" xmlns="http://www.w3.org/2000/svg"><path d="M230 441.986c118.626 0 214.792-55.519 214.792-124.006S348.626 193.973 230 193.973c-118.627 0-214.792 55.52-214.792 124.007S111.373 441.986 230 441.986z" fill="#F5F5F5"/><path d="M201.25 420.412L96.195 359.757l173.098-99.618 105.064 60.656-173.107 99.617z" fill="#E0E0E0"/><path d="M373.143 300.04c-11.234 6.486-11.234 17.001 0 23.487 11.233 6.486 29.44 6.44 40.673 0s11.233-17.001 0-23.487c-11.233-6.486-29.44-6.486-40.673 0zM55.338 357.65c-13.8 7.645-13.8 20.037 0 27.683 13.8 7.645 36.184 7.645 49.993 0 13.809-7.646 13.8-20.038 0-27.683s-36.193-7.636-49.993 0zM158.654 366.059l-69.828-40.315c-3.468-2.005-3.468-5.244 0-7.24l46.295-26.735a15.022 15.022 0 0112.742-.377l75.302 37.72c3.578 1.784 3.68 4.857.211 6.854l-52.182 30.13a13.89 13.89 0 01-6.274 1.479 13.887 13.887 0 01-6.266-1.516z" fill="#E0E0E0"/><path d="M48.373 97.52l1.684 1.003 34.427-19.881-1.684-1.003L48.374 97.52z" fill="#FAFAFA"/><path d="M82.8 77.639L50.057 96.545V62.247L82.81 43.36l-.01 34.28z" fill="#fff"/><path d="M87.648 36.892L46.92 60.426v43.58l40.756-23.534-.028-43.58zm-3.164 41.75l-34.427 19.88V62.248l34.427-19.872v36.267z" fill="#F0F0F0"/><path d="M84.484 78.641L82.8 77.64l.01-34.28 1.674-.984v36.266z" fill="#E0E0E0"/><path d="M87.648 36.892l-1.702-.975L45.181 59.45l1.711.975 40.756-23.533z" fill="#FAFAFA"/><path d="M45.181 59.45l1.711.975v43.581l-1.71-.975v-43.58z" fill="#E0E0E0"/><path d="M81.521 76.618L51.336 94.052V85.33l7.544-17.425 4.701 4.352-1.684 7.304L72.322 57.27l9.2 10.635v8.713z" fill="#F0F0F0"/><path d="M63.296 59.487a4.913 4.913 0 00-2.226 3.864c0 1.426.993 2.006 2.226 1.288a4.904 4.904 0 002.236-3.864c0-1.426-.994-2.005-2.236-1.288z" fill="#F0F0F0"/><path d="M48.373 157.808l1.684.993 34.427-19.872-1.684-1.003-34.426 19.882z" fill="#FAFAFA"/><path d="M82.8 137.926l-32.743 18.906v-34.297L82.8 103.647v34.279z" fill="#fff"/><path d="M87.648 97.18L46.92 120.704v43.58l40.728-23.524V97.18zm-3.164 41.74l-34.427 19.872v-36.257l34.427-19.872v36.257z" fill="#F0F0F0"/><path d="M84.484 138.929l-1.684-1.003v-34.279l1.684-.984v36.266z" fill="#E0E0E0"/><path d="M87.648 97.18l-1.702-.985-40.765 23.534 1.711.975L87.648 97.18z" fill="#FAFAFA"/><path d="M45.181 119.729l1.711.975v43.58l-1.71-.975v-43.58z" fill="#E0E0E0"/><path d="M81.521 136.905L51.336 154.33v-8.712l7.544-17.434 4.701 4.36-1.684 7.305 10.424-22.291 9.2 10.626v8.721z" fill="#F0F0F0"/><path d="M63.296 119.766a4.94 4.94 0 00-2.226 3.873c0 1.426.993 1.996 2.226 1.288a4.912 4.912 0 002.236-3.873c0-1.454-.994-1.997-2.236-1.288z" fill="#F0F0F0"/><path d="M376.63 314.116c-9.016-9.301-14.306-47.159-5.52-54.538h44.73c8.786 7.36 3.496 45.218-5.52 54.529l-.248.248-.313.313c-.249.248-.525.487-.81.727l-.221.174c-.22.175-.432.35-.68.516-.372.272-.759.524-1.16.754-7.415 4.333-19.439 4.333-26.854 0a12.79 12.79 0 01-1.169-.754 9.066 9.066 0 01-.635-.488l-.266-.212a9.766 9.766 0 01-.764-.745l-.359-.349-.211-.175z" class="svg-primary-color" fill="#999"/><path opacity=".7" d="M376.63 314.116c-9.016-9.301-14.306-47.159-5.52-54.538h44.73c8.786 7.36 3.496 45.218-5.52 54.529l-.248.248-.313.313c-.249.248-.525.487-.81.727l-.221.174c-.22.175-.432.35-.68.516-.372.272-.759.524-1.16.754-7.415 4.333-19.439 4.333-26.854 0a12.79 12.79 0 01-1.169-.754 9.066 9.066 0 01-.635-.488l-.266-.212a9.766 9.766 0 01-.764-.745l-.359-.349-.211-.175z" fill="#fff"/><path d="M411.958 256.606c10.212 5.962 10.212 15.64 0 21.584-10.212 5.943-26.754 5.961-36.957 0-10.203-5.962-10.212-15.64 0-21.584 10.212-5.943 26.754-5.952 36.957 0z" class="svg-primary-color" fill="#999"/><path opacity=".85" d="M411.958 256.606c10.212 5.962 10.212 15.64 0 21.584-10.212 5.943-26.754 5.961-36.957 0-10.203-5.962-10.212-15.64 0-21.584 10.212-5.943 26.754-5.952 36.957 0z" fill="#fff"/><path d="M407.054 259.44c7.489 4.379 7.489 11.472 0 15.852-7.489 4.379-19.651 4.37-27.149 0-7.498-4.37-7.498-11.473 0-15.852s19.651-4.342 27.149 0z" class="svg-primary-color" fill="#999"/><path opacity=".75" d="M407.054 259.44c7.489 4.379 7.489 11.472 0 15.852-7.489 4.379-19.651 4.37-27.149 0-7.498-4.37-7.498-11.473 0-15.852s19.651-4.342 27.149 0z" fill="#fff"/><path d="M379.905 266.993c7.498-4.37 19.651-4.37 27.149 0 1.816 1 3.357 2.432 4.49 4.168a12.657 12.657 0 01-4.49 4.168c-7.498 4.37-19.651 4.37-27.149 0a12.649 12.649 0 01-4.49-4.168 12.64 12.64 0 014.49-4.168z" fill="#FAFAFA"/><path d="M394.505 265.632c.996.176 2 .302 3.008.377 3.754.165 8.363-1.702 12.494-3.533 2.76-1.205 6.44-2.843 8.16-5.667.865-1.389 1.196-3.312.387-4.6-.81-1.288-2.834-1.757-3.22-3.413 2.889-1.923 6.596-2.024 9.062-4.6a14.438 14.438 0 003.376-7.14c.341-1.573.341-3.726-.487-4.949-.985-1.445-2.981-1.325-4.692-1.141a2.897 2.897 0 01-1.325-.074 1.11 1.11 0 01-.736-1.067 1.931 1.931 0 011.067-1.389c1.058-.69 2.19-1.233 3.211-1.987a6.436 6.436 0 002.419-3.009 8.274 8.274 0 00-.119-4.6 63.896 63.896 0 00-2.07-7.36c-.203-.579-1.702-6.44-1.491-6.495-5.989.166-12.144 2.365-17.71 5.217-3.109 1.591-7.534 4.471-8.436 8.5a7.73 7.73 0 00.101 3.377c.149.482.327.956.534 1.417.11.294.561 1.426-.203 1.048a1.093 1.093 0 01-.404-.414l-2.954-4.25a2.526 2.526 0 00-1.085-1.049c-.994-.368-3.349.764-5.603 3.68a12.596 12.596 0 00-2.3 6.919c-.239 3.891.92 7.562 1.978 11.132l-2.668-2.76c-3.119-3.193-3.68 4.333-3.588 5.897.294 4.112 1.941 10.184 4.011 13.45 2.411 3.791 5.253 6.965 9.283 8.483z" class="svg-primary-color" fill="#999"/><path opacity=".3" d="M394.505 265.632c.996.176 2 .302 3.008.377 3.754.165 8.363-1.702 12.494-3.533 2.76-1.205 6.44-2.843 8.16-5.667.865-1.389 1.196-3.312.387-4.6-.81-1.288-2.834-1.757-3.22-3.413 2.889-1.923 6.596-2.024 9.062-4.6a14.438 14.438 0 003.376-7.14c.341-1.573.341-3.726-.487-4.949-.985-1.445-2.981-1.325-4.692-1.141a2.897 2.897 0 01-1.325-.074 1.11 1.11 0 01-.736-1.067 1.931 1.931 0 011.067-1.389c1.058-.69 2.19-1.233 3.211-1.987a6.436 6.436 0 002.419-3.009 8.274 8.274 0 00-.119-4.6 63.896 63.896 0 00-2.07-7.36c-.203-.579-1.702-6.44-1.491-6.495-5.989.166-12.144 2.365-17.71 5.217-3.109 1.591-7.534 4.471-8.436 8.5a7.73 7.73 0 00.101 3.377c.149.482.327.956.534 1.417.11.294.561 1.426-.203 1.048a1.093 1.093 0 01-.404-.414l-2.954-4.25a2.526 2.526 0 00-1.085-1.049c-.994-.368-3.349.764-5.603 3.68a12.596 12.596 0 00-2.3 6.919c-.239 3.891.92 7.562 1.978 11.132l-2.668-2.76c-3.119-3.193-3.68 4.333-3.588 5.897.294 4.112 1.941 10.184 4.011 13.45 2.411 3.791 5.253 6.965 9.283 8.483z" fill="#fff"/><path d="M398.755 245.447a41.459 41.459 0 00-6.9-16.809l-.073-.119a.53.53 0 01.129-.69.404.404 0 01.616.073l.074.111a43.12 43.12 0 016.752 15.713c5.189-14.72 13.718-29.651 18.667-34.297a.462.462 0 01.336-.15.45.45 0 01.336.15.585.585 0 01-.092.745c-4.885 4.6-13.303 19.32-18.4 33.847 8.629-6.725 17.287-6.008 17.379-5.999a.442.442 0 01.368.534.606.606 0 01-.304.414.436.436 0 01-.221 0c-.083 0-9.117-.764-17.783 6.633-2.3 6.873-3.8 13.607-3.754 19.063a.608.608 0 01-.267.506.523.523 0 01-.202.073.44.44 0 01-.479-.478c-.055-5.474 1.472-12.319 3.818-19.32z" fill="#fff"/><path d="M394.79 272.983c-.266.128-2.373.607-2.668.662-3.348.57-7.516-.396-11.27-1.398-2.474-.654-5.805-1.555-7.461-3.68a3.328 3.328 0 01-.506-3.68c.727-1.215 2.466-1.758 2.76-3.156-2.64-1.215-5.961-.856-8.28-2.668a10.129 10.129 0 01-3.257-5.391 5.521 5.521 0 01.276-4.085c.819-1.288 2.613-1.417 4.14-1.472.407.006.81-.069 1.187-.221a1.012 1.012 0 00.617-.92c-.046-.487-.543-.8-.994-1.003-.975-.432-1.996-.736-2.944-1.223a4.807 4.807 0 01-2.254-2.162 6.2 6.2 0 010-3.726c.4-2.111.932-4.194 1.592-6.238.165-.488 1.306-5.465 1.113-5.446 5.345-.571 10.911.487 15.98 2.143 2.825.92 6.873 2.76 7.811 5.916a5.56 5.56 0 010 2.76c-.113.414-.255.82-.423 1.214-.083.249-.451 1.224.221.828.143-.099.26-.231.34-.386l2.493-3.837a2.5 2.5 0 01.92-.975c.874-.423 3.018.221 5.125 2.319a8.868 8.868 0 012.29 5.345c.341 3.119-.533 6.238-1.398 9.264l2.291-2.539c2.677-2.962 3.45 3.082 3.404 4.37a28.012 28.012 0 01-3.128 11.39c-2.006 3.376-4.407 6.293-7.977 7.995z" class="svg-primary-color" fill="#999"/><path opacity=".5" d="M394.79 272.983c-.266.128-2.373.607-2.668.662-3.348.57-7.516-.396-11.27-1.398-2.474-.654-5.805-1.555-7.461-3.68a3.328 3.328 0 01-.506-3.68c.727-1.215 2.466-1.758 2.76-3.156-2.64-1.215-5.961-.856-8.28-2.668a10.129 10.129 0 01-3.257-5.391 5.521 5.521 0 01.276-4.085c.819-1.288 2.613-1.417 4.14-1.472.407.006.81-.069 1.187-.221a1.012 1.012 0 00.617-.92c-.046-.487-.543-.8-.994-1.003-.975-.432-1.996-.736-2.944-1.223a4.807 4.807 0 01-2.254-2.162 6.2 6.2 0 010-3.726c.4-2.111.932-4.194 1.592-6.238.165-.488 1.306-5.465 1.113-5.446 5.345-.571 10.911.487 15.98 2.143 2.825.92 6.873 2.76 7.811 5.916a5.56 5.56 0 010 2.76c-.113.414-.255.82-.423 1.214-.083.249-.451 1.224.221.828.143-.099.26-.231.34-.386l2.493-3.837a2.5 2.5 0 01.92-.975c.874-.423 3.018.221 5.125 2.319a8.868 8.868 0 012.29 5.345c.341 3.119-.533 6.238-1.398 9.264l2.291-2.539c2.677-2.962 3.45 3.082 3.404 4.37a28.012 28.012 0 01-3.128 11.39c-2.006 3.376-4.407 6.293-7.977 7.995z" fill="#fff"/><path d="M390.319 257.094a35.6 35.6 0 015.585-14.462l.064-.102a.404.404 0 00-.284-.603.41.41 0 00-.294.074.434.434 0 00-.103.115l-.064.102a37.036 37.036 0 00-5.52 13.542c-5.134-11.325-13.248-22.457-17.811-25.64a.433.433 0 10-.497.699c4.508 3.146 12.521 14.14 17.563 25.318a24.535 24.535 0 00-15.714-2.824.392.392 0 00-.311.386.399.399 0 00.311.387c.064.014.13.014.193 0a23.587 23.587 0 0116.091 3.284c2.291 5.318 3.855 10.608 3.993 15.042a.445.445 0 00.257.377.408.408 0 00.184 0 .42.42 0 00.414-.441c-.138-4.472-1.729-9.844-4.057-15.254z" fill="#fff"/><path d="M222.042 335.073l-8.924-74.465-7.295-.368 12.539 74.824a.998.998 0 00.488.653 2.882 2.882 0 002.603.129.92.92 0 00.571-.773h.018z" fill="#263238"/><path d="M213.118 260.608l-7.295-.368 2.143 14.122a28.641 28.641 0 004.324-1.987 4.477 4.477 0 001.923-1.647l-1.095-10.12z" fill="#263238"/><path d="M116.224 249.688h-7.305l-10.626 70.316a.919.919 0 00.534.8 2.886 2.886 0 002.603 0 .955.955 0 00.515-.626l14.279-70.49z" fill="#37474F"/><path d="M108.919 249.688l-2.962 19.624a29.015 29.015 0 005.602 3.431l4.665-23.055h-7.305z" fill="#263238"/><path d="M173.254 360.033l-6.863-75.753-7.286-.368 10.479 76.075a.996.996 0 00.487.653 2.878 2.878 0 002.595.129.927.927 0 00.57-.773l.018.037z" fill="#37474F"/><path d="M167.293 295.219l-.92-10.902-7.287-.368 1.482 11.757c1.637.534 4.6.194 6.725-.487zM156.069 226.522h-7.305l-10.617 70.316a.917.917 0 00.525.8 2.881 2.881 0 002.603 0 .99.99 0 00.515-.625l14.279-70.491z" fill="#263238"/><path d="M95.202 169.05a41.338 41.338 0 00-2.917 12.816c-.828 9.825 2.493 41.639 4.49 55.871 2.889 23.773 6.44 23.819 11.583 27.793 8.859 6.845 34.343 20.24 42.752 23.58 15.254 5.998 27.729-3.257 37.021-7.848a215.598 215.598 0 0024.628-14.582c2.319-1.692 3.524-3.404 3.496-5.198v-4.388c0-2.3-2.024-4.756-6.293-7.526-7.875-5.106-36.349-21.712-47.38-27.83a.105.105 0 00-.033-.055.107.107 0 00-.059-.027c-8.491-5.152-13.597-40.186-19.476-58.825-.12-.396-.248-.782-.377-1.159-.129-.378-.212-.58-.304-.865-.377-1.012-.754-1.941-1.159-2.76" class="svg-primary-color" fill="#999"/><path d="M216.265 257.085c0-2.3-2.024-4.757-6.293-7.526-7.875-5.106-36.349-21.712-47.38-27.83a.11.11 0 00-.034-.055.106.106 0 00-.058-.028c-8.492-5.152-13.598-40.185-19.477-58.824a34.794 34.794 0 00-1.232-3.432c0-.083-.074-.166-.102-.248l-.34-.755-.166-.377a17.906 17.906 0 00-3.919-5.667 8.779 8.779 0 00-1.923-1.353c-.92-.542-2.962-1.656-3.468-1.95-5.759-3.45-13.331.69-22.752 5.851-5.86 3.22-10.865 7.038-13.91 14.159a41.338 41.338 0 00-2.916 12.816c-.829 9.825 2.493 41.639 4.49 55.871 2.888 23.773 6.439 23.819 11.582 27.793 8.86 6.845 34.344 20.24 42.752 23.58 15.254 5.998 27.729-3.257 37.021-7.848a215.698 215.698 0 0024.629-14.582c2.318-1.692 3.523-3.404 3.496-5.198-.01-.726 0-3.643 0-4.397z" class="svg-primary-color" fill="#999"/><path opacity=".25" d="M216.265 257.085c0-2.3-2.024-4.757-6.293-7.526-7.875-5.106-36.349-21.712-47.38-27.83a.11.11 0 00-.034-.055.106.106 0 00-.058-.028c-8.492-5.152-13.598-40.185-19.477-58.824a34.794 34.794 0 00-1.232-3.432c0-.083-.074-.166-.102-.248l-.34-.755-.166-.377a17.906 17.906 0 00-3.919-5.667 8.779 8.779 0 00-1.923-1.353c-.92-.542-2.962-1.656-3.468-1.95-5.759-3.45-13.331.69-22.752 5.851-5.86 3.22-10.865 7.038-13.91 14.159a41.338 41.338 0 00-2.916 12.816c-.829 9.825 2.493 41.639 4.49 55.871 2.888 23.773 6.439 23.819 11.582 27.793 8.86 6.845 34.344 20.24 42.752 23.58 15.254 5.998 27.729-3.257 37.021-7.848a215.698 215.698 0 0024.629-14.582c2.318-1.692 3.523-3.404 3.496-5.198-.01-.726 0-3.643 0-4.397z" fill="#fff"/><path d="M188.131 276.837a216.809 216.809 0 0024.628-14.591c5.281-3.836 4.794-7.765-2.76-12.687-10.524-6.826-53.442-31.179-53.442-31.179s-54.28 32.016-51.916 37.932c2.364 5.916 35.88 24.205 46.488 28.364 15.244 6.044 27.71-3.248 37.002-7.839z" class="svg-primary-color" fill="#999"/><path opacity=".6" d="M188.131 276.837a216.809 216.809 0 0024.628-14.591c5.281-3.836 4.794-7.765-2.76-12.687-10.524-6.826-53.442-31.179-53.442-31.179s-54.28 32.016-51.916 37.932c2.364 5.916 35.88 24.205 46.488 28.364 15.244 6.044 27.71-3.248 37.002-7.839z" fill="#fff"/><path d="M135.332 150.99c-5.713-2.999-13.138 1.077-22.319 6.109-5.879 3.22-10.893 7.038-13.929 14.187l-3.882-2.236c3.045-7.121 8.05-10.939 13.91-14.159 9.421-5.161 16.992-9.301 22.752-5.851.506.294 2.511 1.408 3.468 1.95z" class="svg-primary-color" fill="#999"/><path opacity=".5" d="M135.332 150.99c-5.713-2.999-13.138 1.077-22.319 6.109-5.879 3.22-10.893 7.038-13.929 14.187l-3.882-2.236c3.045-7.121 8.05-10.939 13.91-14.159 9.421-5.161 16.992-9.301 22.752-5.851.506.294 2.511 1.408 3.468 1.95z" fill="#fff"/><path d="M143.023 162.84c-.119-.396-2.088-7.231-5.768-10.479a9.33 9.33 0 00-6.247-2.401c-4.986 0-10.976 3.303-17.995 7.139a63.32 63.32 0 00-1.73.994 9.165 9.165 0 00-.653.386c-.212.138-.524.322-.782.488-.258.165-.377.239-.561.368a33.472 33.472 0 00-3.542 2.686c-.175.157-.35.313-.525.488a24 24 0 00-2.005 2.079c-.12.129-.23.267-.341.396a8.36 8.36 0 00-.395.496l-.387.516c-.128.165-.248.331-.377.515a25.712 25.712 0 00-1.398 2.245c-.055.101-.12.202-.166.303-.046.101-.22.414-.331.635-.11.221-.304.626-.45.92a40.246 40.246 0 00-3.184 13.432c-1.362 16.146 4.168 69.497 9.715 74.097 0 0-.846-5.226 10.313-12.245 7.59-4.775 12.88-8.786 21.022-12.761 19.734-9.697 25.264-11.509 25.264-11.509-8.492-5.134-13.598-40.167-19.477-58.788z" class="svg-primary-color" fill="#999"/><path opacity=".4" d="M143.023 162.84c-.119-.396-2.088-7.231-5.768-10.479a9.33 9.33 0 00-6.247-2.401c-4.986 0-10.976 3.303-17.995 7.139a63.32 63.32 0 00-1.73.994 9.165 9.165 0 00-.653.386c-.212.138-.524.322-.782.488-.258.165-.377.239-.561.368a33.472 33.472 0 00-3.542 2.686c-.175.157-.35.313-.525.488a24 24 0 00-2.005 2.079c-.12.129-.23.267-.341.396a8.36 8.36 0 00-.395.496l-.387.516c-.128.165-.248.331-.377.515a25.712 25.712 0 00-1.398 2.245c-.055.101-.12.202-.166.303-.046.101-.22.414-.331.635-.11.221-.304.626-.45.92a40.246 40.246 0 00-3.184 13.432c-1.362 16.146 4.168 69.497 9.715 74.097 0 0-.846-5.226 10.313-12.245 7.59-4.775 12.88-8.786 21.022-12.761 19.734-9.697 25.264-11.509 25.264-11.509-8.492-5.134-13.598-40.167-19.477-58.788z" fill="#fff"/><path opacity=".1" d="M216.255 261.473c0 1.84-1.177 3.505-3.496 5.198a216.24 216.24 0 01-24.619 14.582c-4.839 2.392-10.534 6.035-17.029 8.133-15.567-9.117-42.467-25.079-49.073-30.36a22.845 22.845 0 01-7.535-11.96 54.061 54.061 0 01-1.269-16.762c-5.603-2.153-6.505-8.464-7.278-16.33-2.051-20.774-2.162-46.249 3.331-54.612.184-.128.368-.257.561-.377l.782-.478c.212-.138.423-.267.644-.387.57-.343 1.15-.674 1.739-.993 7.019-3.864 13.027-7.167 17.995-7.167a9.43 9.43 0 015.86 2.042l.378.322a15.799 15.799 0 013.183 4.214c.129.23.248.469.368.699a.83.83 0 01.073.157c.111.202.203.404.304.607l.11.23.065.138.165.386c.203.46.387.92.543 1.297l.12.276c.119.332.23.626.322.92l.092.249.083.248c0 .065 0 .138.073.203l.065.202.073.239c0 .065 0 .12.046.166.036.087.067.176.092.267 5.879 18.648 10.985 53.682 19.477 58.824a.125.125 0 01.062.037c.016.018.026.04.03.065 11.04 6.108 39.504 22.705 47.38 27.82 4.268 2.76 6.283 5.235 6.292 7.526 0 .745-.018 3.662-.009 4.379z" fill="#000"/><path d="M198.38 317.133l.837 25.76s-2.548 5.465-8.538 5.916c-5.989.451-6.946-5.566-6.946-5.566l-5.52-27.803 20.167 1.693z" fill="#FFA8A7"/><path d="M182.648 354.402a4.785 4.785 0 00.202 2.448c.46 1.113 3.579 3.164 5.18 3.983 1.601.819 2.833 2.07 4.232 4.517 1.913 3.358 4.802 6.974 8.464 8.713a26.473 26.473 0 0015.64 1.84c6.578-1.086 7.167-4.95 7.167-4.95s.395-3.634-1.224-4.232c-1.619-.598-39.661-12.319-39.661-12.319z" fill="#263238"/><path d="M181.81 349.904a10.553 10.553 0 00.838 4.498c1.895 2.705 6.44 3.68 9.034 7.36 2.594 3.68 5.64 9.375 14.214 11.206 8.574 1.831 15.134-.81 16.753-3.238 1.619-2.429.203-4.748-5.262-7.802-5.805-3.238-12.632-11.758-12.632-11.767-2.245-2.916-3.201-6.762-4.434-10.175-.129-.34-.322-.727-.672-.736-.349-.009-.625.506-.846.865-.41.53-.999.893-1.656 1.021a21.064 21.064 0 01-6.955 1.15 1.934 1.934 0 00-1.472.386 1.686 1.686 0 00-.295 1.307c.037.58.111 1.158.221 1.729.069.278.069.569 0 .847a1.044 1.044 0 01-.984.644 2.3 2.3 0 01-1.178-.377 5.217 5.217 0 01-2.76-3.533s-.322-1.601-.322-1.675a1.911 1.911 0 00-.92 1.233c-.166.663-.11 1.371-.221 2.043a35.537 35.537 0 00-.451 5.014z" class="svg-primary-color" fill="#999"/><path opacity=".3" d="M181.81 349.904a10.553 10.553 0 00.838 4.498c1.895 2.705 6.44 3.68 9.034 7.36 2.594 3.68 5.64 9.375 14.214 11.206 8.574 1.831 15.134-.81 16.753-3.238 1.619-2.429.203-4.748-5.262-7.802-5.805-3.238-12.632-11.758-12.632-11.767-2.245-2.916-3.201-6.762-4.434-10.175-.129-.34-.322-.727-.672-.736-.349-.009-.625.506-.846.865-.41.53-.999.893-1.656 1.021a21.064 21.064 0 01-6.955 1.15 1.934 1.934 0 00-1.472.386 1.686 1.686 0 00-.295 1.307c.037.58.111 1.158.221 1.729.069.278.069.569 0 .847a1.044 1.044 0 01-.984.644 2.3 2.3 0 01-1.178-.377 5.217 5.217 0 01-2.76-3.533l-.322-1.675a1.911 1.911 0 00-.92 1.233c-.166.663-.11 1.371-.221 2.043a35.537 35.537 0 00-.451 5.014z" fill="#000"/><path d="M235.272 294.299l3.836 36.165s-5.235 5.308-9.577 4.701a6.435 6.435 0 01-5.4-3.882L213.44 296.59l21.832-2.291z" fill="#FFA8A7"/><path d="M224.14 341.495c-.051.83.11 1.66.469 2.41.58 1.058 3.901 2.76 5.584 3.404 1.684.644 3.046 1.748 4.692 4.03 2.264 3.137 5.52 6.44 9.357 7.755a26.52 26.52 0 0015.769.138c6.44-1.84 6.587-5.694 6.587-5.694s0-3.68-1.675-4.076c-1.674-.396-40.783-7.967-40.783-7.967z" fill="#263238"/><path d="M222.833 337.116c.11 1.537.556 3.032 1.307 4.379 2.18 2.484 6.808 2.935 9.779 6.329 2.972 3.395 6.624 8.713 15.346 9.605 8.722.893 14.95-2.447 16.302-5.032 1.353-2.585-.303-4.738-6.072-7.185-6.118-2.595-13.8-10.332-13.8-10.332-2.548-2.668-3.91-6.376-5.52-9.651-.156-.313-.395-.681-.745-.653-.349.028-.561.57-.745.92-.352.569-.898.99-1.536 1.187-.711.351-1.442.658-2.19.92a20.25 20.25 0 01-4.6 1.012 1.935 1.935 0 00-1.426.543 1.745 1.745 0 00-.156 1.334c.101.572.239 1.138.414 1.692.107.266.148.553.119.838a1.056 1.056 0 01-.92.754 2.275 2.275 0 01-1.214-.258c-1.5-.68-2.815-1.545-3.303-3.137 0 0-.248-.837-.506-1.61-.183.149-.33.337-.43.551a1.56 1.56 0 00-.15.682c-.092.672 0 1.371 0 2.052a33.26 33.26 0 00.046 5.06z" class="svg-primary-color" fill="#999"/><path opacity=".3" d="M222.833 337.116c.11 1.537.556 3.032 1.307 4.379 2.18 2.484 6.808 2.935 9.779 6.329 2.972 3.395 6.624 8.713 15.346 9.605 8.722.893 14.95-2.447 16.302-5.032 1.353-2.585-.303-4.738-6.072-7.185-6.118-2.595-13.8-10.332-13.8-10.332-2.548-2.668-3.91-6.376-5.52-9.651-.156-.313-.395-.681-.745-.653-.349.028-.561.57-.745.92-.352.569-.898.99-1.536 1.187-.711.351-1.442.658-2.19.92a20.25 20.25 0 01-4.6 1.012 1.935 1.935 0 00-1.426.543 1.745 1.745 0 00-.156 1.334c.101.572.239 1.138.414 1.692.107.266.148.553.119.838a1.056 1.056 0 01-.92.754 2.275 2.275 0 01-1.214-.258c-1.5-.68-2.815-1.545-3.303-3.137 0 0-.248-.837-.506-1.61-.183.149-.33.337-.43.551a1.56 1.56 0 00-.15.682c-.092.672 0 1.371 0 2.052a33.26 33.26 0 00.046 5.06z" fill="#000"/><path d="M117.107 220.8l21.105-2.318 40.875 2.208s24.546 15.695 42.366 28.225c5.18 3.68 10.663 7.636 11.574 15.263 1.288 10.828 4.775 49.238 4.775 49.238-3.57 3.947-12.687 5.52-18.281 4.481-1.711-4.435-5.888-18.097-7.875-24.187a113.435 113.435 0 01-4.223-19.798l-25.99-16.312c5.723 5.824 7.6 7.719 10.599 10.746 2.631 2.658 4.37 6.007 5.143 14.618 1.536 17.076 1.646 40.48 1.84 45.715-2.153 3.009-10.866 6.974-17.766 3.505-2.355-9.144-3.413-13.616-5.455-22.135-3.938-16.468-2.53-21.96-3.312-25.521a281.125 281.125 0 01-27.655-15.98c-6.137-4.03-14.72-8.418-19.054-12.954-8.132-8.464-8.123-20.838-8.666-34.794z" fill="#37474F"/><path d="M181.433 257.6l-14.72-16.661s7.83-2.641 11.96-12.797c0 0-.92 9.632-6.688 13.864l6.872 9.31 28.52 22.577-25.944-16.293z" fill="#263238"/><path d="M198.637 369.84c.258-4.122 3.68-8.418 10.203-9.807 6.523-1.389 9.899 1.472 11.436 2.603 1.536 1.132 5.832 5.051 1.84 8.345-3.993 3.293-8.75 3.542-13.718 2.87-4.968-.672-8.39-2.401-9.761-4.011zM241.675 355.12c-.055-4.131 3.34-9.559 9.715-11.426 6.376-1.868 9.697 1.067 11.307 2.079 1.61 1.012 6.201 4.6 2.493 8.188-3.707 3.588-8.464 4.14-13.487 4.213-3.367.01-8.547-1.573-10.028-3.054z" fill="#FAFAFA"/><path d="M179.4 147.78c-3.938-3.91-9.357-7.452-12.88-7.866a30.26 30.26 0 00-8.878.101l13.643 30.36s19.155 15.465 28.649 22.144l3.045-21.399s-16.964-16.735-23.579-23.34z" fill="#FFA8A7"/><path d="M173.199 141.919c-4.416-3.238-8.905-3.579-15.98-2.76l11.73 30.553 14.039 9.964s-.092-3.524 2.53-8.409a18.522 18.522 0 019.154-8.372s-17.057-17.728-21.473-20.976z" class="svg-secondary-color" fill="#999"/><path opacity=".2" d="M173.199 141.919c-4.416-3.238-8.905-3.579-15.98-2.76l11.73 30.553 14.039 9.964s-.092-3.524 2.53-8.409a18.522 18.522 0 019.154-8.372s-17.057-17.728-21.473-20.976z" fill="#000"/><path d="M174.653 164.45c.644-16.192-8.777-24.067-17.48-25.272 0 0-3.551.496-7.001 1.159-6.799 1.297-21.326 5.593-27.407 9.025-5.18 2.916-5.677 6.348-6.587 14.858-.654 6.072-1.077 10.562-.92 28.989.082 13.478 1.711 27.287 2.06 36.589 11.776 8.28 49.266 7.185 62.836-8.455-4.94-8.648-7.921-14.941-7.691-23.239.405-14.849 1.868-25.475 2.19-33.654z" class="svg-secondary-color" fill="#999"/><path d="M177.698 97.124c0-.092 0-.184-.046-.276-.478-2.014-2.76.157-4.057.074.165-.718.92-1.205 1.196-1.84a9.59 9.59 0 00.791-2.76 10.296 10.296 0 00-.147-4.241c-1.15.423-2.199 1.085-3.367 1.5a16.158 16.158 0 01-5.852.809 113.665 113.665 0 01-13.091-1.196 28.872 28.872 0 00-8.676 0 16.047 16.047 0 00-7.047 2.953c-2.76 2.31-3.68 4.361-3.744 8.483-2.668 1.61-3.276 4.793-3.349 8.372-.092 4.425 2.171 8.491 3.983 12.401 0 0 4.6 9.927 5.668 11.877 1.251 2.254 2.355 4.15 2.355 4.15l-.755-8.363c3.036-.377 5.52.469 8.363-.718a52.755 52.755 0 007.747-4.002 76.624 76.624 0 007.433-5.271 12.88 12.88 0 011.638-1.298c.441-.239.865-.239 1.242-.588.773-.727 1.012-2.089 1.407-3.027.195-.708.451-1.397.764-2.061.35-.524 1.067-.745 1.61-1.067a7.808 7.808 0 003.524-4.251c.45-1.269.699-3.413-.184-4.6 1.021-1.499 2.87-3.082 2.594-5.06z" fill="#455A64"/><path d="M147.927 103.334c.092 2.613-1.27 8.446-5.4 10.626a18.33 18.33 0 01.276 7.36 4.935 4.935 0 01-.608 1.84 2.145 2.145 0 01-1.508 1.04c-.856.092-1.224-.414-1.509-1.067a20.87 20.87 0 00-1.389-2.438 4.797 4.797 0 00-.792-.92c-1.334-1.15-5.225-2.475-6.854 1.674-1.683 4.297 2.245 8.832 5.373 9.541 4.159.92 5.29-2.043 5.29-2.043l-2.199 17.48c1.656 4.416 10.82 10.516 17.48 9.412 6.661-1.104 3.165-6.624.819-9.743l1.242-5.52s5.98.46 9.495-.35c2.76-.644 4.922-3.312 5.915-7.562 1.84-8.105 1.104-19.476-.101-24.481-1.205-5.005-2.392-5.805-3.33-6.937-.295 1.481-1.969 3.294-6.385 4.214-6.33 1.26-11.657-.58-15.815-2.126z" fill="#FFA8A7"/><path d="M158.111 140.512c-4.885-.764-9.2-1.84-11.84-3.506-1.95-1.205-3.496-4.655-3.947-5.869 0 0-.156 4.6 2.401 7.268 3.625 3.836 12.825 4.6 12.825 4.6l.561-2.493z" fill="#F28F8F"/><path d="M154.56 111.909l-4.315 2.051a2.5 2.5 0 011.178-3.266 2.319 2.319 0 013.137 1.215z" fill="#455A64"/><path d="M155.14 128.8l6.127 2.263a3.214 3.214 0 01-4.149 2.052 3.422 3.422 0 01-1.978-4.315z" fill="#B16668"/><path d="M158.774 133.225a2.897 2.897 0 00-2.999-2.76 2.784 2.784 0 00-.736.138 3.328 3.328 0 002.079 2.475 3.105 3.105 0 001.656.147z" fill="#F28F8F"/><path d="M171.415 113.519l-4.094-2.273a2.256 2.256 0 011.364-1.12 2.27 2.27 0 011.754.2c.55.297.961.799 1.144 1.396a2.379 2.379 0 01-.168 1.797z" fill="#455A64"/><path d="M161.193 127.429l6.422-2.107-7.259-11.803.837 13.91z" fill="#F28F8F"/><path d="M166.787 117.162a1.839 1.839 0 103.678 0 1.839 1.839 0 00-3.678 0zM152.288 117.548a1.844 1.844 0 001.125 1.695 1.841 1.841 0 002.428-2.367 1.84 1.84 0 00-1.667-1.168 1.888 1.888 0 00-1.886 1.84zM203.394 316.462v94.76l-3.165-1.831v-94.76l3.165 1.831z" fill="#263238"/><path d="M203.394 316.462v94.76l3.164-1.831v-94.76l-3.164 1.831z" fill="#37474F"/><path d="M113.896 264.702v94.76l-3.165-1.83v-94.76l3.165 1.83z" fill="#263238"/><path d="M113.896 264.702v94.76l3.165-1.83v-94.76l-3.165 1.83z" fill="#37474F"/><path d="M356.721 227.939v94.76l-3.165-1.831v-94.75l3.165 1.821z" fill="#263238"/><path d="M356.721 227.939v94.76l3.165-1.831v-94.75l-3.165 1.821zM203.394 310.822v11.279l-92.663-53.59v-11.279l92.663 53.59z" fill="#37474F"/><path d="M203.394 322.101l156.501-90.344v-11.279l-156.501 90.344v11.279z" fill="#455A64"/><path d="M203.9 308.715l-96.858-55.927 159.602-91.843 96.866 55.927-159.61 91.843z" class="svg-primary-color" fill="#999"/><path opacity=".8" d="M203.9 308.715l-96.858-55.927 159.602-91.843 96.866 55.927-159.61 91.843z" fill="#fff"/><path d="M107.042 252.77v7.958l96.858 55.908v-7.939l-96.858-55.927z" class="svg-primary-color" fill="#999"/><path opacity=".5" d="M107.042 252.77v7.958l96.858 55.908v-7.939l-96.858-55.927z" fill="#fff"/><path d="M203.9 316.636l159.61-91.76v-8.023L203.9 308.697v7.939z" class="svg-primary-color" fill="#999"/><path opacity=".65" d="M203.9 316.636l159.61-91.76v-8.023L203.9 308.697v7.939z" fill="#fff"/><path d="M202.98 171.12a45.51 45.51 0 00-1.141 13.404s-3.294-8.372-1.113-15.64l2.254 2.236z" fill="#F28F8F"/><path d="M236.155 118.045c.055-.92-.635-1.141-1.362-1.104a5.35 5.35 0 00-2.953 1.187 34.952 34.952 0 00-3.57 3.8c-1.84 1.904-4.784 5.014-7.36 5.713-.533.138-1.674.276-1.168-.598a23.443 23.443 0 001.84-3.478 4.712 4.712 0 000-3.836 1.633 1.633 0 00-.837-.81c-.534-.184-.764.111-1.021.479-.287.369-.594.722-.92 1.058-.663.708-1.325 1.426-1.978 2.143-3.8 4.205-7.462 8.878-8.704 14.536-.184.819-.864 7.057-1.453 10.635-.377 3.211-3.68 23.35-3.68 23.35l-3.045 21.399c8.602 6.017 13.505 3.018 14.922.571 2.355-4.048 4.49-5.824 4.766-29.983.046-2.236 0-4.471.046-6.707-.017-2.873.22-5.743.708-8.574.616-2.852 2.834-3.726 4.26-4.729a26.085 26.085 0 005.418-4.729 23.876 23.876 0 003.68-5.088 7.36 7.36 0 001.16-2.833 20.146 20.146 0 01-.304-2.521c.11-.994.681-1.914.681-2.907a9.476 9.476 0 00-.561-2.273c-.322-1.205.184-2.125.772-3.146.341-.459.568-.992.663-1.555z" fill="#FFA8A7"/><path d="M218.758 130.907c-.147 3.266-2.043 7.516-3.459 9.025a10.12 10.12 0 003.293-4.076c.948-2.576.69-3.818.166-4.949z" fill="#F28F8F"/><path opacity=".2" d="M274.804 229.871l-39.836-23a2.31 2.31 0 00-2.291 0l-69.119 39.919a.508.508 0 000 .874l40.213 23.23 71.033-41.023z" fill="#000"/><path d="M271.833 225.032v.92a3.689 3.689 0 01-1.84 3.192l-64.4 37.168a3.737 3.737 0 01-3.68 0l-35.098-20.24a3.674 3.674 0 01-1.84-3.183v-1.242a.45.45 0 00.23.405l38.538 22.264 68.09-39.284z" fill="#37474F"/><path d="M271.833 225.023l-38.171-22.08a2.188 2.188 0 00-2.199 0l-66.24 38.244a.483.483 0 00-.245.423.488.488 0 00.245.424l38.53 22.245 68.08-39.256z" fill="#455A64"/><path d="M203.421 261.087l-20.589-11.877 60.205-34.758 20.7 11.813-60.316 34.822z" fill="#37474F"/><path d="M263.737 226.265l-.792.451-19.908-11.362-59.414 34.306-.791-.45 60.205-34.767 20.7 11.822zM193.302 228.049l.377.221 10.092 5.824 17.949-10.359.368-.212-10.469-6.054-18.317 10.58z" fill="#263238"/><path d="M193.679 228.27l10.092 5.824 17.949-10.359-10.101-5.833-17.94 10.368z" fill="#37474F"/><path d="M203.771 264.325v2.475a3.68 3.68 0 001.84-.488l64.4-37.168a3.672 3.672 0 001.84-3.192v-.92l-68.08 39.293z" fill="#263238"/><path d="M169.28 236.928s.92.469 2.365 1.048c1.324.516 2.502 1.564 5.648 2.586 3.736 1.205 8.556-.083 11.813-.212 3.257-.129 8.768 1.472 11.776 2.76 3.009 1.288 6.698-3.33 8.207-2.76 1.508.57 4.158-.598 1.416-3.395-2.741-2.797-6.706-6.67-10.074-7.847a17.985 17.985 0 00-2.364-.773 26.64 26.64 0 003.487-.644 6.148 6.148 0 002.971-1.905c.295-.377.516-.975.148-1.288a.848.848 0 00-.479-.184c-2.539-.11-4.526-.533-6.835-.736a9.491 9.491 0 00-3.101 0c-.92.24-1.895.506-2.833.81-4.223 1.389-9.909 1.297-13.092 1.233-1.306 0-4.37-.534-4.37-.534-.773-.073-1.555 1.123-2.99 4.195-2.318 4.849-1.693 7.646-1.693 7.646z" fill="#FFA8A7"/><path d="M196.641 226.513a11.451 11.451 0 00-4.6.672c2.041.136 4.059.519 6.008 1.141a26.594 26.594 0 003.486-.644 6.445 6.445 0 002.696-1.592c-1.831 1.214-5.4.672-7.59.423z" fill="#F28F8F"/><path d="M174.46 239.448c-4.104-2.125-24.647-4.535-32.329-6.605a127.262 127.262 0 01-13.57-4.361c-2.999-1.168-4.858-2.861-6.689-9.973-1.83-7.111-9.632-36.478-10.478-45.209-.847-8.73.073-13.321 3.174-17.388 2.272-2.98 8.372-5.952 8.372-5.952s7.277 3.634 9.899 14.113c2.622 10.479 2.484 16.219 2.484 16.219l7.424 31.842 16.017 6.697c7.36 3.055 13.718 6.017 16.993 6.532 3.275.515-1.297 14.085-1.297 14.085z" fill="#FFA8A7"/><path d="M123.188 149.15c-6.532 3.202-9.881 6.137-11.693 11.362-1.812 5.226-.837 12.706.423 19.32 1.261 6.615 4.186 18.768 4.186 18.768s3.349.976 12.135-1.26c8.786-2.236 10.332-5.437 10.332-5.437l-2.586-13.055s.083-24.665-12.797-29.698z" class="svg-secondary-color" fill="#999"/><path opacity=".2" d="M123.188 149.15c-6.532 3.202-9.881 6.137-11.693 11.362-1.812 5.226-.837 12.706.423 19.32 1.261 6.615 4.186 18.768 4.186 18.768s3.349.976 12.135-1.26c8.786-2.236 10.332-5.437 10.332-5.437l-2.586-13.055s.083-24.665-12.797-29.698z" fill="#000"/><path d="M204.811 264.868a4.35 4.35 0 003.753-.294l64.106-37.003a4.389 4.389 0 002.116-3.054l7.019-41.851c.037-.234.056-.471.056-.708a4.36 4.36 0 00-1.288-3.101l-66.618 38.465a3.254 3.254 0 00-1.564 2.254l-7.58 45.292z" fill="#37474F"/><path d="M203.771 264.325l.442.249c.191.112.391.211.598.294l7.58-45.292a3.263 3.263 0 011.564-2.254l66.645-38.465a4.615 4.615 0 00-.92-.681l-66.755 38.539a3.244 3.244 0 00-1.564 2.254l-7.59 45.356z" fill="#455A64"/><path d="M213.008 218.178l-1.031-.598c-.312.407-.52.884-.607 1.389l-7.599 45.356.442.249c.191.112.391.211.598.294l7.58-45.292c.094-.507.305-.986.617-1.398z" fill="#263238"/><path d="M240.911 226.237c.469-2.76 3.358-6.523 6.44-8.28 3.082-1.757 5.235-.966 4.766 1.84-.469 2.806-3.367 6.523-6.44 8.28-3.073 1.757-5.235 1.003-4.766-1.84zM54.473 368.589c0-8.032 11.574-14.545 25.862-14.545 14.287 0 25.861 6.513 25.861 14.545v1.904c0 8.032-11.574 14.545-25.861 14.545-14.288 0-25.862-6.513-25.862-14.545v-1.904z" class="svg-primary-color" fill="#999"/><path opacity=".6" d="M54.473 368.589c0-8.032 11.574-14.545 25.862-14.545 14.287 0 25.861 6.513 25.861 14.545v1.904c0 8.032-11.574 14.545-25.861 14.545-14.288 0-25.862-6.513-25.862-14.545v-1.904z" fill="#fff"/><path opacity=".1" d="M54.473 368.589c0-8.032 11.574-14.545 25.862-14.545 14.287 0 25.861 6.513 25.861 14.545v1.904c0 8.032-11.574 14.545-25.861 14.545-14.288 0-25.862-6.513-25.862-14.545v-1.904z" fill="#000"/><path d="M54.473 368.589c0 8.031 11.574 14.536 25.862 14.536 14.287 0 25.861-6.505 25.861-14.536 0-8.032-11.574-14.545-25.861-14.545-14.288 0-25.862 6.513-25.862 14.545z" class="svg-primary-color" fill="#999"/><path opacity=".75" d="M54.473 368.589c0 8.031 11.574 14.536 25.862 14.536 14.287 0 25.861-6.505 25.861-14.536 0-8.032-11.574-14.545-25.861-14.545-14.288 0-25.862 6.513-25.862 14.545z" fill="#fff"/><path opacity=".05" d="M54.473 368.589c0 8.031 11.574 14.536 25.862 14.536 14.287 0 25.861-6.505 25.861-14.536 0-8.032-11.574-14.545-25.861-14.545-14.288 0-25.862 6.513-25.862 14.545z" fill="#000"/><path d="M104.346 326.692a.554.554 0 00.552-.469l3.368-24.675a.556.556 0 00-.47-.625.563.563 0 00-.625.469l-3.367 24.665a.557.557 0 00.46.635h.082zM98.91 332.451a.55.55 0 00.543-.497l3.32-31.786a.552.552 0 00-1.094-.119l-3.322 31.795a.552.552 0 00.488.607h.064zM92.157 335.717a.553.553 0 00.552-.515l2.465-38.962a.562.562 0 00-.524-.589.524.524 0 00-.58.515l-2.465 38.935a.553.553 0 00.515.589l.037.027zM84.392 337.336a.55.55 0 00.552-.533l.81-42.32a.562.562 0 00-.544-.561.497.497 0 00-.408.139.503.503 0 00-.153.403l-.81 42.32a.548.548 0 00.333.516.565.565 0 00.21.046l.01-.01zM55.679 326.692a.546.546 0 01-.543-.469l-3.367-24.675a.552.552 0 01.46-.625.562.562 0 01.625.469l3.377 24.665a.562.562 0 01-.47.635h-.082zM61.125 332.451a.55.55 0 01-.552-.497l-3.321-31.786a.552.552 0 011.032-.326.543.543 0 01.063.207l3.293 31.795a.563.563 0 01-.497.607h-.018zM67.878 335.717a.542.542 0 01-.552-.515L64.86 296.24a.55.55 0 01.515-.589.531.531 0 01.59.515l2.456 38.935a.553.553 0 01-.516.589l-.027.027zM75.633 337.336a.55.55 0 01-.552-.533l-.8-42.32a.55.55 0 01.149-.393.546.546 0 01.384-.168.522.522 0 01.535.323c.028.07.04.144.036.219l.8 42.32a.548.548 0 01-.324.516.559.559 0 01-.21.046l-.018-.01z" fill="#FAFAFA"/><path d="M104.328 343.105c-1.398-1.721-3.284-3.349-3.753-5.622-.359-1.729-.295-3.68-1.325-5.087a15.628 15.628 0 00-2.668-2.374 7.89 7.89 0 01-1.73-9.2c-1.582-.598-3.376.203-4.655 1.307-1.279 1.104-2.3 2.52-3.68 3.505-1.84 1.343-4.25 1.748-6.385 2.631-2.134.883-4.25 2.604-4.315 4.913-.055 2.116 1.592 4.443.332 6.145-1.942 2.613-6.983.194-6.78 4.886.082 1.785.707 2.677-1.132 3.937-1.84 1.261-4.5.58-6.44 1.896a7.021 7.021 0 00-2.107 3.026c-.617 1.343-1.233 2.687-1.72 4.085a17.978 17.978 0 00-.396 11.353c.524 1.61 1.407 3.965 3.1 4.499 2.29.727 4.425 0 6.505 1.702.837.69 1.453 1.6 2.263 2.309a8.382 8.382 0 005.446 1.84c1.573 0 3.091-.58 4.6-.607 1.041.089 2.066.318 3.045.681 2.264.533 5.106.524 6.808-1.316 1.224-1.316 1.656-3.404 3.257-4.223 1.601-.819 3.68.157 5.585.101 3.174-.073 5.52-3.229 6.026-6.366.506-3.137-.304-6.302-.69-9.458-.525-4.167 2.502-7.259 2.355-11.095a5.958 5.958 0 00-1.546-3.468z" fill="#FAFAFA"/><path d="M104.328 343.105c-.58-.709-1.242-1.408-1.84-2.144-.616 1.987-1.996 3.68-2.76 5.594-.92 2.309-.92 4.876-.975 7.36v8.133c.054.494-.074.991-.359 1.398-.644.699-1.84.166-2.484-.534-.644-.699-1.297-1.6-2.245-1.619-1.122 0-2.033 1.261-3.137 1.04-1.104-.221-1.334-1.564-.92-2.493a8.197 8.197 0 011.987-2.282 3.044 3.044 0 001.114-2.686c-3.083-.396-5.769 1.968-7.977 4.158-.975.92-2.033 2.309-1.463 3.551.433.92 1.638 1.325 2.153 2.236a2.557 2.557 0 01-.92 3.155 7.462 7.462 0 01-3.542 1.095c-.82.17-1.665.17-2.484 0a2.115 2.115 0 01-1.647-1.674c-.073-.837.792-1.693 1.574-1.389-1.445-1.058-3.009-2.153-4.794-2.199-1.784-.046-3.68 1.509-3.32 3.257l-7.113-.157c.976-1.407-.174-3.284-1.38-4.499a9.9 9.9 0 01-1.996-2.382 2.825 2.825 0 01.092-2.981c.607-.773 1.794-1.169 1.941-2.144a1.604 1.604 0 00-1.38-1.628 2.501 2.501 0 00-.828 0c-.589 1.288-1.177 2.576-1.637 3.91a17.977 17.977 0 00-.396 11.353c.525 1.61 1.408 3.965 3.1 4.498 2.291.727 4.426 0 6.505 1.702.837.69 1.453 1.601 2.263 2.31a8.388 8.388 0 005.447 1.84c1.573 0 3.09-.58 4.6-.608 1.04.089 2.065.318 3.045.681 2.263.534 5.106.525 6.808-1.315 1.223-1.316 1.656-3.404 3.257-4.223 1.6-.819 3.68.156 5.584.101 3.174-.074 5.52-3.229 6.026-6.366.506-3.138-.304-6.302-.69-9.458-.525-4.168 2.502-7.259 2.355-11.095a5.96 5.96 0 00-1.564-3.496z" fill="#EBEBEB"/><path d="M69 352.424a2.591 2.591 0 01.396 2.135 7.73 7.73 0 00-.304 1.095.846.846 0 00.515.92 1.28 1.28 0 00.874-.249 3.45 3.45 0 012.401-.497 1.715 1.715 0 011.371 1.84 3.393 3.393 0 000-3.358 2.198 2.198 0 00-3.054-.653 1.997 1.997 0 00-1.187-2.364 3.29 3.29 0 00-2.64.101 3.25 3.25 0 011.628 1.03zM80.74 344.908c-.295.202-.635.331-.92.561a.918.918 0 00-.424.92c.635-.101 1.196.433 1.546.966a3.608 3.608 0 001.233 1.454c.469.23 1.058.193 1.472.506.607.478.505 1.407.34 2.162l3.008-2.015a2.13 2.13 0 00.488-.414 1.297 1.297 0 00-.304-1.684 2.937 2.937 0 00-1.757-.57 9.1 9.1 0 01-1.84-.193.494.494 0 01-.359-.276c-.073-.239.221-.433.46-.525l2.898-1.095a.447.447 0 00.104-.504.451.451 0 00-.104-.149 1.223 1.223 0 00-.671-.248 40.109 40.109 0 00-5.585-.92c.019.782 1.877 1.021.414 2.024zM87.915 332.819c-1.554-.239-3.385.571-3.68 2.098 1.28.083 2.264 1.131 3.1 2.116l1.289 1.527c.464.453.8 1.021.975 1.647.11.589 0 1.26.313 1.748.262.29.605.495.984.588a2.6 2.6 0 002.401 0 1.753 1.753 0 00.47-1.913 5.379 5.379 0 00-1.16-1.748 7.294 7.294 0 014.27.386c.308.188.678.248 1.03.166a.99.99 0 00.506-.672 2.455 2.455 0 00-1.003-2.474 4.639 4.639 0 00-2.687-.764c-2.723.018-4.186-2.3-6.808-2.705z" fill="#EBEBEB"/><path d="M104.88 369.996l6.744-46.11a.562.562 0 00-.105-.41.554.554 0 00-.364-.216.56.56 0 00-.626.47l-6.725 46.11a.552.552 0 00.46.626h.083a.562.562 0 00.552-.479M98.91 376.225a.555.555 0 00.542-.488l4.821-46.11a.558.558 0 00-.118-.405.557.557 0 00-.776-.087.537.537 0 00-.201.372l-4.82 46.111a.544.544 0 00.487.607h.064zM92.156 379.5a.562.562 0 00.552-.524l2.89-46.111a.537.537 0 00-.136-.398.54.54 0 00-.38-.181.53.53 0 00-.589.515l-2.888 46.11a.561.561 0 00.515.589h.036zM84.392 381.119a.554.554 0 00.552-.543l.92-46.11a.553.553 0 00-.543-.561.498.498 0 00-.409.139.507.507 0 00-.152.404l-.966 46.11a.555.555 0 00.543.561h.055zM76.277 381.119a.545.545 0 00.505-.349.557.557 0 00.038-.212l-.966-46.11a.555.555 0 00-.552-.543.545.545 0 00-.504.349.548.548 0 00-.039.212l.92 46.11a.552.552 0 00.598.543zM68.513 379.5a.562.562 0 00.515-.589l-2.889-46.11a.517.517 0 00-.589-.515.536.536 0 00-.487.366.544.544 0 00-.028.213l2.889 46.111a.564.564 0 00.589.524zM61.76 376.225h.064a.537.537 0 00.372-.201.543.543 0 00.116-.406l-4.821-46.111a.529.529 0 00-.198-.375.525.525 0 00-.41-.113.554.554 0 00-.372.201.547.547 0 00-.115.407l4.82 46.11a.555.555 0 00.543.488zM56.322 370.475h.074a.549.549 0 00.365-.216.552.552 0 00.104-.41l-6.743-46.11a.564.564 0 00-.626-.469.549.549 0 00-.47.625l6.744 46.111a.562.562 0 00.552.469z" fill="#FAFAFA"/><path d="M44.353 314.852a13.685 13.685 0 002.172 5.069 24.064 24.064 0 008.188 7.268c14.14 8.16 37.094 8.16 51.253 0a24.113 24.113 0 008.178-7.268 14.155 14.155 0 002.172-5.069c1.26-6.146-2.199-12.549-10.36-17.26-14.158-8.178-37.112-8.178-51.253 0-8.16 4.711-11.61 11.114-10.35 17.26zm14.62 9.908c-4.555-2.64-7.36-5.897-8.382-9.301 1.012-3.68 3.809-7.167 8.381-10.01 11.794-7.305 30.921-7.305 42.716 0 4.6 2.843 7.36 6.357 8.381 10.019-1.031 3.404-3.837 6.661-8.391 9.292-11.785 6.762-30.912 6.762-42.706 0z" class="svg-primary-color" fill="#999"/><path opacity=".75" d="M44.353 314.852a13.685 13.685 0 002.172 5.069 24.064 24.064 0 008.188 7.268c14.14 8.16 37.094 8.16 51.253 0a24.113 24.113 0 008.178-7.268 14.155 14.155 0 002.172-5.069c1.26-6.146-2.199-12.549-10.36-17.26-14.158-8.178-37.112-8.178-51.253 0-8.16 4.711-11.61 11.114-10.35 17.26zm14.62 9.908c-4.555-2.64-7.36-5.897-8.382-9.301 1.012-3.68 3.809-7.167 8.381-10.01 11.794-7.305 30.921-7.305 42.716 0 4.6 2.843 7.36 6.357 8.381 10.019-1.031 3.404-3.837 6.661-8.391 9.292-11.785 6.762-30.912 6.762-42.706 0z" fill="#fff"/><path d="M46.525 319.912a24.108 24.108 0 008.178 7.268c14.16 8.169 37.104 8.169 51.263 0a24.116 24.116 0 008.179-7.268 13.734 13.734 0 002.162-5.06l-1.601 6.394c-.736 4.443-4.048 8.776-9.964 12.19-13.487 7.774-35.346 7.774-48.833 0-5.833-3.368-9.145-7.646-9.927-12.034l-.083-.57-1.564-5.98a13.81 13.81 0 002.19 5.06z" class="svg-primary-color" fill="#999"/><path opacity=".6" d="M46.525 319.912a24.108 24.108 0 008.178 7.268c14.16 8.169 37.104 8.169 51.263 0a24.116 24.116 0 008.179-7.268 13.734 13.734 0 002.162-5.06l-1.601 6.394c-.736 4.443-4.048 8.776-9.964 12.19-13.487 7.774-35.346 7.774-48.833 0-5.833-3.368-9.145-7.646-9.927-12.034l-.083-.57-1.564-5.98a13.81 13.81 0 002.19 5.06z" fill="#fff"/><path d="M50.287 314.152c.083.424.184.838.304 1.261 1.012-3.68 3.809-7.167 8.381-10.01 11.794-7.305 30.921-7.305 42.716 0 4.6 2.843 7.36 6.357 8.381 10.019.137-.418.241-.845.313-1.279.92-5.023-2.024-10.23-8.703-14.094-11.786-6.808-30.913-6.808-42.707 0-6.67 3.864-9.568 9.071-8.685 14.103z" class="svg-primary-color" fill="#999"/><path opacity=".6" d="M50.287 314.152c.083.424.184.838.304 1.261 1.012-3.68 3.809-7.167 8.381-10.01 11.794-7.305 30.921-7.305 42.716 0 4.6 2.843 7.36 6.357 8.381 10.019.137-.418.241-.845.313-1.279.92-5.023-2.024-10.23-8.703-14.094-11.786-6.808-30.913-6.808-42.707 0-6.67 3.864-9.568 9.071-8.685 14.103z" fill="#fff"/></svg>