<svg width="460" height="460" fill="none" xmlns="http://www.w3.org/2000/svg"><path d="M376.28 234.683c-81.337-46.92-212.778-46.92-293.59 0-80.813 46.92-80.344 123.105 1.03 170.062 81.374 46.957 212.778 46.966 293.59 0 80.813-46.966 80.344-123.096-1.03-170.062z" fill="#F5F5F5"/><path d="M398.424 346.84c-6.826-3.947-17.857-3.947-24.637 0-6.781 3.947-6.753 10.332.073 14.269 6.827 3.938 17.867 3.947 24.647 0 6.781-3.947 6.744-10.322-.083-14.269zM276 218.38l126.96 73.306a1.843 1.843 0 01.671 2.51 1.843 1.843 0 01-.671.673l-49.147 28.263a5.524 5.524 0 01-5.52 0l-126.96-73.306a1.84 1.84 0 010-3.183l49.147-28.263a5.524 5.524 0 015.52 0zM113.565 299.58c26.588-15.355 69.561-15.355 95.983 0 23.35 13.57 25.935 34.573 7.885 49.873 14.563-.92 29.661 1.84 40.783 8.344 19.523 11.344 19.422 29.735-.23 41.078-19.651 11.344-51.409 11.353-70.932 0-15.529-9.025-18.63-22.512-9.347-33.359-22.393 3.238-47.021-.202-64.455-10.332-26.422-15.354-26.284-40.25.313-55.604z" fill="#E6E6E6"/><path d="M336.159 93.38l-.212 62.229 4.14 2.383.203-62.23-4.131-2.382z" fill="#E0E0E0"/><path d="M340.299 95.763h-.009l-.203 62.229 3.588-2.089.203-58.07-3.579-2.07z" fill="#F0F0F0"/><path opacity=".2" d="M340.28 99.102l.009-3.34-4.13-2.382-.01 3.33 4.131 2.392zM340.28 99.102l2.907-1.674-2.888-1.665h-.01l-.009 3.34z" fill="#000"/><path d="M336.159 60.435l-.212 28.041 4.14 2.383.203-28.041-4.131-2.383z" fill="#E0E0E0"/><path d="M340.299 62.818h-.009l-.203 28.041 3.588-2.088.203-23.883-3.579-2.07z" fill="#F0F0F0"/><path opacity=".2" d="M340.28 66.157l.009-3.34-4.13-2.382-.01 3.33 4.131 2.392zM340.28 66.157l2.907-1.665-2.888-1.674h-.01l-.009 3.34z" fill="#000"/><path d="M286.396 64.648l3.597-2.088-.211 62.229-3.598 2.088.212-62.229z" fill="#F0F0F0"/><path d="M286.184 126.877l3.598-2.088 103.665 59.846-3.597 2.088-103.666-59.846z" fill="#F5F5F5"/><path d="M282.274 57.51l111.937 64.62-.239 71.76-111.937-64.648.239-71.733zM389.85 186.76l.212-62.229-103.666-59.8-.212 62.229 103.666 59.8z" fill="#E0E0E0"/><path d="M282.274 57.51l3.598-2.09 111.927 64.622-3.588 2.088-111.937-64.62z" fill="#F5F5F5"/><path d="M394.211 122.13l3.588-2.088-.23 71.732-3.597 2.088.239-71.732zM286.396 31.703l3.597-2.088-.211 28.041-3.598 2.089.212-28.042z" fill="#F0F0F0"/><path d="M286.184 59.745l3.598-2.089 103.665 59.846-3.597 2.089-103.666-59.846z" fill="#F5F5F5"/><path d="M282.274 24.564l111.937 64.62-.239 37.546-111.937-64.62.239-37.546zM389.85 119.6l.23-28.05-103.684-59.847-.212 28.042L389.85 119.6z" fill="#E0E0E0"/><path d="M282.274 24.564l3.598-2.088 111.927 64.62-3.588 2.089-111.937-64.621z" fill="#F5F5F5"/><path d="M394.211 89.185l3.588-2.089-.23 37.546-3.597 2.088.239-37.545zM99.185 93.582l.065 22.439 2.723 1.573-.074-25.576-2.714 1.564z" fill="#F0F0F0"/><path d="M69.892 132.968l.01 3.146 32.071-18.52-2.724-1.573-29.357 16.947z" fill="#F5F5F5"/><path d="M105.174 86.351l-38.64 22.301.092 33.12 38.64-22.31-.092-33.11zM69.92 136.16v-3.146l-.064-22.439 29.357-16.947 2.76-1.564.073 25.576-32.126 18.52z" fill="#E0E0E0"/><path d="M105.174 86.351l-2.723-1.582-38.64 22.31 2.723 1.573 38.64-22.3z" fill="#F5F5F5"/><path d="M63.811 107.079l.102 33.129 2.713 1.573-.092-33.129-2.723-1.573zM99.167 143.934l.064 22.439 2.714 1.582-.064-25.585-2.714 1.564z" fill="#F0F0F0"/><path d="M69.874 183.319l.01 3.147 32.061-18.511-2.714-1.582-29.357 16.946z" fill="#F5F5F5"/><path d="M105.156 136.703l-38.64 22.31.092 33.12 38.64-22.31-.092-33.12zM69.92 186.466v-3.147l-.064-22.439 29.357-16.946 2.714-1.564.064 25.585-32.07 18.511z" fill="#E0E0E0"/><path d="M105.156 136.703l-2.723-1.583-38.64 22.31 2.723 1.583 38.64-22.31z" fill="#F5F5F5"/><path d="M63.793 157.43l.092 33.13 2.723 1.582-.092-33.129-2.723-1.583z" fill="#F0F0F0"/><path d="M156.667 116.582v-5.446l-.267.184-.46.267c-4.02 2.429-8.059 6.247-11.822 10.377-.613.681-1.227 1.371-1.84 2.07-3.165 3.634-6.274 7.471-9.458 11.04v8.805l3.846-2.217a84.528 84.528 0 0120.001-25.08zM156.713 130.097v-7.286a46.085 46.085 0 00-8.161 12.015l8.161-4.729z" fill="#EBEBEB"/><path d="M148.525 134.826a46.082 46.082 0 018.16-12.015v-6.229a84.57 84.57 0 00-20.001 25.098l11.841-6.836v-.018zM140.493 109.075l.552-.193c1.031-.368 2.07-.8 3.119-1.279l.377-.184c.359-.165.709-.34 1.058-.524a46.126 46.126 0 001.84-.975c-.616.349-1.223.671-1.84.975l.221-.101a19.459 19.459 0 001.61-.92l.34-.194.276-.165a57.987 57.987 0 008.225-5.888l.35-.304v-9.2c-5.842 2.99-11.592 3.92-16.229 2.475a14.185 14.185 0 01-7.682-5.952l.064 23.92a28.27 28.27 0 007.719-1.491zM144.127 121.928c3.763-4.131 7.802-7.949 11.822-10.378l.46-.267.249-.147v-5.272a114.532 114.532 0 00-21.519 16.376c-.782.746-1.555 1.509-2.337 2.236v10.598c3.183-3.606 6.293-7.442 9.458-11.04a79.975 79.975 0 011.867-2.106z" fill="#FAFAFA"/><path d="M156.639 105.864v-6.495l-.349.304a57.987 57.987 0 01-8.225 5.888l-.276.165-.341.194c-.542.303-1.076.598-1.61.92l-.22.101-.148.083.148-.083c-.35.184-.7.349-1.049.524l-.387.184c-1.048.479-2.088.92-3.118 1.279l.588-.212-.588.212-.552.193a28.276 28.276 0 01-7.747 1.537v13.864c.782-.727 1.555-1.49 2.337-2.236a114.558 114.558 0 0121.537-16.422z" fill="#EBEBEB"/><path d="M156.575 82.717V75.91c-3.68-.865-6.56-3.551-8.059-7.571l-8.161 4.71a16.844 16.844 0 0016.22 9.67z" fill="#FAFAFA"/><path d="M140.364 92.635c4.6 1.444 10.387.515 16.229-2.475v-7.443a16.844 16.844 0 01-16.256-9.669l-7.682 4.434v9.2a14.188 14.188 0 007.709 5.953z" fill="#EBEBEB"/><path d="M157.863 61.382L131.302 76.72l.194 69.478 26.56-15.336-.193-69.479zm-25.024 82.497V110.612l-.065-23.92v-9.2l7.682-4.435 8.161-4.71 8.022-4.6V130.134l-8.188 4.729-11.767 6.817-3.845 2.199z" fill="#fff"/><path d="M156.556 75.91V63.7l-8.022 4.6c1.426 4.058 4.333 6.744 8.022 7.61z" fill="#EBEBEB"/><path d="M158.056 130.861l-26.56 15.336.009 1.84 28.152-16.247-1.601-.929z" fill="#CACACA"/><path d="M157.863 61.382l.193 69.479 1.601.929-.203-71.328-1.591.92z" fill="#F0F0F0"/><path d="M163.76 53.066l-36.754 21.206.23 81.208 36.717-21.16-.193-81.254zm-32.2 94.98v-1.84l-.193-69.478 26.56-15.336 1.592-.92.202 71.327-28.161 16.247z" fill="#E0E0E0"/><path d="M163.723 53.066l-3.027-1.629-36.726 21.206 3.036 1.629 36.717-21.206z" fill="#F5F5F5"/><path d="M123.97 72.643l.23 81.172 3.036 1.619-.23-81.162-3.036-1.629z" fill="#F0F0F0"/><path d="M89.856 102.102l8.014 6.302.009 6.154-26.625 15.374-.018-6.155 5.078-10.083 4.554 3.542-1.61 5.004 2.337-4.443 8.261-15.695z" fill="#E0E0E0"/><path d="M81.117 105.202c1.25-.727 2.272-.138 2.272 1.297a4.978 4.978 0 01-2.263 3.901c-1.252.727-2.273.138-2.273-1.297a4.96 4.96 0 012.264-3.901zM89.838 152.453l8.004 6.302.019 6.155-26.625 15.382-.019-6.164 5.079-10.074 4.554 3.533-1.61 5.005 2.337-4.444 8.261-15.695z" fill="#E0E0E0"/><path d="M81.089 155.554c1.26-.718 2.272-.138 2.281 1.297a4.987 4.987 0 01-2.263 3.919c-1.251.727-2.272.147-2.272-1.297a4.986 4.986 0 012.254-3.919zM226.541 176.714v72.992l124.154 71.3v-72.992l-124.154-71.3zM399.666 219.825v73.002l-48.971 28.179v-72.992l48.971-28.189z" fill="#E0E0E0"/><path opacity=".1" d="M226.541 176.714v72.992l124.154 71.3v-72.992l-124.154-71.3z" fill="#000"/><path opacity=".2" d="M399.666 219.825v73.002l-48.971 28.179v-72.992l48.971-28.189z" fill="#000"/><path d="M286.718 256.882l58.116 33.378v-17.14l-58.116-33.368v17.13zM344.834 269.026v-17.618l-58.116-33.368v17.609l58.116 33.377zM280.858 214.673l-48.448-27.83v17.618l48.448 27.821v-17.609zM286.718 277.509l58.116 33.368v-16.523l-58.116-33.378v16.533zM280.858 236.385l-48.448-27.83v17.139l48.448 27.821v-17.13zM232.41 229.788v16.524l48.448 27.83v-16.533l-48.448-27.821z" fill="#E0E0E0"/><path d="M224.784 169.915l127.043 72.965 49.597-28.548-127.117-73.011-49.523 28.594z" fill="#EBEBEB"/><path d="M224.784 169.915v7.452l127.042 72.974v-7.461l-127.042-72.965z" fill="#E0E0E0"/><path d="M401.424 214.332v7.462l-49.598 28.547v-7.461l49.598-28.548z" fill="#E0E0E0"/><path opacity=".1" d="M401.424 214.332v7.462l-49.598 28.547v-7.461l49.598-28.548z" fill="#000"/><path d="M402.675 324.162l-16.56.478-16.56-.478c-.709 11.169 1.472 22.54 4.48 28.097a7.485 7.485 0 003.275 3.33c4.876 2.815 12.752 2.815 17.6 0a7.354 7.354 0 003.275-3.413c3.045-5.594 5.198-16.9 4.49-28.014z" fill="#fff"/><path d="M397.799 317.4c6.44 3.744 6.504 9.807.073 13.542-6.43 3.736-16.9 3.745-23.377 0-6.477-3.744-6.495-9.807-.055-13.542 6.44-3.735 16.882-3.744 23.359 0z" fill="#EBEBEB"/><path d="M395.232 318.881c5.06 2.917 5.078 7.645.064 10.562-5.014 2.916-13.183 2.916-18.243 0-5.06-2.917-5.079-7.645-.055-10.562 5.023-2.916 13.183-2.916 18.234 0z" fill="#E0E0E0"/><path opacity=".15" d="M395.232 318.881c5.06 2.917 5.078 7.645.064 10.562-5.014 2.916-13.183 2.916-18.243 0-5.06-2.917-5.079-7.645-.055-10.562 5.023-2.916 13.183-2.916 18.234 0z" fill="#000"/><path d="M413.319 253.626c-37.251 12.199-37.582 37.122-29.191 54.868 2.125 3.588 8.528 5.52 14.112-16.56l-9.788 1.252 11.408-5.778 2.962-8.86-9.513.709 12.071-5.097a178.915 178.915 0 017.939-20.534z" class="svg-primary-color" fill="#999"/><path opacity=".2" d="M413.319 253.626c-37.251 12.199-37.582 37.122-29.191 54.868 2.125 3.588 8.528 5.52 14.112-16.56l-9.788 1.252 11.408-5.778 2.962-8.86-9.513.709 12.071-5.097a178.915 178.915 0 017.939-20.534z" fill="#000"/><path opacity=".2" d="M413.319 253.626c-37.251 12.199-37.582 37.122-29.191 54.868 2.125 3.588 8.528 5.52 14.112-16.56l-9.788 1.252 11.408-5.778 2.962-8.86-9.513.709 12.071-5.097a178.915 178.915 0 017.939-20.534z" fill="#fff"/><path d="M402.785 259.854c-19.642 14.913-21.418 32.007-15.87 49.855-1.96-15.714-4.085-31.602 15.87-49.855z" fill="#fff"/><path d="M350.226 278.944c36.726 5.17 41.179 28.318 36.303 46.248-1.371 3.68-7.02 6.56-15.889-13.073l9.32-.46-11.574-3.459-4.232-7.756 8.97-.92-12.079-2.76a168.396 168.396 0 00-10.819-17.82z" class="svg-primary-color" fill="#999"/><path opacity=".2" d="M350.226 278.944c36.726 5.17 41.179 28.318 36.303 46.248-1.371 3.68-7.02 6.56-15.889-13.073l9.32-.46-11.574-3.459-4.232-7.756 8.97-.92-12.079-2.76a168.396 168.396 0 00-10.819-17.82z" fill="#fff"/><path opacity=".1" d="M350.226 278.944c36.726 5.17 41.179 28.318 36.303 46.248-1.371 3.68-7.02 6.56-15.889-13.073l9.32-.46-11.574-3.459-4.232-7.756 8.97-.92-12.079-2.76a168.396 168.396 0 00-10.819-17.82z" fill="#000"/><path d="M361.072 282.992c20.774 10.626 25.273 26.248 23.065 43.792-.782-14.959-1.417-30.112-23.065-43.792z" fill="#fff"/><path d="M424.12 287.62c-33.681.542-40.287 20.92-37.895 37.618.819 3.487 5.594 6.698 15.778-10l-8.353-1.454 10.828-1.84 4.683-6.513-8.041-1.831 11.196-1.104a152.446 152.446 0 0111.804-14.876z" class="svg-primary-color" fill="#999"/><path d="M413.844 290.058c-19.919 7.249-25.715 20.828-25.687 36.882 2.374-13.395 4.683-26.974 25.687-36.882z" fill="#fff"/><path opacity=".2" d="M424.12 287.62c-33.681.542-40.287 20.92-37.895 37.618.819 3.487 5.594 6.698 15.778-10l-8.353-1.454 10.828-1.84 4.683-6.513-8.041-1.831 11.196-1.104a152.446 152.446 0 0111.804-14.876z" fill="#fff"/><path d="M196.705 246.68c9.062 6.302 19.32 10.653 26.855 19.099 14.141 15.769 14.472 41.142 3.367 59.183-11.104 18.042-31.776 28.879-52.817 31.354-22.08 2.604-45.236-3.496-62.56-17.425-17.323-13.929-28.345-35.705-28.336-57.96.01-22.255 11.399-44.362 30.011-56.497 16.992-11.04 41.4-14.242 58.438-1.564 8.611 6.44 14.361 15.861 23 22.292.644.542 1.343 1.039 2.042 1.518z" class="svg-primary-color" fill="#999"/><path opacity=".2" d="M196.705 246.68c9.062 6.302 19.32 10.653 26.855 19.099 14.141 15.769 14.472 41.142 3.367 59.183-11.104 18.042-31.776 28.879-52.817 31.354-22.08 2.604-45.236-3.496-62.56-17.425-17.323-13.929-28.345-35.705-28.336-57.96.01-22.255 11.399-44.362 30.011-56.497 16.992-11.04 41.4-14.242 58.438-1.564 8.611 6.44 14.361 15.861 23 22.292.644.542 1.343 1.039 2.042 1.518z" fill="#000"/><path opacity=".1" d="M196.705 246.68c9.062 6.302 19.32 10.653 26.855 19.099 14.141 15.769 14.472 41.142 3.367 59.183-11.104 18.042-31.776 28.879-52.817 31.354-22.08 2.604-45.236-3.496-62.56-17.425-17.323-13.929-28.345-35.705-28.336-57.96.01-22.255 11.399-44.362 30.011-56.497 16.992-11.04 41.4-14.242 58.438-1.564 8.611 6.44 14.361 15.861 23 22.292.644.542 1.343 1.039 2.042 1.518z" fill="#fff"/><path opacity=".1" d="M193.007 339.084c0-.147 0-.303-.065-.45a23.92 23.92 0 00-19.32-19.891 75.433 75.433 0 01-24.775-9.485c-5.419-3.275-10.534-7.296-16.606-9.062a27.127 27.127 0 00-17.903 1.03c5.106-5.354 13.855-7.709 20.856-5.29-4.839-7.406-9.099-15.391-10.773-24.085-1.675-8.694-.479-18.225 4.756-25.365a25.526 25.526 0 0119.201-10.368 25.511 25.511 0 0120.194 8.271c5.198 5.676 8.123 13.662 11.527 20.562 2.447 4.949 4.987 10.019 9.016 13.8 6.091 5.695 14.849 7.746 21.16 13.193 7.167 6.182 10.249 16.063 10.286 25.511a75.17 75.17 0 01-2.76 18.869 71.66 71.66 0 01-25.898 15.834 28.066 28.066 0 001.104-13.074z" fill="#000"/><path d="M95.073 277.914a64.854 64.854 0 0155.347-62.984 45.18 45.18 0 016.256 1.049 63.255 63.255 0 00-42.128 19.206 63.254 63.254 0 00-17.764 42.756c-.405 20.691 9.715 41.777 27.076 56.405 13.597 11.464 31.666 19.072 51.52 21.804l-1.27.166a87.066 87.066 0 01-5.373.46c-17.645-3.422-33.616-10.7-46-21.16-17.728-14.922-28.078-36.506-27.664-57.702z" fill="#fff"/><path d="M201.02 354.292l-2.3 4.508c-3.22-2.972-3.8-5.373-3.8-5.373 1.04-3.68 2.254-7.415 2.852-9.2.313 2.53 2.043 4.711 2.76 7.176.279.94.443 1.91.488 2.889z" class="svg-primary-color" fill="#999"/><path d="M200.91 358.91l-2.19-.11 2.273-4.508c.092 1.527-.037 3.073-.083 4.618z" class="svg-primary-color" fill="#999"/><path opacity=".1" d="M201.02 354.292l-2.3 4.508c-3.22-2.972-3.8-5.373-3.8-5.373 1.04-3.68 2.254-7.415 2.852-9.2.313 2.53 2.043 4.711 2.76 7.176.279.94.443 1.91.488 2.889z" fill="#000"/><path opacity=".4" d="M200.91 358.91l-2.19-.11 2.273-4.508c.092 1.527-.037 3.073-.083 4.618z" fill="#000"/><path d="M199.263 338.873a19.751 19.751 0 012.686-3.137 10.963 10.963 0 000 6.016c.681 2.613 1.905 5.06 2.512 7.692.745 3.192.58 6.633 1.932 9.623a10.326 10.326 0 007.222 5.759 4.6 4.6 0 003.422-.414c.44-.313.763-.763.92-1.279a23.136 23.136 0 002.466 4.021c1.067 1.389 2.401 2.907 2.107 4.6a3.68 3.68 0 01-3.018 2.76 9.71 9.71 0 01-4.287-.35 26.815 26.815 0 01-8.593-3.505 12.88 12.88 0 01-5.455-7.314 16.428 16.428 0 01-.332-4.462c.046-1.546.175-3.091.111-4.6a12.11 12.11 0 00-.451-2.917c-.727-2.465-2.456-4.646-2.76-7.176 0-.138-.046-.276-.055-.414a8.185 8.185 0 011.573-4.903z" fill="#455A64"/><path d="M199.263 338.873a19.751 19.751 0 012.686-3.137 10.963 10.963 0 000 6.016c.681 2.613 1.905 5.06 2.512 7.692.745 3.192.58 6.633 1.932 9.623a10.326 10.326 0 007.222 5.759 4.6 4.6 0 003.422-.414c.44-.313.763-.763.92-1.279a23.136 23.136 0 002.466 4.021c1.067 1.389 2.401 2.907 2.107 4.6a3.68 3.68 0 01-3.018 2.76 9.71 9.71 0 01-4.287-.35 26.815 26.815 0 01-8.593-3.505 12.88 12.88 0 01-5.455-7.314 16.428 16.428 0 01-.332-4.462c.046-1.546.175-3.091.111-4.6a12.11 12.11 0 00-.451-2.917c-.727-2.465-2.456-4.646-2.76-7.176 0-.138-.046-.276-.055-.414a8.185 8.185 0 011.573-4.903z" class="svg-primary-color" fill="#999"/><path d="M213.652 364.826a10.336 10.336 0 01-7.222-5.759c-1.353-2.99-1.187-6.44-1.932-9.623-.607-2.632-1.84-5.079-2.512-7.692a10.963 10.963 0 010-6.016l.782-.773c3.873 2.015 8.28 3.68 11.813 6.237a83.024 83.024 0 00.856 13.524 31.883 31.883 0 002.622 8.409 2.452 2.452 0 01-.92 1.279 4.601 4.601 0 01-3.487.414z" fill="#AD5755"/><path d="M226.808 352.894c.644 3.744 3.505 11.362 3.505 11.362s-13.432.542-13.727-.074l-3.946-6.1 14.168-5.188z" fill="#C77371"/><path d="M186.604 263.874l34.251 19.09a16.964 16.964 0 018.428 17.922l-6.643 35.834 5.447 17.324c-4.702 6.311-15.502 6.633-15.502 6.633-6.017-12.089-10.442-17.223-13.865-27.343-3.422-10.12-5.704-17.102-5.704-17.102l-28.446-7.784a33.697 33.697 0 01-16.723-10.557 33.7 33.7 0 01-7.924-18.119c-.488-4.306-.506-7.24-.506-7.24l47.187-8.658z" fill="#37474F"/><path opacity=".2" d="M186.346 273.498a16.189 16.189 0 01-3.836 10.442l24.177 15.134a17.365 17.365 0 017.36 9.641l8.593 28.005-7.719-31.151a14.116 14.116 0 00-6.283-8.621l-22.319-13.8c2.281-5.722.027-9.65.027-9.65z" fill="#000"/><path d="M223.026 381.616l-.312 5.032c-4.122-1.472-5.603-3.44-5.603-3.44-.488-3.791-.847-7.71-1.012-9.614 1.279 2.208 3.726 3.532 5.373 5.52a11.968 11.968 0 011.554 2.502zM224.747 385.903l-2.033.745.312-5.032c.663 1.371 1.16 2.843 1.721 4.287z" class="svg-primary-color" fill="#999"/><path opacity=".3" d="M224.747 385.903l-2.033.745.312-5.032c.663 1.371 1.16 2.843 1.721 4.287z" fill="#000"/><path d="M215.354 368.129a19.833 19.833 0 011.232-3.947 10.965 10.965 0 002.402 5.52c1.656 2.144 3.744 3.91 5.336 6.081 1.941 2.65 3.137 5.879 5.52 8.096a10.306 10.306 0 008.905 2.457 4.547 4.547 0 003.027-1.776 2.53 2.53 0 00.368-1.546 23.067 23.067 0 003.846 2.76c1.527.847 3.348 1.721 3.762 3.423a3.717 3.717 0 01-.289 2.116 3.72 3.72 0 01-1.403 1.61 9.733 9.733 0 01-4.085 1.361 26.658 26.658 0 01-9.283.157 12.829 12.829 0 01-7.884-4.6 16.237 16.237 0 01-2.061-3.965c-.561-1.445-1.058-2.917-1.721-4.288a12.03 12.03 0 00-1.554-2.511c-1.647-1.978-4.094-3.303-5.373-5.52-.065-.12-.147-.23-.212-.35a8.278 8.278 0 01-.533-5.078z" class="svg-primary-color" fill="#999"/><path opacity=".2" d="M215.354 368.129a19.833 19.833 0 011.232-3.947 10.965 10.965 0 002.402 5.52c1.656 2.144 3.744 3.91 5.336 6.081 1.941 2.65 3.137 5.879 5.52 8.096a10.306 10.306 0 008.905 2.457 4.547 4.547 0 003.027-1.776 2.53 2.53 0 00.368-1.546 23.067 23.067 0 003.846 2.76c1.527.847 3.348 1.721 3.762 3.423a3.717 3.717 0 01-.289 2.116 3.72 3.72 0 01-1.403 1.61 9.733 9.733 0 01-4.085 1.361 26.658 26.658 0 01-9.283.157 12.829 12.829 0 01-7.884-4.6 16.237 16.237 0 01-2.061-3.965c-.561-1.445-1.058-2.917-1.721-4.288a12.03 12.03 0 00-1.554-2.511c-1.647-1.978-4.094-3.303-5.373-5.52-.065-.12-.147-.23-.212-.35a8.278 8.278 0 01-.533-5.078z" fill="#fff"/><path d="M238.786 386.326a10.31 10.31 0 01-8.906-2.456c-2.419-2.217-3.615-5.446-5.52-8.096-1.591-2.171-3.68-3.938-5.336-6.081a10.964 10.964 0 01-2.401-5.52l.414-1.012c4.352.322 9.062.11 13.313 1.085a83.512 83.512 0 006.09 12.098 31.457 31.457 0 005.723 6.707 2.536 2.536 0 01-.368 1.546 4.537 4.537 0 01-3.009 1.729z" fill="#C77371"/><path d="M222.576 134.118a6.719 6.719 0 01-.734 5.113 6.718 6.718 0 01-4.151 3.075 36.287 36.287 0 01-4.545-8.878c.437-1.195.763-2.426.975-3.68 3.367-.23 7.599 1.104 8.455 4.37z" fill="#AD5755"/><path d="M212.805 132.406v-3.045a5.06 5.06 0 01.405-2.392 2.534 2.534 0 013.135-1.149c.379.147.718.384.987.689a1.932 1.932 0 012.042-.276 1.838 1.838 0 011.04 1.721 1.916 1.916 0 011.913-.322 1.657 1.657 0 011.086 1.426 1.836 1.836 0 011.454 1.021c.222.509.287 1.073.184 1.619a5.273 5.273 0 01-1.482 2.962 2.418 2.418 0 01-.92.617 1.129 1.129 0 01-1.067-.175.767.767 0 01-.129-1.012 1.734 1.734 0 01-1.205.34 1.099 1.099 0 01-.443-.282 1.092 1.092 0 01-.265-.454 3.15 3.15 0 01-.12-1.058 1.477 1.477 0 01-1.72.755 1.434 1.434 0 01-.865-1.629 5.363 5.363 0 01-.598.828 1.037 1.037 0 01-1.303.115 1.024 1.024 0 01-.316-.345 2.557 2.557 0 01-.359-.966c-.423.359-1.021.654-1.454 1.012z" fill="#C77371"/><path d="M209.41 146.004l2.19-6.164v-5.888a2.219 2.219 0 011.159-1.941l.865-.46a2.2 2.2 0 012.144 0l4.121 2.373a2.76 2.76 0 01-3.514 1.224l-1.095-.46c4.71 4.204 2.935 7.194 2.935 7.194l-2.834 6.983-5.971-2.861z" fill="#C77371"/><path d="M181.709 203.32l26.211-59.736c6.928-1.159 9.623 2.908 10.203 5.52l-26.68 72.138-9.734-17.922z" class="svg-secondary-color" fill="#999"/><path opacity=".3" d="M181.709 203.32l26.211-59.736c6.928-1.159 9.623 2.908 10.203 5.52l-26.68 72.138-9.734-17.922z" fill="#fff"/><path d="M147.255 237.461c-4.793-2.493-9.549-5.271-13.054-9.2-3.506-3.928-5.612-9.31-4.334-14.315 1.169-4.6 4.895-8.17 8.667-11.288 3.772-3.119 7.857-6.137 10.175-10.323 2.76-5.014 2.604-10.939 2.972-16.56.368-5.621 1.674-11.776 6.329-15.355 3.625-2.76 8.694-3.459 13.313-2.76 4.618.7 8.905 2.668 13.073 4.674 2.907 1.398 7.783 3.763 10.12 5.897 2.337 2.135 4.103 5.042 4.039 8.115a7.134 7.134 0 01-5.52 6.789c.92 5.999-1.712 13.037-8.096 17.48-5.033 3.478-2.65 10.553-6.164 15.64-3.515 5.088-7.066 10.194-11.85 14.242s-14.03 9.89-19.67 6.964z" fill="#263238"/><path d="M182.445 199.796c6.183.985 9.329 20.967 11.335 26.901 2.079 6.127-.745 10.571-3.883 14.279a6.341 6.341 0 00-1.444 4.903l6.495 24.141c-17.737 13.165-47.472 6.78-55.531 2.484a57.044 57.044 0 015.207-24.435 40.046 40.046 0 003.929-15.815l.303-8.86-.92-25.861 14.177 6.909 13.57-.607s4.748-4.351 6.762-4.039z" class="svg-secondary-color" fill="#999"/><path opacity=".1" d="M182.445 199.796c6.183.985 9.329 20.967 11.335 26.901 2.079 6.127-.745 10.571-3.883 14.279a6.341 6.341 0 00-1.444 4.903l6.495 24.141c-17.737 13.165-47.472 6.78-55.531 2.484a57.044 57.044 0 015.207-24.435 40.046 40.046 0 003.929-15.815l.303-8.86-.92-25.861 14.177 6.909 13.57-.607s4.748-4.351 6.762-4.039z" fill="#fff"/><path d="M175.72 197.8v12.135l1.564 6.265a1.631 1.631 0 01-1.832 1.993 1.631 1.631 0 01-.928-.484l-12.401-13.276v-12.944l13.597 6.311z" fill="#C77371"/><path d="M162.656 191.728c1.15 8.574 9.136 14.564 13.036 15.502v-9.43l-13.036-6.072z" fill="#AD5755"/><path d="M166.677 181.985a13.33 13.33 0 01-.782 3.165 3.853 3.853 0 01-1.656 1.785 2.413 2.413 0 01-2.291 0 4.259 4.259 0 00-4.77-6.254 4.256 4.256 0 00-2.59 1.976 5.342 5.342 0 00-.405 4.499 10.119 10.119 0 002.558 3.845 3.603 3.603 0 004.6-.395c2.465 6.21 8.28 12.033 14.904 13.413a9.696 9.696 0 005.446-.276c3.018-1.168 4.048-3.974 5.198-6.716a41.84 41.84 0 003.11-10.791c.662-5.162-.092-10.654-2.963-14.996-5.382 10.046-16.367 11.067-20.359 10.745z" fill="#C77371"/><path d="M180.219 187.671l2.815 6.789-4.545.194 1.73-6.983zM180.246 198.131l-5.713-2.171a4.213 4.213 0 00-.533 2.76 2.902 2.902 0 001.674 2.171 3.157 3.157 0 002.806-.331 6.068 6.068 0 001.766-2.429z" fill="#AD5755"/><path opacity=".3" d="M180.246 198.131l-5.713-2.171a4.213 4.213 0 00-.533 2.76 2.902 2.902 0 001.674 2.171 3.157 3.157 0 002.806-.331 6.068 6.068 0 001.766-2.429z" fill="#000"/><path d="M173.77 186.999a1.292 1.292 0 00.468 1.355 1.288 1.288 0 10-.468-1.355zM184.34 189.198a1.29 1.29 0 001.893 1.339 1.29 1.29 0 00.601-.723 1.29 1.29 0 00-1.893-1.339 1.29 1.29 0 00-.601.723zM185.95 183.264l3.064 1.61a1.845 1.845 0 00-.791-1.941 2.175 2.175 0 00-2.273.331zM176.732 181.442l-3.422.525a1.841 1.841 0 011.38-1.573 2.177 2.177 0 012.042 1.048z" fill="#263238"/><path d="M173.954 197.947a3.699 3.699 0 000 .773c.053.408.199.799.427 1.142a2.693 2.693 0 002.048 1.203c.41.031.822-.031 1.205-.183a3.875 3.875 0 00-1.298-2.107 3.909 3.909 0 00-2.382-.828z" fill="#AD5755"/><path d="M236.054 278.751c.004.058.004.116 0 .175v-.405a.983.983 0 010 .23z" fill="#E0E0E0"/><path opacity=".2" d="M236.054 278.751c.004.058.004.116 0 .175v-.405a.983.983 0 010 .23z" fill="#000"/><path d="M236.063 278.935c-.033.08-.073.157-.12.23a.829.829 0 01-.082.156 1.32 1.32 0 01-.221.239.72.72 0 01-.111.129 2.96 2.96 0 01-.469.331l-41.4 23.92a3.3 3.3 0 01-.552.258h-.092a4.436 4.436 0 01-.506.147h-.101a5.834 5.834 0 01-.589.101H190.311l-.45-.073-.359-.092-.276-.083a3.684 3.684 0 01-.727-.313l-25.061-14.573a2.58 2.58 0 01-.46-.331 2.082 2.082 0 01-.303-.34 1.56 1.56 0 01-.184-.35 1.249 1.249 0 01-.046-.451 1.83 1.83 0 011.058-1.416l41.4-23.874a5.621 5.621 0 015.142 0l25.07 14.563a1.843 1.843 0 011.058 1.491.983.983 0 010 .23c-.034.036-.071.07-.11.101z" fill="#E0E0E0"/><path d="M232.622 278.53l-40.185 23.23-.157.083h-.083l-.312.092-.221.046h-.157a3.717 3.717 0 01-.395 0h-.414l-.267-.046-.322-.092a2.339 2.339 0 01-.276-.111l-12.926-7.516 41.501-23.966 14.214 8.28zM194.396 272.145l7.563 4.453a.766.766 0 01.275 1.037.774.774 0 01-.275.279l-11.307 6.522a1.238 1.238 0 01-1.261 0l-7.562-4.443a.77.77 0 01-.384-.663.765.765 0 01.384-.662l11.298-6.523a1.25 1.25 0 011.269 0z" fill="#E0E0E0"/><path opacity=".4" d="M232.622 278.53l-40.185 23.23-.157.083h-.083l-.312.092-.221.046h-.157a3.717 3.717 0 01-.395 0h-.414l-.267-.046-.322-.092a2.339 2.339 0 01-.276-.111l-12.926-7.516 41.501-23.966 14.214 8.28zM194.396 272.145l7.563 4.453a.766.766 0 01.275 1.037.774.774 0 01-.275.279l-11.307 6.522a1.238 1.238 0 01-1.261 0l-7.562-4.443a.77.77 0 01-.384-.663.765.765 0 01.384-.662l11.298-6.523a1.25 1.25 0 011.269 0z" fill="#000"/><path d="M191.36 302.422l4.278-27.232a5.022 5.022 0 012.438-3.56l41.649-24.214a1.236 1.236 0 011.103-.074l.994.488-.331.128c.109.229.144.487.101.736l-4.232 27.232a5.014 5.014 0 01-2.438 3.561L193.2 303.701a1.419 1.419 0 01-.267.111v.395l-.92-.469a1.245 1.245 0 01-.653-1.316z" fill="#E0E0E0"/><path opacity=".3" d="M191.36 302.422l4.278-27.232a5.022 5.022 0 012.438-3.56l41.649-24.214a1.236 1.236 0 011.103-.074l.994.488-.331.128c.109.229.144.487.101.736l-4.232 27.232a5.014 5.014 0 01-2.438 3.561L193.2 303.701a1.419 1.419 0 01-.267.111v.395l-.92-.469a1.245 1.245 0 01-.653-1.316z" fill="#000"/><path d="M198.923 272.044l41.648-24.205a1.253 1.253 0 011.75.599c.093.214.124.449.09.68l-4.278 27.222a5.038 5.038 0 01-.815 2.061 5.037 5.037 0 01-1.623 1.509l-41.575 24.205a1.253 1.253 0 01-1.75-.599 1.248 1.248 0 01-.09-.68l4.278-27.222a5.057 5.057 0 012.365-3.57z" fill="#E0E0E0"/><path d="M219.107 272.752a9.212 9.212 0 00-4.131 5.953c-.276 2.125 1.132 2.916 3.147 1.748a9.199 9.199 0 004.131-5.953c.276-2.125-1.141-2.907-3.147-1.748z" fill="#fff"/><path d="M122.001 148.865c-6.964-3.413-13.147 3.883-11.04 7.655 2.107 3.772 15.603-.47 11.04-7.655z" class="svg-primary-color" fill="#999"/><path opacity=".3" d="M122.001 148.865c-6.964-3.413-13.147 3.883-11.04 7.655 2.107 3.772 15.603-.47 11.04-7.655z" fill="#000"/><path d="M104.687 137.88c1.325 5.392 3.294 7.995 7.102 10.994l7.011-3.256-2.595-12.595-1.766-1.684-9.752 6.541z" fill="#AD5755"/><path d="M113.455 127.54a2.161 2.161 0 00-3.358 1.113 1.71 1.71 0 00-2.052-.065 1.839 1.839 0 00-.672 2.043 1.183 1.183 0 00-1.315-.239 1.92 1.92 0 00-.92 1.021 6.069 6.069 0 00-.414 1.389 1.428 1.428 0 00-1.509.313 1.452 1.452 0 00-.304 1.509c.415 1.017.94 1.985 1.564 2.888a2.685 2.685 0 001.61 1.417 1.405 1.405 0 001.38-.57 1.424 1.424 0 00.065-1.5c.301.354.707.601 1.16.705.452.105.926.061 1.351-.125a1.841 1.841 0 00.681-2.254 1.45 1.45 0 001.445.791 1.674 1.674 0 001.288-1.03 2.137 2.137 0 00-.074-1.675 1.524 1.524 0 001.141.985 1.403 1.403 0 001.371-.488 2.579 2.579 0 00.082-2.456 6.884 6.884 0 00-2.52-3.772z" fill="#C77371"/><path d="M122.36 152.803l-3.588-7.185 1.408-4.932a6.782 6.782 0 00-.718-5.382l-.846-1.416a1.84 1.84 0 00-2.392-.736l-6.689 3.063v.092a3.684 3.684 0 004.922 2.079c-4.443 3.469-4.6 6.385-2.76 10.488 1.84 4.104 4.702 10.599 4.702 10.599l5.961-6.67z" fill="#C77371"/><path d="M155.738 201.333l-33.737-52.44c-1.49 8.344-11.04 7.654-11.04 7.654l37.868 66.875c5.05 8.418 22.199.138 6.909-22.089z" class="svg-secondary-color" fill="#999"/><path opacity=".3" d="M155.738 201.333l-33.737-52.44c-1.49 8.344-11.04 7.654-11.04 7.654l37.868 66.875c5.05 8.418 22.199.138 6.909-22.089z" fill="#fff"/><path opacity=".2" d="M177.937 238.28a10.626 10.626 0 01-14.379-2.907c.174 3.422 2.272 6.716 5.63 7.433 3.358.718 7.194-1.49 8.749-4.526z" fill="#000"/></svg>