<svg width="220" height="200" fill="none" xmlns="http://www.w3.org/2000/svg"><path opacity=".5" d="M24.136 23.887c-.801-1.09-2.458.093-1.71 1.223.196.294.412.58.614.854 2.468 3.314 3.747 7.379 4.85 11.38.268.995.53 2.029.222 2.983.44-2.598.156-5.281-.51-7.832-.666-2.552-1.703-4.973-2.773-7.382a6.707 6.707 0 00-.693-1.226z" class="svg-primary-color"/><path d="M8.118 30.898c-1.657-.05-1.876 2.474-.22 2.607.435.036.876.046 1.293.056 5.099.14 9.923 1.988 14.558 3.976 1.136.487 2.319 1.034 2.982 2.077-2.091-2.422-4.84-4.194-7.766-5.5-2.926-1.305-6.043-2.16-9.158-2.958a8.012 8.012 0 00-1.69-.258z" class="svg-primary-color"/><path opacity=".2" d="M8.578 37.093c-1.053.04-.815 1.534.245 1.544.275 0 .554 0 .815-.023 3.217-.13 6.514.759 9.708 1.736.785.238 1.613.51 2.183 1.096a17.5 17.5 0 00-5.672-2.912 43.932 43.932 0 00-6.176-1.358 5.587 5.587 0 00-1.103-.083z" class="svg-primary-color"/><path opacity=".5" d="M30.1 64.893c.298 1.01 1.69.408 1.434-.62-.066-.268-.149-.533-.225-.784-.924-3.085-.881-6.497-.729-9.834.04-.821.096-1.69.524-2.389a17.464 17.464 0 00-1.412 6.22c-.082 2.108-.01 4.22.216 6.317.027.37.092.734.192 1.09z" class="svg-primary-color"/><path opacity=".2" d="M10.493 22.486c-.633-.11-.68.811-.05.954.166.036.332.063.49.09 1.939.33 3.794 1.278 5.58 2.269.46.209.86.53 1.163.934a10.674 10.674 0 00-3.018-2.462 26.135 26.135 0 00-3.516-1.593 3.34 3.34 0 00-.649-.192z" class="svg-primary-color"/><path d="M.72 46.926c-1.607.829-.25 3.098 1.4 2.346.432-.199.852-.42 1.256-.63 4.907-2.544 10.602-3.482 16.235-4.204 1.375-.175 2.842-.331 4.114.212-3.468-.977-7.166-1.06-10.737-.642-3.572.417-7.047 1.308-10.486 2.252a9.501 9.501 0 00-1.783.666z" class="svg-primary-color"/><path opacity=".5" d="M5.308 55.762c-1.153 1.077.663 2.35 1.859 1.326.33-.269.62-.554.907-.825 3.519-3.313 8.167-5.652 12.796-7.82 1.136-.533 5.814-1.073 7.06-1.043-3.26.292-9.92 1.325-12.882 2.65a71.327 71.327 0 00-8.402 4.718 8.822 8.822 0 00-1.338.994z" class="svg-primary-color"/><path d="M13.544 69.863c-.33 1.54 1.866 1.564 2.276.023.107-.4.193-.808.275-1.196 1.018-4.715 3.506-9.293 6.083-13.706.633-1.084 4.171-4.188 5.215-4.874-2.518 2.094-7.418 6.72-9.088 9.509a71.576 71.576 0 00-4.234 8.657 9.102 9.102 0 00-.527 1.587zM30.12 15.727c-.789-1.604-3.035-.285-2.32 1.358.186.43.395.852.594 1.253 2.422 4.9 3.253 10.562 3.876 16.131.152 1.365.285 2.823-.272 4.078 1.014-3.429 1.15-7.09.799-10.635-.351-3.545-1.176-7-2.051-10.423a9.385 9.385 0 00-.626-1.762zM17.593 18.454c.041.025.088.04.136.043.09 0 .149-.09.185-.17.196-.427.083-.993.388-1.325.304.363.55.77.732 1.206l1.153-.33a1.703 1.703 0 01-.219 1.324c.204.088.388.214.544.371a.593.593 0 01.142.61c-.266.065-.54.091-.815.08a5.421 5.421 0 01-.086 1.517.278.278 0 01-.1.192c-.082.053-.195 0-.28-.046a2.651 2.651 0 01-.948-.994l-.431 1.024a.464.464 0 01-.189.258.308.308 0 01-.361-.126.865.865 0 01-.126-.388l-.162-.974a.232.232 0 00-.053-.139.249.249 0 00-.17-.05h-1.222c-.07-.218.146-.417.355-.51.208-.093.454-.159.56-.36.212-.415-.332-.995-.103-1.343.272-.447.715-.046 1.07.13z" class="svg-primary-color"/><path opacity=".5" d="M39.864 23.887c.802-1.09 2.458.093 1.71 1.223-.196.294-.412.58-.614.854-2.468 3.314-3.75 7.379-4.85 11.38-.272.995-.533 2.029-.225 2.983-.441-2.598-.153-5.281.513-7.832.666-2.552 1.703-4.99 2.773-7.399a6.71 6.71 0 01.693-1.209z" class="svg-primary-color"/><path d="M55.88 30.898c1.656-.05 1.878 2.474.218 2.607-.434.036-.872.046-1.289.056-5.102.14-9.923 1.988-14.558 3.976-1.136.487-2.319 1.034-2.982 2.077 2.088-2.422 4.837-4.194 7.766-5.5 2.93-1.305 6.043-2.156 9.145-2.955a8.009 8.009 0 011.7-.261z" class="svg-primary-color"/><path opacity=".5" d="M55.422 37.093c1.05.04.815 1.534-.245 1.544-.275 0-.553 0-.819-.023-3.216-.13-6.51.759-9.703 1.736-.786.238-1.614.51-2.184 1.096a17.5 17.5 0 015.672-2.912 43.822 43.822 0 016.176-1.358 5.587 5.587 0 011.103-.083z" class="svg-primary-color"/><path opacity=".2" d="M53.504 22.486c.636-.11.682.811.053.954-.166.036-.332.063-.494.09-1.938.33-3.79 1.278-5.576 2.269-.46.209-.86.53-1.163.934.846-1 1.87-1.834 3.018-2.462a26.087 26.087 0 013.512-1.593c.21-.085.427-.15.65-.192zM37.024 66.805c-.142.63-1.014.331-.898-.331.03-.17.067-.332.103-.49.444-1.916.282-3.993.06-6.02a3.05 3.05 0 00-.414-1.435 10.67 10.67 0 011.106 3.744c.133 1.282.172 2.572.116 3.86a3.48 3.48 0 01-.073.672z" class="svg-primary-color"/><path opacity=".5" d="M53.1 62.64c.493.838-.72.779-1.253-.06a11.237 11.237 0 01-.394-.662c-1.504-2.561-3.797-5.096-6.103-7.544a8.463 8.463 0 00-1.895-1.633 29.848 29.848 0 014.97 4.24c1.48 1.551 2.79 3.165 4.072 4.778.22.28.422.574.603.881z" class="svg-primary-color"/><path opacity=".2" d="M9.108 62.64c-.494.838.722.779 1.256-.06.139-.218.268-.437.39-.662 1.505-2.561 3.798-5.096 6.107-7.544a8.447 8.447 0 011.892-1.633 30.129 30.129 0 00-4.97 4.24c-1.481 1.551-2.79 3.165-4.069 4.778-.222.28-.424.574-.606.881zM25.197 66.805c.142.63 1.01.331.897-.331-.03-.17-.07-.332-.106-.49-.44-1.916-.281-3.993-.056-6.02.017-.505.159-.998.41-1.435a10.663 10.663 0 00-1.106 3.744 26.405 26.405 0 00-.119 3.86c.005.226.031.45.08.672zM48.428 28.78c.633-.112.68.812.05.951a9.654 9.654 0 01-.49.093c-1.939.331-3.794 1.279-5.58 2.266a3.076 3.076 0 00-1.163.934c.847-.997 1.87-1.83 3.019-2.458a26.579 26.579 0 013.515-1.597c.21-.085.427-.148.649-.189zM42.524 16.423c.547-.332.934.5.404.864a8.94 8.94 0 01-.424.269c-1.673 1.03-3.038 2.604-4.323 4.187a3.08 3.08 0 00-.733 1.303 10.706 10.706 0 011.882-3.41c.814-.994 1.7-1.928 2.65-2.793.168-.157.35-.298.544-.42z" class="svg-primary-color"/><path d="M63.28 46.926c1.607.829.25 3.098-1.4 2.346-.432-.199-.856-.42-1.257-.63-4.91-2.544-10.601-3.482-16.234-4.204-1.375-.175-2.842-.331-4.115.212 3.47-.977 7.163-1.06 10.738-.642 3.575.417 7.044 1.308 10.486 2.252a9.612 9.612 0 011.783.666z" class="svg-primary-color"/><path opacity=".5" d="M58.699 55.762c1.153 1.077-.663 2.35-1.859 1.326-.331-.269-.62-.554-.908-.825-3.528-3.317-8.167-5.666-12.805-7.832-1.136-.534-5.815-1.074-7.064-1.044 3.264.291 9.923 1.325 12.885 2.65a71.348 71.348 0 018.402 4.718c.48.292.932.63 1.349 1.007z" class="svg-primary-color"/><path d="M45.088 71.622c.143 1.57-2.047 1.325-2.26-.261-.056-.411-.089-.826-.125-1.22-.418-4.807-2.32-9.66-4.307-14.362-.494-1.153-3.615-4.678-4.566-5.487 2.237 2.392 6.517 7.594 7.826 10.573a71.503 71.503 0 013.118 9.117c.155.536.26 1.085.314 1.64zM46.404 18.454a.285.285 0 01-.136.043c-.086 0-.146-.09-.182-.17-.2-.427-.087-.993-.388-1.325-.304.363-.55.77-.732 1.206l-1.157-.33a1.716 1.716 0 00.22 1.324 1.758 1.758 0 00-.544.371.6.6 0 00-.14.61c.267.065.542.091.816.08a5.303 5.303 0 00.086 1.517.274.274 0 00.1.192c.082.053.195 0 .28-.046.397-.245.723-.587.948-.994l.431 1.024c.028.107.095.199.189.258a.308.308 0 00.361-.126.908.908 0 00.126-.388l.162-.974c.002-.05.02-.1.053-.139a.249.249 0 01.17-.05h1.222c.07-.218-.146-.417-.355-.51-.208-.093-.457-.159-.56-.36-.212-.415.332-.995.103-1.343-.272-.447-.706-.046-1.073.13z" class="svg-primary-color"/><path opacity=".2" d="M49.886 65.967a.292.292 0 01-.136.04c-.09 0-.15-.09-.186-.17-.195-.424-.083-.977-.384-1.325a4.587 4.587 0 00-.736 1.23l-1.153-.355a1.706 1.706 0 00.22 1.325 1.714 1.714 0 00-.544.368.603.603 0 00-.143.61c.267.065.541.093.815.082a5.398 5.398 0 00.086 1.514.302.302 0 00.1.196c.086.053.195 0 .281-.05.399-.241.726-.584.948-.994l.43 1.024c.032.105.1.196.193.255a.301.301 0 00.358-.122.93.93 0 00.129-.388l.159-.977c.002-.051.02-.1.053-.14a.252.252 0 01.172-.046c.404 0 .812-.016 1.22 0 .07-.215-.146-.417-.355-.51-.209-.093-.454-.16-.56-.361-.212-.411.331-.994.103-1.326-.272-.47-.716-.056-1.07.12z" class="svg-primary-color"/><path d="M59.663 34.111a.258.258 0 01-.136.04c-.09 0-.15-.086-.186-.166-.195-.427-.082-.993-.387-1.325-.306.37-.553.787-.732 1.233l-1.153-.358a1.706 1.706 0 00.218 1.325 1.77 1.77 0 00-.543.368.599.599 0 00-.142.613c.266.064.54.091.815.08a5.425 5.425 0 00.086 1.517.274.274 0 00.1.192c.082.053.194 0 .28-.047a2.65 2.65 0 00.948-.993l.43 1.023c.031.106.098.198.19.259a.311.311 0 00.36-.126.865.865 0 00.127-.388l.162-.994a.232.232 0 01.053-.136.248.248 0 01.17-.05h1.222c.07-.215-.146-.417-.355-.506-.209-.09-.454-.16-.56-.361-.212-.414.332-.994.103-1.326-.272-.453-.71-.043-1.07.126zM20.575 70.731a.391.391 0 01-.189.056c-.123 0-.205-.122-.258-.232-.272-.596-.116-1.368-.537-1.868a6.374 6.374 0 00-1.02 1.716l-1.617-.51a2.396 2.396 0 00.305 1.842c-.284.123-.541.298-.76.517a.838.838 0 00-.195.848c.372.091.754.13 1.137.116-.06.705-.02 1.416.119 2.11a.379.379 0 00.14.269c.115.076.27 0 .39-.063a3.737 3.737 0 001.325-1.405l.6 1.428a.663.663 0 00.265.358.424.424 0 00.5-.173c.101-.164.163-.35.18-.543l.221-1.358a.354.354 0 01.076-.192.331.331 0 01.239-.07c.567 0 1.133-.02 1.7-.017.099-.301-.203-.58-.494-.709-.292-.129-.633-.222-.779-.503-.298-.573.468-1.372.143-1.869-.375-.566-.994.007-1.491.252zM4.314 35.069a.394.394 0 01-.192.056c-.12 0-.205-.123-.255-.232-.275-.596-.116-1.368-.537-1.868a6.388 6.388 0 00-1.024 1.716L.7 34.24A2.382 2.382 0 001 36.082a2.43 2.43 0 00-.755.516.838.838 0 00-.2.849c.372.09.755.13 1.137.115-.06.706-.019 1.417.123 2.11a.298.298 0 00.53.206 3.736 3.736 0 001.325-1.404l.597 1.428a.63.63 0 00.268.357.427.427 0 00.5-.172c.1-.165.161-.35.176-.543l.225-1.359A.331.331 0 015 37.994a.332.332 0 01.238-.066c.567 0 1.134-.023 1.703-.02.097-.301-.205-.58-.493-.709-.288-.13-.636-.222-.782-.503-.295-.574.47-1.372.146-1.87-.385-.576-1.004-.002-1.498.243z" class="svg-primary-color"/><path opacity=".2" d="M53.66 57.154a.193.193 0 01-.1.03c-.066 0-.11-.067-.14-.123-.145-.331-.059-.725-.284-.994-.227.274-.41.581-.543.911l-.855-.265a1.293 1.293 0 00.162.994c-.15.063-.286.156-.4.272a.444.444 0 00-.107.45c.197.05.4.07.603.063-.03.375-.008.752.066 1.12a.2.2 0 00.073.143.206.206 0 00.21-.034c.293-.184.535-.44.702-.745l.33.759a.331.331 0 00.14.189.229.229 0 00.268-.09.66.66 0 00.093-.288l.12-.722a.186.186 0 01.04-.103.163.163 0 01.125-.036h.905c.05-.16-.11-.309-.265-.375-.156-.066-.332-.12-.415-.268-.155-.305.252-.73.08-.994-.172-.265-.547-.027-.809.106zM31.568 69.91a.265.265 0 01-.1.03.185.185 0 01-.136-.127c-.145-.314-.063-.725-.288-.994a3.42 3.42 0 00-.543.911l-.852-.265a1.269 1.269 0 00.16.978c-.15.067-.285.16-.402.275a.444.444 0 00-.106.45c.197.05.4.07.603.06-.03.376-.009.754.067 1.123a.206.206 0 00.073.142c.063.04.145 0 .208-.033.295-.184.536-.44.703-.745l.331.759a.332.332 0 00.14.188.233.233 0 00.268-.092.662.662 0 00.092-.288l.12-.723a.176.176 0 01.04-.1.173.173 0 01.125-.036h.905c.05-.159-.11-.308-.262-.377-.152-.07-.331-.116-.414-.269-.16-.305.248-.729.076-.994s-.543-.006-.808.126z" class="svg-primary-color"/><path opacity=".5" d="M10.188 25.269a.249.249 0 01-.1.03.185.185 0 01-.135-.127c-.146-.33-.063-.725-.285-.993-.23.272-.413.58-.543.91l-.855-.264a1.256 1.256 0 00.162.994c-.15.066-.287.16-.404.274a.44.44 0 00-.103.451c.197.05.4.07.603.06-.032.375-.01.753.063 1.123a.205.205 0 00.073.142c.063.04.146 0 .209-.033.295-.183.537-.44.702-.745l.332.758a.331.331 0 00.142.19.228.228 0 00.265-.093.663.663 0 00.093-.289l.12-.722a.168.168 0 01.039-.1.172.172 0 01.126-.036h.904c.053-.159-.109-.308-.261-.377-.153-.07-.332-.116-.415-.269-.159-.305.249-.729.077-.994-.173-.265-.544-.023-.809.11zM21.569 50.422a.195.195 0 01-.103.03c-.063 0-.11-.063-.136-.123-.146-.315-.063-.726-.285-.994a3.34 3.34 0 00-.543.911l-.855-.265a1.282 1.282 0 00.162.994c-.15.066-.285.16-.4.275a.44.44 0 00-.107.45c.197.05.4.07.604.06-.033.376-.012.754.062 1.123a.222.222 0 00.073.143c.063.04.146 0 .209-.037a1.96 1.96 0 00.702-.742l.332.759a.358.358 0 00.142.189.225.225 0 00.265-.093.663.663 0 00.096-.288l.12-.723a.15.15 0 01.04-.099.163.163 0 01.125-.036h.901c.053-.16-.106-.309-.261-.378-.156-.07-.332-.12-.415-.269-.155-.304.252-.728.077-.993-.176-.266-.544-.024-.805.106zM13.31 40.615a.183.183 0 01-.1.03c-.066 0-.11-.063-.136-.123-.146-.315-.063-.725-.288-.994-.228.274-.41.581-.544.911l-.851-.265a1.268 1.268 0 00.159.994 1.39 1.39 0 00-.4.275.44.44 0 00-.107.45c.197.05.4.07.603.06-.031.376-.009.754.066 1.123a.206.206 0 00.073.143c.063.04.146 0 .209-.037.296-.18.538-.437.702-.742l.332.76a.331.331 0 00.139.188.232.232 0 00.268-.093.663.663 0 00.093-.288l.12-.722a.17.17 0 01.039-.1.172.172 0 01.126-.036h.904c.05-.16-.11-.308-.261-.378-.153-.07-.332-.12-.415-.268-.159-.305.249-.73.077-.994-.173-.265-.544-.023-.809.106zM48.78 42.924a.191.191 0 01-.1.03c-.066 0-.11-.063-.14-.123-.142-.314-.06-.725-.284-.994-.228.274-.411.581-.544.911l-.851-.264a1.27 1.27 0 00.159.977c-.15.064-.287.158-.401.275a.442.442 0 00-.106.45c.197.048.4.068.603.06a3.98 3.98 0 00.066 1.123.206.206 0 00.073.143c.063.04.146 0 .209-.037.294-.183.536-.438.702-.742l.332.756c.02.079.07.147.139.192a.231.231 0 00.268-.093.662.662 0 00.093-.288l.12-.723a.186.186 0 01.039-.102.176.176 0 01.126-.034h.904c.05-.159-.11-.308-.262-.377-.152-.07-.33-.12-.414-.269-.159-.304.249-.728.076-.994-.172-.265-.543-.006-.808.123z" class="svg-primary-color"/><path opacity=".2" d="M31.567 40.996a.183.183 0 01-.099.03c-.066 0-.11-.067-.136-.123-.146-.331-.063-.725-.288-.994-.226.275-.41.582-.543.911l-.852-.265a1.274 1.274 0 00.16.994c-.15.065-.286.157-.402.272a.447.447 0 00-.106.454c.198.046.4.066.603.06-.03.374-.008.75.067 1.12a.192.192 0 00.073.142c.062.043.145 0 .208-.034.295-.182.538-.44.703-.745l.33.759a.332.332 0 00.14.189.226.226 0 00.268-.09.663.663 0 00.093-.288l.12-.722a.185.185 0 01.04-.103.208.208 0 01.125-.037h.905c.05-.159-.11-.308-.262-.374-.153-.066-.331-.12-.414-.268-.16-.305.248-.73.076-.994-.172-.265-.543-.023-.808.106z" class="svg-primary-color"/><path opacity=".3" d="M26.167 43.345a.192.192 0 01-.1.03c-.065 0-.108-.063-.138-.123-.146-.331-.06-.726-.285-.994-.226.275-.41.582-.543.911l-.855-.261a1.282 1.282 0 00.162.977c-.15.065-.285.157-.4.272a.447.447 0 00-.107.454c.198.046.4.066.603.06-.03.375-.009.753.066 1.122a.206.206 0 00.073.143c.063.04.146 0 .209-.037.295-.183.537-.44.702-.745l.332.758c.02.08.07.148.139.193a.232.232 0 00.268-.093.663.663 0 00.093-.288l.12-.723a.186.186 0 01.039-.102.195.195 0 01.126-.037h.904c.05-.162-.109-.311-.261-.377-.153-.067-.332-.12-.415-.269-.159-.305.249-.729.077-.994-.173-.265-.544-.006-.809.123z" class="svg-primary-color"/><path opacity=".2" d="M21.135 29.142a.196.196 0 01-.103.03c-.063 0-.11-.064-.136-.123-.146-.331-.063-.726-.285-.994a3.375 3.375 0 00-.543.908l-.855-.262a1.257 1.257 0 00.162.994c-.15.065-.287.157-.404.271a.453.453 0 00-.102.454c.197.048.4.068.602.06-.032.375-.01.754.063 1.123a.205.205 0 00.073.143c.063.04.146 0 .21-.037.296-.181.538-.439.701-.745l.332.759a.355.355 0 00.142.192.225.225 0 00.269-.123.662.662 0 00.096-.288l.116-.722a.186.186 0 01.04-.103.209.209 0 01.125-.037h.905c.053-.162-.106-.311-.262-.377-.156-.067-.331-.12-.414-.269-.156-.304.248-.729.076-.994s-.547-.006-.808.14z" class="svg-primary-color"/><path opacity=".3" d="M31.05 47.695a.23.23 0 01-.102.03c-.063 0-.11-.067-.136-.126-.146-.315-.063-.722-.285-.994-.227.273-.41.58-.543.911l-.855-.265a1.263 1.263 0 00.163.994c-.151.064-.288.156-.405.272a.45.45 0 00-.102.45c.197.05.4.07.603.063-.032.374-.011.752.063 1.12a.222.222 0 00.072.142.205.205 0 00.21-.033c.294-.183.537-.44.702-.745l.33.758a.332.332 0 00.143.19.229.229 0 00.265-.09.662.662 0 00.097-.288l.119-.723a.136.136 0 01.165-.139h.902c.053-.159-.106-.308-.262-.374-.156-.066-.331-.12-.414-.268-.156-.305.248-.73.076-.994-.172-.265-.543-.037-.805.109z" class="svg-primary-color"/><path opacity=".5" d="M179.181 15.02c-.481-1.265-2.394-.568-1.974.72.109.337.24.67.361.988 1.492 3.853 1.637 8.112 1.63 12.263-.008 1.03-.032 2.096-.584 2.933 1.119-2.385 1.563-5.047 1.603-7.683.041-2.636-.31-5.248-.697-7.855a6.698 6.698 0 00-.339-1.366z" class="svg-primary-color"/><path d="M161.87 17.49c-1.582-.491-2.468 1.883-.908 2.454.409.15.831.278 1.23.4 4.876 1.498 9.03 4.57 12.964 7.725.965.773 1.958 1.616 2.317 2.799-1.366-2.893-3.542-5.336-6.011-7.377-2.47-2.04-5.245-3.698-8.033-5.3a7.984 7.984 0 00-1.559-.701z" class="svg-primary-color"/><path opacity=".2" d="M160.657 23.583c-1.026-.244-1.196 1.26-.177 1.553.265.073.533.148.792.195 3.134.737 6.073 2.474 8.889 4.27.692.44 1.418.923 1.81 1.64a17.506 17.506 0 00-4.686-4.323 43.96 43.96 0 00-5.587-2.96 5.607 5.607 0 00-1.041-.375z" class="svg-primary-color"/><path opacity=".5" d="M173.957 56.127c.017 1.053 1.52.845 1.548-.213.008-.276 0-.554-.007-.817-.065-3.22.889-6.496 1.929-9.67.258-.781.544-1.602 1.143-2.162a17.446 17.446 0 00-3.023 5.615 43.086 43.086 0 00-1.483 6.145 5.582 5.582 0 00-.107 1.102z" class="svg-primary-color"/><path opacity=".2" d="M166.41 10.02c-.581-.275-.872.6-.304.906.15.08.303.15.449.217 1.779.838 3.313 2.247 4.769 3.68.387.324.686.74.87 1.21a10.67 10.67 0 00-2.249-3.178 26.213 26.213 0 00-2.961-2.476 3.345 3.345 0 00-.574-.36z" class="svg-primary-color"/><path d="M150.454 30.955c-1.77.369-1.068 2.919.723 2.635.468-.076.933-.177 1.378-.27 5.409-1.14 11.147-.52 16.767.291 1.372.199 2.828.442 3.909 1.306-3.081-1.87-6.622-2.94-10.175-3.492-3.553-.553-7.14-.624-10.706-.635a9.51 9.51 0 00-1.896.165z" class="svg-primary-color"/><path opacity=".5" d="M152.512 40.697c-1.399.729.01 2.44 1.436 1.774.391-.17.745-.367 1.095-.552 4.277-2.251 9.382-3.262 14.421-4.111 1.238-.21 5.89.52 7.082.883-3.219-.591-9.912-1.377-13.121-.892a71.366 71.366 0 00-9.358 2.298 8.82 8.82 0 00-1.555.6z" class="svg-primary-color"/><path d="M156.676 56.487c-.732 1.395 1.379 2.005 2.187.63.209-.357.401-.727.585-1.078 2.241-4.27 5.863-8.017 9.527-11.58.9-.874 5.14-2.919 6.329-3.3-2.986 1.343-8.945 4.49-11.3 6.73a71.442 71.442 0 00-6.396 7.21 9.037 9.037 0 00-.932 1.388zM187.129 8.758c-.331-1.756-2.848-1.087-2.598.688.064.465.152.926.237 1.366 1.022 5.369.309 11.047-.581 16.58-.218 1.356-.48 2.796-1.353 3.857 1.895-3.033 3.005-6.524 3.615-10.034.61-3.51.739-7.06.812-10.591a9.405 9.405 0 00-.132-1.866zM174.329 8.034a.298.298 0 00.12.078c.086.024.167-.046.224-.113.302-.36.345-.936.728-1.174.196.431.325.889.383 1.358l1.199-.01a1.693 1.693 0 01-.565 1.218c.172.139.317.31.424.503a.594.594 0 01-.025.625 2.925 2.925 0 01-.807-.141c-.095.5-.259.985-.489 1.439a.287.287 0 01-.057.094.284.284 0 01-.09.065c-.094.028-.189-.053-.259-.12a2.649 2.649 0 01-.647-1.212l-.689.872a.468.468 0 01-.251.198.309.309 0 01-.314-.218.85.85 0 01-.018-.407l.104-.982a.23.23 0 00-.014-.148.25.25 0 00-.149-.093l-1.178-.327c-.009-.23.252-.364.478-.397.226-.034.48-.032.636-.198.315-.343-.053-1.047.26-1.32.381-.359.702.146.996.41z" class="svg-primary-color"/><path opacity=".5" d="M194.335 19.227c1.064-.836 2.344.747 1.32 1.636-.267.231-.551.448-.819.66-3.265 2.531-5.588 6.105-7.718 9.667-.528.885-1.056 1.811-1.015 2.813.27-2.62 1.266-5.13 2.59-7.41 1.324-2.28 2.976-4.351 4.651-6.386.296-.36.628-.688.991-.98z" class="svg-primary-color"/><path d="M207.891 30.266c1.61.396 1.148 2.888-.486 2.571-.428-.08-.852-.188-1.257-.29-4.954-1.231-10.093-.74-15.091-.064-1.225.166-2.511.376-3.429 1.204 2.659-1.775 5.783-2.747 8.954-3.222 3.171-.474 6.4-.461 9.602-.401a8.012 8.012 0 011.707.202z" class="svg-primary-color"/><path opacity=".5" d="M205.794 36.114c1.001.32.375 1.696-.65 1.422a9.487 9.487 0 01-.782-.241c-3.065-.985-6.476-1.01-9.815-.924-.82.02-1.691.06-2.397.473a17.503 17.503 0 016.244-1.289 43.81 43.81 0 016.314.344 5.6 5.6 0 011.086.215z" class="svg-primary-color"/><path opacity=".2" d="M207.853 21.526c.642.064.44.964-.204.933-.17-.009-.337-.028-.5-.046-1.956-.199-3.994.219-5.98.695-.499.079-.97.282-1.37.59a10.627 10.627 0 013.566-1.565 26.108 26.108 0 013.811-.596c.224-.026.451-.03.677-.011zM180.118 59.821c-.306.569-1.066.048-.777-.56a9.57 9.57 0 01.231-.444c.94-1.727 1.339-3.772 1.667-5.785a3.043 3.043 0 00-.015-1.493 10.65 10.65 0 01.065 3.904 26.414 26.414 0 01-.921 3.75 3.468 3.468 0 01-.25.628z" class="svg-primary-color"/><path opacity=".5" d="M196.722 60.109c.251.94-.901.558-1.191-.393a11.081 11.081 0 01-.203-.744c-.764-2.87-2.295-5.925-3.862-8.901a8.466 8.466 0 00-1.389-2.08 29.867 29.867 0 013.654 5.415c1.012 1.89 1.841 3.795 2.645 5.692.138.329.254.666.346 1.01z" class="svg-primary-color"/><path opacity=".2" d="M154.333 48.34c-.699.676.488.944 1.226.279.193-.173.376-.35.554-.534 2.135-2.065 5.022-3.894 7.902-5.635a8.447 8.447 0 012.26-1.068 30.103 30.103 0 00-5.923 2.757c-1.842 1.097-3.535 2.302-5.199 3.515-.288.21-.562.44-.82.687zM168.721 56.657c-.031.645.885.59.954-.079.017-.17.022-.338.029-.5.088-1.964.797-3.923 1.556-5.816.152-.482.42-.919.78-1.273a10.674 10.674 0 00-2.068 3.312 26.402 26.402 0 00-1.147 3.687c-.056.22-.091.443-.104.67zM201.278 26.233c.64.061.437.964-.206.93a9.765 9.765 0 01-.498-.042c-1.956-.2-3.997.217-5.982.691-.498.081-.969.283-1.37.59a10.662 10.662 0 013.566-1.562 26.566 26.566 0 013.814-.599c.224-.025.451-.028.676-.008zM198.895 12.746c.616-.173.767.732.158.942a8.952 8.952 0 01-.48.145c-1.888.545-3.624 1.696-5.286 2.878a3.079 3.079 0 00-1.054 1.06 10.708 10.708 0 012.725-2.782 26.231 26.231 0 013.301-1.982c.203-.107.416-.194.636-.26z" class="svg-primary-color"/><path d="M210.735 47.691c1.327 1.228-.589 3.051-1.978 1.885-.362-.306-.711-.634-1.041-.942-4.051-3.765-9.284-6.191-14.518-8.394-1.278-.537-2.65-1.08-4.022-.897 3.604-.013 7.186.895 10.519 2.254 3.333 1.358 6.437 3.145 9.501 4.976a9.604 9.604 0 011.539 1.118z" class="svg-primary-color"/><path opacity=".5" d="M203.956 54.98c.823 1.345-1.266 2.085-2.145.779-.247-.347-.449-.699-.654-1.038-2.513-4.14-6.354-7.643-10.243-10.972-.953-.818-5.316-2.59-6.527-2.895 3.066 1.154 9.206 3.931 11.706 6a71.477 71.477 0 016.834 6.794c.385.41.729.856 1.029 1.331z" class="svg-primary-color"/><path d="M186.599 66.62c-.282 1.551-2.327.73-2.107-.856.056-.411.135-.82.205-1.209.884-4.744.35-9.93-.308-14.99-.167-1.244-2.231-5.475-2.931-6.509 1.515 2.903 4.248 9.06 4.712 12.28.404 3.19.593 6.404.565 9.62a8.929 8.929 0 01-.136 1.664zM202.09 15.741a.284.284 0 01-.142.005c-.083-.023-.117-.125-.131-.211-.077-.465.183-.98-.019-1.38a4.684 4.684 0 00-1.028.965l-1.025-.628a1.712 1.712 0 00-.144 1.335 1.759 1.759 0 00-.623.212.606.606 0 00-.297.55c.24.134.497.233.764.295a5.325 5.325 0 00-.323 1.485.274.274 0 00.001.11c.007.037.022.072.043.102.066.073.189.052.284.03.447-.129.853-.372 1.179-.704l.141 1.102a.436.436 0 00.113.3.308.308 0 00.382-.025.927.927 0 00.225-.34l.417-.895a.228.228 0 01.088-.12.248.248 0 01.176-.002l1.178.326c.126-.192-.029-.44-.205-.586-.176-.145-.398-.276-.443-.498-.093-.456.585-.869.458-1.265-.142-.504-.668-.234-1.069-.163z" class="svg-primary-color"/><path opacity=".2" d="M192.735 62.454a.294.294 0 01-.142.002c-.086-.024-.119-.126-.133-.212-.075-.461.181-.964-.016-1.38a4.593 4.593 0 00-1.037.988l-1.017-.65a1.693 1.693 0 00-.208.653c-.025.23-.003.461.065.682-.219.029-.43.1-.622.209a.6.6 0 00-.301.55c.239.134.496.234.763.297a5.416 5.416 0 00-.322 1.482.301.301 0 00.044.215c.069.074.188.052.285.027.448-.126.855-.369 1.178-.704l.142 1.102c.002.11.043.215.117.297a.301.301 0 00.377-.022c.1-.095.178-.21.228-.34l.415-.898a.228.228 0 01.088-.12.253.253 0 01.179.001c.389.108.786.201 1.174.326.125-.189-.028-.441-.205-.586-.176-.145-.394-.275-.443-.498-.094-.453.586-.87.454-1.25-.136-.526-.675-.245-1.063-.17z" class="svg-primary-color"/><path d="M210.677 34.375a.256.256 0 01-.141.002c-.086-.024-.121-.123-.135-.209-.074-.464.187-.98-.019-1.38a4.7 4.7 0 00-1.035.991l-1.015-.653a1.712 1.712 0 00-.144 1.335c-.218.03-.429.101-.622.21a.6.6 0 00-.301.553c.24.132.497.231.764.293a5.439 5.439 0 00-.323 1.485.274.274 0 00.045.212c.065.074.188.053.283.03a2.65 2.65 0 001.179-.703l.141 1.101c.001.11.041.217.113.3a.31.31 0 00.382-.025.866.866 0 00.225-.34l.422-.914a.234.234 0 01.088-.117.249.249 0 01.176-.002l1.178.327c.124-.19-.029-.442-.206-.584-.178-.142-.395-.274-.443-.497-.094-.456.585-.87.453-1.25-.14-.51-.671-.231-1.065-.165zM163.218 59.204a.39.39 0 01-.197.004c-.118-.033-.165-.173-.187-.293-.102-.647.254-1.35-.017-1.944a6.381 6.381 0 00-1.443 1.38l-1.421-.923a2.389 2.389 0 00-.199 1.856 2.452 2.452 0 00-.87.295.84.84 0 00-.415.765c.334.187.692.327 1.064.416a7.539 7.539 0 00-.45 2.065.382.382 0 00.063.296c.091.104.262.073.393.044a3.739 3.739 0 001.653-1l.196 1.537c.004.153.06.3.16.416a.421.421 0 00.528-.032 1.24 1.24 0 00.317-.476l.578-1.25a.347.347 0 01.125-.164.33.33 0 01.248-.003c.546.151 1.097.283 1.642.438.177-.264-.04-.613-.286-.815-.246-.203-.55-.383-.615-.694-.134-.632.817-1.196.637-1.762-.209-.646-.96-.26-1.504-.156zM157.09 20.491a.394.394 0 01-.2.003c-.115-.032-.166-.173-.184-.291-.106-.649.254-1.35-.017-1.944a6.364 6.364 0 00-1.446 1.38l-1.414-.913a2.386 2.386 0 00-.203 1.856 2.435 2.435 0 00-.866.296.84.84 0 00-.418.764c.333.187.691.327 1.064.416a7.392 7.392 0 00-.447 2.066.3.3 0 00.456.34 3.738 3.738 0 001.653-1L155.26 25c.002.154.06.302.163.417a.429.429 0 00.528-.033c.141-.131.249-.295.315-.476l.58-1.249a.332.332 0 01.122-.165.332.332 0 01.248 0c.546.151 1.098.28 1.646.436.173-.265-.043-.614-.286-.815-.243-.202-.554-.384-.619-.695-.131-.63.82-1.195.64-1.761-.216-.658-.966-.272-1.507-.168z" class="svg-primary-color"/><path opacity=".2" d="M198.729 54.972a.193.193 0 01-.104.002c-.064-.017-.088-.093-.101-.155-.052-.358.136-.715-.009-1.034-.292.203-.551.45-.767.733l-.753-.485a1.301 1.301 0 00-.109 1.002c-.162.02-.318.073-.459.154a.442.442 0 00-.223.406c.177.1.367.175.564.222a4 4 0 00-.236 1.097.205.205 0 00.032.156.208.208 0 00.21.024c.333-.099.635-.281.877-.53l.116.82c0 .08.03.158.083.219a.23.23 0 00.283-.015.662.662 0 00.166-.253l.309-.664a.183.183 0 01.065-.088.163.163 0 01.131-.001l.872.242c.09-.14-.023-.326-.155-.432-.133-.106-.288-.204-.328-.37-.068-.335.438-.634.343-.936-.095-.301-.52-.172-.807-.114zM174.03 61.353a.266.266 0 01-.104.002.182.182 0 01-.097-.158c-.056-.342.133-.716-.012-1.035-.292.203-.551.45-.767.733l-.75-.483a1.277 1.277 0 00-.108.984 1.396 1.396 0 00-.46.158.44.44 0 00-.223.406c.177.1.367.174.565.218-.13.354-.21.724-.236 1.1a.206.206 0 00.032.157c.05.055.14.04.21.024a2.02 2.02 0 00.876-.53l.116.82c.001.08.03.158.084.218a.23.23 0 00.283-.017.653.653 0 00.167-.253l.308-.664a.174.174 0 01.065-.085.172.172 0 01.131-.002l.871.242c.091-.14-.022-.326-.151-.434-.128-.107-.288-.2-.327-.369-.072-.336.434-.636.339-.937-.095-.302-.521-.152-.812-.095z" class="svg-primary-color"/><path opacity=".5" d="M165.371 12.62a.245.245 0 01-.103.002.183.183 0 01-.097-.158c-.052-.358.133-.716-.009-1.034-.294.201-.553.449-.767.733l-.753-.484a1.265 1.265 0 00-.11 1.001 1.37 1.37 0 00-.463.157.446.446 0 00-.219.406c.176.101.367.175.565.22a3.982 3.982 0 00-.24 1.098.224.224 0 000 .082.225.225 0 00.032.075c.05.055.141.04.21.024a1.98 1.98 0 00.876-.53l.117.82c.001.08.031.16.086.22a.231.231 0 00.281-.018.662.662 0 00.166-.254l.308-.664a.172.172 0 01.065-.085.172.172 0 01.131-.002l.872.242c.093-.139-.023-.326-.151-.434-.129-.107-.289-.2-.328-.369-.071-.336.435-.636.34-.937-.095-.302-.518-.168-.809-.111zM169.608 39.9a.195.195 0 01-.107.002c-.06-.017-.088-.09-.098-.155-.056-.342.134-.716-.008-1.034a3.363 3.363 0 00-.768.733l-.752-.484a1.283 1.283 0 00-.11 1.001 1.339 1.339 0 00-.46.158.445.445 0 00-.222.406c.176.1.367.174.565.218a3.946 3.946 0 00-.24 1.1.222.222 0 00.032.156c.05.055.141.04.211.02.333-.095.635-.276.875-.526l.117.82a.356.356 0 00.086.22.228.228 0 00.281-.02.661.661 0 00.169-.251l.308-.664a.154.154 0 01.065-.085.167.167 0 01.131-.002l.869.241c.093-.139-.02-.325-.152-.434-.131-.108-.287-.203-.327-.369-.068-.335.438-.635.339-.937-.098-.303-.517-.168-.804-.114zM164.273 28.242a.18.18 0 01-.103.002c-.064-.018-.089-.09-.098-.155-.057-.342.133-.716-.012-1.034-.293.202-.551.45-.768.732l-.749-.483a1.28 1.28 0 00-.113 1 1.398 1.398 0 00-.46.158.445.445 0 00-.222.406c.176.1.367.174.565.219a3.95 3.95 0 00-.237 1.1.224.224 0 000 .081.226.226 0 00.032.075c.05.055.141.04.211.02.333-.094.635-.276.875-.526l.117.82c0 .08.03.158.083.219a.234.234 0 00.284-.018.662.662 0 00.166-.253l.308-.664a.172.172 0 01.065-.085.172.172 0 01.131-.002l.872.242c.09-.14-.023-.326-.151-.433-.129-.108-.288-.204-.328-.37-.071-.336.435-.636.34-.937-.095-.302-.518-.168-.808-.114zM197.833 39.955a.193.193 0 01-.104.003c-.064-.018-.088-.09-.101-.156-.053-.341.136-.715-.009-1.034-.292.203-.551.45-.767.733l-.75-.483a1.278 1.278 0 00-.108.984 1.258 1.258 0 00-.46.158.435.435 0 00-.222.406c.177.098.367.172.565.218a3.95 3.95 0 00-.237 1.1.224.224 0 000 .082.225.225 0 00.032.075c.05.055.141.039.211.02a2.01 2.01 0 00.875-.527l.117.817c0 .082.029.16.083.222a.235.235 0 00.284-.017.662.662 0 00.166-.253l.308-.664a.192.192 0 01.066-.089.175.175 0 01.13.002l.872.242c.09-.14-.023-.326-.152-.434-.128-.108-.287-.203-.327-.37-.071-.335.435-.635.34-.937-.096-.3-.522-.151-.812-.098z" class="svg-primary-color"/><path opacity=".2" d="M181.764 33.493a.18.18 0 01-.103.002c-.064-.017-.088-.093-.098-.154-.052-.358.133-.716-.012-1.035-.292.204-.55.451-.768.733l-.749-.484c-.086.15-.14.317-.159.489-.02.172-.004.346.046.512a1.327 1.327 0 00-.459.154.446.446 0 00-.223.41c.178.097.368.17.565.218-.13.352-.21.722-.236 1.097a.189.189 0 00.032.156c.049.059.141.04.21.024.333-.097.636-.28.876-.53l.117.82c0 .08.029.158.083.219a.228.228 0 00.283-.015.662.662 0 00.166-.253l.308-.663a.192.192 0 01.066-.089.209.209 0 01.131-.001l.872.242c.09-.14-.023-.326-.152-.431-.13-.105-.288-.204-.328-.37-.071-.336.435-.635.34-.937-.095-.301-.518-.167-.808-.114z" class="svg-primary-color"/><path opacity=".3" d="M175.933 34.312a.193.193 0 01-.104.002c-.064-.018-.089-.09-.101-.155-.052-.359.136-.715-.009-1.034-.291.204-.55.45-.767.732l-.754-.48a1.278 1.278 0 00-.105.985 1.302 1.302 0 00-.459.154.446.446 0 00-.224.41c.178.096.368.17.565.218-.13.354-.209.724-.236 1.1a.204.204 0 00.032.157c.05.055.14.039.211.02a1.99 1.99 0 00.876-.53l.116.82a.331.331 0 00.083.222.232.232 0 00.283-.018.653.653 0 00.167-.252l.308-.664a.185.185 0 01.066-.089.196.196 0 01.131-.001l.871.242c.092-.144-.022-.33-.151-.434-.129-.105-.287-.204-.327-.37-.072-.336.434-.636.339-.937-.095-.301-.521-.152-.811-.098z" class="svg-primary-color"/><path opacity=".2" d="M174.883 19.28a.196.196 0 01-.107.001c-.061-.017-.089-.09-.098-.154-.052-.358.133-.716-.009-1.034a3.364 3.364 0 00-.766.73l-.754-.482a1.263 1.263 0 00-.109 1.001 1.352 1.352 0 00-.462.154.452.452 0 00-.221.41c.177.099.368.173.565.219a4.021 4.021 0 00-.24 1.099.204.204 0 00.033.157c.05.055.14.038.21.02.335-.095.637-.278.877-.53l.116.82a.353.353 0 00.086.223.225.225 0 00.291-.047.664.664 0 00.17-.252l.305-.664a.179.179 0 01.066-.089.209.209 0 01.131-.001l.871.242c.095-.143-.019-.329-.151-.434-.132-.106-.287-.204-.327-.37-.069-.335.434-.635.339-.937-.095-.301-.525-.152-.816-.082z" class="svg-primary-color"/><path opacity=".3" d="M179.474 39.81a.229.229 0 01-.107.001c-.06-.017-.087-.093-.097-.158-.056-.342.133-.712-.008-1.033-.293.202-.552.45-.768.732l-.752-.484a1.264 1.264 0 00-.11 1.001 1.298 1.298 0 00-.462.154.453.453 0 00-.219.406c.176.1.366.175.564.222a3.96 3.96 0 00-.239 1.096.222.222 0 00.032.157.205.205 0 00.21.024c.333-.097.635-.28.876-.53l.116.82c.001.08.032.16.087.22a.23.23 0 00.279-.016.652.652 0 00.17-.252l.308-.664a.143.143 0 01.027-.056.136.136 0 01.17-.034l.868.241c.094-.139-.019-.325-.152-.43-.132-.106-.287-.204-.327-.37-.068-.335.435-.636.339-.937-.095-.302-.513-.18-.805-.11z" class="svg-primary-color"/><path d="M95.18 100.288c-.76-.254-5.237-3.796-5.576-5.4-.34-1.603 2.367-16.54 2.367-16.54s-.25 0-.659-.05v-.24l.557-19.623s2.281-13.17-2.028-12.403c-4.31.767-1.607 12.403-1.607 12.403s-.49 5.906-.836 7.678c-.33 1.708-1.837 8.668-.81 10.832.037.076.08.151.125.223 0 0 .171 7.425-1.69 8.439-1.774.965-2.511 5.82-2.574 6.255l-.095-.04a5.16 5.16 0 01-1.373-1.254c-.04-.049-.07-.102-.105-.154a7.243 7.243 0 00-.195-9.835 7.3 7.3 0 00-2.038-1.488 4.673 4.673 0 00-.438-1.817c-.856-1.83-5.597-4.224-8.965-4.28-1.554-.046-2.828.395-3.292 1.61-.237.615-.165 1.317-.264 1.955-.197 1.317-1.043 2.348-2.13 3.168-.439-.49-.913-.947-1.419-1.367-1.1-.843-3.292-3.621-3.292-3.621s-6.845-7.089-7.352-9.031c-.507-1.943-7.346-13.608-8.867-11.576-1.52 2.031 5.239 10.884 5.239 10.884s1.284 3.217 2.271 4.303c.988 1.087 8.56 12.084 8.56 12.084l.363.75c-1.6.843-3.062 1.916-3.58 3.589-.756 2.462.9 4.938 2.046 7.243 2.232 4.498 2.551 10.233-.33 14.342-2.581 3.628-7.059 5.353-11.25 6.861a11.072 11.072 0 007.112 2.361c-.968 2.805-4.399 3.733-7.322 4.254 1.534 1.475 3.73 2.011 5.837 2.337 1.032.176 2.078.258 3.124.247h.257l.257-.02a8.65 8.65 0 001.063-.135c1.521-.309 3-1.139 3.777-2.482.658-1.149.889-2.716 2.084-3.293.311-.14.646-.219.988-.233h-.037.679l4.981.049h.635c1.406-.033 2.908-.276 3.622-1.439a3.989 3.989 0 00.451-1.827c.106-1.577 0-3.2.043-4.79.425 2.894.87 7.404-.188 9.07a15.469 15.469 0 01-3.088 3.349 5.91 5.91 0 00-.817.836c-.16.115-.256.178-.256.178l-.102.306a5.8 5.8 0 00-.804 1.863 1.295 1.295 0 00-.062.53c.115.234-.823 1.199-.55 1.604-2.344 2.749-2.789 6.914-2.789 6.914l-4.28 6.499c-2.2 5.778-5.492 6.371-5.492 6.371s-7.733-5.189-7.944-5.443c-.21-.253-3.167-1.521-3.167-1.521a3.353 3.353 0 00-1.521-1.389c-1.015-.421-1.1-1.975-1.1-1.975-.125-3.672-2.282-3.951-2.282-3.951-1.738-.149-3.065.161-4.086.727l-.31.023c-1.494.122-3.292.257-5.267.389-5.495.362-6.802 3.921-6.802 3.921s-.675.761.21 1.584c.886.823 6.556 0 6.796-.02a3.666 3.666 0 01-1.29-.089c.892-.033 2.12-.066 3.167-.066h.253a13.714 13.714 0 00-.095 1.673c0 1.053 2.914 1.728 2.914 1.728l8.873 7.902s5.577 2.492 9.126 6.078c3.55 3.585 6.687.49 6.687.49 3.757-.928 14.565-13.996 14.575-14.009 0 .382.228 13.091.659 15.642.017.13.05.257.095.379.507 1.096-.17 4.092-.464 5.357a14.878 14.878 0 00-.214 3.206s-4.053 15.475-3.717 16.835c.336 1.359-2.196 7.677-2.196 7.677v5.268l.441-.023c-.057.085-.11.173-.158.264l-.03.056s2.704.589 4.521.421c1.817-.168 4.939 1.399 4.939 1.399s1.056.501 4.31.711c3.252.211 3.252-1.435 3.252-1.435-.372-2.242-5.511-2.993-5.67-3.016-.414-.26-.803-.543-1.122-.787l-.066-.052c.022-.05.04-.1.056-.152.55-2.239-2.492-3.21-2.492-3.21v-.547c1.975-1.014 2.367-7.974 2.367-7.974s2.963-8.606 3.378-10.042c.415-1.435 0-3.585 0-3.585l.296-1.857s.636-1.264.636-1.518c.082-.642.33-1.252.718-1.771.464-.55-.507-1.857-.507-1.857l.846-2.193v-2.406l1.975-8.732s2.071-10.17 1.353-13.499c-.718-3.328.846-5.021.846-5.021a3.905 3.905 0 01-.434.198c.197-.457.368-.925.51-1.403l4.445.55v.066h1.603s-.507-6.255-.507-8.777c0-2.522 1.709-11.573 1.709-11.573s.76-8.847 0-9.1zm-19.73-7.303c0 .247-.023.504-.04.767l-.089.135-.164-.138-.201.313-.06.03c-.434-.224-.658-1.505-.97-1.229l-.044.037c-.069-.08-.138-.103-.21-.037l-.066.056v-.293a7.408 7.408 0 001.844.234c.003.043 0 .086 0 .125zm14.782 29.131h.096l-.158.415c.02-.138.04-.273.063-.415zm-16.228 74.662l-.606-.152.33-.056.306.201.036.027-.066-.02zm6.19-.886a8.577 8.577 0 01-.603-.352c.066.036.326.171.603.352z" fill="url(#paint0_linear)"/><path d="M92.419 115.897l-3.987 10.391h.968l-3.75 2.989 6.769.843v-14.223z" fill="#999" class="svg-secondary-color"/><path opacity=".1" d="M92.419 115.897l-3.987 10.391-1.005-.27-1.777 3.259 6.769.843v-14.223z" fill="#000"/><path d="M86.166 122.544h6.253l2.294-18.882h-8.547v18.882z" fill="#999" class="svg-secondary-color"/><path opacity=".1" d="M86.166 122.544h6.253l2.294-18.882h-8.547v18.882z" fill="#000"/><path d="M73.955 108.133l1.35-.227 3.101-.527s9.314-2.1 11.237-2.271c1.165-.154 2.3-.478 3.371-.962.504-.217.824-.382.824-.382l-3.355-6.127-5.206-3.858s-3.292-.702-4.685-2.618a3.084 3.084 0 01-.431-2.924c.85-2.633-5.074 2.52-5.074 2.52s.056 1.234 0 2.808c0 .31-.03.632-.052.961 0 .217-.03.435-.053.658-.145 1.564-.441 3.174-1.027 4.136-1.432 2.35 0 8.813 0 8.813z" fill="#FBBEBE"/><path opacity=".1" d="M75.088 93.696h.131c.237 0 .428-.504.659-.526 1.853-.178 3.546-.567 4.721-1.88a3.087 3.087 0 01-.431-2.92c.85-2.635-5.074 2.515-5.074 2.515s.063 1.237-.006 2.811z" fill="#000"/><path d="M67.877 86.23a7.213 7.213 0 007.217 7.216c.237 0 .47 0 .705-.033a7.217 7.217 0 10-7.922-7.184z" fill="#FBBEBE"/><path d="M65.661 75.275c-.237.613-.164 1.297-.26 1.946-.352 2.341-2.732 3.744-4.886 4.725-2.153.98-4.583 2.143-5.267 4.405-.751 2.446.889 4.899 2.028 7.194 2.219 4.47 2.535 10.173-.33 14.262-2.545 3.622-6.98 5.341-11.154 6.849a10.995 10.995 0 007.062 2.35c-.958 2.789-4.366 3.714-7.27 4.228 1.525 1.468 3.708 2.002 5.798 2.324 1.525.237 3.089.392 4.61.086 1.52-.306 2.963-1.133 3.746-2.469.659-1.143.883-2.7 2.071-3.276a3.732 3.732 0 011.69-.247l4.938.052c1.538 0 3.358-.118 4.152-1.432a3.948 3.948 0 00.447-1.817c.214-3.24-.408-6.664.926-9.621.401-.892-2.177-2.304-1.907-3.249.929-3.25 1.162-5.808 1.153-9.19 0-2.617 1.702-4.872 3.108-7.081 1.406-2.21 2.58-4.998 1.471-7.369-1.25-2.643-10.647-6.486-12.126-2.67z" fill="#3F3D56"/><path d="M72.236 195.83l1.258.833.194.128.036.023 1.492.988 3.483.586 3.062-.211s.883-1.844-.504-1.801a2.895 2.895 0 01-1.264-.365l-.19-.096a8.487 8.487 0 01-.6-.349c-.412-.26-.8-.543-1.113-.783-.46-.356-.767-.626-.767-.626l-5.087 1.673z" fill="#FBBEBE"/><path opacity=".1" d="M73.51 196.663l.195.128.036.023 1.491.988 3.484.586 3.062-.211s.882-1.844-.504-1.801a2.895 2.895 0 01-1.264-.365c.243.191.447.398.467.573.056.47-2.265 1.317-2.265 1.317l-3.273-.866s-.556-.158-1.317-.356l-.072-.02-.04.004z" fill="#000"/><path d="M67.913 197.466s2.684.586 4.488.418c1.804-.168 4.912 1.386 4.912 1.386s1.05.494 4.28.705c3.23.21 3.23-1.429 3.23-1.429-.369-2.229-5.472-2.963-5.63-2.996.063.033.33.168.6.349.361.237.753.546.783.797.056.467-2.265 1.317-2.265 1.317l-3.273-.863s-.556-.161-1.317-.359h-.073a28.041 28.041 0 00-3.43-.708c-1.41-.151-2.13 1.047-2.279 1.317a.379.379 0 00-.026.066z" fill="#3F3D56"/><path d="M25.62 138.259l1.425 1.093s.415-.02 1.034-.04h.197a91.15 91.15 0 013.145-.065 9.895 9.895 0 012.005.112c.71.25 1.975-4.07 1.975-4.07l-1.429-.329-.474-.112-.33-.079-1.161-.273-3.523.401-2.476 1.594-.389 1.768z" fill="#FBBEBE"/><path opacity=".1" d="M25.62 138.259l1.425 1.093s.415-.02 1.034-.04a1.246 1.246 0 01-.659-.589c-.922-2.558 3.651-3.651 3.651-3.651l2.13-.092.416-.02h.329l-.474-.112-.33-.079-1.162-.273-3.523.401-2.476 1.594-.362 1.768z" fill="#000"/><path d="M22.807 139.414c.863.797 6.513 0 6.75-.019a3.565 3.565 0 01-1.28-.089 1.418 1.418 0 01-.989-.708c-.922-2.562 3.652-3.651 3.652-3.651l2.13-.093.411-.019 5.18-.224.25-1.426s-1.683.158-4.323.369c-1.485.122-3.293.257-5.245.385-5.456.362-6.753 3.902-6.753 3.902s-.662.757.217 1.573z" fill="#3F3D56"/><path d="M86.17 77.616c.035.078.077.153.125.224l1.257 1.844 3.273.33.036-1.298.55-19.517s2.265-13.091-2.015-12.337c-4.28.754-1.593 12.337-1.593 12.337s-.487 5.873-.83 7.638c-.332 1.705-1.824 8.64-.803 10.78zM78.825 126.093l.931 1.594 2.084 3.566s3.78 1.386 4.748.329c.53-.576 1.103-2.588 1.505-4.28.329-1.37.55-2.526.55-2.526l-9.819 1.317z" fill="#FBBEBE"/><path opacity=".1" d="M78.825 126.093l.931 1.594c.059-.05.112-.107.158-.168 1.054-1.343 5.693-.286 8.179-.201.329-1.369.55-2.525.55-2.525l-9.819 1.3zM31.42 139.24c.67-.03 1.343.007 2.005.112.712.25 1.976-4.069 1.976-4.069l-1.903-.448 5.179-.224.25-1.426s-1.682.158-4.323.369a5.428 5.428 0 00-1.439 1.202l-.079.098c-1.103 1.354-1.51 3.099-1.666 4.386zM72.236 195.83l1.452.961c2.166-.392 4.145-1.007 4.379-1.975a.32.32 0 000-.046c-.46-.356-.767-.626-.767-.626l-5.064 1.686zM67.943 197.41c1.913-.095 3.82-.3 5.709-.612a28.1 28.1 0 00-3.434-.715c-1.406-.151-2.127 1.047-2.275 1.327z" fill="#000"/><path d="M31.579 140.903c0 1.05 2.894 1.722 2.894 1.722l8.813 7.845s5.538 2.476 9.061 6.042c3.523 3.566 6.63.504 6.63.504 3.734-.922 14.487-13.931 14.487-13.931s.25 14.856.754 15.946c.504 1.089-.168 4.069-.46 5.33a14.822 14.822 0 00-.211 3.187s-4.027 15.399-3.691 16.742c.336 1.343-2.183 7.638-2.183 7.638v5.245s9.86-.379 10.404-2.601c.543-2.222-2.472-3.19-2.472-3.19v-.547c1.975-1.007 2.347-7.928 2.347-7.928s2.94-8.56 3.358-9.986c.418-1.425 0-3.569 0-3.569l.293-1.844s.63-1.261.63-1.511a3.733 3.733 0 01.713-1.761c.461-.547-.503-1.847-.503-1.847l.84-2.183v-2.39l1.975-8.686s2.058-10.114 1.343-13.429c-.714-3.316.84-4.992.84-4.992-3.368 1.765-5.067-2.163-5.624-3.852-.141-.434-.21-.724-.21-.724s-4.626-1.706-8.933-1.297c-.874.071-1.736.253-2.565.543-4.783 1.722-5.537 8.853-5.537 8.853l-4.238 6.463c-2.183 5.749-5.455 6.335-5.455 6.335s-7.678-5.159-7.902-5.413c-.224-.253-3.147-1.511-3.147-1.511a3.326 3.326 0 00-1.512-1.383c-1.007-.421-1.09-1.975-1.09-1.975-.125-3.652-2.265-3.951-2.265-3.951-7.427-.619-7.384 7.059-7.384 8.106z" fill="#3F3D56"/><path d="M74.294 120.388h4.53v-14.056h-4.53v14.056z" fill="#999" class="svg-secondary-color"/><path opacity=".1" d="M74.294 120.388h4.53v-14.056h-4.53v14.056zM86.166 77.587v.03c.035.077.077.152.126.223l1.257 1.844 3.273.33.036-1.298c-1.02-.08-3.345-.359-4.692-1.13z" fill="#000"/><path d="M86.295 77.84s.168 7.382-1.68 8.39c-1.846 1.007-2.564 6.255-2.564 6.255s5.597 3.68 6.845 5.3c1.248 1.62 4.112 5.479 3.523 6.401-.59.922 1.429 5.119 1.429 5.119s-3.694 7.553-2.855 10.408c.84 2.854.922 10.404.922 10.404h1.597s-.504-6.21-.504-8.728c0-2.519 1.676-11.497 1.676-11.497s.757-8.811 0-9.061-5.202-3.776-5.538-5.373c-.336-1.597 2.351-16.462 2.351-16.462s-3.44-.148-5.202-1.156z" fill="#999" class="svg-secondary-color"/><path opacity=".1" d="M74.209 105.029a7.178 7.178 0 001.096 2.877l3.101-.527s9.315-2.1 11.237-2.271c1.165-.154 2.301-.478 3.372-.962a14.867 14.867 0 00-4.165-6.831l-1.182-1.097a19.803 19.803 0 00-5.96-3.81c.139.116 9.91 8.459 7.77 10.095-2.14 1.637-7.9-2.347-7.9-2.347l-6.553-5.63-.237-.204-.379.59c.193.078.381.168.563.27a9.64 9.64 0 014.61 5.728c1.347 4.527-5.373 4.119-5.373 4.119z" fill="#000"/><path d="M72.193 126.008s6.21 3.44 7.718 1.511c.329-.425 1.024-.609 1.89-.658-.142-.435-.211-.725-.211-.725s-4.626-1.705-8.932-1.297c-.284.711-.465 1.169-.465 1.169z" fill="#444053"/><path d="M75.051 94.328l6.79 5.841s5.738 3.997 7.9 2.348c2.164-1.65-7.772-10.098-7.772-10.098a20.083 20.083 0 015.956 3.8l1.181 1.096c3.109 2.88 3.81 2.88 3.915 7.114.026 1.044-.33 2.542-.602 2.812-1.008.988-1.712 8.162-1.558 9.002.155.839-1.876 8.086-1.218 10.101.659 2.015-8.23-1.008-9.736.925-1.504 1.932-7.714-1.511-7.714-1.511s3.441-8.814 4.28-9.4c.84-.586 1.848-5.12 0-7.217-1.847-2.097-2.011-4.112-2.011-4.112s6.716.415 5.37-4.113a9.503 9.503 0 00-5.163-5.998l.382-.59z" fill="#E8E8F0"/><path opacity=".1" d="M84.112 109.184s-2.604 4.909-5.972 6.183a4.596 4.596 0 01-.33.108c-3.516 1.07 6.565-4.77 6.302-6.291z" fill="#000"/><path d="M47.691 65.754s1.258 3.19 2.265 4.28c1.008 1.09 8.475 12 8.475 12l.632 1.318.543 1.122 4.784-.504.33-1.929-.185-.224c-.48-.576-1.79-2.123-2.67-2.798-1.09-.837-3.273-3.605-3.273-3.605s-6.795-7.053-7.299-8.982c-.504-1.93-7.302-13.499-8.81-11.497-1.508 2.002 5.208 10.819 5.208 10.819z" fill="#FBBEBE"/><g opacity=".1" fill="#000"><path opacity=".1" d="M61.572 117.652a3.744 3.744 0 00-1.689.243c-1.185.577-1.41 2.134-2.068 3.276-.77 1.337-2.238 2.163-3.75 2.47-.3.058-.603.1-.908.125.962.093 1.933.051 2.884-.125 1.511-.307 2.98-1.133 3.75-2.47.658-1.142.882-2.699 2.067-3.276.312-.14.647-.218.988-.23l-1.274-.013zM73.267 92.396c0-2.618 1.702-4.873 3.104-7.082 1.403-2.21 2.582-4.998 1.472-7.368-.948-2.025-6.664-4.742-9.963-4.205 3.23.418 7.21 2.545 7.988 4.204 1.11 2.371-.07 5.16-1.472 7.369-1.403 2.209-3.111 4.464-3.105 7.082 0 3.378-.227 5.926-1.155 9.189-.267.938 2.304 2.357 1.91 3.246-1.338 2.963-.712 6.381-.926 9.621a4.001 4.001 0 01-.451 1.817c-.659 1.083-2.008 1.363-3.322 1.422h1.149c1.534 0 3.355-.118 4.148-1.432a4 4 0 00.451-1.817c.214-3.24-.411-6.661.926-9.621.401-.889-2.177-2.304-1.91-3.246.928-3.24 1.162-5.801 1.156-9.18z"/></g><path opacity=".1" d="M59.063 83.345l.544 1.123 4.784-.504.329-1.93-.185-.223c-.51.25-4.332 2.09-5.472 1.534z" fill="#000"/><path opacity=".1" d="M76.727 95.965s-1.175-1.844-1.847-1.344c-.672.5-.932-1.51-1.317-1.175-.385.336-1.508 1.27-1.975-.036-.366-1.04-4.343-7.622-5.956-10.27-.415-.684-.675-1.105-.675-1.105s-4.53 2.265-5.62 1.51v1.594l.921.086 4.94 9.219s1.553 2.472 1.448 3.335c-.106.862 1.992 4.639 2.328 4.889.335.25 3.95 4.448 3.95 4.448s1.847 9.064.25 11.583c-1.596 2.518-4.362 4.362-4.362 4.362s-.833 2.433-.711 2.687c.122.253-.968 1.343-.464 1.679.504.336 1.175 2.683 1.175 2.683s2.351-3.776 3.622-4.362c1.27-.586 2.897-8.31 2.897-8.31s.464-4.55.5-7.487c.037-2.937-.111-13.986.896-13.986z" fill="#000"/><path d="M76.474 95.965s-1.172-1.844-1.844-1.344c-.672.5-.935-1.51-1.317-1.175-.382.336-1.505 1.27-1.976-.036-.368-1.04-4.346-7.622-5.956-10.27l-.674-1.105s-4.53 2.265-5.624 1.51v1.594l.925.086 4.939 9.219s1.557 2.472 1.448 3.335c-.108.862 1.976 4.639 2.328 4.889.353.25 3.951 4.448 3.951 4.448s1.847 9.064.254 11.583a15.442 15.442 0 01-3.04 3.365 5.868 5.868 0 00-1.975 3.167 1.252 1.252 0 00-.059.527c.122.25-.968 1.343-.464 1.679.504.336 1.182 2.693 1.182 2.693s2.35-3.776 3.621-4.362c1.271-.587 2.901-8.31 2.901-8.31s.461-4.551.5-7.487c.04-2.937-.108-14.006.88-14.006z" fill="#999" class="svg-secondary-color"/><path opacity=".1" d="M64.976 134.15s3.527.658 4.939 1.676c1.412 1.017-5.37-1.594-5.37-1.594l.431-.082zM73.455 143.085s3.677 3.066 3.019 5.835a2736.09 2736.09 0 01-2.358 9.735l-.661-15.57zM41.29 137.192s-5.181.566-4.846 1.238c.336.672 4.847-.619 4.847-.619v-.619zM81.083 162.682s.33.418-1.594 0c-1.922-.418-.503-1.709-.503-1.709l2.097 1.709zM80.424 168.473s-2.634.418-4.046 0c-1.412-.418 4.046 0 4.046 0zM75.005 191.131s-.46-.503-2.769.419c-2.308.921-3.23.964-3.901.658-.672-.306 6.67-1.077 6.67-1.077zM77.567 136.478l-3.273 4.553s1.761-3.987 3.273-4.553zM71.206 94.621s-.142 1.512-2.252 2.101c-2.11.59-2.512 1.067-2.512 1.067M65.72 83.668s-2.785 1.975-5.692 1.557l5.693-1.557zM67.841 125.965s.813.51 2.766-1.722l-2.766 1.722zM88.119 102.296c.079-.408-.204-.787-.47-1.106l-.547-.659a2.543 2.543 0 00-.36-.368c-.329-.254-.75-.33-1.092-.557" fill="#000"/><path d="M192.906 102.477a3.648 3.648 0 00-1.59-.697c-.609-.14-1.231-.228-1.85-.325l-8.019-1.157a9.447 9.447 0 00-2.456-.13 3.125 3.125 0 00-2.136 1.108c-.239.294-.37.662-.372 1.042.045.382.169.75.365 1.081.078.155.144.315.199.479.077.368.172.733.286 1.091.036.078.082.15.137.215a.253.253 0 010 .055c-.088.45.196.919.069 1.352-.111.371-.473.596-.701.906a1.36 1.36 0 00-.032 1.501c.244.378.687.635.814 1.068.166.57-.283 1.121-.684 1.561a24.247 24.247 0 00-2.039 2.569 1.6 1.6 0 00-.326.766c-.035.567.509 1.065.414 1.628-.075.443-.508.714-.883.977-1.384.912-2.495 2.378-2.605 4.036a14.15 14.15 0 00-3.153-7.166c-.466-.56-.977-1.123-1.169-1.833-.072-.284-.085-.587-.183-.86-.326-.863-1.361-1.235-1.814-2.029-.326-.561-.326-1.28-.73-1.772-.403-.492-1.039-.603-1.387-1.078a6.947 6.947 0 01-.443-1.003 2.196 2.196 0 00-.752-.831.521.521 0 00.172-.384c0-.381-.378-.632-.707-.821a20.55 20.55 0 01-1.241-.772 2.897 2.897 0 001.111-.909 2.986 2.986 0 00.424-1.954 2.474 2.474 0 00-.583-1.495c-.206-.218-.463-.375-.678-.58-.557-.544-.746-1.348-.977-2.09-.306-.978-.785-2.004-1.677-2.522-.43-.25-.932-.368-1.352-.632-.42-.263-.772-.762-.625-1.24.097-.326.4-.551.605-.828a1.65 1.65 0 00-.413-2.28c-.241-.153-.538-.287-.587-.567a1.04 1.04 0 01-.755-.8 3.097 3.097 0 010-1.16l.251-1.811a1.175 1.175 0 00.905 0c.282.457.609.885.977 1.276a12.759 12.759 0 012.28 3.958c.186.521.375 1.104.857 1.38.166.095.355.144.518.245.2.14.373.317.508.521.391.518.781 1.033 1.169 1.55l.02.079c.01.046.028.09.052.13a.433.433 0 00.28.143c1.198.277 2.544.531 3.583-.123.938-.587 1.348-1.746 2.143-2.521.563-.55 1.361-.977 1.521-1.753a5.78 5.78 0 01-.56-.205c.162-.163.325-.352.547-.567.322-.315.612-.66.866-1.032.275-.459.494-.948.651-1.46.628-1.788 1.258-3.579 1.89-5.37.299-.847.599-1.7.977-2.524.391-.893.853-1.75 1.28-2.626a34.851 34.851 0 002.534-7.133c.103-.336.138-.689.101-1.039-.091-.563-.518-1.006-.925-1.407a6.797 6.797 0 00-1.388-1.15 2.283 2.283 0 00-1.739-.28c-.834.245-1.358 1.098-1.55 1.955-.193.856-.121 1.739-.202 2.605-.118 1.254-.548 2.466-.652 3.723-.055.726 0 1.463-.088 2.189a7.976 7.976 0 01-.977 2.697 17.456 17.456 0 01-4.211 5.192c-.199.166-.404.325-.6.504 0-.14.023-.283.043-.423-.142.037-.28.086-.414.147.017-.165 0-.331-.049-.489-.26-.778-1.42-.977-1.628-1.769a3.572 3.572 0 01-.056-.592c-.068-.694-.54-1.28-.703-1.955-.15-.622-.036-1.302-.326-1.879a5.26 5.26 0 00-.866-.977 3.819 3.819 0 01-.824-1.554c-.043-.16-.082-.325-.127-.485.049-.361.009-.73-.118-1.072-.296-.736-1.061-1.208-1.338-1.954-.215-.58-.121-1.303-.528-1.752a1.903 1.903 0 00-.772-.466 17.17 17.17 0 00-4.648-1.097c-.892-.082-1.876-.128-2.514-.756-.746-.73-.782-2.042-1.655-2.606-.768-.498-1.856-.13-2.452.57-.09.103-.173.212-.248.326a3.473 3.473 0 01-.068-1.335c0-.111.023-.225.032-.326a6.512 6.512 0 003.531-2.788v.02l.039.1c.095.238.244.466.466.492a.652.652 0 00.404-.147 3.363 3.363 0 00.775-.752c.15-.203.279-.422.384-.651.162-.346.272-.714.326-1.091.059-.378.065-.766.13-1.144.061-.292.141-.58.238-.863.033-.094.065-.189.094-.283l.105-.326a7.53 7.53 0 00.325-2.065v-.352a3.418 3.418 0 00-1.094-2.426c-.56-.46-1.303-.652-1.713-1.274-.267-.417-.326-.954-.482-1.443a3.261 3.261 0 00-2.56-2.302 2.85 2.85 0 00-2.026.557l-.046.035a3.26 3.26 0 00-.808.9 2.686 2.686 0 01-1.146-.652c-.326-.303-.577-.684-.906-.977a2.324 2.324 0 00-2.319-.489 2.776 2.776 0 00-1.657 1.9c-.18.67-.147 1.442-.522 2.002-.289.437-.765.652-1.097 1.05-.207.25-.348.55-.411.869a2.368 2.368 0 00-.055.544c0 .081 0 .163.02.24v.04a2.282 2.282 0 00.54 1.156c.215.246.484.44.785.567.124.048.25.088.378.12l.388.088.136.033a6.504 6.504 0 00-.182 5.736c0 .09-.023.182-.033.273a22.509 22.509 0 00.17 3.84c.045.505.071 1.062-.238 1.463a2.773 2.773 0 01-.472.42c.176-.228.355-.453.537-.678-.459-.462-1.185-.52-1.837-.475a8.518 8.518 0 00-3.583 1.094c-.729.42-1.478.977-2.312.88-.492-.056-.977-.326-1.456-.196-.269.11-.52.26-.746.443a1.009 1.009 0 01-.612.189c-.512-.629-1.303-1.055-1.915-1.567a15.111 15.111 0 01-1.906-2.042 357.522 357.522 0 01-3.143-3.837c-.873-1.081-1.768-2.25-1.922-3.635a3.571 3.571 0 01-.022-.413 10.54 10.54 0 01.247-1.954.968.968 0 000-.473c-.097-.325-.472-.446-.795-.518.043-.25.072-.508.088-.752.183-2.801-.016-5.648.577-8.39.225-1.056.593-2.124 1.352-2.89 1.188-1.201 3.179-1.491 4.091-2.914.762-1.186.459-2.863-.499-3.909-.957-1.045-2.433-1.472-3.837-1.42a1.979 1.979 0 00-1.117.3 2.374 2.374 0 00-.677 1.029l-1.398 3.397a20.57 20.57 0 00-1.022 2.73c-.391 1.426-.479 2.93-.789 4.37 0 1.108-.713 2.489-1.104 3.508-.436 1.147-.908 2.28-1.303 3.45-.097.293-.439 1.162-.651 1.954-.08.047-.154.102-.221.166-.17.218-.325.448-.463.687-.296.391-.778.6-1.104.977-.326.378-.394 1.072.059 1.26.091.032.187.052.283.063.059.005.118.015.176.029.488.137.681.752.609 1.26-.072.509-.326.978-.368 1.486-.088.899.44 1.736.948 2.491.526.82 1.107 1.602 1.739 2.342.459.515.977.977 1.44 1.472 1.762 1.811 3.162 3.928 4.745 5.896.57.742 1.217 1.422 1.932 2.026.466.365.954.7 1.462 1.006l2.723 1.726c.309.227.658.391 1.029.486.121.016.244.016.365 0 .016.081.029.16.049.24.212.854.677 1.63.729 2.499.053.87-.026 1.759.036 2.638.059.811.238 1.629.284 2.427.091 1.537-.287 3.055-.652 4.56-.55 2.201-.883 4.449-1.954 6.445-.3.55-.651 1.11-.651 1.74 0 .075 0 .153.019.228l-.489.276a8.237 8.237 0 00-.416.248c-.619.404-1.28.85-1.535 1.547-.205.564-.11 1.208-.358 1.756a.98.98 0 01-.039.071c-.26.508-.778.886-.896 1.443-.088.427.082.88 0 1.303v.016a4.751 4.751 0 00-.175.652.78.78 0 00.019.215c.062.246.199.468.391.635.117.112.245.214.381.303.139.091.282.176.43.254l.085.045c.123.065.247.127.374.186l.085.036c.146.065.296.124.446.176l.104.032c.118.039.238.075.359.105l.081.026.075.016.326.068.12.023c.143.024.29.043.44.059h.13c.111 0 .218.016.326.019h.596c.153 0 .306-.023.459-.042h.049c.137-.02.274-.042.41-.072l.105-.023c.127-.029.254-.058.381-.097l.068-.02c.153-.045.306-.094.456-.153a11.896 11.896 0 001.505-.746c.326-.179.651-.361.977-.527.242-.122.489-.231.743-.326a4.195 4.195 0 011.954-.326c.33.045.656.111.977.199v.107c.265 1.564.527 3.127.785 4.691a9.448 9.448 0 011.348-.811 2.977 2.977 0 00-.172.732c-.02.194-.02.39 0 .583.029.31.094.652-.091.896-.114.15-.326.235-.388.404a1.397 1.397 0 00-.033.531.848.848 0 01-.775.788 1.235 1.235 0 01-.492 1.453 1.68 1.68 0 00-.377.247 1.124 1.124 0 00-.219.492 8.697 8.697 0 01-2.55 4.192 8.196 8.196 0 00-1.26 1.231 5.576 5.576 0 00-.57 1.124 723.517 723.517 0 01-2.645 6.374c-.495 1.189-.977 2.397-1.134 3.677-.39 3.511-3.517 6.488-2.931 9.973.118.871.47 1.693 1.016 2.381.652.785 1.629 1.235 2.606 1.599 2.511.978 5.159 1.512 7.797 2.049l4.143.85a18.07 18.07 0 002.469.391c1 .069 2.026-.026 3 .228.603.156 1.179.446 1.801.479.534.029 1.192-.085 1.508.352.316.436.072 1.013.371 1.4.482.616 1.658 0 2.183.58.143.223.253.465.325.72.08.157.191.297.326.41.032.184.045.371.039.557a9.584 9.584 0 01-.469 2.221c-.391 1.323-.78 2.646-1.169 3.971a8.795 8.795 0 00-.326 1.433 3.51 3.51 0 000 .71c.069.72.482 1.462 1.169 1.697a2.14 2.14 0 001.583-.196 6.992 6.992 0 001.303-.879 8.917 8.917 0 001.88-1.935c1.628-2.436 1.1-5.732 2.244-8.426.759-1.798 2.237-3.257 2.729-5.152.115-.361.129-.746.039-1.114-.205-.652-.899-1.023-1.547-1.258h-.029a13.38 13.38 0 00-1.629-.465c-.137-.03-.277-.052-.417-.075a2.554 2.554 0 01-.719-.938 2.204 2.204 0 00-.154-.564.588.588 0 00-.469-.26c-.325-.033-.762.084-1.117.058-.726-.052-1.208-.765-1.86-1.094-.651-.329-1.358-.248-2.052-.199-.248.034-.5.019-.742-.045a2.804 2.804 0 01-.782-.538 3.276 3.276 0 00-2.869-.576c-.312.126-.642.2-.977.221-.636-.036-1.085-.602-1.554-1.032-1.283-1.176-3.111-1.485-4.667-2.257a1.07 1.07 0 01-.561-.482c-.179-.443.225-.886.59-1.189l2.677-2.225c2.932-2.436 6.596-4.27 7.957-7.843.142-.479.362-.931.652-1.339a1.83 1.83 0 01.361-.325 2.734 2.734 0 012.003-.391 6.756 6.756 0 012.358 1.029 44.86 44.86 0 013.404 2.28 30.075 30.075 0 013.111 2.554c1.71 1.628 3.133 3.56 4.726 5.315 1.592 1.756 3.413 3.394 5.625 4.234 2.211.841 4.885.805 6.784-.605 2.192-1.629 2.896-4.541 3.449-7.212 1.222-1.179 1.59-2.973 2.186-4.56.374-1.006.853-1.954 1.257-2.957.482-1.179.86-2.397 1.238-3.612.428-1.22.718-2.484.866-3.768.156-2.03-.388-4.189.182-6.094.753-.167 1.437-.59 2.176-.838 1.101-.361 2.28-.302 3.446-.296h.075c.402.043.806-.053 1.147-.27.39-.326.452-.883.472-1.388.045-1.247-.033-2.648-.967-3.456zm-47.192-55.559a2.42 2.42 0 01-.824.059l.824-.059z" fill="url(#paint1_linear)"/><path d="M146.996 67.522c-.394.335-.857.581-1.355.72l-2.309.828c-1.254.45-2.564.902-3.886.739-.739-.091-3.908-.557-4.387-1.133-.73-.893 1.827-2.206 2.7-2.958.198-.142.381-.304.547-.482.326-.397.283-.954.238-1.456a22.535 22.535 0 01-.17-3.834c.026-.305.069-.608.131-.908.325-1.498 1.719-.951 2.82-.554 1.326.43 2.607.986 3.827 1.658.372.192.695.466.945.801.482.73.29 1.687.212 2.606-.069.713-.065 1.397.381 1.915.224.198.43.416.615.651a1.218 1.218 0 01-.309 1.407zM115.096 44.049c.326-1.443.397-2.932.788-4.361.276-.93.618-1.839 1.023-2.72l1.436-3.352c.132-.395.365-.75.678-1.026a2.006 2.006 0 011.117-.3c1.404-.051 2.879.385 3.837 1.418.957 1.032 1.26 2.703.498 3.885-.912 1.424-2.902 1.71-4.091 2.909-.759.765-1.127 1.83-1.352 2.882-.592 2.736-.394 5.573-.576 8.368-.059.87-.228 1.863-.977 2.312a2.85 2.85 0 01-1.459.284l-2.137.035c-.358 0-1.658.225-1.896-.045-.416-.472.535-2.824.707-3.348.385-1.163.857-2.297 1.303-3.44.388-1.02 1.101-2.397 1.101-3.501z" fill="#BE6F72"/><path d="M159.213 146.373c-.492 1.883-1.97 3.348-2.729 5.143-1.143 2.687-.629 5.973-2.244 8.403a8.863 8.863 0 01-1.88 1.938c-.4.34-.837.634-1.302.876a2.14 2.14 0 01-1.583.196c-.688-.235-1.101-.977-1.17-1.694a3.48 3.48 0 010-.707 8.83 8.83 0 01.326-1.429c.391-1.319.781-2.639 1.169-3.961a9.535 9.535 0 00.469-2.215c.043-.821-.478-1.889-.257-2.654.101-.346.479-.652.651-.942.246-.417.434-.865.561-1.332.267-.909.449-1.879 1.009-2.645a6.177 6.177 0 011.271-1.188 3.355 3.355 0 011.211-.681 2.971 2.971 0 011.303.062c.553.118 1.097.272 1.629.462h.029c.651.235 1.342.596 1.547 1.254.1.365.096.751-.01 1.114zM193.869 106.331c-.02.504-.082 1.068-.473 1.384-.34.218-.744.313-1.146.27h-.088c-1.163 0-2.345-.065-3.446.297-.837.276-1.606.785-2.479.885-1.202.137-2.332-.521-3.397-1.094a34.097 34.097 0 00-3.084-1.466c-.691-.283-2.101-.465-2.433-1.221-.114-.358-.21-.721-.287-1.088a3.636 3.636 0 00-.199-.479 2.753 2.753 0 01-.364-1.078c.001-.379.132-.747.371-1.042a3.131 3.131 0 012.133-1.098 9.448 9.448 0 012.456.131l8.019 1.153c.619.088 1.241.176 1.85.325.578.101 1.124.34 1.589.697.948.795 1.026 2.192.978 3.424z" fill="#3F3D56"/><path d="M186.82 108.415c-.977 2.062-.273 4.501-.449 6.781a17.311 17.311 0 01-.867 3.759c-.378 1.212-.755 2.427-1.237 3.602-.404.977-.883 1.955-1.258 2.951-.596 1.59-.977 3.378-2.185 4.56-.554 2.664-1.257 5.576-3.449 7.192-1.906 1.407-4.56 1.456-6.785.606-2.224-.85-4.032-2.479-5.625-4.235-1.593-1.755-3.016-3.667-4.726-5.302a29.518 29.518 0 00-3.117-2.55 48.267 48.267 0 00-3.404-2.261 6.814 6.814 0 00-2.358-1.026 2.735 2.735 0 00-2.003.391 1.804 1.804 0 00-.361.326c-.29.406-.51.857-.652 1.335-1.368 3.563-5.038 5.394-7.97 7.824l-2.677 2.218c-.365.303-.769.746-.59 1.185.124.223.322.394.561.482 1.556.769 3.384 1.078 4.667 2.251.469.43.918.997 1.554 1.029a3.1 3.1 0 00.977-.218 3.283 3.283 0 012.869.573c.228.223.493.404.782.538.242.064.494.079.743.045.693-.049 1.429-.11 2.052.199.622.309 1.133 1.039 1.859 1.091.355.026.779-.091 1.117-.059a.594.594 0 01.469.261c.076.179.128.367.154.56.133.459.583.74.876 1.117.449.58.514 1.368.469 2.101a8.968 8.968 0 01-2.853 6 3.537 3.537 0 01-1.756.977 1.624 1.624 0 01-1.739-.772 2.701 2.701 0 00-.326-.717c-.524-.576-1.7.036-2.182-.579-.3-.385-.085-1-.372-1.398-.286-.397-.977-.325-1.508-.348-.622-.033-1.198-.326-1.801-.479-.977-.254-2-.16-3-.228a18.08 18.08 0 01-2.468-.391l-4.143-.847c-2.639-.537-5.287-1.081-7.798-2.042-.961-.365-1.928-.814-2.605-1.596a4.878 4.878 0 01-1.017-2.377c-.589-3.476 2.538-6.446 2.932-9.948.14-1.276.651-2.481 1.133-3.667.884-2.119 1.765-4.24 2.645-6.361.142-.395.328-.773.554-1.127a8.13 8.13 0 011.26-1.228 8.67 8.67 0 002.55-4.182c.032-.179.107-.348.219-.492.115-.097.242-.179.377-.244a1.238 1.238 0 00.492-1.45.841.841 0 00.775-.788 1.377 1.377 0 01.033-.527c.078-.17.274-.254.388-.404.185-.245.12-.587.091-.893a2.84 2.84 0 010-.583 2.99 2.99 0 01.873-1.82c.778-.766 1.886-.567 2.96-.75a16.871 16.871 0 003.127-1 30.756 30.756 0 018.83-2.042c3.043-.239 6.1.248 8.918 1.42.41.166.797.385 1.15.652.25.193.456.439.602.72.12.344.269.679.443 1 .349.475 1.007.628 1.388 1.078.381.449.413 1.208.729 1.765.453.795 1.502 1.163 1.815 2.026.097.273.11.573.182.856.176.71.703 1.271 1.169 1.831a14.068 14.068 0 013.153 7.166c.104-1.652 1.215-3.114 2.606-4.026.374-.245.807-.515.882-.958.095-.56-.449-1.058-.413-1.628.039-.279.152-.542.325-.763a24.178 24.178 0 012.039-2.563c.401-.44.85-.977.684-1.557-.127-.433-.57-.687-.814-1.065a1.352 1.352 0 01.033-1.498c.228-.309.589-.534.7-.902.127-.433-.156-.902-.068-1.349.119-.357.355-.664.671-.869a5.569 5.569 0 011.455-.958c.86-.326 1.818-.205 2.73-.078 1.524.212 3.234.537 4.094 1.814.55.798.831 2.01.42 2.863z" fill="#65617D"/><path opacity=".1" d="M193.869 106.331c-.02.504-.082 1.068-.473 1.384-.34.218-.744.313-1.146.27h-.088c.133-.677.957-1.065 1.101-1.752a1.557 1.557 0 00-.359-1.182c-.697-.942-1.817-1.463-2.931-1.844a19.423 19.423 0 00-9.791-.733 9.837 9.837 0 00-2.573.792 8.357 8.357 0 00-.782.553 2.753 2.753 0 01-.364-1.078c.001-.379.132-.747.371-1.042a3.131 3.131 0 012.133-1.098 9.448 9.448 0 012.456.131l8.019 1.153c.619.088 1.241.176 1.85.325.579.101 1.124.34 1.59.697.957.795 1.035 2.192.987 3.424zM159.213 146.373c-.492 1.883-1.97 3.348-2.729 5.143-1.143 2.687-.629 5.973-2.244 8.403a8.863 8.863 0 01-1.88 1.938c-.4.34-.837.634-1.302.876a2.14 2.14 0 01-1.583.196c-.688-.235-1.101-.977-1.17-1.694a3.48 3.48 0 010-.707l.02.052c.283.684.746 1.401 1.475 1.522a1.994 1.994 0 001.505-.531c1.075-.864 1.7-2.15 2.296-3.391.467-.895.836-1.837 1.101-2.811.131-.554.192-1.12.326-1.674.619-2.69 2.726-4.886 3.192-7.612.038-.187.047-.38.026-.57a2.917 2.917 0 00-.28-.71 3.556 3.556 0 01-.248-.788c.652.234 1.342.596 1.547 1.254.085.366.066.748-.052 1.104zM154.295 141.702a4.731 4.731 0 01-1.469 2.007 7.17 7.17 0 01-3.163 1.368 3.143 3.143 0 01-1.628-.02c-.723-.251-1.244-.928-1.984-1.123-.527-.144-1.094-.017-1.628-.095-.961-.133-1.707-.866-2.482-1.453-2.375-1.784-5.492-2.361-7.866-4.146a.73.73 0 01-.254-.264.783.783 0 01-.049-.368 7.5 7.5 0 01.713-3.13c.378-.683.828-1.324 1.342-1.912 2.127-2.605 4.264-5.231 6.811-7.429 1.068-.922 2.234-1.782 3.583-2.199.749-.231 2.228-.449 3.139-.058a1.83 1.83 0 00-.361.325 4.48 4.48 0 00-.651 1.336c-1.372 3.566-5.042 5.397-7.974 7.827l-2.677 2.218c-.365.303-.769.746-.59 1.185.124.223.322.394.561.482 1.556.769 3.384 1.078 4.667 2.251.469.43.918.997 1.554 1.029a3.1 3.1 0 00.977-.218 3.283 3.283 0 012.869.573c.228.223.493.404.782.538.242.064.494.079.743.045.693-.049 1.429-.11 2.051.199.623.309 1.134 1.039 1.86 1.091.362.026.785-.098 1.124-.059z" fill="#000"/><path d="M124.34 97.497c-.619.398-1.277.847-1.531 1.538-.209.563-.111 1.208-.362 1.755-.25.547-.814.929-.938 1.515-.088.426.085.876 0 1.303a5.866 5.866 0 00-.179.677c-.032.485.385.88.792 1.15a6.6 6.6 0 002.881 1.029 6.6 6.6 0 003.037-.378c.869-.325 1.654-.856 2.488-1.273a4.922 4.922 0 012.681-.652c.537.059 1.052.254 1.589.326a1.672 1.672 0 001.489-.443c.166-.229.277-.493.325-.772.453-1.788.248-3.684-.182-5.482-.43-1.797-1.081-3.527-1.541-5.315-.325-1.326-.576-2.684-1.12-3.938-.544-1.254-1.459-2.42-2.739-2.899a.513.513 0 00-.326-.042.556.556 0 00-.212.156 10.025 10.025 0 00-2.234 3.759c-.511 1.56-.651 3.215-1.12 4.781-.202.652-.463 1.525-.978 2.023-.514.498-1.237.808-1.82 1.182z" fill="#3F3D56"/><path opacity=".1" d="M136.622 103.262a1.88 1.88 0 01-.342.772 1.654 1.654 0 01-1.488.44c-.534-.065-1.049-.264-1.586-.326a4.914 4.914 0 00-2.681.652c-.834.417-1.629.935-2.492 1.27a6.578 6.578 0 01-3.951.225 6.398 6.398 0 01-1.954-.86c-.41-.267-.824-.652-.791-1.15a5.44 5.44 0 01.179-.674c.085-.427-.085-.876 0-1.303.124-.586.69-.977.938-1.518.247-.54.153-1.189.358-1.752.254-.694.915-1.14 1.534-1.54.619-.401 1.355-.707 1.85-1.193.064-.075.122-.156.173-.24a5.86 5.86 0 00.775-1.795c.479-1.57.609-3.222 1.117-4.785a10.034 10.034 0 012.238-3.755.492.492 0 01.208-.157.522.522 0 01.326.04c1.277.481 2.192 1.647 2.739 2.901.547 1.254.779 2.606 1.121 3.935.456 1.788 1.11 3.524 1.54 5.319.43 1.794.642 3.703.189 5.494zM146.309 63.54a6.515 6.515 0 01-7.935-3.584c.026-.305.069-.608.131-.908.325-1.499 1.719-.952 2.82-.554 1.326.43 2.607.986 3.827 1.658.372.191.695.465.945.801.482.72.29 1.677.212 2.586z" fill="#000"/><path d="M144.341 63.52a6.514 6.514 0 100-13.028 6.514 6.514 0 000 13.028z" fill="#BE6F72"/><path opacity=".1" d="M162.018 105.686c0 .54-.733.713-1.277.684-1.954-.114-3.866-.652-5.801-.489-2.446.222-4.694 1.573-7.146 1.697-.945.049-1.905-.091-2.837.081-1.205.225-2.28.958-3.508 1.062-1.065.091-2.117-.309-3.182-.267a5.116 5.116 0 00-2.127.606c.071-.69.38-1.333.873-1.821.778-.765 1.886-.566 2.961-.749a16.885 16.885 0 003.126-1 30.731 30.731 0 018.83-2.042 19.288 19.288 0 018.915 1.41c.41.166.797.385 1.15.652a.523.523 0 01.023.176z" fill="#000"/><path d="M141.329 68.9l-2.639-.977-1.114-.41a5.372 5.372 0 00-1.42-.378c-1.276-.098-2.478.752-3.159 1.837-.681 1.085-.938 2.378-1.156 3.638a98.784 98.784 0 00-.762 5.192 33.806 33.806 0 00-.342 4.736c.075 4.032.928 8.009 1.866 11.934a42.14 42.14 0 011.039 5.292c.078.736.114 1.476.192 2.215.085.831.222 1.651.358 2.476l.785 4.68c.977-.694 2.088-1.303 3.29-1.339 1.065-.039 2.12.359 3.182.267 1.222-.101 2.303-.833 3.508-1.058.932-.173 1.892-.036 2.84-.082 2.45-.123 4.7-1.478 7.143-1.697 1.938-.175 3.863.372 5.804.486.541.032 1.274-.14 1.274-.684 0-.378-.378-.629-.707-.818a34.816 34.816 0 01-4.414-3.149c-1.283-1.017-2.586-2.059-3.468-3.433-2.127-3.306-1.398-7.778-3.212-11.267-1.475-2.833 0-6.546 0-9.742 0-1.592 0-3.204-.374-4.752a20.156 20.156 0 00-.873-2.54l-1.267-3.208a.528.528 0 00-.15-.245.499.499 0 00-.29-.087 3.055 3.055 0 00-2.104.674c-.596.485-.977 1.182-1.563 1.687-.642.557-1.469 1.045-2.267.752z" fill="#E3E8F4"/><path d="M145.586 67.05c.208-.892.433-1.82 1.029-2.517.596-.697 1.684-1.066 2.452-.567.873.566.909 1.876 1.655 2.605.651.626 1.629.675 2.514.756 1.593.145 3.158.513 4.648 1.094.291.09.556.25.772.463.407.462.326 1.172.528 1.749.277.743 1.042 1.215 1.339 1.954.325.821 0 1.74-.274 2.583-.492 1.515-.801 3.088-1.28 4.609-.479 1.52-1.16 3.02-2.28 4.166-.495.508-1.231.977-1.883.674l-.25 1.808a3.039 3.039 0 000 1.156 1.04 1.04 0 00.755.801c.049.28.345.414.586.567a1.64 1.64 0 01.684 1.053 1.643 1.643 0 01-.27 1.227c-.205.277-.508.495-.606.824-.146.475.202.977.626 1.237.423.261.921.382 1.351.632.893.515 1.372 1.528 1.678 2.512.228.742.417 1.547.977 2.087.215.206.472.362.677.577.356.42.561.946.583 1.495.09.681-.06 1.371-.423 1.954-.651.932-1.866 1.208-2.931 1.629-1.73.71-3.153 1.98-4.678 3.061-.62.5-1.352.844-2.133 1.003-1.055.141-2.094-.325-3.156-.368a7.828 7.828 0 00-1.883.248l-1.954.423c.104-1.514-.729-3.032-1.195-4.475-.88-2.716-1.043-5.622-.834-8.468.208-2.847.788-5.654 1.361-8.45.401-1.953.362-3.996.978-5.894.576-1.828 1.4-3.583 1.703-5.485.495-3.078-1.563-5.687-.866-8.723z" fill="#3F3D56"/><path d="M160.402 73.073c.18.33.306.688.375 1.058.15.574.432 1.105.824 1.55.327.29.618.618.866.978.3.566.186 1.257.326 1.876.163.674.635 1.26.703 1.954.002.199.021.397.056.593.211.788 1.371.977 1.628 1.765.173.511-.123 1.068-.068 1.606.04.166.05.338.029.508a1.03 1.03 0 01-.371.475 7.491 7.491 0 00-2.143 3.814 21.696 21.696 0 00-.492 4.407l-1.274-1.684a1.919 1.919 0 00-.508-.52c-.163-.099-.351-.147-.518-.245-.482-.274-.671-.853-.856-1.374a12.704 12.704 0 00-2.28-3.948c-.518-.61-1.121-1.221-1.235-2.013a3.712 3.712 0 01.059-1.088c.326-2.133.674-4.319 1.713-6.211.486-.886 1.114-1.687 1.58-2.586.313-.596.752-2.147 1.586-.915zM128.271 75.121c.006.275-.064.545-.202.782a1.034 1.034 0 01-1.029.326 2.975 2.975 0 01-1.029-.482l-2.723-1.723a15.11 15.11 0 01-1.463-1.004 13.037 13.037 0 01-1.931-2.022c-1.583-1.954-2.984-4.075-4.746-5.863-.479-.489-.977-.958-1.439-1.469a21.329 21.329 0 01-1.74-2.338c-.508-.753-1.035-1.587-.947-2.486.052-.508.296-.977.368-1.482.071-.504-.121-1.12-.61-1.257a1.084 1.084 0 00-.175-.03 1.333 1.333 0 01-.284-.061c-.452-.189-.384-.89-.058-1.257.325-.368.807-.574 1.104-.977.138-.24.292-.47.462-.688.218-.187.479-.317.759-.38a11.744 11.744 0 015.781-.219c.326.072.698.202.795.518a.955.955 0 010 .469 10.54 10.54 0 00-.247 1.954c-.001.137.007.274.022.41.154 1.382 1.049 2.55 1.922 3.629a356.47 356.47 0 003.143 3.827 15.042 15.042 0 001.906 2.036c.651.54 1.495.977 2.003 1.67.413.56.28 1.326.325 2a44.28 44.28 0 01.033 6.117z" fill="#3F3D56"/><path d="M169.636 88.71c.322-.313.612-.657.866-1.026.274-.458.493-.947.652-1.456l1.889-5.358c.3-.847.599-1.697.977-2.521.391-.89.853-1.746 1.28-2.606a34.731 34.731 0 002.531-7.084c.103-.336.137-.69.101-1.039-.091-.563-.518-1.003-.925-1.404a6.775 6.775 0 00-1.388-1.146 2.283 2.283 0 00-1.739-.28c-.834.244-1.358 1.097-1.55 1.954-.192.857-.121 1.733-.202 2.606-.118 1.25-.547 2.459-.652 3.713-.055.726 0 1.459-.088 2.182a7.958 7.958 0 01-.977 2.694 17.487 17.487 0 01-4.211 5.178 6.782 6.782 0 00-1.264 1.215 3.964 3.964 0 00-.609 1.518 3.493 3.493 0 00.264 2.466c.531.905 1.55 1.302 2.524 1.504 1.316.274 1.619-.175 2.521-1.11z" fill="#BE6F72"/><path d="M144.38 47.566a3.042 3.042 0 012.951-1.599 3.26 3.26 0 012.56 2.3c.154.485.215 1.022.482 1.44.404.628 1.154.81 1.714 1.266a3.436 3.436 0 011.094 2.424 7.342 7.342 0 01-.433 2.739 8.612 8.612 0 00-.326 1.146c-.065.378-.071.762-.13 1.14a3.722 3.722 0 01-1.495 2.466.652.652 0 01-.404.146c-.254-.029-.41-.325-.505-.592-.518-1.495-.394-3.323-1.348-4.515a4.933 4.933 0 00-1.544-1.15 1.99 1.99 0 00-.788-.296c-.413.022-.81.168-1.14.417a7.112 7.112 0 01-2.254.997 2.768 2.768 0 01-2.329-.502c-.449-.371-.778-.928-1.277-1.218-.498-.29-1.019-.274-1.511-.472a2.24 2.24 0 01-.906-3.414c.326-.39.808-.612 1.098-1.045.375-.56.342-1.33.521-2a2.756 2.756 0 011.658-1.892 2.33 2.33 0 012.319.485c.326.293.586.67.906.977a2.605 2.605 0 002.41.651" fill="#3F3D56"/><path opacity=".1" d="M149.735 95.507a1.263 1.263 0 00-.345 1.381c.072.153 3.433-.495 3.788-.544.886-.127 2.44-.065 3.036-.876 1.061-1.436-2.228-1.117-2.831-1.065-1.146.098-2.775.254-3.648 1.104z" fill="#000"/><path d="M119.158 53.491a10.457 10.457 0 00-.248 1.954c-.977.199-1.993-.127-2.931-.453l-2.694-.918a.766.766 0 00-1.029.192c-.433.45-1.029 1.303-1.629 1.808a1.337 1.337 0 01-.283-.062c-.453-.189-.384-.89-.059-1.257.326-.368.808-.574 1.104-.977.138-.24.293-.47.463-.688.218-.187.479-.317.759-.38a11.744 11.744 0 015.781-.219c.326.072.697.202.795.518a.95.95 0 01-.029.482z" fill="#3F3D56"/><path opacity=".1" d="M119.158 53.491a10.457 10.457 0 00-.248 1.954c-.977.199-1.993-.127-2.931-.453l-2.694-.918a.766.766 0 00-1.029.192c-.433.45-1.029 1.303-1.629 1.808a1.337 1.337 0 01-.283-.062c-.453-.189-.384-.89-.059-1.257.326-.368.808-.574 1.104-.977.138-.24.293-.47.463-.688.218-.187.479-.317.759-.38a11.744 11.744 0 015.781-.219c.326.072.697.202.795.518a.95.95 0 01-.029.482zM143.797 115.327c.469.156.978.384 1.137.853l-3.772-.958-1.954-.498c-.345-.088-1.583-.189-1.811-.459-.325-.397.831-.124 1.039-.095.632.095 1.264.193 1.893.307 1.185.211 2.325.56 3.468.85zM145.26 118.665c-.326-.218-1.261-.192-1.661-.287-.587-.14-1.163-.325-1.74-.504-1.169-.381-2.328-.815-3.53-1.095-.222-.049-.977-.062-.941-.342.035-.28.755-.378.934-.391 1.065-.078 2.394.421 3.384.776a14.924 14.924 0 013.554 1.843zM142.869 112.35c-1.195-.326-2.28-1.069-3.511-1.212a1.426 1.426 0 01-.896-.274 1.063 1.063 0 01-.29-.521c.824-.042 1.782.306 2.531.635.412.177.809.389 1.186.632.273.166.684.645.98.74z" fill="#000"/><path d="M165.656 83.186a5.698 5.698 0 003.993 6.296c-.16.772-.958 1.198-1.521 1.749-.795.772-1.205 1.928-2.143 2.514-1.046.652-2.391.398-3.583.124a.438.438 0 01-.28-.147.392.392 0 01-.052-.127c-.394-1.442-.652-2.983-.248-4.43.326-1.23 1.108-2.28 1.733-3.367.625-1.088.684-2.254 2.101-2.612zM136.534 64.51a8.47 8.47 0 00-3.583 1.09c-.729.418-1.478.978-2.312.877-.492-.055-.977-.326-1.456-.195a2.86 2.86 0 00-.746.443.842.842 0 01-.821.13l-.325 4.508c-.124 1.713-.245 3.462.166 5.133.211.853.677 1.628.729 2.495.052.866-.026 1.755.036 2.631.059.811.238 1.61.283 2.42.092 1.531-.286 3.049-.651 4.537-.55 2.196-.883 4.44-1.954 6.427-.3.55-.652 1.11-.652 1.736 0 .078 0 .153.02.228-.326.179-.629.348-.906.524-.618.4-1.28.847-1.534 1.54-.205.564-.11 1.209-.358 1.753-.247.544-.814.932-.938 1.518-.088.427.082.876 0 1.303-.074.22-.134.446-.179.674-.033.488.381.883.791 1.15.599.394 1.26.685 1.955.86l1.944-7.72a62.214 62.214 0 004.407-10.25 22.075 22.075 0 011.273-3.374c.369-.616.696-1.255.978-1.915.296-.821.325-1.71.469-2.577.17-1.01.426-2.006.765-2.973.352-1.046.759-2.088.831-3.186.107-1.57-.463-3.227.143-4.68a6.236 6.236 0 01.993-1.495c.841-1.03 1.606-2.108 2.446-3.137-.436-.466-1.162-.514-1.814-.475z" fill="#3F3D56"/><g opacity=".1" fill="#000"><path opacity=".1" d="M145.713 46.495l-.408.03-.045.032c.152-.007.304-.027.453-.062zM153.165 53.257a8.784 8.784 0 01-.417 1.902 8.617 8.617 0 00-.326 1.146c-.065.378-.071.762-.13 1.14a3.722 3.722 0 01-1.495 2.466.652.652 0 01-.404.146c-.254-.029-.41-.325-.505-.593-.518-1.495-.394-3.322-1.348-4.514a4.935 4.935 0 00-1.544-1.15 1.992 1.992 0 00-.788-.296c-.413.022-.81.167-1.14.417a7.097 7.097 0 01-2.254.997 2.768 2.768 0 01-2.329-.502c-.449-.371-.778-.928-1.277-1.218-.498-.29-1.019-.274-1.511-.472a2.227 2.227 0 01-1.27-1.453.872.872 0 01-.026-.124c-.082.364-.073.742.026 1.101a2.222 2.222 0 001.27 1.453c.492.198 1.045.202 1.511.472.466.27.828.847 1.277 1.218a2.765 2.765 0 002.329.502 7.1 7.1 0 002.254-.997c.33-.25.727-.395 1.14-.417.281.042.549.143.788.297a4.939 4.939 0 011.521 1.16c.954 1.191.831 3.018 1.348 4.513.095.27.251.564.505.593a.651.651 0 00.427-.156 3.703 3.703 0 001.498-2.476c.059-.377.065-.762.13-1.14.083-.389.192-.772.326-1.146a7.302 7.302 0 00.433-2.74l-.019-.13z"/></g><defs><linearGradient id="paint0_linear" x1="13093.4" y1="82489.9" x2="29355.1" y2="82489.9" gradientUnits="userSpaceOnUse"><stop stop-color="gray" stop-opacity=".25"/><stop offset=".54" stop-color="gray" stop-opacity=".12"/><stop offset="1" stop-color="gray" stop-opacity=".1"/></linearGradient><linearGradient id="paint1_linear" x1="151.941" y1="162.727" x2="151.941" y2="31.695" gradientUnits="userSpaceOnUse"><stop stop-color="gray" stop-opacity=".25"/><stop offset=".54" stop-color="gray" stop-opacity=".12"/><stop offset="1" stop-color="gray" stop-opacity=".1"/></linearGradient></defs></svg>