<svg xmlns="http://www.w3.org/2000/svg" width="60" height="60" fill="none">
<g transform="translate(0.000000,60.000000) scale(0.100000,-0.100000)"
fill="#999" stroke="none" class="svg-primary-color">
<path d="M217 586 c-172 -48 -261 -244 -187 -412 24 -55 90 -121 149 -147 64
-29 178 -29 242 0 60 27 125 92 152 152 29 64 29 178 0 242 -26 59 -92 125
-148 150 -58 26 -148 32 -208 15z m123 -55 c5 -11 7 -26 4 -35 -8 -21 -42 -30
-59 -16 -15 13 -20 51 -8 63 13 14 53 6 63 -12z m27 -115 c-2 -6 -32 -12 -66
-14 l-62 -3 3 28 c3 25 8 29 48 33 36 5 48 2 63 -14 10 -10 16 -24 14 -30z
m-147 -7 c0 -21 -41 -79 -56 -79 -20 0 -18 10 11 53 25 36 45 48 45 26z m226
-51 c12 -23 12 -28 1 -28 -17 0 -57 54 -57 76 0 15 2 15 21 -2 12 -10 27 -31
35 -46z m-109 -8 c15 -6 33 -18 40 -26 17 -23 -4 -63 -36 -70 -14 -2 -40 -9
-57 -14 -41 -13 -44 -13 -38 5 4 8 1 22 -6 30 -19 23 -4 62 27 73 37 14 37 14
70 2z m-139 -72 c6 -47 -59 -62 -73 -17 -9 27 13 51 44 47 20 -2 27 -9 29 -30z
m280 0 c6 -47 -59 -62 -73 -17 -9 27 13 51 44 47 20 -2 27 -9 29 -30z m-261
-74 c26 -36 17 -44 -52 -44 -61 0 -65 1 -65 23 0 33 13 42 61 41 28 -1 47 -7
56 -20z m283 6 c5 -8 10 -23 10 -32 0 -15 -10 -18 -65 -18 -54 0 -65 3 -65 17
0 9 6 24 14 32 19 21 94 21 106 1z m-142 -50 c-3 -16 -56 -25 -94 -16 -43 11
-16 31 41 31 44 0 55 -3 53 -15z"/>
</g>
</svg>
