<svg width="60" height="60" viewBox="0 0 60 60" fill="none" xmlns="http://www.w3.org/2000/svg">
<circle cx="30" cy="30" r="30" fill="#999" class="svg-secondary-color"/>
<path d="M35.444 34.5428L29.6364 41.2503L23.8287 34.5428C19.4761 34.7608 16 38.8739 16 43.9502V44.6252C16 46.4884 17.3088 48 18.9221 48H40.3506C41.9639 48 43.2727 46.4884 43.2727 44.6252V43.9502C43.2727 38.8739 39.7967 34.7608 35.444 34.5428ZM16.8279 17.6124L17.2175 17.7179V21.8239C16.7914 22.1192 16.487 22.6325 16.487 23.2512C16.487 23.8418 16.767 24.334 17.1627 24.6363L16.2131 29.0166C16.1096 29.5017 16.3409 30.0009 16.6757 30.0009H19.2204C19.5552 30.0009 19.7865 29.5017 19.683 29.0166L18.7334 24.6363C19.1291 24.334 19.4091 23.8418 19.4091 23.2512C19.4091 22.6325 19.1047 22.1192 18.6786 21.8239V18.1257L22.6964 19.2436C22.1729 20.4529 21.8442 21.8028 21.8442 23.2512C21.8442 28.2221 25.3324 32.2508 29.6364 32.2508C33.9403 32.2508 37.4286 28.2221 37.4286 23.2512C37.4286 21.8028 37.1059 20.4529 36.5763 19.2436L42.4387 17.6124C43.5467 17.3031 43.5467 15.707 42.4387 15.3977L30.8478 12.1635C30.0564 11.9455 29.2224 11.9455 28.431 12.1635L16.8279 15.3907C15.7261 15.7 15.7261 17.3031 16.8279 17.6124Z" fill="white"/>
</svg>
