<svg xmlns="http://www.w3.org/2000/svg" width="60" height="60" fill="none">
<g transform="translate(0.000000,60.000000) scale(0.100000,-0.100000)"
fill="#999" stroke="none" class="svg-primary-color">
<path d="M217 586 c-172 -48 -261 -244 -187 -412 24 -55 90 -121 149 -147 64
-29 178 -29 242 0 60 27 125 92 152 152 29 64 29 178 0 242 -26 59 -92 125
-148 150 -58 26 -148 32 -208 15z m112 -94 c37 -20 71 -73 71 -110 0 -40 -26
-86 -64 -115 -20 -16 -45 -45 -56 -66 -10 -21 -26 -41 -35 -45 -29 -11 -62 -7
-75 9 -17 21 -7 29 18 16 32 -17 40 -14 68 32 15 23 47 60 71 83 37 35 43 46
43 81 0 97 -109 142 -183 76 -20 -18 -30 -13 -22 10 9 21 63 46 100 47 17 0
46 -8 64 -18z m-9 -64 c35 -37 26 -70 -36 -133 -31 -31 -58 -54 -61 -52 -9 9
26 64 51 81 40 26 50 53 31 82 -18 29 -55 32 -78 6 -15 -16 -15 -19 4 -30 28
-18 21 -59 -13 -80 -37 -22 -50 -5 -15 20 32 23 35 38 8 38 -29 0 -34 15 -17
49 18 33 28 39 73 40 21 1 39 -7 53 -21z m50 -202 c0 -18 -39 -47 -52 -40 -9
6 31 54 45 54 4 0 7 -6 7 -14z m45 -18 c-9 -30 -45 -66 -69 -70 -29 -5 -30 19
-2 26 14 3 33 20 41 36 18 35 40 41 30 8z m48 6 c23 -24 -64 -124 -108 -124
-37 0 -30 13 16 32 31 13 44 26 57 57 17 40 23 47 35 35z"/>
</g>
</svg>
