<svg width="440" height="440" fill="none" xmlns="http://www.w3.org/2000/svg"><path d="M220.062 423.579c117.094 0 212.018-54.804 212.018-122.408s-94.924-122.408-212.018-122.408c-117.095 0-212.019 54.804-212.019 122.408s94.924 122.408 212.019 122.408z" class="svg-primary-color" fill="#999"/><path d="M39.187 365.068c1.328 1.25 2.64 2.49 4.092 3.714l294.016-169.629a250.901 250.901 0 00-6.705-2.464L39.187 365.068z" fill="#FAFAFA"/><path opacity=".1" d="M187.836 289.01c10.736 6.16 10.736 16.244 0 22.448-10.736 6.204-28.16 6.16-38.878 0-10.719-6.16-10.736-16.253 0-22.448 10.736-6.196 28.142-6.196 38.878 0zM361.953 353.171c20.694 0 37.47-9.689 37.47-21.64s-16.776-21.639-37.47-21.639c-20.695 0-37.471 9.688-37.471 21.639 0 11.951 16.776 21.64 37.471 21.64z" fill="#000"/><path d="M16.368 302.553a.456.456 0 01-.387-.22.45.45 0 01.167-.607l201.265-116.16a.444.444 0 01.317-.01.45.45 0 01.123.784L16.588 302.5a.413.413 0 01-.22.053zM19.184 288.966a.445.445 0 01-.427-.563.439.439 0 01.207-.264l201.265-116.16a.411.411 0 01.163-.056.427.427 0 01.435.223.439.439 0 01.048.332.435.435 0 01-.206.266L19.404 288.904a.515.515 0 01-.22.062zM22 275.37a.447.447 0 01-.443-.383.432.432 0 01.223-.436l201.265-116.16a.437.437 0 01.333-.047.44.44 0 01.31.542.452.452 0 01-.203.271L22.22 275.317a.509.509 0 01-.22.053zM24.816 261.782a.438.438 0 01-.415-.614.44.44 0 01.195-.213l201.265-116.16a.434.434 0 01.598.159.45.45 0 01-.158.607L25.036 261.721a.407.407 0 01-.22.061zM27.632 248.16a.438.438 0 01-.22-.827l201.265-116.16a.439.439 0 01.332-.048.435.435 0 01.266.206.449.449 0 01-.158.607L27.852 248.16a.41.41 0 01-.22 0zM30.448 234.608a.447.447 0 01-.387-.22.449.449 0 01.167-.607l201.265-116.16a.448.448 0 01.656.329.444.444 0 01-.086.325.446.446 0 01-.13.111L30.668 234.546a.408.408 0 01-.22.062zM33.264 221.012a.457.457 0 01-.223-.058.455.455 0 01-.164-.162.44.44 0 01.167-.598l201.265-116.16a.411.411 0 01.163-.056.417.417 0 01.325.091.424.424 0 01.11.132.421.421 0 01.048.333.44.44 0 01-.206.265L33.484 220.959a.51.51 0 01-.22.053zM36.08 207.425a.44.44 0 01-.22-.827l201.256-116.16a.445.445 0 01.664.322.452.452 0 01-.215.444L36.3 207.371a.509.509 0 01-.22.053z" fill="#DEDEDE"/><path d="M202.479 198.352h-.079a.42.42 0 01-.282-.186.433.433 0 01-.061-.333l21.56-103.752a.457.457 0 01.528-.343.447.447 0 01.343.528L202.91 198a.438.438 0 01-.431.352zM191.699 204.582h-.088a.438.438 0 01-.343-.528l21.56-103.734a.453.453 0 01.191-.285.443.443 0 01.337-.067.446.446 0 01.352.528l-21.56 103.752a.45.45 0 01-.449.334zM180.919 210.804h-.097a.45.45 0 01-.343-.519l21.569-103.752a.448.448 0 11.88.176l-21.56 103.752a.442.442 0 01-.449.343zM170.13 217.026h-.088a.447.447 0 01-.282-.187.42.42 0 01-.064-.16.42.42 0 01.003-.173l21.569-103.752a.44.44 0 01.799-.149.447.447 0 01.063.334l-21.56 103.743a.44.44 0 01-.44.344zM159.35 223.256h-.07a.447.447 0 01-.343-.528l21.56-103.743a.444.444 0 01.193-.279.445.445 0 01.616.123.448.448 0 01.071.332l-21.595 103.743a.436.436 0 01-.432.352zM148.57 229.478h-.088a.46.46 0 01-.279-.189.435.435 0 01-.064-.331l21.56-103.752a.45.45 0 01.809-.156.45.45 0 01.071.332L149.01 229.134a.44.44 0 01-.44.344zM137.79 235.708h-.088a.46.46 0 01-.352-.528l21.569-103.752a.444.444 0 01.194-.284.448.448 0 01.686.469l-21.56 103.743a.449.449 0 01-.449.352zM127.01 241.93h-.096a.448.448 0 01-.28-.194c-.064-.099-.087-.219-.064-.334l21.569-103.744a.448.448 0 01.813-.161c.067.099.09.221.067.337l-21.56 103.752a.442.442 0 01-.449.344zM116.222 248.16h-.062a.42.42 0 01-.282-.186.438.438 0 01-.061-.333l21.56-103.752a.452.452 0 01.532-.348.45.45 0 01.348.533l-21.56 103.743a.44.44 0 01-.475.343zM105.441 254.382h-.088a.449.449 0 01-.343-.528l21.56-103.744a.442.442 0 01.353-.36.446.446 0 01.527.536l-21.569 103.752a.44.44 0 01-.44.344zM94.662 260.603h-.089a.436.436 0 01-.343-.347.443.443 0 010-.172l21.56-103.752a.451.451 0 01.527-.343.449.449 0 01.353.519L95.102 260.26a.438.438 0 01-.44.343zM83.881 266.825h-.088a.446.446 0 01-.284-.186.44.44 0 01-.068-.333l21.569-103.752a.451.451 0 01.519-.343.437.437 0 01.344.528l-21.56 103.734a.441.441 0 01-.432.352zM83.882 221.179h-.097a.446.446 0 01-.343-.519l10.788-51.92a.427.427 0 01.187-.282.436.436 0 01.333-.061.424.424 0 01.282.186.435.435 0 01.06.333l-10.78 51.911a.438.438 0 01-.43.352zM233.138 199.452h-.053a.421.421 0 01-.299-.163.432.432 0 01-.088-.33l17.679-161.577a.436.436 0 01.317-.377.444.444 0 01.549.302.434.434 0 01.014.172L233.57 199.056a.436.436 0 01-.432.396zM245.608 206.65a.438.438 0 01-.405-.475l13.2-165.343a.456.456 0 01.154-.3.44.44 0 01.726.37l-13.2 165.344a.443.443 0 01-.153.301.43.43 0 01-.322.103zM257.937 213.523a.424.424 0 01-.307-.145.427.427 0 01-.107-.321l8.888-168.538a.46.46 0 01.467-.413.442.442 0 01.422.466l-8.923 168.538a.44.44 0 01-.44.413zM270.767 221.179a.455.455 0 01-.44-.449l4.101-172.48a.447.447 0 01.88 0l-4.101 172.48a.45.45 0 01-.44.449zM282.867 227.99a.443.443 0 01-.311-.128.445.445 0 01-.129-.312V51.92a.442.442 0 01.44-.44.438.438 0 01.44.44v175.648a.438.438 0 01-.44.422z" fill="#DEDEDE"/><path d="M282.867 224.013a.482.482 0 01-.22-.053l-65.234-37.664a.449.449 0 01-.167-.607.457.457 0 01.607-.167l65.234 37.664a.448.448 0 01.159.607.446.446 0 01-.379.22zM282.867 208.41a.398.398 0 01-.22-.061L220.229 172.7a.432.432 0 01-.167-.598.446.446 0 01.607-.168l62.418 35.649a.447.447 0 01.167.599.447.447 0 01-.387.228zM282.867 192.799a.495.495 0 01-.22-.053l-59.602-33.633a.445.445 0 01-.191-.264.443.443 0 01.297-.528.441.441 0 01.325.026l59.611 33.625a.46.46 0 01.167.607.447.447 0 01-.387.22zM282.867 177.197a.446.446 0 01-.211-.053l-56.795-31.618a.428.428 0 01-.211-.264.416.416 0 01-.012-.172.45.45 0 01.654-.339l56.786 31.619a.44.44 0 01-.211.827zM282.867 161.586a.446.446 0 01-.211-.053l-53.97-29.595a.416.416 0 01-.216-.261.422.422 0 01.04-.337.424.424 0 01.11-.132.435.435 0 01.488-.044l53.97 29.595a.448.448 0 01.176.598.436.436 0 01-.387.229zM282.867 145.983a.468.468 0 01-.211-.053l-51.155-27.579a.452.452 0 01-.217-.26.435.435 0 01.3-.551.448.448 0 01.34.037l51.154 27.57a.457.457 0 01.176.607.443.443 0 01-.387.229zM282.867 130.372a.465.465 0 01-.211-.044l-48.338-25.52a.444.444 0 01-.235-.433.452.452 0 01.311-.382.434.434 0 01.172-.017.432.432 0 01.165.049l48.339 25.564a.452.452 0 01.217.26.435.435 0 01-.033.338.421.421 0 01-.169.144.421.421 0 01-.218.041zM282.867 114.77a.406.406 0 01-.202-.053l-45.531-23.54a.449.449 0 01-.217-.261.454.454 0 01-.018-.172.458.458 0 01.159-.3.433.433 0 01.324-.1.443.443 0 01.165.05l45.523 23.54a.438.438 0 01.236.499.44.44 0 01-.439.337zM282.867 99.167a.428.428 0 01-.202-.052L239.958 77.59a.428.428 0 01-.222-.254.43.43 0 01.029-.336.427.427 0 01.253-.224.434.434 0 01.336.022l42.716 21.525a.454.454 0 01.338.54.45.45 0 01-.541.34v-.036zM282.867 83.6a.475.475 0 01-.193 0l-39.9-19.598a.451.451 0 01-.202-.59.447.447 0 01.598-.202l39.891 19.51a.447.447 0 01.223.253.43.43 0 01-.021.337.43.43 0 01-.396.29zM282.867 67.954a.44.44 0 01-.185 0l-37.083-17.539a.435.435 0 01-.211-.59.448.448 0 01.589-.21l37.075 17.494a.435.435 0 01.211.59.433.433 0 01-.396.255zM282.867 52.342a.457.457 0 01-.185 0l-34.258-15.514a.439.439 0 01.036-.796.442.442 0 01.325-.005l34.267 15.47a.45.45 0 01.22.59.46.46 0 01-.405.255z" fill="#DEDEDE"/><path d="M285.12 55.598a2.894 2.894 0 00-4.347-2.508l-.546.317L81.022 168.432a1.764 1.764 0 00-.748 1.646V342.32a1.76 1.76 0 001.056 1.461 5.613 5.613 0 005.077 0 1.764 1.764 0 001.056-1.461V173.008l190.494-110v165.158a1.754 1.754 0 001.056 1.47 5.612 5.612 0 005.077 0 1.756 1.756 0 001.056-1.47V55.598h-.026z" class="svg-primary-color" fill="#999"/><path d="M86.733 168.423l-35.755-16.341a2.756 2.756 0 00-3.828 1.698L15.84 304.876a1.619 1.619 0 00.818 1.496c.104.071.212.132.326.185a5.34 5.34 0 002.376.563c1.84 0 3.362-.783 3.52-1.76l30.105-144.496 30.149 13.781 3.599-6.222zM283.413 52.959l-33.942-15.515a2.76 2.76 0 00-3.828 1.707l-31.354 151.087a1.599 1.599 0 00.827 1.496c.103.071.212.133.326.185a5.192 5.192 0 002.437.555c1.839 0 3.362-.792 3.564-1.76l30.043-144.408L281.6 60.007l1.813-7.048z" class="svg-primary-color" fill="#999"/><path opacity=".8" d="M283.263 52.888l-33.792-15.444a2.76 2.76 0 00-3.828 1.707L237.6 78.047l-154 88.88-32.56-14.881a2.757 2.757 0 00-3.828 1.699L15.84 304.876a1.619 1.619 0 00.818 1.496c.104.071.212.132.326.185a5.34 5.34 0 002.376.563c1.84 0 3.362-.783 3.52-1.76l30.105-144.496 27.28 12.47V342.32a1.76 1.76 0 001.056 1.461 5.613 5.613 0 005.077 0 1.764 1.764 0 001.056-1.461V173.008L235.62 87.481l-21.331 102.757a1.599 1.599 0 00.827 1.496c.103.071.212.133.326.185a5.192 5.192 0 002.437.555c1.839 0 3.362-.792 3.573-1.76l22.44-107.994 34.065-19.668v165.114a1.75 1.75 0 001.056 1.47 5.612 5.612 0 005.077 0 1.756 1.756 0 001.056-1.47V55.599a2.883 2.883 0 00-1.883-2.71zm-31.785-6.653l23.003 10.508-28.627 16.526 5.624-27.034z" fill="#fff"/><path opacity=".1" d="M52.985 160.864l-4.726-2.165 4.382 3.793.344-1.628zM251.478 46.226l-4.717-2.156 4.382 3.784.335-1.628z" fill="#000"/><path d="M49.553 154.07h-.044a.448.448 0 01-.396-.492l.053-.458.193-.114L249.77 37.303a.436.436 0 01.487.029.448.448 0 01-.047.737L49.993 153.657a.44.44 0 01-.44.413zM57.587 157.52a.456.456 0 01-.387-.22.449.449 0 01.167-.607L257.77 40.982a.437.437 0 01.336-.047.452.452 0 01.271.205c.029.05.049.106.057.164a.458.458 0 01-.086.328.436.436 0 01-.13.115L57.808 157.45a.42.42 0 01-.22.07zM65.595 161.19a.438.438 0 01-.387-.22.45.45 0 01.158-.608L265.76 44.66a.442.442 0 01.44.766L65.815 161.128a.417.417 0 01-.22.062zM73.594 164.868a.438.438 0 01-.378-.22.439.439 0 01.158-.607L273.785 48.338a.438.438 0 01.333-.047.433.433 0 01.266.206.448.448 0 01-.159.607L73.823 164.806a.42.42 0 01-.229.062zM81.602 168.546a.43.43 0 01-.378-.228.438.438 0 01-.047-.333.433.433 0 01.205-.266L281.793 52.008a.45.45 0 01.562.193.446.446 0 01-.122.581L81.84 168.485a.482.482 0 01-.238.061z" fill="#DEDEDE"/><path d="M270.767 59.33a.457.457 0 01-.185 0l-32.348-14.564a.446.446 0 01.054-.79.447.447 0 01.315-.02l32.34 14.529a.45.45 0 01.286.19c.066.1.09.221.066.338a.447.447 0 01-.528.352v-.035zM259.978 65.56a.405.405 0 01-.176 0l-32.348-14.52a.448.448 0 01-.22-.59.44.44 0 01.58-.22l32.349 14.52a.448.448 0 01.22.59.438.438 0 01-.405.22zM249.198 71.782a.457.457 0 01-.185 0L216.673 57.2a.443.443 0 01.361-.81l32.349 14.53a.442.442 0 01.284.193.45.45 0 01-.131.622.443.443 0 01-.338.064v-.017zM238.418 78.003a.453.453 0 01-.184 0L205.92 63.44a.438.438 0 01.021-.811.45.45 0 01.34.01l32.349 14.52a.458.458 0 01.284.195.456.456 0 01.063.338.45.45 0 01-.532.348l-.027-.036zM227.638 84.234a.476.476 0 01-.185 0l-32.348-14.52a.453.453 0 01-.278-.245.454.454 0 01.114-.522.458.458 0 01.355-.107.45.45 0 01.178.064l32.34 14.529a.43.43 0 01.236.242.447.447 0 01-.007.338.449.449 0 01-.405.22zM216.85 90.455a.421.421 0 01-.176 0l-32.349-14.564a.442.442 0 01.022-.818.443.443 0 01.339.009l32.348 14.528a.453.453 0 01.35.357.45.45 0 01-.534.523v-.035zM206.069 96.686a.406.406 0 01-.176-.045l-32.348-14.52a.448.448 0 01-.22-.59.44.44 0 01.58-.22l32.349 14.52a.46.46 0 01.22.59.438.438 0 01-.405.264zM195.289 102.907a.439.439 0 01-.184 0L162.8 88.343a.448.448 0 01-.234-.246.445.445 0 01.595-.564l32.313 14.547a.439.439 0 01.22.581.441.441 0 01-.405.246zM184.509 109.12a.439.439 0 01-.184 0l-32.34-14.529a.443.443 0 01-.266-.412.426.426 0 01.287-.4.447.447 0 01.339.011l32.34 14.52a.452.452 0 01.229.59.462.462 0 01-.405.22zM173.73 115.359a.474.474 0 01-.185-.044l-32.349-14.52a.441.441 0 01-.278-.245.452.452 0 01.281-.614.445.445 0 01.367.05l32.34 14.529a.417.417 0 01.141.098.428.428 0 01.079.482.432.432 0 01-.396.264zM162.941 121.581a.402.402 0 01-.176 0l-32.349-14.564a.445.445 0 01-.225-.585.443.443 0 01.586-.225l32.348 14.529a.425.425 0 01.234.244c.02.054.03.112.028.17a.438.438 0 01-.042.167.434.434 0 01-.404.264zM152.161 127.811a.395.395 0 01-.176-.044l-32.305-14.52a.447.447 0 01.025-.819.435.435 0 01.336.01l32.348 14.52a.45.45 0 11-.184.88l-.044-.027zM141.381 134.033a.474.474 0 01-.185-.044l-32.34-14.52a.449.449 0 01-.229-.59.458.458 0 01.59-.22l32.34 14.529a.446.446 0 01.235.243.43.43 0 01-.007.338.451.451 0 01-.404.264zM130.601 140.254a.444.444 0 01-.185 0l-32.34-14.528a.452.452 0 01-.235-.243.441.441 0 01.006-.338.448.448 0 01.59-.22l32.34 14.52a.45.45 0 01.229.589.457.457 0 01-.405.22zM119.812 146.485a.466.466 0 01-.176-.044l-32.349-14.52a.45.45 0 01-.22-.59.443.443 0 01.58-.22l32.35 14.529a.452.452 0 01.347.532.45.45 0 01-.532.348v-.035zM109.032 152.706a.374.374 0 01-.176 0L76.507 138.16a.442.442 0 01.022-.819.448.448 0 01.339.009l32.349 14.529a.45.45 0 01-.185.88v-.053zM98.252 158.928a.443.443 0 01-.185 0l-32.34-14.564a.435.435 0 01-.25-.243.441.441 0 01.611-.558l32.349 14.52a.45.45 0 01.22.59.45.45 0 01-.405.255zM87.472 165.158a.473.473 0 01-.185-.044l-32.34-14.52a.449.449 0 01-.229-.589.46.46 0 01.59-.22l32.34 14.529a.436.436 0 01.266.412.438.438 0 01-.201.36.448.448 0 01-.241.072zM31.874 315.647h-.053a.437.437 0 01-.387-.484l17.679-161.585a.441.441 0 01.488-.392.445.445 0 01.392.488L32.313 315.26a.447.447 0 01-.44.387zM44.343 322.854a.437.437 0 01-.405-.475l13.2-165.352a.44.44 0 01.476-.405.45.45 0 01.405.484l-13.2 165.344a.448.448 0 01-.154.301.432.432 0 01-.322.103zM56.672 329.727a.449.449 0 01-.413-.466l8.861-168.538a.453.453 0 01.458-.341.45.45 0 01.422.385l-8.888 168.538a.442.442 0 01-.44.422zM69.52 337.383a.44.44 0 01-.431-.457l4.092-172.48a.439.439 0 01.764-.288c.08.085.125.197.125.314l-4.101 172.48a.448.448 0 01-.45.431zM81.602 344.195a.434.434 0 01-.314-.132.447.447 0 01-.126-.317V168.08a.44.44 0 01.88 0v175.648a.444.444 0 01-.265.431.455.455 0 01-.175.036z" fill="#DEDEDE"/><path d="M81.602 324.606a.509.509 0 01-.22-.053l-62.418-35.649a.444.444 0 01-.05-.733.445.445 0 01.49-.033l62.436 35.64a.44.44 0 01-.22.828h-.018zM81.602 309.003a.416.416 0 01-.22-.061L21.78 275.317a.45.45 0 01-.167-.607.448.448 0 01.607-.168l59.62 33.634a.44.44 0 01.21.264.432.432 0 01-.043.334.428.428 0 01-.405.229zM81.602 293.392a.444.444 0 01-.21-.053L24.64 261.73a.45.45 0 01.096-.819.452.452 0 01.172-.012.448.448 0 01.163.056l56.769 31.61a.447.447 0 01.167.607.445.445 0 01-.405.22zM81.602 277.79a.47.47 0 01-.21-.053L27.42 248.16a.428.428 0 01-.217-.266.44.44 0 01.04-.341.428.428 0 01.436-.223.413.413 0 01.163.056l53.997 29.577a.419.419 0 01.216.261.434.434 0 01-.04.337.444.444 0 01-.414.229zM81.602 262.178a.381.381 0 01-.21-.052l-51.155-27.571a.431.431 0 01-.176-.598.433.433 0 01.26-.218c.056-.017.114-.023.172-.017a.42.42 0 01.166.05l51.18 27.588a.446.446 0 01.213.263.437.437 0 01-.21.506.432.432 0 01-.24.049zM81.603 246.576a.41.41 0 01-.203-.053l-48.347-25.52a.45.45 0 01-.185-.598.432.432 0 01.26-.218.436.436 0 01.339.033l48.347 25.52a.439.439 0 01-.211.836zM81.602 230.965a.408.408 0 01-.202 0l-45.523-23.584a.445.445 0 01-.242-.432.443.443 0 01.309-.386.448.448 0 01.338.026l45.558 23.549a.437.437 0 01.218.491.44.44 0 01-.42.336h-.036zM81.602 215.362a.451.451 0 01-.193 0l-42.69-21.568a.444.444 0 01-.09-.736.432.432 0 01.487-.056l42.724 21.524a.442.442 0 01.076.746.438.438 0 01-.279.09h-.035zM81.602 199.76a.399.399 0 01-.193-.053l-39.89-19.5a.455.455 0 01-.228-.257.442.442 0 01.279-.562.444.444 0 01.336.018L81.84 198.88a.453.453 0 01.343.537.452.452 0 01-.537.343h-.044zM81.602 340.217a.417.417 0 01-.22-.062l-65.234-37.664a.442.442 0 11.44-.765L81.84 339.39a.447.447 0 01.167.607.462.462 0 01-.405.22z" fill="#DEDEDE"/><path d="M15.84 305.36h-.088a.429.429 0 01-.285-.186.433.433 0 01-.067-.333l29.656-142.296c.713-3.186 1.065-3.414 1.02-3.177L16.228 304.964a.44.44 0 01-.387.396z" fill="#DEDEDE"/><path d="M81.602 184.149a.362.362 0 01-.185 0l-37.083-17.53a.44.44 0 01-.211-.589.442.442 0 01.59-.212l37.127 17.486a.454.454 0 01.343.537.45.45 0 01-.537.343l-.044-.035zM81.602 168.547a.491.491 0 01-.184-.044l-34.259-15.471a.44.44 0 01.36-.792l34.268 15.479a.453.453 0 01.348.533.446.446 0 01-.357.349.45.45 0 01-.176-.002v-.052z" fill="#DEDEDE"/><path d="M143.961 56.302c5.557-5.557 5.557-14.567 0-20.124-5.557-5.557-14.567-5.557-20.124 0-5.557 5.557-5.557 14.567 0 20.124 5.557 5.557 14.567 5.557 20.124 0z" fill="#F5F5F5"/><path d="M136.4 39.3c-1.997.154-3.944.701-5.729 1.611a31.432 31.432 0 000 5.755 19.374 19.374 0 005.122 1.76s2.728-2.261 3.476-4.303a11.782 11.782 0 00-2.869-4.822z" fill="#455A64"/><path d="M126.852 38.491l-.405-.792-.07.106-.071.088.379.757 3.907 2.35.431.316a.35.35 0 01.044-.08.471.471 0 01.097-.087l-.449-.335-3.863-2.323zM134.974 32.991c-.325-.044-.677-.079-1.073-.105a9.573 9.573 0 00-5.887 1.522l-.801.458a1 1 0 01.079.21l.88-.492a9.336 9.336 0 015.746-1.478c.502 0 .951.088 1.338.14a.761.761 0 01-.282-.255zM137.764 34.865l-.185.625-1.293 3.776-.308.791.22.07.299-.791 1.285-3.775.193-.634a.975.975 0 01-.211-.062zM144.619 44.246a5.092 5.092 0 01-.449.344 43.248 43.248 0 00-4.91-.572h-.378a.9.9 0 010 .22h.369c1.649.097 3.292.288 4.919.572.153-.093.297-.2.432-.317 0-.083.006-.165.017-.247zM142.56 36.344a11.038 11.038 0 013.168 4.55c.05.17.088.343.114.519l.238-.053a3.867 3.867 0 00-.114-.51 11.334 11.334 0 00-3.221-4.647l-.273-.264a8.399 8.399 0 00-.537-.475.226.226 0 01-.053.105.635.635 0 01-.079.08c.181.136.352.286.511.448l.246.247zM135.898 48.4c0-.088.115-.387.264-.774-.086.04-.178.07-.272.088-.124.36-.194.616-.212.65l1.4 5.28s.492.344 1.012.687h.052l.229-.053c-.413-.273-.88-.563-1.135-.774l-1.338-5.104zM145.754 49.148c-.105.273-.22.545-.352.818a13.977 13.977 0 01-3.458 4.321 13.99 13.99 0 01-.924.44.747.747 0 01.167.167c.423-.193.783-.378.88-.422a14.081 14.081 0 003.52-4.4c.123-.264.229-.51.326-.766a.697.697 0 01-.159-.158zM131.279 46.191l-.678.379a32.61 32.61 0 00-4.215 3.379c-.053.088-.238.405-.44.818l.158.194c.167-.352.335-.678.458-.88a31.811 31.811 0 014.171-3.335c.282-.168.519-.308.739-.414a.967.967 0 01-.193-.14zM134.411 56.804c-.378 0-.8 0-1.267-.07a10.058 10.058 0 01-5.28-1.936h-.044a5.506 5.506 0 01-.686-.212v.23c.308.105.545.175.625.193a10.496 10.496 0 005.35 1.962c.44 0 .827.053 1.188.07a.544.544 0 01.114-.237zM122.32 48.224a.387.387 0 01.22 0 7.477 7.477 0 01-.15-.757 21.45 21.45 0 01.273-5.605 8.43 8.43 0 01.247-1.004h-.229a8.109 8.109 0 00-.238.96 22.034 22.034 0 00-.273 5.676c.037.245.087.49.15.73z" fill="#455A64"/><path d="M133.892 32.991a11.118 11.118 0 013.784 2.535 13.607 13.607 0 014.691.475 9.113 9.113 0 00-.247-1.382 14.077 14.077 0 00-7.04-2.57c-.419.284-.816.599-1.188.942zM147.699 42.75a11.736 11.736 0 00-1.865-1.892 19.914 19.914 0 01-1.646 3.846 36.454 36.454 0 011.311 5.28 13.275 13.275 0 002.279-.678c.234-1.019.352-2.06.352-3.106a14.179 14.179 0 00-.431-3.45zM124.441 55.845a8.997 8.997 0 003.388-.96s-.722-2.155-1.373-4.857a27.791 27.791 0 01-4.136-2.56s-.88.923-1.091 3.862a14.397 14.397 0 003.212 4.515zM121.44 39.353c.171.9.558 1.746 1.126 2.465a9.885 9.885 0 014.207-3.248c.334-1.388.769-2.75 1.302-4.074a13.438 13.438 0 00-2.112-.08 14.312 14.312 0 00-4.523 4.938zM141.988 54.384a20.897 20.897 0 01-4.822-.722 24.74 24.74 0 01-4.031 3.177 8.1 8.1 0 002.262 2.825 15.937 15.937 0 005.28-1.505 10.93 10.93 0 001.311-3.775z" fill="#455A64"/><path opacity=".1" d="M146.151 53.469c-2.385 3.379-11.564 5.509-17.416-2.086-5.852-7.594-2.472-16.324 1.76-18.981a14.237 14.237 0 00-8.071 22.318 14.231 14.231 0 0012.186 5.736 14.235 14.235 0 0011.514-6.987h.027z" fill="#000"/><path d="M161.242 45.276a15.99 15.99 0 00-2.147 0 .442.442 0 01-.44-.44.442.442 0 01.44-.44 17.43 17.43 0 012.244 0 .441.441 0 01.414.466.436.436 0 01-.05.176.44.44 0 01-.278.226.452.452 0 01-.183.012zM203.35 95.92a.44.44 0 01-.44-.422c0-1.488-.123-2.984-.264-4.4a.428.428 0 01.098-.322.426.426 0 01.298-.154.422.422 0 01.476.388 58.65 58.65 0 01.272 4.496.42.42 0 01-.116.314.435.435 0 01-.306.135l-.018-.035zm-.88-8.888a.45.45 0 01-.431-.36 53.413 53.413 0 00-.95-4.33.448.448 0 01.317-.546.437.437 0 01.462.162.43.43 0 01.074.155c.379 1.434.704 2.921.968 4.4a.446.446 0 01-.36.51l-.08.009zm-2.27-8.712a.44.44 0 01-.422-.29 48.989 48.989 0 00-1.664-4.11.443.443 0 01.703-.502c.042.04.075.088.098.141a49.51 49.51 0 011.699 4.18.443.443 0 01-.414.58zm-3.714-8.122a.448.448 0 01-.378-.23 50.654 50.654 0 00-2.35-3.757.447.447 0 01.115-.616.442.442 0 01.616.115c.88 1.24 1.645 2.525 2.385 3.828a.453.453 0 01-.168.598.482.482 0 01-.22.088v-.026zm-5.051-7.375a.422.422 0 01-.334-.158 50.145 50.145 0 00-2.957-3.31.436.436 0 01-.12-.495.451.451 0 01.251-.247.441.441 0 01.494.127 54.26 54.26 0 013.009 3.361.457.457 0 01-.061.625.476.476 0 01-.282.123v-.026zm-6.23-6.415a.46.46 0 01-.291-.106 51.68 51.68 0 00-3.467-2.763.442.442 0 01.191-.792.44.44 0 01.328.08 51.17 51.17 0 013.52 2.815.43.43 0 01.044.616.42.42 0 01-.325.176v-.026zm-7.225-5.28a.451.451 0 01-.229-.062 46.62 46.62 0 00-3.889-2.12.45.45 0 01-.203-.59.445.445 0 01.59-.202 50.095 50.095 0 013.96 2.164.431.431 0 01.149.599.428.428 0 01-.378.246v-.035zm-8.034-3.907h-.159a37.532 37.532 0 00-4.224-1.285.451.451 0 11.194-.88c1.47.352 2.919.79 4.338 1.311a.431.431 0 01.247.233.428.428 0 01.008.34.421.421 0 01-.404.316v-.035zM203.166 102.582a.45.45 0 01-.299-.124.435.435 0 01-.141-.352c.061-.739.105-1.46.141-2.182a.429.429 0 01.287-.396.443.443 0 01.336.014.426.426 0 01.224.248.442.442 0 01.024.17c0 .554-.053 1.099-.088 1.654l1.628-.238a.45.45 0 01.501.378.447.447 0 01-.378.493c-.748.106-1.47.211-2.165.326l-.07.009zM290.347 125.69a.443.443 0 01-.316-.132 69.5 69.5 0 00-3.23-3.194.444.444 0 01-.096-.482.444.444 0 01.096-.143.45.45 0 01.625 0 81.278 81.278 0 013.273 3.239.431.431 0 01-.325.739l-.027-.027zm-6.705-6.204a.477.477 0 01-.282-.096 68.134 68.134 0 00-3.625-2.746.458.458 0 01-.106-.616.43.43 0 01.286-.181.439.439 0 01.33.075c1.25.88 2.482 1.822 3.67 2.781a.442.442 0 01.07.616.461.461 0 01-.343.167zm-7.463-5.28a.365.365 0 01-.228-.07 102.687 102.687 0 00-3.943-2.27.431.431 0 01-.185-.59.433.433 0 01.261-.218.436.436 0 01.338.033 84.192 84.192 0 013.986 2.297.43.43 0 01.141.607.417.417 0 01-.37.203v.008zm-8.06-4.329a.48.48 0 01-.185 0 60.454 60.454 0 00-4.18-1.76.45.45 0 01-.155-.719.428.428 0 01.48-.1 79.07 79.07 0 014.224 1.822.44.44 0 01-.184.836v-.079zm-8.519-3.397h-.141a82.43 82.43 0 00-4.347-1.355.453.453 0 01-.231-.701.448.448 0 01.469-.153c1.487.423 2.965.88 4.4 1.373a.446.446 0 01-.141.88l-.009-.044zm-8.8-2.508h-.097c-1.46-.343-2.956-.66-4.461-.942a.445.445 0 01-.357-.523.45.45 0 01.524-.357c1.514.291 3.018.616 4.497.96a.436.436 0 01.325.528.446.446 0 01-.431.325v.009zm-8.993-1.707h-.062c-1.478-.22-3.001-.414-4.523-.572a.455.455 0 01-.297-.163.442.442 0 01.394-.717c1.531.158 3.062.352 4.558.572a.432.432 0 01.289.174.438.438 0 01.081.327.453.453 0 01-.414.37l-.026.009zm-31.953-.555a.454.454 0 01-.44-.396.435.435 0 01.23-.434.463.463 0 01.166-.05c1.505-.158 3.045-.29 4.576-.396a.445.445 0 01.471.41.443.443 0 01-.41.47c-1.522.106-3.053.238-4.549.388l-.044.008zm22.88-.422a126.766 126.766 0 00-4.559-.238.414.414 0 01-.166-.037.42.42 0 01-.256-.411.44.44 0 01.44-.423c1.549 0 3.089.123 4.594.229a.44.44 0 010 .88h-.053zm-13.728-.22a.432.432 0 01-.431-.422.427.427 0 01.116-.317.436.436 0 01.306-.141c1.522-.053 3.071-.079 4.585-.079a.432.432 0 01.44.431.443.443 0 01-.264.412.44.44 0 01-.167.037c-1.514 0-3.045 0-4.568.079h-.017zM294.8 130.847a.424.424 0 01-.343-.167c-.458-.581-.88-1.144-1.373-1.707a.432.432 0 01.053-.616.445.445 0 01.625.053c.466.572.932 1.144 1.39 1.76a.437.437 0 01.052.466.428.428 0 01-.167.178.428.428 0 01-.237.06v-.027z" fill="#455A64"/><path d="M369.345 317.443c-.141 1.012-.598 1.839.722 4.197a9.367 9.367 0 003.52 3.239 15.057 15.057 0 012.886 2.701 12.843 12.843 0 003.018 2.931c.88.598 3.212.369 4.251-.238 1.038-.607 1.346-1.575 1.056-3.335-.291-1.76-5.729-1.672-5.729-1.672l-9.724-7.823z" fill="#37474F"/><path d="M349.043 314.626l.15 15.84c0 .37.942 3.776 2.746 3.837 1.804.062 4.118-3.942 4.285-4.769 1.355-6.715 3.775-21.12 4.075-26.101a45.173 45.173 0 00-.405-9.187l9.592-47.846-19.783-.704s-1.108 43.41-1.1 48.057c.009 4.646.44 20.873.44 20.873z" fill="#FFA8A7"/><path d="M365.438 254.663l13.376-2.411s2.244 21.675 2.587 28.072c.29 5.342.484 8.316.484 8.316s1.857 3.318 1.945 11.81v6.283l-.273 16.474c0 .968-5.28 2.173-6.477 0a34.927 34.927 0 00-.792-5.052c-.413-1.654-1.117-4.532-1.117-4.532a105.064 105.064 0 01-.59-3.722c-.519-1.91-1.241-4.796-2.015-8.633-1.76-8.677-2.799-14.757-3.415-19.061-.616-4.303-3.713-27.544-3.713-27.544z" fill="#FFA8A7"/><path d="M381.181 268.972c-.387-5.218-.484-10.34-.748-14.96a75.718 75.718 0 00-3.186-17.749c-.431-.124-26.945-11.696-27.614 4.153-.167 3.916-.458 14.335-.739 22.704-.203 6.055-.555 12.663-.599 17.231.933 1.073 11.194 3.185 14.441 1.909 1.223-5.746 2.385-11.836 2.385-11.836s1.558 5.474 2.781 11.071c4.733.689 9.565.027 13.939-1.91a583.348 583.348 0 00-.66-10.613z" fill="#455A64"/><path opacity=".2" d="M365.121 270.424l1.901-10.331a9.108 9.108 0 004.91-6.072 7.282 7.282 0 01-3.441 6.486l-2.332 8.958.986 8.712-2.024-7.753z" fill="#000"/><path d="M334.163 336.046c-.379 0-.335 1.1-.203 1.584s1.681 2.12 4.453 2.692c2.772.572 6.582.062 8.228 0 1.646-.061 4.462.74 6.098.977 1.637.238 4.585-.317 5.553-1.241a1.682 1.682 0 00.396-1.346c0-1.091-.132-1.311-.255-1.302l-24.27-1.364z" fill="#37474F"/><path d="M357.43 333.52c.114.431.237.88.361 1.294.184.607.404 1.197.563 1.804.039.2.039.407 0 .607a2.8 2.8 0 01-.062.88 2.997 2.997 0 01-1.98 1.443 10.22 10.22 0 01-5.526.053 16.547 16.547 0 00-4.189-.449 40.76 40.76 0 01-5.676.22 13.905 13.905 0 01-4.162-.88 5.202 5.202 0 01-2.508-2.253 3.735 3.735 0 012.147-3.731 8.575 8.575 0 014.233-.88c1.584 0 2.78.238 4.188.141a6.968 6.968 0 002.808-.642c.297-.159.534-.409.677-.713.238-.651.317-.801.37-.924.053-.123.484-.493.493-.159v1.1a5.925 5.925 0 001.628 1.056 2.644 2.644 0 011.566 1.232c.07.168.132.37.308.423.176.053.352-.062.493-.185.704-.581 1.302-.88 2.05-1.434.412-.27.722-.67.88-1.136.031-.151.052-.303.062-.457a.861.861 0 01.246.088c.275.324.439.728.467 1.153.193.792.413 1.557.563 2.349z" fill="#455A64"/><path d="M347.186 331.276a4.922 4.922 0 00-1.707 3.221c0 .818-1.408.88-1.443.053a7.023 7.023 0 011.303-2.86 2.638 2.638 0 011.847-.414zM344.08 331.76a5.085 5.085 0 00-1.584 2.746c0 .607-1.276.536-1.25-.062a3.9 3.9 0 011.576-2.737c.378-.273 1.1-.193 1.258.053z" fill="#FAFAFA"/><path d="M341.581 331.628c-.66 0-2.05.88-2.737 2.904a11.64 11.64 0 00-.308 4.576 6.52 6.52 0 01-3.669-1.76 2.731 2.731 0 01-.912-3.265c.157-.377.396-.713.7-.985.96-1.144 2.447-1.892 4.788-2.015 2.64-.132 2.842.572 2.842.572l-.704-.027z" fill="#FAFAFA"/><path d="M370.788 315.287c1.294-.757 5.043.95 5.043.95l.22.88.237.933c.088.299.132.633.229.933.097.299.37 1.434.37 1.434.422.475 1.091.387 1.504.88.169.222.354.431.555.625a.948.948 0 00.783.246c.528-.123.695-.818 1.153-1.109a2.003 2.003 0 011.161-.176c.389.03.778-.046 1.127-.22a.716.716 0 00.457-.712c.317-.062.405.228.432.545.096.951.272 1.927.44 2.878.114.713.316 1.549.422 2.253.07.484.053 1.892-.59 2.464-.175.224-.39.415-.633.563a4.46 4.46 0 01-4.893-.396c-1.417-1.382-2.42-2.64-4.4-4.295-1.179-.976-2.323-1.443-3.274-2.64a7.85 7.85 0 01-1.196-2.288c-.713-2.059-.484-2.965.853-3.748z" fill="#455A64"/><path d="M374.555 320.426a4.702 4.702 0 011.76-2.306c-.08-.325-.168-.66-.256-1.003a4.98 4.98 0 00-2.587 2.869c-.193.598.669.941 1.083.44zM376.499 321.244c.101-.288.231-.565.388-.827l-.37-1.434a5.088 5.088 0 00-1.109 1.821c-.185.607.669.942 1.091.44zM371.123 321.314c0-.158-.229-3.854 4.708-5.068l-.124-.476a4.29 4.29 0 00-2.261-1.073 3.608 3.608 0 00-3.89 1.672c-.765 1.311.563 4.303 1.567 4.945z" fill="#FAFAFA"/><path d="M390.236 196.02c-1.285-2.948-7.454-12.32-9.566-16.368a51.519 51.519 0 00-2.763-5.227 8.473 8.473 0 00-3.229-2.2 15.698 15.698 0 00-6.53-.933c-.783.106-1.76.466-1.443 1.382a38.962 38.962 0 005.905 5.28l-.124.044 8.616 20.24-9.865 5.64 4.69 12.584s9.636-8.967 13.464-12.698c2.552-2.411 2.262-4.488.845-7.744z" fill="#FFA8A7"/><path d="M381.102 198.308a6.012 6.012 0 014.804.695 4.926 4.926 0 00-5.28-1.76l.476 1.065z" fill="#F28F8F"/><path d="M371.026 202.972l8.694-3.881c3.159-.317 7.04 4.752 6.776 8.51l-7.726 6.239-7.744-10.868z" class="svg-primary-color" fill="#999"/><path opacity=".4" d="M371.026 202.972l8.694-3.881c3.159-.317 7.04 4.752 6.776 8.51l-7.726 6.239-7.744-10.868z" fill="#000"/><path d="M360.36 198.273l1.144 9.741 8.747-.088-.563-11.369-9.328 1.716z" fill="#FFA8A7"/><path d="M379.808 206.8c-.695-2.64-4.162-4.734-7.524-4.321l-2.288.291c-.466 1.619-4.69 2.71-8.932 1.531-1.302.282-2.49.581-3.582.88-3.115.88-6.582 2.851-7.462 12.857 0 0-1.461 24.024-1.76 28.538a34.772 34.772 0 0019.36 3.001c9.284-1.417 11.95-4.62 11.95-4.62l-1.346-13.86s.81-7.234 1.39-10.718c1.259-7.674.678-11.74.194-13.579z" fill="#F5F5F5"/><path d="M354.385 186.12s-2.429 3.379-2.183 3.731c.247.352 1.919.731 1.919.731l.264-4.462z" fill="#F28F8F"/><path d="M361.126 176.766c-4.673.792-6.09 2.772-6.82 10.12-.775 7.664-.088 10.12.88 11.193.66.722 4.444 1.003 6.371.555 2.42-.564 7.92-2.262 10.56-6.028 3.168-4.4 4.197-10.56 1.109-13.2-4.304-3.767-10.2-2.957-12.1-2.64z" fill="#FFA8A7"/><path d="M356.039 198.493a13.91 13.91 0 004.4.308 3.675 3.675 0 001.558-1.646s-.907 1.188-5.958 1.338z" fill="#F28F8F"/><path d="M352.097 180.198l.132.264c.262.567.64 1.073 1.109 1.487a4.82 4.82 0 001.601.809 5.977 5.977 0 003.52.106c.185-.07.414-.141.555 0a.611.611 0 01.123.273c.073.211.208.395.387.528.123.088.405.22.414.396.008.176-.097.185-.132.255-.036.07-.097.255-.141.387a3.413 3.413 0 00-.088 1.575c.054.313.197.604.413.836 0 .053.511.634.537.546.027-.088.88-2.816 3.23-2.358 2.349.457 2.64 3.52 1.003 5.35-1.637 1.83-2.983 1.03-2.983 1.03s-.088 4.065 1.619 6.441c0 0 2.015.748 5.817.097 2.332-.405 5.729-3.159 7.225-6.16 3.176-6.371 3.616-12.197-.449-14.08-.326-3.001-2.64-4.4-5.28-5.166a13.21 13.21 0 00-4.321-.228c-1.626.118-3.259-.1-4.796-.643a6.612 6.612 0 00-2.552-.642c-.88 0-1.813.748-1.76 1.619a4.167 4.167 0 00-4.69-.097 3.617 3.617 0 00-1.54 3.291 10.6 10.6 0 001.047 4.084z" fill="#263238"/><path d="M360.448 189.279l.211-3.212a1.61 1.61 0 00-.211 3.212z" fill="#263238"/><path d="M356.937 207.073c-5.685-4.18-15.84-14.168-17.222-15.083-1.892-1.268-5.157.809-7.04 1.707-1.883.897-1.575 1.689 1.549 5.693 3.027 3.872 16.236 18.48 16.236 18.48l6.477-10.797z" fill="#FFA8A7"/><path d="M357.28 205.709c-3.96-2.746-11.607-9.02-11.607-9.02s-6.477 3.802-5.421 10.806c0 0 8.131 9.188 10.56 11.335 1.637 1.434 6.609-.484 7.498-5.386 1.135-5.984-1.03-7.735-1.03-7.735z" class="svg-primary-color" fill="#999"/><path opacity=".4" d="M357.28 205.709c-3.96-2.746-11.607-9.02-11.607-9.02s-6.477 3.802-5.421 10.806c0 0 8.131 9.188 10.56 11.335 1.637 1.434 6.609-.484 7.498-5.386 1.135-5.984-1.03-7.735-1.03-7.735z" fill="#000"/><path d="M331.663 195.36c-.977-2.2 3.001-5.201 6.16-8.193 2.491-2.349 5.157-4.576 6.407-5.781 1.531-1.479 2.428-2.288 3.687-3.52a22.65 22.65 0 001.619-1.76c.493-.59 1.065-1.866 1.593-2.438a8.313 8.313 0 014.593-2.702 9.516 9.516 0 013.415.088c.943.118 1.878.298 2.798.537.324.066.626.211.88.423.484.492.062 1.047-.405 1.328-1.091.652-2.279 1.092-3.414 1.646a5.16 5.16 0 00-2.526 1.857 3.75 3.75 0 001.954-.238 2.577 2.577 0 012.024.088.646.646 0 01.308.669c-.079.273-.378.405-.651.502-.892.333-1.752.746-2.57 1.232a26.467 26.467 0 01-2.411 1.548c-.537.247-1.118.396-1.663.608-1.329.51-2.341 1.76-3.265 2.842-1.294 1.443-2.543 3.282-4.118 5.192a746.127 746.127 0 01-4.664 5.641c-.581.713-9.751.431-9.751.431z" fill="#FFA8A7"/><path d="M342.126 194.102a7.654 7.654 0 00-4.831-1.76s2.139-1.021 5.395 1.064l-.564.696z" fill="#F28F8F"/><path d="M387.966 151.694l-6.072-4.03.272 9.856-3.819-2.649.59 9.047-3.362-1.188.035 8.228 1.127-5.122 4.849.326.404-6.636 3.705 1.303 2.271-9.135zM372.363 165.695l-3.529-6.397 3.529-.687-4.646-7.858 6.415-.643 1.443 9.205-3.933 1.54.721 4.84z" class="svg-primary-color" fill="#999"/><path d="M187.325 165.634c-.404 2.033-5.279 19.448-6.863 23.065-6.697-1.584-6.108-13.676-6.108-13.676 3.071-6.723 4.717-10.56 5.28-12.513a8.127 8.127 0 00.097-2.64c-.053-.968-1.311-12.751-2.49-16.157a2.552 2.552 0 00-1.197-1.408 15.045 15.045 0 01-3.274-2.834c-.88-.88-1.637-1.047-1.54-1.337a1.419 1.419 0 011.76-.722 9.7 9.7 0 012.112 1.012 13.177 13.177 0 00-2.279-3.52c-2.156-2.393-2.323-3.925 1.76-4.153 2.57-.15 5.368 1.381 7.577 6.96a51.469 51.469 0 011.645 6.24c1.136 4.857 3.045 12.575 3.52 15.989.326 1.884.326 3.81 0 5.694z" fill="#846140"/><path d="M186.903 169.233c-1.249 5.544-5.72 16.297-5.693 19.606-.247 1.945-.493-4.074-2.57-7.286-2.913-4.488-8.316-4.911-6.706-5.72 1.98-.995 7.111-12.479 7.111-12.479.748-1.76.651-2.226.229-6.16-.423-3.933-.669-6.767-.669-6.767s3.863.106 6.433-1.566c0 0 1.038 3.819 2.164 8.333 1.127 4.515 1.118 6.486-.299 12.039z" fill="#455A64"/><path d="M183.348 141.17a47.057 47.057 0 00-1.672-6.275c-1.082-2.974-2.306-5.28-5.35-5.887-3.045-.607-4.638.387-5.553 1.593-.915 1.205.589 2.895 1.619 4.013a19.828 19.828 0 011.866 2.376s-1.875-1.32-3.036-.616c-1.162.704-1.065 1.038.079 2.024 1.144.985 2.64 2.455 3.705 3.194a18.293 18.293 0 012.015 1.628s4.259.678 6.327-2.05z" class="svg-primary-color" fill="#999"/><path opacity=".4" d="M183.348 141.17a47.057 47.057 0 00-1.672-6.275c-1.082-2.974-2.306-5.28-5.35-5.887-3.045-.607-4.638.387-5.553 1.593-.915 1.205.589 2.895 1.619 4.013a19.828 19.828 0 011.866 2.376s-1.875-1.32-3.036-.616c-1.162.704-1.065 1.038.079 2.024 1.144.985 2.64 2.455 3.705 3.194a18.293 18.293 0 012.015 1.628s4.259.678 6.327-2.05z" fill="#000"/><path d="M183.348 141.17c.405.741.574 1.588.484 2.428 0 0-1.857 2.042-6.204 1.646a2.643 2.643 0 01-.607-2.024s4.083.308 6.327-2.05z" fill="#37474F"/><path d="M180.989 210.373c.933 2.2 3.802 7.189 9.786 20.055 5.887 12.646 5.078 14.96 3.353 19.193-1.628 4.021-9.68 22.669-11.255 27.491-2.315 3.115-4.057 3.089-6.416-.493 0 0 .256-5.949.836-12.848.564-6.749 1.294-10.516 5.729-16.341l-14.564-29.982 12.531-7.075z" fill="#846140"/><path d="M171.459 249.586a40.542 40.542 0 01-1.557 8.615c-2.94 11.264-6.266 22.95-8.184 31.539-.52 2.323.572.994.079 3.326-.123.616-.159 1.848-.555 2.315-.695.818-2.384.457-3.159 0a6.895 6.895 0 01-2.341-2.64 23.313 23.313 0 01-1.223-2.482c-.405-.977.088-2.49.22-3.52 0 0 .097-.783.167-1.76.264-4.4-.616-11.167-.589-18.893 0-5.826 2.173-9.24 3.687-12.567 0 0-3.995-24.455-3.238-36.96l18.673-4.4s-1.76 34.663-1.98 37.427z" fill="#846140"/><path d="M174.803 276.804a3.182 3.182 0 00-.545 1.804 25.547 25.547 0 011.839 5.051c.431 2.121.158 6.345 2.64 8.906 2.226 2.253 3.986 2.578 5.5 2.64a3.812 3.812 0 003.221-1.338s1.126-1.399.387-2.209c-.739-.809-13.042-14.854-13.042-14.854z" fill="#37474F"/><path d="M174.706 277.015c-.096-.528.326-1.232.493-1.707.279-.644.497-1.313.651-1.998 0-.264.062-.572.124-.827.061-.255.088-.581.325-.686l.387-.088v.325c.111.403.27.79.476 1.153.228.335.554.607.756.968.511.88.238 2.042 1.092 2.799-.132-1.109-.291-2.385.44-2.5.475-.07 1.469.449 2.481.44 1.012-.008 1.76-.352 2.174-.272.413.079.273.616.211 1.76a18.178 18.178 0 00.106 4.004 34.47 34.47 0 00.88 3.115c1.24 3.898 3.018 5.72 3.044 7.92.027 2.2-3.361 3.643-6.204 2.121-4.831-2.588-4.479-6.037-4.804-8.492a16.366 16.366 0 00-1.197-4.629 13.828 13.828 0 01-1.435-3.406z" class="svg-primary-color" fill="#999"/><path opacity=".4" d="M174.706 277.015c-.096-.528.326-1.232.493-1.707.279-.644.497-1.313.651-1.998 0-.264.062-.572.124-.827.061-.255.088-.581.325-.686l.387-.088v.325c.111.403.27.79.476 1.153.228.335.554.607.756.968.511.88.238 2.042 1.092 2.799-.132-1.109-.291-2.385.44-2.5.475-.07 1.469.449 2.481.44 1.012-.008 1.76-.352 2.174-.272.413.079.273.616.211 1.76a18.178 18.178 0 00.106 4.004 34.47 34.47 0 00.88 3.115c1.24 3.898 3.018 5.72 3.044 7.92.027 2.2-3.361 3.643-6.204 2.121-4.831-2.588-4.479-6.037-4.804-8.492a16.366 16.366 0 00-1.197-4.629 13.828 13.828 0 01-1.435-3.406z" fill="#000"/><path opacity=".15" d="M178.869 276.804c-.687-.739-.475-1.76-.959-2.64-.203-.361-.528-.634-.757-.968a5.004 5.004 0 01-.475-1.153v-.325s-.352.07-.388.088c-.237.105-.264.431-.325.686-.027.104-.045.21-.053.317a.632.632 0 000 .123c.051.214.128.421.229.616.246.537.51 1.065.783 1.584l.422.757c.116.188.216.385.3.589.14.414.114.836.237 1.25.138.44.241.89.308 1.346.291 2.007.255 3.617 1.162 6.072.906 2.456 1.663 2.588 2.121 2.183.457-.405-.124-.977-.968-3.133-.845-2.156-.88-4.875-1.523-7.234a.715.715 0 01-.114-.158z" fill="#000"/><path opacity=".15" d="M180.558 289.766c1.444.555 2.209.256 1.972-1.056a6.47 6.47 0 00-1.215-2.499l3.467-.413s.168 2.42.951 2.877c.484.282.994-.361 1.223-1.126a9.358 9.358 0 011.355 3.898c0 2.288-3.361 3.643-6.204 2.121-4.048-2.165-4.453-4.937-4.673-7.225.176 1.417 1.672 2.878 3.124 3.423z" fill="#000"/><path opacity=".15" d="M184.298 276.54a20.06 20.06 0 00.115 3.881 34.8 34.8 0 00.88 3.115c.211.669.44 1.267.677 1.83.024.327-.036.654-.176.951-.378.457-.58.449-.985-.519s-1.479-7.287-.484-9.258h-.027z" fill="#000"/><path d="M185.68 285.938a.338.338 0 01-.308.229 15.685 15.685 0 00-4.585.669.322.322 0 01-.352-.099.325.325 0 01.038-.458.317.317 0 01.112-.059 16.47 16.47 0 014.796-.704.323.323 0 01.299.422zM185.319 284.319a.324.324 0 01-.143.18c-.068.04-.149.055-.226.04a7.848 7.848 0 00-4.717.687.328.328 0 01-.231.006.328.328 0 01-.211-.376.332.332 0 01.125-.194 8.37 8.37 0 015.157-.765.316.316 0 01.255.378.083.083 0 01-.009.044zM185.09 282.761a.306.306 0 01-.154.188.311.311 0 01-.242.024 7.56 7.56 0 00-4.963.457.328.328 0 01-.264.051.34.34 0 01-.124-.06.322.322 0 01-.103-.374.321.321 0 01.076-.115.315.315 0 01.116-.074 8.133 8.133 0 015.447-.51.333.333 0 01.22.405l-.009.008zM184.853 281.116a.33.33 0 01-.066.107.332.332 0 01-.225.1.323.323 0 01-.123-.022 6.899 6.899 0 00-4.963.317.348.348 0 01-.123.035.316.316 0 01-.238-.076.318.318 0 01-.079-.1.313.313 0 01.141-.432 7.437 7.437 0 015.491-.352.328.328 0 01.185.423zM184.553 279.374a.325.325 0 01-.422.167c-2.341-1.003-5.025.299-5.051.308a.334.334 0 01-.259.033.333.333 0 01-.199-.167.306.306 0 01-.034-.129.329.329 0 01.201-.318c.124-.053 2.984-1.443 5.597-.326a.337.337 0 01.167.432zM184.421 277.86a.326.326 0 01-.422.176 6.505 6.505 0 00-4.99.308.325.325 0 01-.325-.563 7.179 7.179 0 015.561-.343.3.3 0 01.107.068c.031.03.055.066.072.105.016.04.024.082.024.125a.295.295 0 01-.027.124z" fill="#E0E0E0"/><path d="M152.777 290.576c-.308.414-.88 1.267-.766 1.76a26.15 26.15 0 011.179 5.28c.159 2.165-.651 6.318 1.531 9.178 1.928 2.517 3.626 3.063 5.122 3.291a3.78 3.78 0 003.362-.88s1.293-1.24.668-2.138c-.624-.898-11.096-16.491-11.096-16.491z" fill="#37474F"/><path d="M152.601 290.778a2.503 2.503 0 01.193-1.196c.228-.418.422-.854.581-1.303.141-.501.123-1.038.264-1.54.141-.501.546-1.003 1.065-.994a.284.284 0 01.123 0v.299c-.007.451.108.895.334 1.285.203.449.467.88.696 1.285.235.448.429.916.58 1.399.071.229.106.466.185.686.079.22.326.423.326.528 0-1.117 0-2.402.748-2.42.493 0 1.408.634 2.42.748 1.012.115 1.76-.123 2.182 0 .423.123.194.643 0 1.804a18.48 18.48 0 00-.405 3.987c.115 1.064.264 2.156.458 3.203.73 4.021 2.27 6.045 2.006 8.228-.264 2.182-3.792 3.185-6.415 1.32-4.47-3.186-3.678-6.556-3.696-9.038a16.208 16.208 0 00-.589-4.734c-.247-.81-.581-1.584-.784-2.403a8.274 8.274 0 01-.272-1.144z" class="svg-primary-color" fill="#999"/><path opacity=".4" d="M152.601 290.778a2.503 2.503 0 01.193-1.196c.228-.418.422-.854.581-1.303.141-.501.123-1.038.264-1.54.141-.501.546-1.003 1.065-.994a.284.284 0 01.123 0v.299c-.007.451.108.895.334 1.285.203.449.467.88.696 1.285.235.448.429.916.58 1.399.071.229.106.466.185.686.079.22.326.423.326.528 0-1.117 0-2.402.748-2.42.493 0 1.408.634 2.42.748 1.012.115 1.76-.123 2.182 0 .423.123.194.643 0 1.804a18.48 18.48 0 00-.405 3.987c.115 1.064.264 2.156.458 3.203.73 4.021 2.27 6.045 2.006 8.228-.264 2.182-3.792 3.185-6.415 1.32-4.47-3.186-3.678-6.556-3.696-9.038a16.208 16.208 0 00-.589-4.734c-.247-.81-.581-1.584-.784-2.403a8.274 8.274 0 01-.272-1.144z" fill="#000"/><path opacity=".15" d="M156.64 290.734c-.079-.22-.114-.457-.185-.686a8.339 8.339 0 00-.581-1.399c-.228-.431-.492-.836-.695-1.285a2.475 2.475 0 01-.334-1.285v-.299a.284.284 0 00-.123 0c-.52 0-.88.493-1.065.994v.053c.05.178.114.352.193.519.264.537.669 1.25.88 1.76.357.789.622 1.616.792 2.464.616 3.16.352 6.046 1.065 9.179.074.433.259.839.537 1.179.282.273.651.387.88.106.229-.282.123-.652.07-.933a43.486 43.486 0 01-.765-5.852c-.053-.739-.053-1.479-.141-2.209a27.39 27.39 0 00-.282-1.76c.036-.123-.246-.414-.246-.546z" fill="#000"/><path opacity=".15" d="M156.834 304.172c1.364.73 2.173.528 2.094-.792a6.458 6.458 0 00-.88-2.64h3.52s-.141 2.411.581 2.966c.44.343 1.029-.229 1.355-.96.546 1.576.994 2.781.88 4.04-.273 2.27-3.793 3.185-6.415 1.32-3.74-2.64-3.802-5.465-3.723-7.762-.07 1.426 1.224 3.098 2.588 3.828z" fill="#000"/><path opacity=".15" d="M162.228 291.526a19.351 19.351 0 00-.378 3.864c.114 1.064.264 2.156.457 3.203.123.686.273 1.311.431 1.892a1.873 1.873 0 01-.29.924c-.431.405-.634.369-.88-.634-.317-1.135-.537-7.418.704-9.249h-.044z" fill="#000"/><path d="M162.43 301.03a.304.304 0 01-.334.176 16.606 16.606 0 00-4.638.088.324.324 0 01-.3-.488.318.318 0 01.177-.145 16.287 16.287 0 014.849-.088.301.301 0 01.121.038.32.32 0 01.161.323.327.327 0 01-.036.096zM162.254 299.367a.32.32 0 01-.159.163.32.32 0 01-.228.013 7.851 7.851 0 00-4.778.088.336.336 0 01-.423-.185.338.338 0 01.008-.248.338.338 0 01.177-.174 8.382 8.382 0 015.21-.097.317.317 0 01.211.405l-.018.035zM162.228 297.801a.327.327 0 01-.422.158 7.486 7.486 0 00-4.981-.176.3.3 0 01-.125.021.314.314 0 01-.289-.214.33.33 0 01.012-.247.328.328 0 01.182-.167 8.026 8.026 0 015.456.185.33.33 0 01.173.181.335.335 0 01-.006.25v.009zM162.193 296.138a.335.335 0 01-.44.14 6.853 6.853 0 00-4.963-.316.328.328 0 01-.406-.448.324.324 0 01.186-.168 7.468 7.468 0 015.482.36.31.31 0 01.141.432zM162.184 292.855a.32.32 0 01-.194.156.319.319 0 01-.246-.033 6.461 6.461 0 00-4.981-.325.327.327 0 01-.255-.599 7.135 7.135 0 015.561.361.325.325 0 01.115.44z" fill="#E0E0E0"/><path d="M153.718 211.622s-.88 5.465-.132 15.506c.484 6.626.141 9.917.326 13.42 0 0 1.161 4.4 9.557 3.652 8.395-.748 9.68-5.095 9.68-5.095l.58-5.465 4.4 7.11s2.904 1.76 9.135-1.962c4.576-2.728 5.456-4.708 5.456-4.708s-8.686-19.061-11.634-25.098c0 0-1.021-2.129-10.472-2.376-9.451-.246-16.896 5.016-16.896 5.016z" fill="#455A64"/><path d="M173.694 233.64l.396-9.434s4.339-.334 7.551-5.13c0 0-.519 4.514-6.354 6.345l-.105 7.621 2.948 7.708-4.436-7.11z" fill="#37474F"/><path d="M151.606 186.683l2.693 13.807-1.355 15.84c7.673 3.591 23.373 4.4 31.09-1.76 0 0-.273-22-2.534-29.858-1.619-5.597-6.468-9.522-10.446-9.398-4.189.132-9.574.721-9.574.721s-5.016.977-8.017 1.813c-.546 1.223-2.983 3.098-1.857 8.835z" class="svg-primary-color" fill="#999"/><path opacity=".4" d="M151.606 186.683l2.693 13.807-1.355 15.84c7.673 3.591 23.373 4.4 31.09-1.76 0 0-.273-22-2.534-29.858-1.619-5.597-6.468-9.522-10.446-9.398-4.189.132-9.574.721-9.574.721s-5.016.977-8.017 1.813c-.546 1.223-2.983 3.098-1.857 8.835z" fill="#000"/><path d="M159.482 158.532a6.77 6.77 0 006.114 4.382 6.76 6.76 0 006.386-3.974 6.763 6.763 0 00-1.23-7.42 6.773 6.773 0 00-11.101 1.841 6.766 6.766 0 00-.169 5.171zM151.158 160.336c.1-.393.304-.751.589-1.039.361-.325.801-.88 1.267-.519.308.264.388.836.555 1.179l1.76 3.52c.053.115.616 1.021.545 1.136l.88-1.496 3.538 10.243a1.383 1.383 0 01-1.452-.546c-.88-.994-1.478-2.112-2.165-3.036-.686-.924-1.76-2.2-2.499-3.15-1.144-1.452-2.341-2.394-2.869-4.163a4.565 4.565 0 01-.22-1.645 2.73 2.73 0 01.071-.484z" fill="#263238"/><path d="M157.37 166.223c-.334.431-1.276-.176-2.024-.537a2.026 2.026 0 00-2.674.742 2.022 2.022 0 00-.291.966c-.176 2.217 2.42 4.065 3.96 3.977 2.64-.149 2.437-1.813 2.437-1.813l2.764 6.988c3.141 3.52 12.1 1.76 8.492-1.021l-1.188-3.221a16.052 16.052 0 003.256-1.038c1.645-.933 2.226-2.728 2.041-4.814-.299-3.362-.88-5.931-3.872-11.634-3.265-6.239-10.903-3.432-14.08.704-3.177 4.136 1.179 10.701 1.179 10.701z" fill="#846140"/><path d="M168.432 153.472a.398.398 0 00-.167.106.623.623 0 00-.062.193 3.006 3.006 0 01-2.64 2.191 3.66 3.66 0 01-1.32 0 2.263 2.263 0 01-1.109-.668 2.786 2.786 0 01-1.936 2.006c-.95.26-1.962.179-2.86-.229a2.032 2.032 0 01-.501 2.42 3.879 3.879 0 01-1.276.616 1.758 1.758 0 01.664 2.284 1.76 1.76 0 01-.559.655c.347.242.604.592.731.995.18.358.327.732.44 1.117.053.37.281 1.628-.22 1.822-.211.088-1.567-.977-2.297-1.267-.37-.141-.581-.739-.722-1.074a19.18 19.18 0 01-.712-2.085 4.207 4.207 0 00-.493-1.347 3.43 3.43 0 00-1.276-.686 2.514 2.514 0 01-1.144-.959 4.509 4.509 0 01-.669-3.133 3.987 3.987 0 011.038-2.253 2.643 2.643 0 012.297-.783 3.974 3.974 0 01.88-3.881c1.153-1.206 2.596-1.214 4.127-1.118a4.41 4.41 0 012.808-2.552 4.164 4.164 0 013.564 1.03 4.089 4.089 0 013.687-.722 3.68 3.68 0 012.041 1.514c.208.327.374.679.493 1.047.209.58.284 1.2.22 1.813-.14.6-.445 1.148-.88 1.584a4.612 4.612 0 01-2.147 1.364z" fill="#263238"/><path d="M168.845 172.304a32.592 32.592 0 01-5.834.484 4.853 4.853 0 01-2.587-1.188 6.678 6.678 0 001.901 1.76c1.478.88 6.908-.088 6.908-.088l-.388-.968z" fill="#5B4A30"/><path d="M164.709 162.149a.825.825 0 01.015.482.844.844 0 01-.254.41.845.845 0 01-.915.127.837.837 0 01.072-1.538.88.88 0 011.082.519zM162.738 159.755l-1.672 1.171a1.073 1.073 0 01.264-1.461.993.993 0 011.408.29z" fill="#263238"/><path d="M165.616 167.358l1.989.449a1.058 1.058 0 01-1.259.783.987.987 0 01-.73-1.232z" fill="#5B4A30"/><path d="M170.069 156.728l-2.007.458a.994.994 0 01.374-1.07.974.974 0 01.365-.162 1.083 1.083 0 011.268.774zM170.447 159.051a.883.883 0 01-1.449.919.874.874 0 01-.188-.973.876.876 0 01.837-.531.88.88 0 01.8.585z" fill="#263238"/><path d="M166.945 161.022l2.024 4.594 2.138-1.76-4.162-2.834z" fill="#5B4A30"/><path d="M137.333 201.458c.589-2.094 11.273-17.934 13.675-21.833a11.66 11.66 0 013.209 4.948c.627 1.897.755 3.924.373 5.885 0 0-9.056 12.259-9.997 14.265a6.976 6.976 0 00-.211 2.182c0 1.021.184 9.258 1.144 12.928a2.745 2.745 0 001.152 1.575c1.496.994 2.086 1.998 3.204 3.23.88.968 1.628 1.223 1.504 1.522a1.486 1.486 0 01-1.918.616 10.44 10.44 0 01-2.13-1.232 13.607 13.607 0 002.112 3.872c2.06 2.684 2.112 4.303-2.208 4.215-2.711-.053-5.527-1.883-7.392-7.92a72.785 72.785 0 01-1.514-7.744c-.81-5.174-1.1-8.721-1.355-12.32a8.799 8.799 0 01.352-4.189z" fill="#846140"/><path d="M141.205 193.336c2.64-4.4 5.896-11.264 8.729-14.08 1.083-1.082 2.869-1.294 3.52-1.426.924.88 2.148 1.76 2.896 5.685.88 4.567-2.2 8.906-2.2 8.906l-9.214 12.153c-.519 1.029-.22 9.627-.22 9.627a8.42 8.42 0 00-6.767 1.135s-.88-5.843-1.267-9.196c-.388-3.353-.476-4.066 1.39-7.119" fill="#455A64"/><path d="M138.706 221.065c.26 2.264.675 4.507 1.24 6.714.88 3.203 1.972 5.694 5.113 6.618 3.142.924 4.893 0 5.949-1.206 1.056-1.205-.695-2.965-1.69-4.215a9.198 9.198 0 01-1.425-2.781s1.848 1.549 3.133.88c1.284-.669 1.205-1.003.088-2.129-1.118-1.127-2.64-2.799-3.617-3.652a20.164 20.164 0 01-1.98-1.875s-4.444-1.047-6.811 1.646z" class="svg-primary-color" fill="#999"/><path opacity=".4" d="M138.706 221.065c.26 2.264.675 4.507 1.24 6.714.88 3.203 1.972 5.694 5.113 6.618 3.142.924 4.893 0 5.949-1.206 1.056-1.205-.695-2.965-1.69-4.215a9.198 9.198 0 01-1.425-2.781s1.848 1.549 3.133.88c1.284-.669 1.205-1.003.088-2.129-1.118-1.127-2.64-2.799-3.617-3.652a20.164 20.164 0 01-1.98-1.875s-4.444-1.047-6.811 1.646z" fill="#000"/><path d="M138.706 221.065a4.402 4.402 0 01-.3-2.587s2.112-1.989 6.644-1.215a2.808 2.808 0 01.467 2.183s-4.259-.669-6.811 1.619z" fill="#37474F"/></svg>