<svg width="112" height="63" viewBox="0 0 112 63" fill="none" xmlns="http://www.w3.org/2000/svg">
<path d="M70 63H68V55H70V63Z" fill="white"/>
<path d="M76 63H74.4818V59.6327C74.4864 59.361 74.3831 59.0997 74.1971 58.9128C74.0171 58.7223 73.7726 58.6163 73.5182 58.6187C73.2635 58.6136 73.018 58.72 72.8394 58.9128C72.6553 59.1005 72.5546 59.362 72.562 59.6327V63H71V57.1556H72.5255V57.4653C72.8421 57.1536 73.2617 56.9867 73.6934 57.0008C74.3149 56.9921 74.9082 57.2755 75.3139 57.7749C75.7462 58.2865 75.9785 58.9536 75.9635 59.6405L76 63Z" fill="white"/>
<path d="M79.9927 58.6451H79.2592V63H77.7335V58.6451H77V56.9781H77.7335V55H79.2665V56.9781H80L79.9927 58.6451Z" fill="white"/>
<path d="M83 58.6192H82.72C82.4408 58.6141 82.1717 58.7205 81.976 58.9133C81.7775 59.1032 81.6677 59.3631 81.672 59.6331V63H80V57.1564H81.672V57.466C82.0346 57.1487 82.5115 56.9819 83 57.0016V58.6192Z" fill="white"/>
<path fill-rule="evenodd" clip-rule="evenodd" d="M87.4246 62.8465H89L88.9849 57.1587H87.4095V57.558C86.9911 57.1567 86.4193 56.9561 85.8417 57.0081C85.0739 56.9953 84.3378 57.3137 83.8216 57.882C82.7261 59.0838 82.7261 60.9215 83.8216 62.1233C84.3409 62.6953 85.0843 63.0118 85.8568 62.9897C86.4325 63.0486 87.0052 62.8532 87.4246 62.4548V62.8465ZM86.2776 58.617C86.9406 58.7456 87.4206 59.3239 87.4246 59.9989C87.434 60.3785 87.2836 60.7447 87.01 61.0084C86.5327 61.4858 85.7846 61.5603 85.2224 61.1864C84.6602 60.8124 84.4402 60.094 84.6966 59.4696C84.953 58.8452 85.6147 58.4884 86.2776 58.617Z" fill="white"/>
<path fill-rule="evenodd" clip-rule="evenodd" d="M94.4301 62.8402H96L95.9849 55H94.415V57.3474C93.9926 56.9311 93.4181 56.723 92.8375 56.7762C92.0693 56.7659 91.3334 57.0961 90.8148 57.6838C89.7284 58.9363 89.7284 60.8366 90.8148 62.089C91.3365 62.6805 92.0798 63.0087 92.8526 62.9889C93.4315 63.0514 94.0078 62.8484 94.4301 62.4333V62.8402ZM94.015 58.8419C94.2839 59.1159 94.4338 59.4916 94.4301 59.8825C94.4349 60.276 94.2851 60.6545 94.015 60.931C93.7503 61.2141 93.3838 61.3701 93.0036 61.3614C92.6256 61.3698 92.2616 61.2137 91.9998 60.931C91.7266 60.6567 91.5762 60.2767 91.5846 59.8825C91.5846 59.0701 92.2199 58.4115 93.0036 58.4115C93.3838 58.4028 93.7503 58.5587 94.015 58.8419Z" fill="white"/>
<path fill-rule="evenodd" clip-rule="evenodd" d="M102.13 62.1382C102.698 61.5878 103.013 60.8279 103 60.0383C103.022 58.6733 102.113 57.4666 100.792 57.1063C99.4704 56.7459 98.0717 57.3235 97.3934 58.5097C96.7152 59.6959 96.9297 61.1892 97.9147 62.1382C99.083 63.2873 100.961 63.2873 102.13 62.1382ZM101.024 59.0423C101.29 59.306 101.44 59.6645 101.44 60.0383C101.444 60.4141 101.296 60.7757 101.027 61.0397C100.763 61.3086 100.4 61.4573 100.022 61.4507C99.6466 61.4588 99.2848 61.3097 99.0247 61.0397C98.7558 60.7769 98.6043 60.4174 98.6043 60.0421C98.6043 59.6668 98.7558 59.3073 99.0247 59.0445C99.2848 58.7745 99.6466 58.6254 100.022 58.6335C100.397 58.6315 100.758 58.7786 101.024 59.0423Z" fill="white"/>
<path fill-rule="evenodd" clip-rule="evenodd" d="M110.768 51L106 53.4161H108.819L111.58 52.3826V51.2819L110.768 51ZM111.377 55L108.478 54.6913L106 53.7181H111.435L112 54.3289L111.377 55Z" fill="#A2D45E"/>
<path fill-rule="evenodd" clip-rule="evenodd" d="M98.4265 52.3942L101.188 53.4365H104L99.2434 51L98.4265 51.2843V52.3942ZM98.5639 53.7073H104L101.513 54.6887L98.6217 55L98 54.3232L98.5639 53.7073Z" fill="#00B2E3"/>
<path d="M105.737 60L106 54H105L105.254 60H105.737Z" fill="white"/>
<circle cx="105.5" cy="52.5" r="0.5" fill="white"/>
<path fill-rule="evenodd" clip-rule="evenodd" d="M59.0293 29.5593L58.9847 29.7958C58.3577 33.3853 59.0745 37.0787 61 40.1789C60.8166 40.4548 60.6158 40.7282 60.3976 40.9992C57.5717 44.5243 53.4816 45.2633 51.3249 45.5959C49.3617 45.9506 46.0226 46.5492 42.5199 44.9012C36.5706 42.1077 35.3808 35.2866 35.2246 34.3333C35.2208 34.3071 35.2168 34.2797 35.2126 34.251C35.0036 32.815 34.3458 28.2981 37.2622 24.3566C39.9246 20.765 43.9403 19.8634 45.74 19.4939C45.7697 19.4878 45.8003 19.4815 45.8316 19.4751C47.6988 19.0906 52.4336 18.1156 56.895 20.9719C58.4178 21.9487 59.7092 23.2422 60.6802 24.7631C59.9076 26.2775 59.3519 27.8919 59.0293 29.5593ZM45.275 39.0985C46.7665 40.1411 48.6141 40.5511 50.4102 40.238C53.6161 39.6842 55.993 36.9738 56.1067 33.7421C56.1092 33.5063 55.9858 33.2868 55.7824 33.1652C55.579 33.0436 55.3261 33.0382 55.1176 33.1509C53.5034 33.8798 51.7933 34.3774 50.0384 34.6289C43.9478 35.767 42.4605 34.6806 42.4605 34.6806C42.7709 36.4663 43.7835 38.0559 45.275 39.0985Z" fill="#00B2E3"/>
<path d="M33.3229 34.4455C32.6393 30.1279 33.3973 26.4367 35.5522 23.4763C36.4861 22.1957 37.6566 21.1071 39 20.2698C38.9554 19.1363 38.896 18.2117 38.8068 17.6002C38.2198 13.6107 35.9386 12 32.5056 12C29.0726 12 26.1077 14.4235 26.3901 17.5107C26.5313 19.1587 26.6725 21.2839 26.7616 23.7447C26.0186 26.2428 17.6442 26.3099 16.9085 24.6545C16.7748 22.9245 16.6262 21.4778 16.485 20.5159C15.95 16.5264 13.7207 15.4302 10.2952 15.4302C6.86964 15.4302 3.50353 17.466 4.06083 20.5159C5.5545 27.7996 5.88558 35.2751 5.04169 42.6631C4.8039 45.1463 7.7316 47.4952 11.0234 47.4952C14.3152 47.4952 16.5073 46.1828 16.968 42.6929C17.1775 40.9032 17.2916 39.1035 17.3098 37.3015C18.8851 34.5275 26.3529 34.7438 26.6725 37.7713C26.5387 40.3216 26.3381 42.9315 26.0409 45.5266C25.7585 48.0098 28.4633 51 31.7476 51C35.032 51 37.5733 47.9203 38.0414 44.4304C38.0414 44.2738 38.086 44.1023 38.1083 43.9233C34.4598 40.4484 33.4938 35.5641 33.3229 34.4455Z" fill="#00B2E3"/>
<path fill-rule="evenodd" clip-rule="evenodd" d="M63.1251 40.6811C60.5954 37.5308 59.5281 33.44 60.1937 29.4447C60.2075 29.3811 60.2228 29.3073 60.2401 29.2241C60.5631 27.67 61.5662 22.8436 65.8079 20.143C70.6184 17.0656 74.7625 18.0615 76.8062 18.5527C76.914 18.5786 77.0159 18.6031 77.1118 18.6256C77.1504 18.6346 77.1898 18.6438 77.23 18.6532C79.1858 19.1092 83.0593 20.0124 85.7028 23.6254C88.7171 27.7528 87.9786 32.4947 87.7601 33.8604C87.7543 33.8978 87.7477 33.9435 87.7399 33.9972C87.5441 35.3482 86.6254 41.686 80.827 44.4443C78.1526 45.7968 75.1284 46.2844 72.1682 45.8403C68.6376 45.2661 65.4288 43.4354 63.1251 40.6811ZM67.6241 32.6313C67.1719 32.3885 66.6143 32.1988 66.6143 32.7223C66.6896 35.9544 69.0634 39.3306 72.4019 39.9072C76.193 40.5675 79.7986 38.0105 80.4578 34.1942C80.4578 34.1942 78.0764 35.2488 72.6053 34.5963C70.8077 34.3713 69.095 33.6957 67.6241 32.6313Z" fill="#A2D45E"/>
<path d="M98.014 5.03145C93.8237 5.55323 79.9191 7.95342 73.4555 8.36339C70.2503 8.5721 69 10.2567 69 12.6122C69.0357 13.8196 69.5729 14.9599 70.4866 15.7671C71.4002 16.5742 72.6102 16.9777 73.8344 16.8833C76.8654 16.6671 81.3058 15.959 81.2603 19.0673C81.2603 19.1493 81.2603 19.2388 81.2603 19.3357C83.419 20.2265 85.2933 21.6737 86.6858 23.5248C88.906 26.5064 89.6713 30.1738 88.959 34.4897V34.6164C88.2012 39.8938 85.4506 43.8594 81.3133 45.7974L81.1239 45.8794C82.3107 47.3183 84.1314 48.1041 86.0114 47.9889C89.1939 47.9889 91.4596 45.5141 91.7778 42.0257C92.1643 37.8365 92.7174 20.2376 92.9675 17.4275C93.119 15.6683 95.5211 15.0496 98.4535 15.0198C101.174 15.0198 103 12.7091 103 9.84673C103 6.9844 100.515 4.70347 98.014 5.03145Z" fill="#A2D45E"/>
<path fill-rule="evenodd" clip-rule="evenodd" d="M98.0993 1.44918e-05C102.922 1.44918e-05 106.996 4.22446 106.996 9.22649C107.097 12.9181 105.07 16.3399 101.785 18.0268C102.473 19.3689 102.054 21.0134 100.808 21.8627C99.5616 22.712 97.8779 22.5003 96.8806 21.369C96.8058 23.0737 96.7236 25.085 96.6488 27.0663C96.6056 28.0312 96.5622 29.0167 96.5189 30.0007C96.2997 34.9793 96.0822 39.9201 95.9011 41.9678C95.3703 47.882 91.2058 52.0092 85.7852 52.0092C83.2565 52.0749 80.7877 51.2342 78.8245 49.6391C77.2773 50.0477 75.6845 50.2587 74.0843 50.2671C73.1345 50.2727 72.1861 50.1926 71.2507 50.0279C67.725 49.432 64.4304 47.8803 61.7254 45.5417C58.9391 47.7298 55.6204 49.1363 52.1105 49.6166C50.6211 49.9183 49.1066 50.0785 47.5871 50.0951C45.5715 50.0994 43.5722 49.7345 41.688 49.0185C39.7665 52.6074 36.2675 55 32.3871 55C29.4117 54.9765 26.5869 53.6878 24.6189 51.4559C22.8855 49.6013 22.0189 47.0992 22.2338 44.5697C22.4208 42.9099 22.5852 41.1528 22.7049 39.3359H22.6675H22.1965C22.1292 40.6668 22.032 41.8481 21.8974 42.85C21.1722 48.2783 17.2843 51.5232 11.5049 51.5232C8.33307 51.549 5.29771 50.2349 3.14598 47.9044C1.60003 46.2375 0.855092 43.9808 1.10486 41.721C1.89094 34.7862 1.57298 27.7706 0.162805 20.9353C-0.32382 18.5918 0.29371 16.1547 1.83757 14.3257C3.80393 11.9406 7.13851 10.5125 10.7572 10.5125C18.4731 10.5125 20.8058 15.3351 21.4039 19.3876C21.4712 19.8287 21.531 20.3222 21.5908 20.883C21.9906 20.8862 22.3902 20.8637 22.7871 20.8157C22.7049 19.3651 22.6151 18.2287 22.5404 17.4361C22.3256 14.9103 23.1893 12.4115 24.9179 10.5574C27.06 8.30827 30.0364 7.04461 33.1422 7.06567C38.3983 7.06567 42.1591 9.91436 43.5049 14.7669C43.9908 14.6472 44.3946 14.55 44.7385 14.4753C46.4253 14.0807 48.1502 13.8726 49.8824 13.8547C54.0981 13.7647 58.1892 15.2863 61.3217 18.109C61.965 17.5241 62.658 16.9963 63.3927 16.5314C64.0061 16.1436 64.6428 15.794 65.2993 15.4846C64.8171 14.412 64.5625 13.2511 64.5516 12.0752C64.5516 7.12549 67.8787 3.7235 73.1123 3.38704C77.2993 3.1104 85.0675 1.89914 90.7572 1.00939C93.2918 0.613119 95.6843 0.239275 97.075 0.0673065C97.4145 0.0218276 97.7567 -0.000654323 98.0993 1.44918e-05ZM93.8525 16.9352C93.9198 16.165 95.5722 15.6267 98.0694 15.6267C101.314 15.5968 103.767 12.8453 103.796 9.18163C103.832 5.9848 101.323 3.33717 98.1292 3.20012C97.9215 3.20017 97.7141 3.21516 97.5086 3.24498C96.1927 3.42443 93.9198 3.76089 91.288 4.17212C85.5385 5.0843 77.6656 6.29555 73.3441 6.57967C69.8226 6.81146 67.8114 8.80031 67.8114 12.0453C67.8248 13.4989 68.4168 14.8872 69.4563 15.9033C69.951 16.3934 70.5313 16.7887 71.1684 17.0697C69.0131 17.321 66.944 18.0628 65.1198 19.238C63.614 20.1941 62.3375 21.4706 61.3815 22.9765C58.7855 19.2001 54.464 16.9831 49.8824 17.0772C48.3865 17.0948 46.897 17.2778 45.4413 17.623C43.8577 17.9303 42.3182 18.4326 40.8581 19.1184C40.8361 18.3831 40.7762 17.6494 40.6787 16.9202C40.0357 12.5687 37.4338 10.2733 33.1422 10.2733C30.9475 10.2466 28.8395 11.1288 27.3179 12.7107C26.2098 13.9106 25.6659 15.5262 25.8226 17.152C25.9348 18.3707 26.0843 20.3671 26.189 23.0513C25.845 23.47 24.2151 24.1204 21.6357 24.1204C20.619 24.1689 19.6028 24.0164 18.6451 23.6718C18.5179 22.1166 18.3834 20.7932 18.2488 19.8736C17.4189 14.4528 13.8226 13.7575 10.7722 13.7575C8.14785 13.7575 5.68804 14.7743 4.34224 16.3968C3.42558 17.4685 3.0533 18.9025 3.3329 20.2848C4.81919 27.4611 5.15484 34.8281 4.32729 42.1098C4.19662 43.453 4.65484 44.7868 5.58337 45.766C7.12793 47.3917 9.27748 48.3041 11.5198 48.2857C16.8133 48.2857 18.346 45.0931 18.7049 42.4164C18.9098 40.6966 19.0196 38.9668 19.0338 37.2349C19.6095 36.5545 21.0675 36.0835 22.66 36.0835C24.4021 36.0835 25.8974 36.6068 26.0544 37.3545C25.9198 39.9939 25.7105 42.5435 25.4338 44.9361C25.3308 46.5522 25.9177 48.1362 27.0488 49.2951C28.3994 50.8438 30.3473 51.7416 32.4021 51.7625C36.0357 51.7625 39.2133 48.5923 39.8787 44.3604C40.5263 44.8437 41.22 45.262 41.9497 45.609C43.7088 46.4332 45.6296 46.8547 47.5722 46.8427C48.9008 46.8221 50.2248 46.6795 51.5273 46.4165C53.688 46.0277 58.189 45.2127 61.3516 41.3098C61.4634 41.1745 61.5613 41.0345 61.6599 40.8935C61.6866 40.8554 61.7133 40.8172 61.7404 40.7789C61.8675 40.9584 61.9946 41.1378 62.1366 41.3098C64.5918 44.253 68.0276 46.2099 71.8114 46.8203C72.5515 46.954 73.3023 47.0191 74.0544 47.0147C76.0172 46.9966 77.9604 46.6216 79.789 45.9081C79.9452 46.1554 80.1202 46.3904 80.3123 46.6109C81.7369 48.0709 83.7178 48.8518 85.7553 48.7568C89.5011 48.7568 92.2675 45.9006 92.6488 41.6537C92.8814 39.4126 93.1272 33.4445 93.3551 27.9138C93.3689 27.577 93.3827 27.2419 93.3965 26.9093C93.5759 22.4157 93.7479 18.1688 93.8525 16.9352Z" fill="white"/>
<path d="M77.2485 17C76.8429 17 76.4533 17 76 17.0435L76.7952 17.1957L77.169 17.2754C78.1275 17.466 79.0728 17.708 80 18C79.9956 17.8246 79.9255 17.6558 79.8012 17.5217C79.5229 17.2681 78.8867 17 77.2485 17Z" fill="#582D82"/>
<path d="M72.127 36.2919C70.6713 36.146 69.2646 35.7057 68 35C68.6205 36.8307 70.1645 38.5648 72.2857 38.9171C72.5975 38.9724 72.9138 39.0002 73.2309 39C75.2017 39.0027 77.0224 37.9926 78 36.3541C77.1768 36.4534 76.3478 36.5018 75.518 36.4991C74.3844 36.4955 73.2519 36.4263 72.127 36.2919Z" fill="#582D82"/>
<path d="M45.0142 35.8627C44.6397 35.8627 44.3043 35.8627 44 35.8627C45.0551 37.8036 47.0242 39.0015 49.1567 39C49.4995 38.9998 49.8416 38.967 50.1787 38.902C52.5939 38.4586 54.5054 36.5151 55 34C53.4531 34.5819 51.8608 35.022 50.2411 35.3154C48.5181 35.6623 46.7687 35.8455 45.0142 35.8627Z" fill="#582D82"/>
<path d="M29.2885 23.8872L29.3622 23.64V23.3854C29.2737 21.1599 29.1485 19.0217 28.9791 17.2326C28.9285 16.4268 29.2193 15.6365 29.7821 15.0508C30.7558 14.0876 32.0877 13.5617 33.4657 13.5962C34.3394 13.5647 35.2082 13.7393 36 14.1053C35.0798 13.3112 33.8736 12.9178 32.6553 13.0144C31.2778 12.9824 29.9469 13.508 28.9717 14.4689C28.4037 15.0511 28.1142 15.8448 28.176 16.6508C28.3381 18.4544 28.4707 20.5854 28.5518 22.8109V23.0654L28.4781 23.3127C27.6088 26.2218 22.7317 26.4254 21.2582 26.4254C19.7957 26.4817 18.3394 26.2081 17 25.6254C18.0903 26.7382 20.2784 27 22.076 27C23.5789 27 28.4265 26.7745 29.2885 23.8872Z" fill="#95D8F1"/>
<path d="M7.79212 43.335C8.62982 35.8048 8.30239 28.1847 6.82214 20.7611C6.70956 20.2124 6.85631 19.641 7.21732 19.2225C8.3074 18.1241 9.78496 17.5358 11.3056 17.5946C12.2261 17.5435 13.1462 17.7034 14 18.0629C13.2815 17.3196 12.2253 17 10.5153 17C8.80521 17 7.19576 17.6392 6.43414 18.5981C6.06994 19.0148 5.92276 19.5879 6.03897 20.1367C7.51635 27.5708 7.84134 35.2007 7.00176 42.7404C6.9838 43.274 7.1817 43.7912 7.54783 44.1675C7.84119 44.5013 8.18594 44.7826 8.5681 45C8.48907 44.9257 8.41003 44.8439 8.33818 44.7621C7.9713 44.3863 7.77327 43.8688 7.79212 43.335Z" fill="#95D8F1"/>
<path d="M28.5892 46.4094C28.9122 43.8266 29.1586 41.0809 29.3116 38.2343V38.1102V37.9784C29.1231 36.6996 28.2593 35.5866 27 35C27.746 35.5995 28.2265 36.4269 28.3513 37.3269V37.5828C28.1898 40.4294 27.9433 43.1751 27.6204 45.7579C27.6165 46.622 28.0077 47.4485 28.6997 48.0382C29.0749 48.4193 29.5138 48.7439 30 49C29.8697 48.894 29.7476 48.78 29.6346 48.6587C28.9637 48.071 28.5859 47.2581 28.5892 46.4094Z" fill="#95D8F1"/>
<path d="M37.0055 34.5971C36.4567 30.9576 37.0055 27.8993 38.7176 25.5137C40.9859 22.2948 44.3296 21.5225 46.1223 21.1097C47.3519 20.7997 48.611 20.6355 49.8758 20.6203C52.0032 20.5865 54.0937 21.2031 55.8902 22.3942L56 22.4706C55.7111 22.2224 55.4081 21.9926 55.0927 21.7825C53.2935 20.5905 51.2011 19.9715 49.071 20.001C47.8056 20.015 46.5461 20.1817 45.3174 20.498C43.5248 20.9109 40.1956 21.6755 37.9128 24.8944C36.208 27.3258 35.6519 30.3842 36.208 33.9778C36.3762 35.0712 37.364 40.2628 41.3297 43C38.0225 40.1634 37.1592 35.6064 37.0055 34.5971Z" fill="#95D8F1"/>
<path d="M50.1345 41.296C49.6426 41.3812 49.1435 41.422 48.6438 41.4181C46.9936 41.4199 45.379 40.9554 44 40.0819C45.5292 41.3228 47.4646 42.0023 49.4637 42C49.9633 42.0002 50.462 41.9593 50.9544 41.8779C54.9104 41.2016 57.8427 37.9598 57.9983 34.0905C58.0219 33.5 57.7929 32.926 57.3648 32.5029C57.1539 32.2887 56.9004 32.1177 56.6194 32C57.0044 32.4157 57.2075 32.959 57.1859 33.5158C57.0317 37.3868 54.0937 40.6284 50.1345 41.296Z" fill="#95D8F1"/>
<path d="M73.6563 9.79661C78.0793 9.51829 85.8785 8.36931 91.5915 7.47012C94.1716 7.08475 96.3904 6.75647 97.6436 6.59233H97.909C98.2904 6.59942 98.6645 6.69486 99 6.87065C98.5113 6.34654 97.8266 6.03311 97.0981 6H96.8401C95.5796 6.157 93.3607 6.49242 90.7806 6.87779C85.0676 7.7413 77.2389 8.92596 72.8528 9.20428C70.3465 9.36128 70 10.5103 70 11.7306C70.0124 12.3973 70.299 13.0318 70.7961 13.4933C71.0135 13.6979 71.2621 13.8688 71.5333 14C71.0755 13.5439 70.8123 12.9373 70.7961 12.3015C70.8109 11.1026 71.15 9.95361 73.6563 9.79661Z" fill="#D2E9AE"/>
<path d="M82.9972 19.2641C83.0372 18.2876 82.6489 17.3373 81.9193 16.6266C81.6456 16.38 81.3362 16.1692 81 16L81.0476 16.0437C81.7899 16.747 82.1804 17.7026 82.1254 18.6812C82.1254 18.8852 82.1254 19.1767 82.1254 19.5264C82.4107 19.6721 82.7039 19.8324 82.9972 20C82.9893 19.7013 82.9893 19.4463 82.9972 19.2641Z" fill="#D2E9AE"/>
<path d="M65.5764 40.2687C63.3645 37.5437 62.4175 34.0204 62.9689 30.5672L63.0291 30.291C63.3155 28.9104 64.2048 24.694 67.8523 22.4104C69.6797 21.2293 71.8121 20.5946 73.9943 20.5821C75.1949 20.6012 76.3889 20.7615 77.5513 21.0597L77.9282 21.1493C79.7245 21.4664 81.4449 22.1144 83 23.0597C81.2648 21.7747 79.244 20.92 77.1067 20.5672L76.7299 20.4776C75.5675 20.1794 74.3734 20.0191 73.1728 20C70.9935 20.0087 68.8632 20.6411 67.0384 21.8209C63.3833 24.1119 62.5167 28.3284 62.2077 29.709L62.1474 29.9776C61.6107 33.4173 62.5537 36.9224 64.7474 39.6418C65.5012 40.5499 66.3847 41.3443 67.37 42C66.7115 41.4879 66.1102 40.9074 65.5764 40.2687Z" fill="#D2E9AE"/>
<path d="M73.2859 41.3991C72.7852 41.403 72.2853 41.3608 71.7925 41.273C70.7968 41.0891 69.8477 40.7109 69 40.1602C70.0436 41.0326 71.296 41.6229 72.6363 41.8739C73.1295 41.958 73.6291 42.0002 74.1296 42C78.2664 41.9891 81.7941 39.0198 82.4848 34.9674L83 32L81.9995 32.4303L81.656 34.3887C80.9575 38.4394 77.4223 41.4003 73.2859 41.3991Z" fill="#D2E9AE"/>
<path d="M45.0142 35.8627C44.6397 35.8627 44.3043 35.8627 44 35.8627C45.0551 37.8036 47.0242 39.0015 49.1567 39C49.4995 38.9998 49.8416 38.967 50.1787 38.902C52.5939 38.4586 54.5054 36.5151 55 34C53.4531 34.5819 51.8608 35.022 50.2411 35.3154C48.5181 35.6623 46.7687 35.8455 45.0142 35.8627Z" fill="white"/>
<path d="M80 18C79.9956 17.8193 79.9249 17.6455 79.7996 17.5075C79.5511 17.2761 78.9098 17 77.2585 17C76.8497 17 76.4569 17 76 17.0448L76.8016 17.2015L77.1784 17.2836C78.133 17.4712 79.0752 17.7104 80 18Z" fill="white"/>
<path d="M72.127 36.2919C70.6713 36.146 69.2646 35.7057 68 35C68.6205 36.8307 70.1645 38.5648 72.2857 38.9171C72.5975 38.9724 72.9138 39.0002 73.2309 39C75.2017 39.0027 77.0224 37.9926 78 36.3541C77.1768 36.4534 76.3478 36.5018 75.518 36.4991C74.3844 36.4955 73.2519 36.4263 72.127 36.2919Z" fill="white"/>
<path fill-rule="evenodd" clip-rule="evenodd" d="M49.7871 34.5169C51.5904 34.2703 53.3478 33.7825 55.0065 33.0679C55.219 32.968 55.4707 32.9789 55.6727 33.0967C55.8747 33.2146 55.9984 33.4227 56 33.6475C55.8138 37.0303 52.9942 39.7495 49.4297 39.9838C45.8652 40.218 42.6768 37.8937 42 34.5676C42 34.5676 43.559 35.6326 49.7871 34.5169ZM48.9541 38.9508C49.2899 38.9506 49.625 38.9215 49.9552 38.8638V38.8566C52.3321 38.4583 54.2075 36.7178 54.6779 34.4734C53.1626 34.9895 51.6029 35.3798 50.0164 35.6399C48.33 35.9621 46.6163 36.1391 44.8963 36.1687H43.9028C44.9363 37.8898 46.8652 38.9521 48.9541 38.9508Z" fill="#592D82"/>
<path fill-rule="evenodd" clip-rule="evenodd" d="M97.6703 3.04529C97.8767 3.01518 98.0849 3.00005 98.2934 3C101.509 3.1305 104.038 5.81009 103.999 9.04575C103.999 12.6989 101.537 15.5066 98.2784 15.5066C95.7709 15.5293 94.1118 16.0727 94.0442 16.8275C93.9391 18.0729 93.7664 22.3675 93.5863 26.8962C93.5228 28.2647 93.4597 29.679 93.3976 31.0732L93.3973 31.08C93.1949 35.6195 93.002 39.9448 92.8355 41.7803C92.4526 46.0675 89.6674 48.9507 85.9137 48.9507C83.8677 49.0466 81.8786 48.2583 80.4482 46.7845C80.2553 46.5618 80.0796 46.3247 79.9227 46.075C78.0865 46.7953 76.1354 47.1738 74.1645 47.1921C73.4093 47.1965 72.6554 47.1309 71.9122 46.9958C68.1129 46.3797 64.6629 44.4042 62.1976 41.4331C62.055 41.2596 61.9274 41.0785 61.7998 40.8974L61.7997 40.8973C61.7726 40.9357 61.7458 40.9742 61.7191 41.0126L61.7189 41.0129C61.6199 41.1552 61.5216 41.2965 61.4093 41.4331C58.2337 45.3731 53.7142 46.1958 51.5445 46.5883C50.2366 46.8537 48.9072 46.9977 47.5731 47.0185C45.618 47.0352 43.684 46.6123 41.9125 45.7807C41.175 45.4362 40.4734 45.019 39.8179 44.5353C39.1647 48.8073 35.9666 52 32.3104 52C30.2472 51.979 28.2912 51.0726 26.9351 49.5092C25.8055 48.3337 25.2245 46.732 25.336 45.1014C25.6138 42.6861 25.824 40.1123 25.9591 37.4479C25.8015 36.7309 24.3 36.1648 22.5507 36.1648C20.9516 36.1648 19.4877 36.6403 18.9096 37.3272C18.8879 39.0759 18.7701 40.8221 18.5568 42.5578C18.1964 45.2599 16.6574 48.4827 11.3421 48.4827C9.09052 48.5013 6.93211 47.5803 5.38118 45.9392C4.44883 44.9506 3.98872 43.6042 4.11993 42.2483C4.94423 34.886 4.59704 27.4387 3.09141 20.1862C2.81065 18.7909 3.18447 17.3432 4.10492 16.2614C5.45626 14.6235 7.92621 13.597 10.5613 13.597C13.6469 13.597 17.258 14.299 18.0688 19.7711C18.2039 20.6995 18.3391 22.0203 18.4667 23.6054C19.4284 23.9532 20.4488 24.1071 21.4697 24.0582C24.0597 24.0582 25.6964 23.4016 26.0417 22.9789C25.9366 20.2693 25.7864 18.254 25.6738 17.0237C25.5372 15.3859 26.0995 13.7669 27.2204 12.5705C28.7508 10.9792 30.8672 10.0943 33.0687 10.1251C37.378 10.1251 39.9906 12.4422 40.6362 16.835C40.7341 17.5686 40.7943 18.3067 40.8164 19.0465C42.2822 18.3533 43.8281 17.8462 45.4184 17.537C46.8801 17.1885 48.3757 17.0037 49.8779 16.986C54.472 16.9063 58.7986 19.1521 61.3943 22.9638C62.3543 21.4436 63.636 20.155 65.148 19.1899C66.9797 18.0035 69.0573 17.2548 71.2216 17.0011C70.5818 16.7174 69.9991 16.3183 69.5024 15.8236C68.4586 14.7979 67.8642 13.3964 67.8507 11.929C67.8507 8.67591 69.8702 6.64556 73.4062 6.41158C77.7531 6.12477 85.6584 4.88694 91.4241 3.98121C94.0667 3.56608 96.349 3.21134 97.6703 3.04529ZM32.3104 50.7773C35.6663 50.7773 38.1963 47.66 38.6692 44.1277L38.6804 44.0486C38.6995 43.9116 38.7204 43.7622 38.7518 43.5918C35.0431 40.0972 34.0672 35.2063 33.8945 34.059C33.1813 29.6888 33.947 25.9754 36.1467 22.9563C37.0904 21.66 38.273 20.5582 39.6302 19.7107C39.5851 18.5635 39.5251 17.6275 39.435 17.0086C38.8344 12.9706 36.5296 11.3403 33.0687 11.3403C29.6077 11.3403 26.6048 13.7933 26.89 16.9181C27.0327 18.5861 27.1753 20.7372 27.2654 23.228C26.5222 25.7565 18.0613 25.8244 17.3105 24.1488C17.1754 22.3977 17.0252 20.9335 16.8826 19.9598C16.2895 15.9218 14.0673 14.8349 10.6064 14.8349C7.14543 14.8349 3.74456 16.8954 4.30762 19.9824C5.83607 27.3414 6.19336 34.8975 5.36617 42.3691C5.05085 44.8825 8.06134 47.2298 11.3721 47.2298C14.6829 47.2298 16.9051 45.9014 17.3781 42.3691C17.5898 40.5575 17.7051 38.7359 17.7234 36.912C19.3225 34.1043 26.83 34.3232 27.1828 37.3876C27.0477 39.9538 26.845 42.6106 26.5447 45.2372C26.2594 47.7582 28.9546 50.7773 32.3104 50.7773ZM60.4409 40.6708C57.6105 44.2711 53.4814 45.0259 51.3193 45.3882C49.3373 45.7505 45.9665 46.3618 42.4305 44.6787C36.4245 41.8256 35.2233 34.8666 35.0657 33.8854L35.064 33.8743C34.8515 32.4939 34.1278 27.7909 37.1227 23.6959C39.7688 20.0845 43.6519 19.1946 45.5912 18.7502L45.6812 18.7295C47.5881 18.2917 52.3478 17.22 56.9424 20.2391C58.4797 21.2367 59.7834 22.5577 60.7637 24.1111C59.9908 25.6515 59.435 27.2925 59.112 28.9869L59.067 29.2284C58.4435 32.8823 59.1669 36.6393 61.1015 39.7953C60.8963 40.1022 60.6836 40.3941 60.4634 40.6708H60.4409ZM63.121 40.6482C65.416 43.3882 68.6126 45.2094 72.13 45.7807C75.0788 46.2139 78.0889 45.721 80.7485 44.3692C86.5251 41.6252 87.4402 35.3202 87.6353 33.9762C87.643 33.9229 87.6496 33.8773 87.6554 33.8401L87.6631 33.7885C87.876 32.3657 88.5719 27.7137 85.6058 23.6582C82.9182 19.99 78.8642 19.0616 77.0473 18.6842C76.9171 18.6572 76.7735 18.6253 76.6172 18.5906L76.6169 18.5905C74.5939 18.1416 70.4552 17.2232 65.7862 20.1938C61.5592 22.8891 60.575 27.659 60.2512 29.2283L60.251 29.2294C60.2321 29.3208 60.2155 29.4014 60.2006 29.47C59.5376 33.4445 60.6008 37.5142 63.121 40.6482ZM76.244 17.2728C76.4449 17.2728 76.6458 17.2613 76.8447 17.2498C77.0398 17.2386 77.2331 17.2275 77.4227 17.2275C78.9693 17.2275 79.5699 17.5068 79.8026 17.7408C79.9199 17.8804 79.9861 18.0562 79.9903 18.2389C79.1149 17.9347 78.2225 17.6827 77.3176 17.4841L76.9648 17.4011L76.244 17.2728ZM92.8205 16.6916C93.0007 14.9104 95.3505 14.2537 98.2559 14.2537V14.2914C100.951 14.2688 102.768 11.9592 102.768 9.06839C102.768 6.1776 100.298 3.95102 97.8205 4.26802C96.5185 4.42812 94.2844 4.77474 91.6321 5.18626C85.7813 6.09403 77.8952 7.31759 73.4888 7.55129C70.3132 7.76263 69.0744 9.46842 69.0744 11.8535C69.1098 13.0762 69.6421 14.2308 70.5473 15.0481C71.4524 15.8654 72.6513 16.2739 73.8642 16.1784C74.1554 16.157 74.4602 16.131 74.7731 16.1042C77.6703 15.8564 81.2622 15.5492 81.2215 18.3899V18.6616C83.3602 19.5636 85.2172 21.029 86.5968 22.9034C88.774 25.8999 89.5322 29.636 88.8491 34.0062V34.1345C88.0308 39.4934 85.3731 43.5088 81.274 45.4561L81.0864 45.5391C82.2622 46.9961 84.066 47.7918 85.9287 47.6751C89.0818 47.6751 91.3265 45.1919 91.6418 41.6369C91.856 39.2645 92.1218 32.6446 92.3578 26.7661C92.5438 22.134 92.7113 17.9623 92.8205 16.6916Z" fill="#582D82"/>
<path fill-rule="evenodd" clip-rule="evenodd" d="M67.0218 32.255C68.5093 33.3721 70.2413 34.0812 72.0592 34.3173C77.5918 35.0021 80 33.8953 80 33.8953C79.3335 37.9004 75.6872 40.584 71.8534 39.891C68.5079 39.2859 66.1073 35.7585 66.0006 32.3506C65.9778 31.8012 66.5646 32.0002 67.0218 32.255ZM72.0668 38.617C72.396 38.6808 72.7302 38.7127 73.0651 38.7126C75.1467 38.7157 77.0698 37.5514 78.1024 35.663C77.2329 35.7774 76.3573 35.8333 75.4809 35.8302C74.2885 35.8254 73.0975 35.7456 71.9144 35.5913C70.3716 35.4254 68.8803 34.9178 67.54 34.1023C68.1954 36.2283 69.8263 38.2109 72.0668 38.617Z" fill="#582D82"/>
<path d="M99 19.373H98.219V21H97.7429V19.373H97V19H98.9619L99 19.373Z" fill="#582D82"/>
<path d="M100.964 21H100.604V19.4921L100.151 20.8016H99.7698L99.3237 19.5V21H99V19H99.5324L100 20.3492L100.468 19H101L100.964 21Z" fill="#582D82"/>
</svg>
