<svg width="460" height="460" viewBox="0 0 460 460" fill="none" xmlns="http://www.w3.org/2000/svg">
<path d="M230 441.986C348.626 441.986 444.792 386.467 444.792 317.98C444.792 249.493 348.626 193.973 230 193.973C111.373 193.973 15.2075 249.493 15.2075 317.98C15.2075 386.467 111.373 441.986 230 441.986Z" fill="#F5F5F5"/>
<path d="M201.25 420.412L96.1953 359.757L269.293 260.139L374.357 320.795L201.25 420.412Z" fill="#E0E0E0"/>
<path d="M373.143 300.04C361.909 306.526 361.909 317.041 373.143 323.527C384.376 330.013 402.583 329.967 413.816 323.527C425.049 317.087 425.049 306.526 413.816 300.04C402.583 293.554 384.376 293.554 373.143 300.04Z" fill="#E0E0E0"/>
<path d="M55.338 357.65C41.538 365.295 41.538 377.687 55.338 385.333C69.138 392.978 91.5216 392.978 105.331 385.333C119.14 377.687 119.131 365.295 105.331 357.65C91.5308 350.005 69.138 350.014 55.338 357.65Z" fill="#E0E0E0"/>
<path d="M158.654 366.059L88.8262 325.744C85.3578 323.739 85.3578 320.5 88.8262 318.504L135.121 291.769C137.087 290.776 139.248 290.228 141.45 290.163C143.651 290.098 145.841 290.517 147.863 291.392L223.165 329.112C226.743 330.896 226.845 333.969 223.376 335.966L171.194 366.096C169.248 367.074 167.098 367.581 164.92 367.575C162.741 367.568 160.595 367.049 158.654 366.059Z" fill="#E0E0E0"/>
<path d="M48.3735 97.52L50.0571 98.5228L84.4835 78.6416L82.7999 77.6388L48.3735 97.52Z" fill="#FAFAFA"/>
<path d="M82.7999 77.6387L50.0571 96.5447V62.2471L82.8091 43.3595L82.7999 77.6387Z" fill="white"/>
<path d="M87.6483 36.892L46.9199 60.4256V104.006L87.6759 80.4724L87.6483 36.892ZM84.4835 78.6416L50.0571 98.5228V62.2472L84.4835 42.3752V78.6416Z" fill="#F0F0F0"/>
<path d="M84.4836 78.6415L82.8 77.6387L82.8093 43.3595L84.4836 42.3751V78.6415Z" fill="#E0E0E0"/>
<path d="M87.6483 36.8919L85.9464 35.9167L45.1812 59.4503L46.8924 60.4255L87.6483 36.8919Z" fill="#FAFAFA"/>
<path d="M45.1812 59.4503L46.8924 60.4255V104.006L45.1812 103.031V59.4503Z" fill="#E0E0E0"/>
<path d="M81.5211 76.6175L51.3359 94.0515V85.3299L58.8799 67.9051L63.5811 72.2567L61.8975 79.5615L72.3211 57.2699L81.5211 67.9051V76.6175Z" fill="#F0F0F0"/>
<path d="M63.296 59.4871C62.6464 59.9099 62.106 60.4804 61.7191 61.1519C61.3321 61.8235 61.1096 62.5771 61.0696 63.3511C61.0696 64.7771 62.0632 65.3567 63.296 64.6391C63.9478 64.2179 64.4903 63.648 64.879 62.9763C65.2676 62.3045 65.4913 61.5501 65.5316 60.7751C65.5316 59.3491 64.538 58.7695 63.296 59.4871Z" fill="#F0F0F0"/>
<path d="M48.3735 157.808L50.0571 158.801L84.4835 138.929L82.7999 137.926L48.3735 157.808Z" fill="#FAFAFA"/>
<path d="M82.7999 137.926L50.0571 156.832V122.535L82.7999 103.647V137.926Z" fill="white"/>
<path d="M87.6483 97.1796L46.9199 120.704V164.284L87.6483 140.76V97.1796ZM84.4835 138.92L50.0571 158.792V122.535L84.4835 102.663V138.92Z" fill="#F0F0F0"/>
<path d="M84.4836 138.929L82.8 137.926V103.647L84.4836 102.663V138.929Z" fill="#E0E0E0"/>
<path d="M87.6483 97.1796L85.9464 96.1952L45.1812 119.729L46.8924 120.704L87.6483 97.1796Z" fill="#FAFAFA"/>
<path d="M45.1812 119.729L46.8924 120.704V164.284L45.1812 163.309V119.729Z" fill="#E0E0E0"/>
<path d="M81.5211 136.905L51.3359 154.33V145.618L58.8799 128.184L63.5811 132.544L61.8975 139.849L72.3211 117.558L81.5211 128.184V136.905Z" fill="#F0F0F0"/>
<path d="M63.296 119.766C62.6472 120.191 62.1077 120.764 61.7209 121.437C61.3342 122.109 61.1111 122.864 61.0696 123.639C61.0696 125.065 62.0632 125.635 63.296 124.927C63.9485 124.504 64.4914 123.933 64.8801 123.259C65.2687 122.586 65.492 121.83 65.5316 121.054C65.5316 119.6 64.538 119.057 63.296 119.766Z" fill="#F0F0F0"/>
<path d="M376.63 314.116C367.614 304.815 362.324 266.957 371.11 259.578H415.84C424.626 266.938 419.336 304.796 410.32 314.107L410.072 314.355L409.759 314.668C409.51 314.916 409.234 315.155 408.949 315.395L408.728 315.569C408.508 315.744 408.296 315.919 408.048 316.085C407.676 316.357 407.289 316.609 406.888 316.839C399.473 321.172 387.449 321.172 380.034 316.839C379.631 316.609 379.24 316.357 378.865 316.085C378.635 315.928 378.433 315.763 378.23 315.597L377.964 315.385C377.696 315.151 377.441 314.902 377.2 314.64L376.841 314.291L376.63 314.116Z" class="svg-primary-color"/>
<g opacity="0.7">
<path opacity="0.7" d="M376.63 314.116C367.614 304.815 362.324 266.957 371.11 259.578H415.84C424.626 266.938 419.336 304.796 410.32 314.107L410.072 314.355L409.759 314.668C409.51 314.916 409.234 315.155 408.949 315.395L408.728 315.569C408.508 315.744 408.296 315.919 408.048 316.085C407.676 316.357 407.289 316.609 406.888 316.839C399.473 321.172 387.449 321.172 380.034 316.839C379.631 316.609 379.24 316.357 378.865 316.085C378.635 315.928 378.433 315.763 378.23 315.597L377.964 315.385C377.696 315.151 377.441 314.902 377.2 314.64L376.841 314.291L376.63 314.116Z" fill="white"/>
</g>
<path d="M411.958 256.606C422.17 262.568 422.17 272.246 411.958 278.19C401.746 284.133 385.204 284.151 375.001 278.19C364.798 272.228 364.789 262.55 375.001 256.606C385.213 250.663 401.755 250.654 411.958 256.606Z" class="svg-primary-color"/>
<g opacity="0.85">
<path opacity="0.85" d="M411.958 256.606C422.17 262.568 422.17 272.246 411.958 278.19C401.746 284.133 385.204 284.151 375.001 278.19C364.798 272.228 364.789 262.55 375.001 256.606C385.213 250.663 401.755 250.654 411.958 256.606Z" fill="white"/>
</g>
<path d="M407.054 259.44C414.543 263.819 414.543 270.912 407.054 275.292C399.565 279.671 387.403 279.662 379.905 275.292C372.407 270.922 372.407 263.819 379.905 259.44C387.403 255.061 399.556 255.098 407.054 259.44Z" class="svg-primary-color"/>
<g opacity="0.75">
<path opacity="0.75" d="M407.054 259.44C414.543 263.819 414.543 270.912 407.054 275.292C399.565 279.671 387.403 279.662 379.905 275.292C372.407 270.922 372.407 263.819 379.905 259.44C387.403 255.061 399.556 255.098 407.054 259.44Z" fill="white"/>
</g>
<path d="M379.905 266.993C387.403 262.623 399.556 262.623 407.054 266.993C408.87 267.993 410.411 269.425 411.544 271.161C410.411 272.897 408.87 274.328 407.054 275.329C399.556 279.699 387.403 279.699 379.905 275.329C378.089 274.328 376.547 272.897 375.415 271.161C376.547 269.425 378.089 267.993 379.905 266.993Z" fill="#FAFAFA"/>
<path d="M394.505 265.632C395.501 265.808 396.505 265.934 397.513 266.009C401.267 266.174 405.876 264.307 410.007 262.476C412.767 261.271 416.447 259.633 418.167 256.809C419.032 255.42 419.363 253.497 418.554 252.209C417.744 250.921 415.72 250.452 415.334 248.796C418.223 246.873 421.93 246.772 424.396 244.196C426.163 242.176 427.332 239.704 427.772 237.056C428.113 235.483 428.113 233.33 427.285 232.107C426.3 230.662 424.304 230.782 422.593 230.966C422.151 231.044 421.698 231.019 421.268 230.892C421.049 230.814 420.86 230.668 420.728 230.477C420.596 230.286 420.528 230.058 420.532 229.825C420.588 229.526 420.714 229.245 420.9 229.003C421.085 228.762 421.325 228.568 421.599 228.436C422.657 227.746 423.789 227.203 424.81 226.449C425.905 225.717 426.75 224.667 427.229 223.44C427.625 221.927 427.584 220.332 427.11 218.84C426.568 216.348 425.876 213.89 425.04 211.48C424.837 210.901 423.338 205.04 423.549 204.985C417.56 205.151 411.405 207.35 405.839 210.202C402.73 211.793 398.305 214.673 397.403 218.702C397.187 219.822 397.222 220.975 397.504 222.079C397.653 222.561 397.831 223.035 398.038 223.496C398.148 223.79 398.599 224.922 397.835 224.544C397.666 224.445 397.526 224.302 397.431 224.13L394.477 219.88C394.231 219.428 393.852 219.062 393.392 218.831C392.398 218.463 390.043 219.595 387.789 222.511C386.357 224.54 385.557 226.947 385.489 229.43C385.25 233.321 386.409 236.992 387.467 240.562L384.799 237.802C381.68 234.609 381.119 242.135 381.211 243.699C381.505 247.811 383.152 253.883 385.222 257.149C387.633 260.94 390.475 264.114 394.505 265.632Z" class="svg-primary-color"/>
<path opacity="0.3" d="M394.505 265.632C395.501 265.808 396.505 265.934 397.513 266.009C401.267 266.174 405.876 264.307 410.007 262.476C412.767 261.271 416.447 259.633 418.167 256.809C419.032 255.42 419.363 253.497 418.554 252.209C417.744 250.921 415.72 250.452 415.334 248.796C418.223 246.873 421.93 246.772 424.396 244.196C426.163 242.176 427.332 239.704 427.772 237.056C428.113 235.483 428.113 233.33 427.285 232.107C426.3 230.662 424.304 230.782 422.593 230.966C422.151 231.044 421.698 231.019 421.268 230.892C421.049 230.814 420.86 230.668 420.728 230.477C420.596 230.286 420.528 230.058 420.532 229.825C420.588 229.526 420.714 229.245 420.9 229.003C421.085 228.762 421.325 228.568 421.599 228.436C422.657 227.746 423.789 227.203 424.81 226.449C425.905 225.717 426.75 224.667 427.229 223.44C427.625 221.927 427.584 220.332 427.11 218.84C426.568 216.348 425.876 213.89 425.04 211.48C424.837 210.901 423.338 205.04 423.549 204.985C417.56 205.151 411.405 207.35 405.839 210.202C402.73 211.793 398.305 214.673 397.403 218.702C397.187 219.822 397.222 220.975 397.504 222.079C397.653 222.561 397.831 223.035 398.038 223.496C398.148 223.79 398.599 224.922 397.835 224.544C397.666 224.445 397.526 224.302 397.431 224.13L394.477 219.88C394.231 219.428 393.852 219.062 393.392 218.831C392.398 218.463 390.043 219.595 387.789 222.511C386.357 224.54 385.557 226.947 385.489 229.43C385.25 233.321 386.409 236.992 387.467 240.562L384.799 237.802C381.68 234.609 381.119 242.135 381.211 243.699C381.505 247.811 383.152 253.883 385.222 257.149C387.633 260.94 390.475 264.114 394.505 265.632Z" fill="white"/>
<path d="M398.755 245.447C397.726 239.403 395.37 233.662 391.855 228.638L391.782 228.519C391.716 228.408 391.693 228.277 391.717 228.15C391.741 228.023 391.809 227.909 391.911 227.829C391.954 227.788 392.005 227.758 392.061 227.739C392.118 227.721 392.177 227.715 392.236 227.722C392.295 227.729 392.351 227.749 392.402 227.78C392.452 227.811 392.495 227.853 392.527 227.902L392.601 228.013C395.878 232.747 398.174 238.09 399.353 243.726C404.542 229.006 413.071 214.075 418.02 209.429C418.063 209.382 418.114 209.344 418.172 209.318C418.23 209.292 418.293 209.279 418.356 209.279C418.419 209.279 418.482 209.292 418.54 209.318C418.598 209.344 418.65 209.382 418.692 209.429C418.766 209.544 418.797 209.682 418.78 209.818C418.763 209.954 418.699 210.08 418.6 210.174C413.715 214.774 405.297 229.494 400.2 244.021C408.829 237.296 417.487 238.013 417.579 238.022C417.639 238.031 417.697 238.052 417.748 238.084C417.8 238.116 417.845 238.159 417.879 238.209C417.914 238.259 417.938 238.316 417.949 238.375C417.961 238.435 417.96 238.497 417.947 238.556C417.93 238.643 417.894 238.726 417.842 238.797C417.789 238.869 417.721 238.928 417.643 238.97C417.571 238.989 417.495 238.989 417.422 238.97C417.339 238.97 408.305 238.206 399.639 245.603C397.339 252.476 395.839 259.21 395.885 264.666C395.886 264.765 395.861 264.864 395.815 264.952C395.768 265.04 395.701 265.116 395.618 265.172C395.556 265.21 395.488 265.235 395.416 265.245C395.352 265.251 395.287 265.242 395.226 265.22C395.166 265.198 395.111 265.163 395.065 265.118C395.02 265.072 394.984 265.017 394.962 264.956C394.94 264.896 394.932 264.831 394.937 264.767C394.882 259.293 396.409 252.448 398.755 245.447Z" fill="white"/>
<path d="M394.79 272.983C394.524 273.111 392.417 273.59 392.122 273.645C388.774 274.215 384.606 273.249 380.852 272.247C378.378 271.593 375.047 270.692 373.391 268.567C372.951 268.073 372.668 267.459 372.577 266.804C372.487 266.148 372.594 265.481 372.885 264.887C373.612 263.672 375.351 263.129 375.645 261.731C373.005 260.516 369.684 260.875 367.365 259.063C365.734 257.658 364.593 255.769 364.108 253.672C363.673 252.325 363.772 250.863 364.384 249.587C365.203 248.299 366.997 248.17 368.524 248.115C368.931 248.121 369.334 248.046 369.711 247.894C369.892 247.817 370.047 247.689 370.156 247.526C370.266 247.363 370.325 247.171 370.328 246.974C370.282 246.487 369.785 246.174 369.334 245.971C368.359 245.539 367.338 245.235 366.39 244.748C365.419 244.298 364.625 243.537 364.136 242.586C363.754 241.373 363.754 240.072 364.136 238.86C364.536 236.749 365.068 234.666 365.728 232.622C365.893 232.134 367.034 227.157 366.841 227.176C372.186 226.605 377.752 227.663 382.821 229.319C385.646 230.239 389.694 232.079 390.632 235.235C390.864 236.14 390.864 237.089 390.632 237.995C390.519 238.409 390.377 238.815 390.209 239.209C390.126 239.458 389.758 240.433 390.43 240.037C390.573 239.938 390.69 239.806 390.77 239.651L393.263 235.814C393.475 235.412 393.793 235.074 394.183 234.839C395.057 234.416 397.201 235.06 399.308 237.158C400.65 238.631 401.457 240.514 401.598 242.503C401.939 245.622 401.065 248.741 400.2 251.767L402.491 249.228C405.168 246.266 405.941 252.31 405.895 253.598C405.674 257.574 404.607 261.457 402.767 264.988C400.761 268.364 398.36 271.281 394.79 272.983Z" class="svg-primary-color"/>
<path opacity="0.5" d="M394.79 272.983C394.524 273.111 392.417 273.59 392.122 273.645C388.774 274.215 384.606 273.249 380.852 272.247C378.378 271.593 375.047 270.692 373.391 268.567C372.951 268.073 372.668 267.459 372.577 266.804C372.487 266.148 372.594 265.481 372.885 264.887C373.612 263.672 375.351 263.129 375.645 261.731C373.005 260.516 369.684 260.875 367.365 259.063C365.734 257.658 364.593 255.769 364.108 253.672C363.673 252.325 363.772 250.863 364.384 249.587C365.203 248.299 366.997 248.17 368.524 248.115C368.931 248.121 369.334 248.046 369.711 247.894C369.892 247.817 370.047 247.689 370.156 247.526C370.266 247.363 370.325 247.171 370.328 246.974C370.282 246.487 369.785 246.174 369.334 245.971C368.359 245.539 367.338 245.235 366.39 244.748C365.419 244.298 364.625 243.537 364.136 242.586C363.754 241.373 363.754 240.072 364.136 238.86C364.536 236.749 365.068 234.666 365.728 232.622C365.893 232.134 367.034 227.157 366.841 227.176C372.186 226.605 377.752 227.663 382.821 229.319C385.646 230.239 389.694 232.079 390.632 235.235C390.864 236.14 390.864 237.089 390.632 237.995C390.519 238.409 390.377 238.815 390.209 239.209C390.126 239.458 389.758 240.433 390.43 240.037C390.573 239.938 390.69 239.806 390.77 239.651L393.263 235.814C393.475 235.412 393.793 235.074 394.183 234.839C395.057 234.416 397.201 235.06 399.308 237.158C400.65 238.631 401.457 240.514 401.598 242.503C401.939 245.622 401.065 248.741 400.2 251.767L402.491 249.228C405.168 246.266 405.941 252.31 405.895 253.598C405.674 257.574 404.607 261.457 402.767 264.988C400.761 268.364 398.36 271.281 394.79 272.983Z" fill="white"/>
<path d="M390.319 257.094C391.096 251.922 393.002 246.984 395.904 242.632L395.968 242.53C396.022 242.439 396.038 242.329 396.012 242.226C395.986 242.123 395.921 242.034 395.83 241.978C395.785 241.952 395.736 241.934 395.684 241.927C395.633 241.919 395.58 241.922 395.53 241.935C395.48 241.948 395.432 241.97 395.39 242.001C395.349 242.033 395.314 242.072 395.287 242.116L395.223 242.218C392.501 246.32 390.625 250.924 389.703 255.76C384.569 244.435 376.455 233.303 371.892 230.12C371.846 230.078 371.793 230.046 371.735 230.027C371.676 230.008 371.615 230.001 371.553 230.007C371.492 230.014 371.433 230.033 371.38 230.064C371.327 230.095 371.281 230.137 371.246 230.187C371.21 230.237 371.186 230.294 371.174 230.354C371.162 230.415 371.163 230.477 371.177 230.537C371.191 230.596 371.218 230.652 371.256 230.701C371.293 230.75 371.341 230.79 371.395 230.819C375.903 233.965 383.916 244.959 388.958 256.137C384.181 253.47 378.65 252.476 373.244 253.313C373.156 253.332 373.077 253.381 373.021 253.451C372.964 253.522 372.933 253.609 372.933 253.699C372.933 253.789 372.964 253.877 373.021 253.947C373.077 254.017 373.156 254.066 373.244 254.086C373.308 254.1 373.374 254.1 373.437 254.086C379.021 253.218 384.731 254.383 389.528 257.37C391.819 262.688 393.383 267.978 393.521 272.412C393.525 272.492 393.552 272.57 393.597 272.637C393.642 272.703 393.705 272.756 393.778 272.789C393.839 272.803 393.902 272.803 393.962 272.789C394.019 272.788 394.074 272.776 394.126 272.753C394.177 272.73 394.224 272.697 394.262 272.656C394.301 272.614 394.331 272.566 394.35 272.513C394.37 272.46 394.379 272.404 394.376 272.348C394.238 267.876 392.647 262.504 390.319 257.094Z" fill="white"/>
<path d="M222.042 335.073L213.118 260.608L205.823 260.24L218.362 335.064C218.393 335.201 218.453 335.33 218.537 335.442C218.621 335.555 218.727 335.648 218.85 335.717C219.243 335.941 219.684 336.07 220.136 336.092C220.588 336.114 221.04 336.03 221.453 335.846C221.61 335.782 221.747 335.676 221.847 335.54C221.948 335.404 222.009 335.242 222.024 335.073H222.042Z" fill="#263238"/>
<path d="M213.118 260.608L205.823 260.24L207.966 274.362C209.46 273.821 210.906 273.156 212.29 272.375C213.076 272.022 213.744 271.451 214.213 270.728L213.118 260.608Z" fill="#263238"/>
<path d="M116.224 249.688H108.919L98.293 320.004C98.2994 320.173 98.3526 320.338 98.4468 320.479C98.541 320.62 98.6724 320.733 98.8266 320.804C99.2303 321.008 99.6762 321.114 100.128 321.114C100.581 321.114 101.026 321.008 101.43 320.804C101.556 320.743 101.668 320.656 101.757 320.548C101.846 320.44 101.91 320.314 101.945 320.178L116.224 249.688Z" fill="#37474F"/>
<path d="M108.919 249.688L105.957 269.312C107.688 270.664 109.568 271.815 111.559 272.743L116.224 249.688H108.919Z" fill="#263238"/>
<path d="M173.254 360.033L166.391 284.28L159.105 283.912L169.584 359.987C169.615 360.124 169.674 360.253 169.758 360.365C169.842 360.478 169.949 360.571 170.071 360.64C170.463 360.864 170.902 360.992 171.353 361.015C171.804 361.037 172.253 360.953 172.666 360.769C172.823 360.705 172.959 360.599 173.06 360.463C173.16 360.326 173.221 360.165 173.236 359.996L173.254 360.033Z" fill="#37474F"/>
<path d="M167.293 295.219L166.373 284.317L159.086 283.949L160.568 295.706C162.205 296.24 165.168 295.9 167.293 295.219Z" fill="#263238"/>
<path d="M156.069 226.522H148.764L138.147 296.838C138.153 297.007 138.205 297.171 138.297 297.312C138.39 297.453 138.519 297.566 138.672 297.638C139.075 297.842 139.521 297.948 139.973 297.948C140.426 297.948 140.872 297.842 141.275 297.638C141.4 297.576 141.511 297.488 141.599 297.381C141.688 297.273 141.753 297.147 141.79 297.013L156.069 226.522Z" fill="#263238"/>
<path d="M95.2017 169.05C93.5523 173.139 92.5677 177.466 92.2853 181.866C91.4573 191.691 94.7785 223.505 96.7749 237.737C99.6637 261.51 103.215 261.556 108.358 265.53C117.217 272.375 142.701 285.77 151.11 289.11C166.364 295.108 178.839 285.853 188.131 281.262C196.654 276.952 204.882 272.081 212.759 266.68C215.078 264.988 216.283 263.276 216.255 261.482C216.255 260.765 216.255 257.848 216.255 257.094C216.255 254.794 214.231 252.338 209.962 249.568C202.087 244.462 173.613 227.856 162.582 221.738C162.577 221.717 162.566 221.698 162.549 221.683C162.533 221.668 162.512 221.659 162.49 221.656C153.999 216.504 148.893 181.47 143.014 162.831C142.894 162.435 142.766 162.049 142.637 161.672C142.508 161.294 142.425 161.092 142.333 160.807C141.956 159.795 141.579 158.866 141.174 158.047" class="svg-primary-color"/>
<path d="M216.265 257.085C216.265 254.785 214.241 252.328 209.972 249.559C202.097 244.453 173.623 227.847 162.592 221.729C162.586 221.708 162.575 221.688 162.558 221.674C162.542 221.659 162.522 221.649 162.5 221.646C154.008 216.494 148.902 181.461 143.023 162.822C142.673 161.657 142.261 160.512 141.791 159.39C141.791 159.307 141.717 159.224 141.689 159.142L141.349 158.387L141.183 158.01C140.256 155.885 138.925 153.961 137.264 152.343C136.687 151.808 136.04 151.353 135.341 150.99C134.421 150.448 132.379 149.334 131.873 149.04C126.114 145.59 118.542 149.73 109.121 154.891C103.261 158.111 98.2561 161.929 95.2109 169.05C93.5615 173.139 92.5769 177.466 92.2945 181.866C91.4665 191.691 94.7877 223.505 96.7841 237.737C99.6729 261.51 103.224 261.556 108.367 265.53C117.227 272.375 142.711 285.77 151.119 289.11C166.373 295.108 178.848 285.853 188.14 281.262C196.663 276.952 204.891 272.081 212.769 266.68C215.087 264.988 216.292 263.276 216.265 261.482C216.255 260.756 216.265 257.839 216.265 257.085Z" class="svg-primary-color"/>
<path opacity="0.25" d="M216.265 257.085C216.265 254.785 214.241 252.328 209.972 249.559C202.097 244.453 173.623 227.847 162.592 221.729C162.586 221.708 162.575 221.688 162.558 221.674C162.542 221.659 162.522 221.649 162.5 221.646C154.008 216.494 148.902 181.461 143.023 162.822C142.673 161.657 142.261 160.512 141.791 159.39C141.791 159.307 141.717 159.224 141.689 159.142L141.349 158.387L141.183 158.01C140.256 155.885 138.925 153.961 137.264 152.343C136.687 151.808 136.04 151.353 135.341 150.99C134.421 150.448 132.379 149.334 131.873 149.04C126.114 145.59 118.542 149.73 109.121 154.891C103.261 158.111 98.2561 161.929 95.2109 169.05C93.5615 173.139 92.5769 177.466 92.2945 181.866C91.4665 191.691 94.7877 223.505 96.7841 237.737C99.6729 261.51 103.224 261.556 108.367 265.53C117.227 272.375 142.711 285.77 151.119 289.11C166.373 295.108 178.848 285.853 188.14 281.262C196.663 276.952 204.891 272.081 212.769 266.68C215.087 264.988 216.292 263.276 216.265 261.482C216.255 260.756 216.265 257.839 216.265 257.085Z" fill="white"/>
<path d="M188.131 276.837C196.653 272.521 204.88 267.647 212.759 262.246C218.04 258.41 217.553 254.481 209.999 249.559C199.475 242.733 156.557 218.38 156.557 218.38C156.557 218.38 102.277 250.396 104.641 256.312C107.005 262.228 140.521 280.517 151.129 284.676C166.373 290.72 178.839 281.428 188.131 276.837Z" class="svg-primary-color"/>
<path opacity="0.6" d="M188.131 276.837C196.653 272.521 204.88 267.647 212.759 262.246C218.04 258.41 217.553 254.481 209.999 249.559C199.475 242.733 156.557 218.38 156.557 218.38C156.557 218.38 102.277 250.396 104.641 256.312C107.005 262.228 140.521 280.517 151.129 284.676C166.373 290.72 178.839 281.428 188.131 276.837Z" fill="white"/>
<path d="M135.332 150.99C129.619 147.991 122.194 152.067 113.013 157.099C107.134 160.319 102.12 164.137 99.0841 171.286L95.2017 169.05C98.2469 161.929 103.252 158.111 109.112 154.891C118.533 149.73 126.104 145.59 131.864 149.04C132.37 149.334 134.375 150.448 135.332 150.99Z" class="svg-primary-color"/>
<path opacity="0.5" d="M135.332 150.99C129.619 147.991 122.194 152.067 113.013 157.099C107.134 160.319 102.12 164.137 99.0841 171.286L95.2017 169.05C98.2469 161.929 103.252 158.111 109.112 154.891C118.533 149.73 126.104 145.59 131.864 149.04C132.37 149.334 134.375 150.448 135.332 150.99Z" fill="white"/>
<path d="M143.023 162.84C142.904 162.444 140.935 155.609 137.255 152.361C135.541 150.816 133.316 149.96 131.008 149.96C126.022 149.96 120.032 153.263 113.013 157.099C112.433 157.421 111.854 157.752 111.283 158.093C111.062 158.212 110.842 158.341 110.63 158.479C110.418 158.617 110.106 158.801 109.848 158.967C109.59 159.132 109.471 159.206 109.287 159.335C108.048 160.151 106.865 161.048 105.745 162.021C105.57 162.178 105.395 162.334 105.22 162.509C104.511 163.161 103.841 163.855 103.215 164.588C103.095 164.717 102.985 164.855 102.874 164.984C102.764 165.112 102.598 165.315 102.479 165.48L102.092 165.996C101.964 166.161 101.844 166.327 101.715 166.511C101.211 167.235 100.744 167.984 100.317 168.756C100.262 168.857 100.197 168.958 100.151 169.059C100.105 169.16 99.9304 169.473 99.82 169.694C99.7096 169.915 99.5164 170.32 99.3692 170.614C97.5424 174.875 96.4655 179.419 96.186 184.046C94.8244 200.192 100.354 253.543 105.901 258.143C105.901 258.143 105.055 252.917 116.214 245.898C123.804 241.123 129.094 237.112 137.236 233.137C156.97 223.44 162.5 221.628 162.5 221.628C154.008 216.494 148.902 181.461 143.023 162.84Z" class="svg-primary-color"/>
<path opacity="0.4" d="M143.023 162.84C142.904 162.444 140.935 155.609 137.255 152.361C135.541 150.816 133.316 149.96 131.008 149.96C126.022 149.96 120.032 153.263 113.013 157.099C112.433 157.421 111.854 157.752 111.283 158.093C111.062 158.212 110.842 158.341 110.63 158.479C110.418 158.617 110.106 158.801 109.848 158.967C109.59 159.132 109.471 159.206 109.287 159.335C108.048 160.151 106.865 161.048 105.745 162.021C105.57 162.178 105.395 162.334 105.22 162.509C104.511 163.161 103.841 163.855 103.215 164.588C103.095 164.717 102.985 164.855 102.874 164.984C102.764 165.112 102.598 165.315 102.479 165.48L102.092 165.996C101.964 166.161 101.844 166.327 101.715 166.511C101.211 167.235 100.744 167.984 100.317 168.756C100.262 168.857 100.197 168.958 100.151 169.059C100.105 169.16 99.9304 169.473 99.82 169.694C99.7096 169.915 99.5164 170.32 99.3692 170.614C97.5424 174.875 96.4655 179.419 96.186 184.046C94.8244 200.192 100.354 253.543 105.901 258.143C105.901 258.143 105.055 252.917 116.214 245.898C123.804 241.123 129.094 237.112 137.236 233.137C156.97 223.44 162.5 221.628 162.5 221.628C154.008 216.494 148.902 181.461 143.023 162.84Z" fill="white"/>
<path opacity="0.1" d="M216.255 261.473C216.255 263.313 215.078 264.978 212.759 266.671C204.884 272.07 196.659 276.941 188.14 281.253C183.301 283.645 177.606 287.288 171.111 289.386C155.544 280.269 128.644 264.307 122.038 259.026C118.325 255.936 115.687 251.749 114.503 247.066C113.209 241.579 112.78 235.923 113.234 230.304C107.631 228.151 106.729 221.84 105.956 213.974C103.905 193.2 103.794 167.725 109.287 159.362C109.471 159.234 109.655 159.105 109.848 158.985L110.63 158.507C110.842 158.369 111.053 158.24 111.274 158.12C111.844 157.777 112.424 157.446 113.013 157.127C120.032 153.263 126.04 149.96 131.008 149.96C133.136 149.96 135.201 150.68 136.868 152.002L137.246 152.324C138.536 153.54 139.612 154.965 140.429 156.538C140.558 156.768 140.677 157.007 140.797 157.237C140.827 157.287 140.851 157.339 140.87 157.394C140.981 157.596 141.073 157.798 141.174 158.001L141.284 158.231L141.349 158.369L141.514 158.755C141.717 159.215 141.901 159.675 142.057 160.052L142.177 160.328C142.296 160.66 142.407 160.954 142.499 161.248L142.591 161.497L142.674 161.745C142.674 161.81 142.674 161.883 142.747 161.948L142.812 162.15L142.885 162.389C142.885 162.454 142.885 162.509 142.931 162.555C142.967 162.642 142.998 162.731 143.023 162.822C148.902 181.47 154.008 216.504 162.5 221.646C162.523 221.652 162.545 221.664 162.562 221.683C162.578 221.701 162.588 221.723 162.592 221.748C173.632 227.856 202.096 244.453 209.972 249.568C214.24 252.328 216.255 254.803 216.264 257.094C216.264 257.839 216.246 260.756 216.255 261.473Z" fill="black"/>
<path d="M198.38 317.133L199.217 342.893C199.217 342.893 196.669 348.358 190.679 348.809C184.69 349.26 183.733 343.243 183.733 343.243L178.213 315.44L198.38 317.133Z" fill="#FFA8A7"/>
<path d="M182.648 354.402C182.501 355.222 182.571 356.065 182.85 356.85C183.31 357.963 186.429 360.014 188.03 360.833C189.631 361.652 190.863 362.903 192.262 365.35C194.175 368.708 197.064 372.324 200.726 374.063C205.632 376.249 211.086 376.89 216.366 375.903C222.944 374.817 223.533 370.953 223.533 370.953C223.533 370.953 223.928 367.319 222.309 366.721C220.69 366.123 182.648 354.402 182.648 354.402Z" fill="#263238"/>
<path d="M181.81 349.904C181.757 351.446 182.043 352.982 182.648 354.402C184.543 357.107 189.088 358.082 191.682 361.762C194.276 365.442 197.322 371.137 205.896 372.968C214.47 374.799 221.03 372.158 222.649 369.73C224.268 367.301 222.852 364.982 217.387 361.928C211.582 358.69 204.755 350.17 204.755 350.161C202.51 347.245 201.554 343.399 200.321 339.986C200.192 339.646 199.999 339.259 199.649 339.25C199.3 339.241 199.024 339.756 198.803 340.115C198.393 340.645 197.804 341.008 197.147 341.136C196.402 341.392 195.643 341.607 194.874 341.78C193.337 342.123 191.767 342.293 190.192 342.286C189.933 342.247 189.669 342.262 189.416 342.328C189.163 342.395 188.926 342.512 188.72 342.672C188.584 342.858 188.488 343.07 188.437 343.295C188.386 343.52 188.382 343.752 188.425 343.979C188.462 344.559 188.536 345.137 188.646 345.708C188.715 345.986 188.715 346.277 188.646 346.555C188.566 346.749 188.429 346.914 188.254 347.029C188.078 347.144 187.872 347.203 187.662 347.199C187.242 347.183 186.835 347.053 186.484 346.822C185.79 346.475 185.182 345.979 184.704 345.367C184.227 344.756 183.892 344.046 183.724 343.289C183.724 343.289 183.402 341.688 183.402 341.614C183.171 341.745 182.97 341.922 182.812 342.134C182.654 342.346 182.541 342.589 182.482 342.847C182.316 343.51 182.372 344.218 182.261 344.89C181.992 346.548 181.842 348.224 181.81 349.904Z" class="svg-primary-color"/>
<path opacity="0.3" d="M181.81 349.904C181.757 351.446 182.043 352.982 182.648 354.402C184.543 357.107 189.088 358.082 191.682 361.762C194.276 365.442 197.322 371.137 205.896 372.968C214.47 374.799 221.03 372.158 222.649 369.73C224.268 367.301 222.852 364.982 217.387 361.928C211.582 358.69 204.755 350.17 204.755 350.161C202.51 347.245 201.554 343.399 200.321 339.986C200.192 339.646 199.999 339.259 199.649 339.25C199.3 339.241 199.024 339.756 198.803 340.115C198.393 340.645 197.804 341.008 197.147 341.136C196.402 341.392 195.643 341.607 194.874 341.78C193.337 342.123 191.767 342.293 190.192 342.286C189.933 342.247 189.669 342.262 189.416 342.328C189.163 342.395 188.926 342.512 188.72 342.672C188.584 342.858 188.488 343.07 188.437 343.295C188.386 343.52 188.382 343.752 188.425 343.979C188.462 344.559 188.536 345.137 188.646 345.708C188.715 345.986 188.715 346.277 188.646 346.555C188.566 346.749 188.429 346.914 188.254 347.029C188.078 347.144 187.872 347.203 187.662 347.199C187.242 347.183 186.835 347.053 186.484 346.822C185.79 346.475 185.182 345.979 184.704 345.367C184.227 344.756 183.892 344.046 183.724 343.289L183.402 341.614C183.171 341.745 182.97 341.922 182.812 342.134C182.654 342.346 182.541 342.589 182.482 342.847C182.316 343.51 182.372 344.218 182.261 344.89C181.992 346.548 181.842 348.224 181.81 349.904Z" fill="black"/>
<path d="M235.272 294.299L239.108 330.464C239.108 330.464 233.873 335.772 229.531 335.165C228.363 335.071 227.242 334.659 226.291 333.975C225.339 333.291 224.592 332.36 224.131 331.283L213.44 296.59L235.272 294.299Z" fill="#FFA8A7"/>
<path d="M224.14 341.495C224.089 342.325 224.25 343.155 224.609 343.905C225.189 344.963 228.51 346.665 230.193 347.309C231.877 347.953 233.239 349.057 234.885 351.339C237.149 354.476 240.405 357.779 244.242 359.094C249.363 360.738 254.862 360.786 260.011 359.232C266.451 357.392 266.598 353.538 266.598 353.538C266.598 353.538 266.598 349.858 264.923 349.462C263.249 349.066 224.14 341.495 224.14 341.495Z" fill="#263238"/>
<path d="M222.833 337.116C222.943 338.653 223.389 340.148 224.14 341.495C226.32 343.979 230.948 344.43 233.919 347.824C236.891 351.219 240.543 356.537 249.265 357.429C257.987 358.322 264.215 354.982 265.567 352.397C266.92 349.812 265.264 347.659 259.495 345.212C253.377 342.617 245.695 334.88 245.695 334.88C243.147 332.212 241.785 328.504 240.175 325.229C240.019 324.916 239.78 324.548 239.43 324.576C239.081 324.604 238.869 325.146 238.685 325.496C238.333 326.065 237.787 326.486 237.149 326.683C236.438 327.034 235.707 327.341 234.959 327.603C233.47 328.118 231.926 328.458 230.359 328.615C230.097 328.604 229.835 328.646 229.59 328.739C229.345 328.833 229.121 328.975 228.933 329.158C228.82 329.359 228.748 329.58 228.721 329.809C228.695 330.038 228.713 330.27 228.777 330.492C228.878 331.064 229.016 331.63 229.191 332.184C229.298 332.45 229.339 332.737 229.31 333.022C229.25 333.225 229.13 333.406 228.966 333.54C228.802 333.675 228.601 333.757 228.39 333.776C227.969 333.804 227.549 333.715 227.176 333.518C225.676 332.838 224.361 331.973 223.873 330.381C223.873 330.381 223.625 329.544 223.367 328.771C223.184 328.92 223.037 329.108 222.937 329.322C222.836 329.535 222.785 329.768 222.787 330.004C222.695 330.676 222.787 331.375 222.787 332.056C222.674 333.741 222.689 335.432 222.833 337.116Z" class="svg-primary-color"/>
<path opacity="0.3" d="M222.833 337.116C222.943 338.653 223.389 340.148 224.14 341.495C226.32 343.979 230.948 344.43 233.919 347.824C236.891 351.219 240.543 356.537 249.265 357.429C257.987 358.322 264.215 354.982 265.567 352.397C266.92 349.812 265.264 347.659 259.495 345.212C253.377 342.617 245.695 334.88 245.695 334.88C243.147 332.212 241.785 328.504 240.175 325.229C240.019 324.916 239.78 324.548 239.43 324.576C239.081 324.604 238.869 325.146 238.685 325.496C238.333 326.065 237.787 326.486 237.149 326.683C236.438 327.034 235.707 327.341 234.959 327.603C233.47 328.118 231.926 328.458 230.359 328.615C230.097 328.604 229.835 328.646 229.59 328.739C229.345 328.833 229.121 328.975 228.933 329.158C228.82 329.359 228.748 329.58 228.721 329.809C228.695 330.038 228.713 330.27 228.777 330.492C228.878 331.064 229.016 331.63 229.191 332.184C229.298 332.45 229.339 332.737 229.31 333.022C229.25 333.225 229.13 333.406 228.966 333.54C228.802 333.675 228.601 333.757 228.39 333.776C227.969 333.804 227.549 333.715 227.176 333.518C225.676 332.838 224.361 331.973 223.873 330.381C223.873 330.381 223.625 329.544 223.367 328.771C223.184 328.92 223.037 329.108 222.937 329.322C222.836 329.535 222.785 329.768 222.787 330.004C222.695 330.676 222.787 331.375 222.787 332.056C222.674 333.741 222.689 335.432 222.833 337.116Z" fill="black"/>
<path d="M117.107 220.8L138.212 218.482L179.087 220.69C179.087 220.69 203.633 236.385 221.453 248.915C226.633 252.595 232.116 256.551 233.027 264.178C234.315 275.006 237.802 313.416 237.802 313.416C234.232 317.363 225.115 318.936 219.521 317.897C217.81 313.462 213.633 299.8 211.646 293.71C209.651 287.25 208.238 280.624 207.423 273.912L181.433 257.6C187.156 263.424 189.033 265.319 192.032 268.346C194.663 271.004 196.402 274.353 197.175 282.964C198.711 300.04 198.821 323.444 199.015 328.679C196.862 331.688 188.149 335.653 181.249 332.184C178.894 323.04 177.836 318.568 175.794 310.049C171.856 293.581 173.264 288.089 172.482 284.528C162.968 279.73 153.735 274.394 144.827 268.548C138.69 264.518 130.107 260.13 125.773 255.594C117.641 247.13 117.65 234.756 117.107 220.8Z" fill="#37474F"/>
<path d="M181.433 257.6L166.713 240.939C166.713 240.939 174.543 238.298 178.673 228.142C178.673 228.142 177.753 237.774 171.985 242.006L178.857 251.316L207.377 273.893L181.433 257.6Z" fill="#263238"/>
<path d="M198.637 369.84C198.895 365.718 202.317 361.422 208.84 360.033C215.363 358.644 218.739 361.505 220.276 362.636C221.812 363.768 226.108 367.687 222.116 370.981C218.123 374.274 213.366 374.523 208.398 373.851C203.43 373.179 200.008 371.45 198.637 369.84Z" fill="#FAFAFA"/>
<path d="M241.675 355.12C241.62 350.989 245.015 345.561 251.39 343.694C257.766 341.826 261.087 344.761 262.697 345.773C264.307 346.785 268.898 350.373 265.19 353.961C261.483 357.549 256.726 358.101 251.703 358.174C248.336 358.184 243.156 356.601 241.675 355.12Z" fill="#FAFAFA"/>
<path d="M179.4 147.78C175.462 143.87 170.043 140.328 166.52 139.914C163.572 139.511 160.58 139.545 157.642 140.015L171.285 170.375C171.285 170.375 190.44 185.84 199.934 192.519L202.979 171.12C202.979 171.12 186.015 154.385 179.4 147.78Z" fill="#FFA8A7"/>
<path d="M173.199 141.919C168.783 138.681 164.294 138.34 157.219 139.159L168.949 169.712L182.988 179.676C182.988 179.676 182.896 176.152 185.518 171.267C187.516 167.507 190.749 164.551 194.672 162.895C194.672 162.895 177.615 145.167 173.199 141.919Z" class="svg-primary-color"/>
<path opacity="0.2" d="M173.199 141.919C168.783 138.681 164.294 138.34 157.219 139.159L168.949 169.712L182.988 179.676C182.988 179.676 182.896 176.152 185.518 171.267C187.516 167.507 190.749 164.551 194.672 162.895C194.672 162.895 177.615 145.167 173.199 141.919Z" fill="black"/>
<path d="M174.653 164.45C175.297 148.258 165.876 140.383 157.173 139.178C157.173 139.178 153.622 139.674 150.172 140.337C143.373 141.634 128.846 145.93 122.765 149.362C117.585 152.278 117.088 155.71 116.178 164.22C115.524 170.292 115.101 174.782 115.258 193.209C115.34 206.687 116.969 220.496 117.318 229.798C129.094 238.078 166.584 236.983 180.154 221.343C175.214 212.695 172.233 206.402 172.463 198.104C172.868 183.255 174.331 172.629 174.653 164.45Z" class="svg-primary-color"/>
<path d="M177.698 97.1244C177.698 97.0324 177.698 96.9404 177.652 96.8484C177.174 94.8336 174.892 97.0048 173.595 96.922C173.76 96.2044 174.515 95.7168 174.791 95.082C175.192 94.2069 175.458 93.2765 175.582 92.322C175.828 90.9134 175.778 89.4689 175.435 88.0808C174.285 88.504 173.236 89.1664 172.068 89.5804C170.184 90.2076 168.2 90.482 166.216 90.39C161.833 90.2442 157.462 89.8449 153.125 89.194C150.25 88.757 147.325 88.757 144.449 89.194C141.897 89.5965 139.479 90.6097 137.402 92.1472C134.642 94.4564 133.722 96.508 133.658 100.63C130.99 102.24 130.382 105.423 130.309 109.002C130.217 113.427 132.48 117.493 134.292 121.403C134.292 121.403 138.892 131.33 139.96 133.28C141.211 135.534 142.315 137.43 142.315 137.43L141.56 129.067C144.596 128.69 147.08 129.536 149.923 128.349C152.611 127.231 155.202 125.893 157.67 124.347C160.25 122.739 162.732 120.979 165.103 119.076C165.613 118.599 166.161 118.166 166.741 117.778C167.182 117.539 167.606 117.539 167.983 117.19C168.756 116.463 168.995 115.101 169.39 114.163C169.585 113.455 169.841 112.766 170.154 112.102C170.504 111.578 171.221 111.357 171.764 111.035C173.417 110.095 174.67 108.583 175.288 106.784C175.738 105.515 175.987 103.371 175.104 102.184C176.125 100.685 177.974 99.1024 177.698 97.1244Z" fill="#455A64"/>
<path d="M147.927 103.334C148.019 105.947 146.657 111.78 142.527 113.96C143.116 116.37 143.21 118.874 142.803 121.32C142.724 121.968 142.517 122.593 142.195 123.16C142.036 123.434 141.818 123.669 141.557 123.849C141.296 124.028 140.999 124.148 140.687 124.2C139.831 124.292 139.463 123.786 139.178 123.133C138.77 122.29 138.306 121.475 137.789 120.695C137.565 120.356 137.299 120.047 136.997 119.775C135.663 118.625 131.772 117.3 130.143 121.449C128.46 125.746 132.388 130.281 135.516 130.99C139.675 131.91 140.806 128.947 140.806 128.947L138.607 146.427C140.263 150.843 149.427 156.943 156.087 155.839C162.748 154.735 159.252 149.215 156.906 146.096L158.148 140.576C158.148 140.576 164.128 141.036 167.643 140.226C170.403 139.582 172.565 136.914 173.558 132.664C175.398 124.559 174.662 113.188 173.457 108.183C172.252 103.178 171.065 102.378 170.127 101.246C169.832 102.727 168.158 104.54 163.742 105.46C157.412 106.72 152.085 104.88 147.927 103.334Z" fill="#FFA8A7"/>
<path d="M158.111 140.512C153.226 139.748 148.911 138.672 146.271 137.006C144.321 135.801 142.775 132.351 142.324 131.137C142.324 131.137 142.168 135.737 144.725 138.405C148.35 142.241 157.55 143.005 157.55 143.005L158.111 140.512Z" fill="#F28F8F"/>
<path d="M154.56 111.909L150.245 113.96C149.981 113.369 149.956 112.699 150.176 112.09C150.395 111.481 150.842 110.981 151.423 110.694C151.707 110.56 152.016 110.484 152.331 110.473C152.645 110.461 152.959 110.514 153.253 110.628C153.546 110.741 153.813 110.913 154.038 111.134C154.263 111.354 154.441 111.618 154.56 111.909Z" fill="#455A64"/>
<path d="M155.14 128.8L161.267 131.063C161.136 131.475 160.924 131.857 160.643 132.185C160.361 132.513 160.016 132.781 159.629 132.972C159.241 133.164 158.819 133.275 158.388 133.3C157.956 133.324 157.524 133.261 157.118 133.115C156.294 132.791 155.628 132.161 155.259 131.356C154.89 130.552 154.847 129.635 155.14 128.8Z" fill="#B16668"/>
<path d="M158.774 133.225C158.738 132.463 158.403 131.746 157.841 131.229C157.28 130.712 156.537 130.438 155.775 130.465C155.524 130.478 155.276 130.524 155.039 130.603C155.147 131.158 155.395 131.676 155.759 132.109C156.122 132.542 156.59 132.875 157.118 133.078C157.646 133.277 158.219 133.327 158.774 133.225Z" fill="#F28F8F"/>
<path d="M171.415 113.519L167.321 111.246C167.461 110.978 167.655 110.74 167.889 110.548C168.123 110.355 168.394 110.212 168.685 110.126C168.976 110.04 169.281 110.014 169.583 110.048C169.884 110.082 170.175 110.177 170.439 110.326C170.989 110.623 171.4 111.125 171.583 111.722C171.765 112.32 171.705 112.966 171.415 113.519Z" fill="#455A64"/>
<path d="M161.193 127.429L167.615 125.322L160.356 113.519L161.193 127.429Z" fill="#F28F8F"/>
<path d="M166.787 117.162C166.787 117.526 166.895 117.882 167.097 118.184C167.299 118.487 167.587 118.723 167.923 118.862C168.259 119.001 168.629 119.038 168.986 118.967C169.343 118.896 169.671 118.72 169.928 118.463C170.185 118.206 170.361 117.878 170.432 117.521C170.503 117.164 170.466 116.794 170.327 116.458C170.188 116.122 169.952 115.834 169.649 115.632C169.347 115.43 168.991 115.322 168.627 115.322C168.139 115.322 167.671 115.516 167.326 115.861C166.981 116.206 166.787 116.674 166.787 117.162Z" fill="#263238"/>
<path d="M152.288 117.548C152.288 117.91 152.395 118.264 152.595 118.566C152.795 118.867 153.08 119.103 153.413 119.243C153.747 119.384 154.115 119.423 154.47 119.356C154.826 119.288 155.154 119.118 155.413 118.865C155.672 118.612 155.851 118.289 155.927 117.935C156.003 117.581 155.973 117.212 155.841 116.876C155.708 116.539 155.48 116.248 155.183 116.041C154.887 115.833 154.536 115.717 154.174 115.708C153.682 115.708 153.209 115.901 152.856 116.244C152.504 116.588 152.3 117.056 152.288 117.548Z" fill="#263238"/>
<path d="M203.394 316.462V411.222L200.229 409.391V314.631L203.394 316.462Z" fill="#263238"/>
<path d="M203.394 316.462V411.222L206.558 409.391V314.631L203.394 316.462Z" fill="#37474F"/>
<path d="M113.896 264.702V359.462L110.731 357.632V262.872L113.896 264.702Z" fill="#263238"/>
<path d="M113.896 264.702V359.462L117.061 357.632V262.872L113.896 264.702Z" fill="#37474F"/>
<path d="M356.721 227.939V322.699L353.556 320.868V226.118L356.721 227.939Z" fill="#263238"/>
<path d="M356.721 227.939V322.699L359.886 320.868V226.118L356.721 227.939Z" fill="#37474F"/>
<path d="M203.394 310.822V322.101L110.731 268.511V257.232L203.394 310.822Z" fill="#37474F"/>
<path d="M203.394 322.101L359.895 231.757V220.478L203.394 310.822V322.101Z" fill="#455A64"/>
<path d="M203.9 308.715L107.042 252.788L266.644 160.945L363.51 216.872L203.9 308.715Z" class="svg-primary-color"/>
<g opacity="0.8">
<path opacity="0.8" d="M203.9 308.715L107.042 252.788L266.644 160.945L363.51 216.872L203.9 308.715Z" fill="white"/>
</g>
<path d="M107.042 252.77V260.728L203.9 316.636V308.697L107.042 252.77Z" class="svg-primary-color"/>
<g opacity="0.5">
<path opacity="0.5" d="M107.042 252.77V260.728L203.9 316.636V308.697L107.042 252.77Z" fill="white"/>
</g>
<path d="M203.9 316.636L363.51 224.876V216.853L203.9 308.697V316.636Z" class="svg-primary-color"/>
<g opacity="0.65">
<path opacity="0.65" d="M203.9 316.636L363.51 224.876V216.853L203.9 308.697V316.636Z" fill="white"/>
</g>
<path d="M202.98 171.12C201.938 175.507 201.553 180.024 201.839 184.524C201.839 184.524 198.545 176.152 200.726 168.884L202.98 171.12Z" fill="#F28F8F"/>
<path d="M236.155 118.045C236.21 117.125 235.52 116.904 234.793 116.941C233.711 117.028 232.681 117.442 231.84 118.128C230.557 119.304 229.364 120.574 228.27 121.928C226.43 123.832 223.486 126.942 220.91 127.641C220.377 127.779 219.236 127.917 219.742 127.043C220.452 125.937 221.067 124.774 221.582 123.565C221.851 122.961 221.989 122.308 221.989 121.647C221.989 120.986 221.851 120.333 221.582 119.729C221.412 119.365 221.114 119.077 220.745 118.919C220.211 118.735 219.981 119.03 219.724 119.398C219.437 119.767 219.13 120.12 218.804 120.456C218.141 121.164 217.479 121.882 216.826 122.599C213.026 126.804 209.364 131.477 208.122 137.135C207.938 137.954 207.258 144.192 206.669 147.77C206.292 150.981 202.989 171.12 202.989 171.12L199.944 192.519C208.546 198.536 213.449 195.537 214.866 193.09C217.221 189.042 219.356 187.266 219.632 163.107C219.678 160.871 219.632 158.636 219.678 156.4C219.661 153.527 219.898 150.657 220.386 147.826C221.002 144.974 223.22 144.1 224.646 143.097C226.662 141.778 228.485 140.187 230.064 138.368C231.509 136.841 232.747 135.131 233.744 133.28C234.325 132.428 234.72 131.462 234.904 130.447C234.75 129.614 234.648 128.772 234.6 127.926C234.71 126.932 235.281 126.012 235.281 125.019C235.189 124.241 235 123.478 234.72 122.746C234.398 121.541 234.904 120.621 235.492 119.6C235.833 119.141 236.06 118.608 236.155 118.045Z" fill="#FFA8A7"/>
<path d="M218.758 130.907C218.611 134.173 216.715 138.423 215.299 139.932C216.735 138.886 217.871 137.481 218.592 135.856C219.54 133.28 219.282 132.038 218.758 130.907Z" fill="#F28F8F"/>
<path opacity="0.2" d="M274.804 229.871L234.968 206.871C234.619 206.672 234.225 206.567 233.823 206.567C233.421 206.567 233.026 206.672 232.677 206.871L163.558 246.79C163.481 246.834 163.418 246.898 163.374 246.975C163.33 247.052 163.307 247.139 163.307 247.227C163.307 247.315 163.33 247.402 163.374 247.479C163.418 247.556 163.481 247.619 163.558 247.664L203.771 270.894L274.804 229.871Z" fill="black"/>
<path d="M271.833 225.032V225.952C271.833 226.599 271.664 227.235 271.341 227.795C271.018 228.356 270.553 228.821 269.993 229.144L205.593 266.312C205.031 266.63 204.397 266.797 203.753 266.797C203.108 266.797 202.474 266.63 201.913 266.312L166.815 246.072C166.256 245.75 165.791 245.286 165.468 244.727C165.146 244.168 164.975 243.535 164.975 242.889V241.647C164.972 241.729 164.993 241.81 165.033 241.882C165.074 241.953 165.133 242.012 165.205 242.052L203.743 264.316L271.833 225.032Z" fill="#37474F"/>
<path d="M271.833 225.023L233.662 202.943C233.328 202.749 232.949 202.647 232.562 202.647C232.176 202.647 231.797 202.749 231.463 202.943L165.223 241.187C165.148 241.23 165.086 241.291 165.043 241.366C165 241.44 164.978 241.524 164.978 241.61C164.978 241.696 165 241.781 165.043 241.855C165.086 241.929 165.148 241.991 165.223 242.034L203.753 264.279L271.833 225.023Z" fill="#455A64"/>
<path d="M203.421 261.087L182.832 249.21L243.037 214.452L263.737 226.265L203.421 261.087Z" fill="#37474F"/>
<path d="M263.737 226.265L262.945 226.716L243.037 215.354L183.623 249.66L182.832 249.21L243.037 214.443L263.737 226.265Z" fill="#263238"/>
<path d="M193.302 228.049L193.679 228.27L203.771 234.094L221.72 223.735L222.088 223.523L211.619 217.469L193.302 228.049Z" fill="#263238"/>
<path d="M193.679 228.27L203.771 234.094L221.72 223.735L211.619 217.902L193.679 228.27Z" fill="#37474F"/>
<path d="M203.771 264.325V266.8C204.416 266.802 205.051 266.633 205.611 266.312L270.011 229.144C270.571 228.821 271.036 228.356 271.359 227.795C271.682 227.235 271.852 226.599 271.851 225.952V225.032L203.771 264.325Z" fill="#263238"/>
<path d="M169.28 236.928C169.28 236.928 170.2 237.397 171.645 237.976C172.969 238.492 174.147 239.54 177.293 240.562C181.029 241.767 185.849 240.479 189.106 240.35C192.363 240.221 197.874 241.822 200.882 243.11C203.891 244.398 207.58 239.78 209.089 240.35C210.597 240.92 213.247 239.752 210.505 236.955C207.764 234.158 203.799 230.285 200.431 229.108C199.662 228.796 198.872 228.538 198.067 228.335C199.242 228.198 200.407 227.983 201.554 227.691C202.709 227.36 203.742 226.698 204.525 225.786C204.82 225.409 205.041 224.811 204.673 224.498C204.536 224.389 204.369 224.324 204.194 224.314C201.655 224.204 199.668 223.781 197.359 223.578C196.332 223.408 195.285 223.408 194.258 223.578C193.338 223.818 192.363 224.084 191.425 224.388C187.202 225.777 181.516 225.685 178.333 225.621C177.027 225.621 173.963 225.087 173.963 225.087C173.19 225.014 172.408 226.21 170.973 229.282C168.655 234.131 169.28 236.928 169.28 236.928Z" fill="#FFA8A7"/>
<path d="M196.641 226.513C195.078 226.42 193.512 226.649 192.041 227.185C194.082 227.321 196.1 227.704 198.049 228.326C199.224 228.189 200.389 227.974 201.535 227.682C202.551 227.381 203.477 226.834 204.231 226.09C202.4 227.304 198.831 226.762 196.641 226.513Z" fill="#F28F8F"/>
<path d="M174.46 239.448C170.356 237.323 149.813 234.913 142.131 232.843C137.53 231.644 132.999 230.188 128.561 228.482C125.562 227.314 123.703 225.621 121.872 218.509C120.042 211.398 112.24 182.031 111.394 173.3C110.547 164.57 111.467 159.979 114.568 155.912C116.84 152.932 122.94 149.96 122.94 149.96C122.94 149.96 130.217 153.594 132.839 164.073C135.461 174.552 135.323 180.292 135.323 180.292L142.747 212.134L158.764 218.831C166.124 221.886 172.482 224.848 175.757 225.363C179.032 225.878 174.46 239.448 174.46 239.448Z" fill="#FFA8A7"/>
<path d="M123.188 149.15C116.656 152.352 113.307 155.287 111.495 160.512C109.683 165.738 110.658 173.218 111.918 179.832C113.179 186.447 116.104 198.6 116.104 198.6C116.104 198.6 119.453 199.576 128.239 197.34C137.025 195.104 138.571 191.903 138.571 191.903L135.985 178.848C135.985 178.848 136.068 154.183 123.188 149.15Z" class="svg-primary-color"/>
<path opacity="0.2" d="M123.188 149.15C116.656 152.352 113.307 155.287 111.495 160.512C109.683 165.738 110.658 173.218 111.918 179.832C113.179 186.447 116.104 198.6 116.104 198.6C116.104 198.6 119.453 199.576 128.239 197.34C137.025 195.104 138.571 191.903 138.571 191.903L135.985 178.848C135.985 178.848 136.068 154.183 123.188 149.15Z" fill="black"/>
<path d="M204.811 264.868C205.418 265.103 206.071 265.199 206.721 265.148C207.371 265.097 208 264.901 208.564 264.574L272.67 227.571C273.225 227.248 273.702 226.807 274.068 226.28C274.433 225.752 274.679 225.15 274.786 224.517L281.805 182.666C281.842 182.432 281.861 182.195 281.861 181.958C281.862 181.381 281.749 180.81 281.528 180.278C281.307 179.746 280.982 179.263 280.573 178.857L213.955 217.322C213.546 217.561 213.194 217.887 212.924 218.276C212.653 218.665 212.472 219.109 212.391 219.576L204.811 264.868Z" fill="#37474F"/>
<path d="M203.771 264.325L204.213 264.574C204.404 264.686 204.604 264.785 204.811 264.868L212.391 219.576C212.472 219.109 212.654 218.666 212.924 218.276C213.194 217.887 213.546 217.561 213.955 217.322L280.6 178.857C280.323 178.593 280.014 178.364 279.68 178.176L212.925 216.715C212.515 216.954 212.163 217.279 211.893 217.668C211.622 218.058 211.441 218.502 211.361 218.969L203.771 264.325Z" fill="#455A64"/>
<path d="M213.008 218.178L211.977 217.58C211.665 217.987 211.457 218.464 211.37 218.969L203.771 264.325L204.213 264.574C204.404 264.686 204.604 264.785 204.811 264.868L212.391 219.576C212.485 219.069 212.696 218.59 213.008 218.178Z" fill="#263238"/>
<path d="M240.911 226.237C241.38 223.477 244.269 219.714 247.351 217.957C250.433 216.2 252.586 216.991 252.117 219.797C251.648 222.603 248.75 226.32 245.677 228.077C242.604 229.834 240.442 229.08 240.911 226.237Z" class="svg-primary-color"/>
<path d="M54.4734 368.589C54.4734 360.557 66.047 354.044 80.3346 354.044C94.6222 354.044 106.196 360.557 106.196 368.589V370.493C106.196 378.525 94.6222 385.038 80.3346 385.038C66.047 385.038 54.4734 378.525 54.4734 370.493V368.589Z" class="svg-primary-color"/>
<path opacity="0.6" d="M54.4734 368.589C54.4734 360.557 66.047 354.044 80.3346 354.044C94.6222 354.044 106.196 360.557 106.196 368.589V370.493C106.196 378.525 94.6222 385.038 80.3346 385.038C66.047 385.038 54.4734 378.525 54.4734 370.493V368.589Z" fill="white"/>
<path opacity="0.1" d="M54.4734 368.589C54.4734 360.557 66.047 354.044 80.3346 354.044C94.6222 354.044 106.196 360.557 106.196 368.589V370.493C106.196 378.525 94.6222 385.038 80.3346 385.038C66.047 385.038 54.4734 378.525 54.4734 370.493V368.589Z" fill="black"/>
<path d="M54.4734 368.589C54.4734 376.62 66.047 383.125 80.3346 383.125C94.6222 383.125 106.196 376.62 106.196 368.589C106.196 360.557 94.6222 354.044 80.3346 354.044C66.047 354.044 54.4734 360.557 54.4734 368.589Z" class="svg-primary-color"/>
<path opacity="0.75" d="M54.4734 368.589C54.4734 376.62 66.047 383.125 80.3346 383.125C94.6222 383.125 106.196 376.62 106.196 368.589C106.196 360.557 94.6222 354.044 80.3346 354.044C66.047 354.044 54.4734 360.557 54.4734 368.589Z" fill="white"/>
<path opacity="0.05" d="M54.4734 368.589C54.4734 376.62 66.047 383.125 80.3346 383.125C94.6222 383.125 106.196 376.62 106.196 368.589C106.196 360.557 94.6222 354.044 80.3346 354.044C66.047 354.044 54.4734 360.557 54.4734 368.589Z" fill="black"/>
<path d="M104.346 326.692C104.48 326.693 104.609 326.647 104.71 326.561C104.812 326.474 104.878 326.354 104.898 326.223L108.266 301.548C108.276 301.476 108.272 301.403 108.254 301.333C108.236 301.262 108.204 301.196 108.161 301.138C108.117 301.08 108.063 301.031 108 300.994C107.938 300.957 107.868 300.933 107.796 300.923C107.652 300.904 107.505 300.943 107.388 301.03C107.272 301.118 107.194 301.248 107.171 301.392L103.804 326.057C103.782 326.202 103.818 326.35 103.904 326.468C103.99 326.587 104.119 326.667 104.264 326.692H104.346Z" fill="#FAFAFA"/>
<path d="M98.9094 332.451C99.0451 332.45 99.1755 332.398 99.2756 332.306C99.3757 332.215 99.4386 332.089 99.4522 331.954L102.773 300.168C102.779 300.029 102.731 299.892 102.64 299.786C102.549 299.681 102.421 299.613 102.282 299.598C102.143 299.583 102.003 299.621 101.891 299.705C101.779 299.788 101.703 299.911 101.679 300.049L98.3574 331.844C98.3419 331.989 98.3845 332.134 98.4758 332.248C98.5672 332.362 98.6999 332.435 98.845 332.451H98.9094Z" fill="#FAFAFA"/>
<path d="M92.1566 335.717C92.2968 335.717 92.4319 335.664 92.5344 335.569C92.637 335.473 92.6992 335.342 92.7086 335.202L95.1742 296.24C95.1817 296.093 95.1309 295.948 95.0328 295.838C94.9346 295.728 94.797 295.661 94.6498 295.651C94.5772 295.643 94.5038 295.651 94.4343 295.673C94.3648 295.696 94.3007 295.732 94.2461 295.781C94.1916 295.829 94.1478 295.889 94.1175 295.955C94.0872 296.021 94.0711 296.093 94.0702 296.166L91.6046 335.101C91.5996 335.173 91.609 335.246 91.6322 335.315C91.6554 335.384 91.692 335.447 91.7398 335.502C91.7877 335.557 91.8459 335.602 91.9111 335.634C91.9763 335.666 92.0472 335.685 92.1198 335.69L92.1566 335.717Z" fill="#FAFAFA"/>
<path d="M84.3917 337.336C84.5349 337.336 84.6726 337.281 84.7756 337.181C84.8786 337.082 84.9389 336.946 84.9437 336.803L85.7533 294.483C85.7534 294.337 85.6968 294.197 85.5955 294.092C85.4942 293.988 85.3561 293.926 85.2105 293.922C85.1363 293.913 85.0613 293.921 84.9906 293.945C84.92 293.969 84.8555 294.009 84.8019 294.061C84.7483 294.112 84.7068 294.176 84.6804 294.245C84.654 294.315 84.6434 294.39 84.6493 294.464L83.8397 336.784C83.8385 336.857 83.8515 336.929 83.8782 336.996C83.9048 337.064 83.9444 337.125 83.9948 337.177C84.0452 337.229 84.1054 337.271 84.1719 337.3C84.2384 337.329 84.31 337.344 84.3825 337.346L84.3917 337.336Z" fill="#FAFAFA"/>
<path d="M55.6786 326.692C55.5465 326.693 55.4185 326.646 55.3186 326.56C55.2187 326.473 55.1537 326.354 55.1358 326.223L51.7686 301.548C51.7474 301.405 51.7839 301.258 51.87 301.141C51.9561 301.024 52.085 300.945 52.2286 300.923C52.3734 300.904 52.5197 300.943 52.6366 301.03C52.7534 301.118 52.8314 301.248 52.8542 301.392L56.2306 326.057C56.2517 326.203 56.2143 326.352 56.1265 326.471C56.0386 326.59 55.9074 326.669 55.7614 326.692H55.6786Z" fill="#FAFAFA"/>
<path d="M61.1249 332.451C60.9875 332.452 60.8549 332.401 60.7528 332.309C60.6507 332.218 60.5866 332.091 60.5729 331.954L57.2517 300.168C57.2362 300.023 57.2788 299.878 57.3701 299.764C57.4615 299.65 57.5942 299.577 57.7393 299.561C57.8113 299.552 57.8844 299.558 57.9543 299.578C58.0241 299.597 58.0893 299.631 58.1459 299.677C58.2025 299.722 58.2495 299.778 58.2839 299.842C58.3184 299.906 58.3396 299.976 58.3465 300.049L61.6401 331.844C61.653 331.99 61.6082 332.135 61.5154 332.249C61.4225 332.362 61.289 332.435 61.1433 332.451H61.1249Z" fill="#FAFAFA"/>
<path d="M67.8778 335.717C67.7369 335.72 67.6005 335.667 67.4975 335.571C67.3945 335.475 67.3329 335.343 67.3258 335.202L64.8602 296.24C64.8552 296.167 64.8646 296.095 64.8878 296.026C64.911 295.957 64.9476 295.893 64.9955 295.838C65.0433 295.784 65.1015 295.739 65.1667 295.707C65.2319 295.675 65.3028 295.656 65.3754 295.651C65.4484 295.643 65.5223 295.651 65.5923 295.673C65.6623 295.695 65.7269 295.732 65.7822 295.78C65.8375 295.829 65.8822 295.888 65.9135 295.954C65.9448 296.021 65.9621 296.093 65.9642 296.166L68.4206 335.101C68.4256 335.173 68.4162 335.246 68.393 335.315C68.3698 335.384 68.3332 335.447 68.2853 335.502C68.2374 335.557 68.1792 335.602 68.114 335.634C68.0488 335.666 67.9779 335.685 67.9054 335.69L67.8778 335.717Z" fill="#FAFAFA"/>
<path d="M75.6332 337.336C75.49 337.336 75.3523 337.281 75.2493 337.181C75.1463 337.082 75.086 336.946 75.0812 336.803L74.2808 294.483C74.2784 294.411 74.2903 294.339 74.3159 294.271C74.3415 294.204 74.3803 294.142 74.43 294.09C74.4796 294.038 74.5392 293.996 74.6052 293.967C74.6712 293.938 74.7424 293.923 74.8144 293.922C74.889 293.913 74.9644 293.922 75.0354 293.946C75.1065 293.97 75.1714 294.009 75.2257 294.06C75.28 294.112 75.3224 294.175 75.3499 294.245C75.3774 294.315 75.3893 294.389 75.3848 294.464L76.1852 336.784C76.1877 336.856 76.1758 336.928 76.1502 336.996C76.1246 337.063 76.0858 337.125 76.0361 337.177C75.9865 337.229 75.9269 337.271 75.8609 337.3C75.7948 337.329 75.7237 337.344 75.6516 337.346L75.6332 337.336Z" fill="#FAFAFA"/>
<path d="M104.328 343.105C102.93 341.384 101.044 339.756 100.575 337.483C100.216 335.754 100.28 333.803 99.2497 332.396C98.454 331.505 97.5588 330.709 96.5818 330.022C95.3497 328.874 94.5172 327.362 94.206 325.706C93.8948 324.051 94.1212 322.34 94.8521 320.822C93.2697 320.224 91.4757 321.025 90.197 322.129C88.9182 323.233 87.897 324.649 86.517 325.634C84.677 326.977 82.2666 327.382 80.1321 328.265C77.9977 329.148 75.8818 330.869 75.8174 333.178C75.7622 335.294 77.4089 337.621 76.1485 339.323C74.2073 341.936 69.1658 339.517 69.3682 344.209C69.451 345.994 70.0765 346.886 68.2365 348.146C66.3965 349.407 63.7377 348.726 61.7965 350.042C60.8371 350.845 60.1097 351.89 59.6897 353.068C59.0733 354.411 58.4569 355.755 57.9693 357.153C56.6139 360.795 56.4751 364.778 57.5738 368.506C58.0982 370.116 58.9813 372.471 60.6741 373.005C62.9649 373.732 65.0993 373.005 67.1785 374.707C68.0157 375.397 68.6322 376.307 69.4418 377.016C70.9835 378.252 72.9125 378.904 74.8882 378.856C76.4614 378.856 77.9794 378.276 79.4882 378.249C80.5292 378.338 81.5535 378.567 82.5333 378.93C84.7966 379.463 87.6394 379.454 89.3414 377.614C90.565 376.298 90.9974 374.21 92.5982 373.391C94.199 372.572 96.2782 373.548 98.1826 373.492C101.357 373.419 103.703 370.263 104.209 367.126C104.715 363.989 103.905 360.824 103.519 357.668C102.994 353.501 106.021 350.409 105.874 346.573C105.75 345.279 105.208 344.061 104.328 343.105Z" fill="#FAFAFA"/>
<path d="M104.328 343.105C103.748 342.396 103.086 341.697 102.488 340.961C101.872 342.948 100.492 344.641 99.7281 346.555C98.8081 348.864 98.8081 351.431 98.7529 353.915C98.7529 356.62 98.7529 359.334 98.7529 362.048C98.8066 362.542 98.6791 363.039 98.3941 363.446C97.7501 364.145 96.5541 363.612 95.9101 362.912C95.2661 362.213 94.6129 361.312 93.6653 361.293C92.5429 361.293 91.6321 362.554 90.5281 362.333C89.4241 362.112 89.1941 360.769 89.6081 359.84C90.1233 358.962 90.7972 358.189 91.5953 357.558C91.9901 357.239 92.2988 356.825 92.4932 356.356C92.6877 355.887 92.7617 355.377 92.7085 354.872C89.6265 354.476 86.9401 356.84 84.7321 359.03C83.7569 359.95 82.6989 361.339 83.2693 362.581C83.7017 363.501 84.9069 363.906 85.4221 364.817C85.664 365.367 85.7043 365.985 85.5361 366.562C85.3679 367.139 85.0018 367.638 84.5021 367.972C83.4323 368.629 82.214 369.006 80.9601 369.067C80.1408 369.237 79.2953 369.237 78.4761 369.067C78.0669 368.982 77.6921 368.777 77.399 368.479C77.106 368.181 76.9077 367.803 76.8293 367.393C76.7557 366.556 77.6205 365.7 78.4025 366.004C76.9581 364.946 75.3941 363.851 73.6093 363.805C71.8245 363.759 69.9293 365.314 70.2881 367.062L63.1765 366.905C64.1517 365.498 63.0017 363.621 61.7965 362.406C61.0097 361.722 60.3359 360.918 59.8001 360.024C59.5358 359.568 59.4043 359.047 59.4206 358.52C59.4368 357.993 59.6002 357.482 59.8921 357.043C60.4993 356.27 61.6861 355.874 61.8333 354.899C61.8438 354.506 61.7089 354.122 61.4543 353.821C61.1997 353.521 60.8433 353.325 60.4533 353.271C60.1792 353.225 59.8993 353.225 59.6253 353.271C59.0365 354.559 58.4477 355.847 57.9877 357.181C56.6322 360.823 56.4934 364.806 57.5921 368.534C58.1165 370.144 58.9997 372.499 60.6925 373.032C62.9833 373.759 65.1177 373.032 67.1969 374.734C68.0341 375.424 68.6505 376.335 69.4601 377.044C71.0018 378.28 72.9308 378.931 74.9065 378.884C76.4797 378.884 77.9977 378.304 79.5065 378.276C80.5475 378.365 81.5718 378.594 82.5517 378.957C84.8149 379.491 87.6577 379.482 89.3597 377.642C90.5833 376.326 91.0157 374.238 92.6165 373.419C94.2173 372.6 96.2965 373.575 98.2009 373.52C101.375 373.446 103.721 370.291 104.227 367.154C104.733 364.016 103.923 360.852 103.537 357.696C103.012 353.528 106.039 350.437 105.892 346.601C105.769 345.295 105.22 344.066 104.328 343.105Z" fill="#EBEBEB"/>
<path d="M69 352.424C69.2167 352.73 69.3644 353.08 69.4327 353.448C69.501 353.817 69.4883 354.196 69.3956 354.559C69.2677 354.916 69.1662 355.282 69.092 355.654C69.0611 355.843 69.0952 356.037 69.1888 356.204C69.2824 356.371 69.4299 356.501 69.6072 356.574C69.9191 356.601 70.2301 356.512 70.4812 356.325C71.1937 355.871 72.0481 355.694 72.8824 355.828C73.2982 355.911 73.6686 356.145 73.9219 356.485C74.1751 356.825 74.2932 357.246 74.2532 357.668C74.5443 357.157 74.6974 356.578 74.6974 355.989C74.6974 355.401 74.5443 354.822 74.2532 354.31C74.0964 354.066 73.8928 353.855 73.654 353.69C73.4152 353.524 73.1461 353.408 72.8621 353.347C72.5781 353.286 72.2849 353.283 71.9994 353.336C71.7139 353.389 71.4418 353.498 71.1988 353.657C71.3236 353.186 71.2718 352.686 71.0532 352.25C70.8346 351.815 70.4643 351.474 70.012 351.293C69.5886 351.127 69.1356 351.05 68.6812 351.068C68.2269 351.085 67.781 351.196 67.3716 351.394C68.0061 351.565 68.5739 351.924 69 352.424Z" fill="#EBEBEB"/>
<path d="M80.7393 344.908C80.4449 345.11 80.1045 345.239 79.8193 345.469C79.6665 345.564 79.5449 345.702 79.4697 345.866C79.3945 346.029 79.3689 346.211 79.3961 346.389C80.0309 346.288 80.5921 346.822 80.9417 347.355C81.2148 347.941 81.6406 348.444 82.1745 348.809C82.6437 349.039 83.2325 349.002 83.6465 349.315C84.2537 349.793 84.1525 350.722 83.9869 351.477L86.9953 349.462C87.1778 349.349 87.3422 349.21 87.4829 349.048C87.6451 348.778 87.7038 348.459 87.6479 348.149C87.5921 347.839 87.4255 347.56 87.1793 347.364C86.6702 346.99 86.0539 346.79 85.4221 346.794C84.8037 346.792 84.1872 346.728 83.5821 346.601C83.5044 346.587 83.4312 346.555 83.3687 346.507C83.3062 346.459 83.2563 346.396 83.2233 346.325C83.1497 346.086 83.4441 345.892 83.6833 345.8L86.5813 344.705C86.6255 344.663 86.6608 344.613 86.6848 344.557C86.7089 344.5 86.7213 344.44 86.7213 344.379C86.7213 344.318 86.7089 344.257 86.6848 344.201C86.6608 344.145 86.6255 344.094 86.5813 344.052C86.3872 343.904 86.1533 343.818 85.9097 343.804C84.0722 343.366 82.2061 343.059 80.3253 342.884C80.3437 343.666 82.2021 343.905 80.7393 344.908Z" fill="#EBEBEB"/>
<path d="M87.9154 332.819C86.3606 332.58 84.5298 333.39 84.2354 334.917C85.5142 335 86.4986 336.048 87.3358 337.033L88.6238 338.56C89.0884 339.013 89.4248 339.581 89.599 340.207C89.7094 340.796 89.599 341.467 89.9118 341.955C90.1738 342.245 90.5166 342.45 90.8962 342.543C91.267 342.736 91.6788 342.837 92.0968 342.837C92.5147 342.837 92.9265 342.736 93.2974 342.543C93.5578 342.308 93.7418 342 93.8254 341.659C93.909 341.318 93.8885 340.959 93.7666 340.63C93.4987 339.977 93.1048 339.383 92.6074 338.882C94.0369 338.58 95.524 338.715 96.8762 339.268C97.1847 339.456 97.5546 339.516 97.9065 339.434C98.0353 339.366 98.1474 339.271 98.2349 339.155C98.3224 339.039 98.383 338.905 98.4126 338.762C98.5019 338.297 98.4547 337.816 98.2768 337.377C98.0989 336.938 97.7978 336.559 97.4097 336.288C96.6138 335.763 95.6759 335.497 94.7234 335.524C92.0002 335.542 90.5374 333.224 87.9154 332.819Z" fill="#EBEBEB"/>
<path d="M104.88 369.996L111.624 323.886C111.634 323.814 111.63 323.741 111.612 323.67C111.594 323.6 111.563 323.534 111.519 323.476C111.475 323.418 111.421 323.369 111.358 323.332C111.296 323.295 111.226 323.271 111.155 323.26C111.01 323.242 110.863 323.28 110.747 323.368C110.63 323.456 110.552 323.585 110.529 323.73L103.804 369.84C103.783 369.984 103.819 370.13 103.905 370.247C103.991 370.364 104.12 370.443 104.264 370.466H104.347C104.48 370.465 104.61 370.416 104.711 370.328C104.812 370.241 104.879 370.12 104.899 369.987" fill="#FAFAFA"/>
<path d="M98.9094 376.225C99.0437 376.223 99.1729 376.173 99.2728 376.083C99.3728 375.994 99.4365 375.871 99.4522 375.737L104.273 329.627C104.288 329.482 104.246 329.336 104.155 329.222C104.063 329.109 103.93 329.036 103.785 329.02C103.713 329.011 103.64 329.016 103.57 329.036C103.501 329.056 103.435 329.089 103.379 329.135C103.322 329.18 103.275 329.237 103.241 329.301C103.206 329.365 103.185 329.435 103.178 329.507L98.3574 375.618C98.3485 375.69 98.3541 375.763 98.3739 375.833C98.3937 375.902 98.4274 375.968 98.4728 376.024C98.5183 376.081 98.5747 376.128 98.6386 376.162C98.7025 376.197 98.7727 376.218 98.845 376.225H98.9094Z" fill="#FAFAFA"/>
<path d="M92.1565 379.5C92.2976 379.498 92.4328 379.443 92.5351 379.346C92.6374 379.249 92.6993 379.116 92.7085 378.976L95.5973 332.865C95.6023 332.793 95.5929 332.721 95.5695 332.653C95.5462 332.584 95.5095 332.521 95.4615 332.467C95.4135 332.413 95.3553 332.369 95.2901 332.338C95.225 332.307 95.1543 332.289 95.0821 332.286C95.0091 332.278 94.9353 332.286 94.8653 332.308C94.7953 332.33 94.7306 332.366 94.6753 332.415C94.6201 332.463 94.5754 332.522 94.544 332.589C94.5127 332.655 94.4955 332.727 94.4933 332.801L91.6045 378.911C91.5969 379.057 91.6464 379.2 91.7426 379.31C91.8388 379.42 91.9741 379.488 92.1197 379.5H92.1565Z" fill="#FAFAFA"/>
<path d="M84.3918 381.119C84.5366 381.119 84.6756 381.062 84.7789 380.961C84.8821 380.859 84.9414 380.721 84.9438 380.576L85.8638 334.466C85.865 334.394 85.8519 334.321 85.8253 334.254C85.7987 334.187 85.759 334.125 85.7086 334.073C85.6582 334.021 85.5981 333.979 85.5315 333.95C85.465 333.921 85.3935 333.906 85.321 333.905C85.2468 333.896 85.1718 333.905 85.1011 333.929C85.0305 333.953 84.966 333.992 84.9124 334.044C84.8588 334.096 84.8173 334.159 84.7909 334.229C84.7645 334.298 84.7539 334.373 84.7598 334.448L83.7938 380.558C83.7926 380.63 83.8056 380.702 83.8323 380.77C83.8589 380.837 83.8985 380.899 83.9489 380.951C83.9993 381.003 84.0595 381.045 84.126 381.074C84.1925 381.103 84.2641 381.118 84.3366 381.119H84.3918Z" fill="#FAFAFA"/>
<path d="M76.2774 381.119C76.3499 381.118 76.4214 381.103 76.4879 381.074C76.5544 381.045 76.6146 381.003 76.665 380.951C76.7154 380.899 76.7551 380.837 76.7817 380.77C76.8083 380.702 76.8214 380.63 76.8202 380.558L75.8542 334.448C75.8517 334.303 75.7925 334.165 75.6893 334.063C75.586 333.962 75.447 333.905 75.3022 333.905C75.2297 333.906 75.1581 333.921 75.0916 333.95C75.0251 333.979 74.9649 334.021 74.9145 334.073C74.8641 334.125 74.8245 334.187 74.7978 334.254C74.7712 334.321 74.7581 334.393 74.7594 334.466L75.6794 380.576C75.6804 380.652 75.6969 380.727 75.7281 380.796C75.7592 380.865 75.8042 380.927 75.8603 380.978C75.9164 381.029 75.9824 381.068 76.0541 381.092C76.1259 381.116 76.2019 381.126 76.2774 381.119Z" fill="#FAFAFA"/>
<path d="M68.5126 379.5C68.6582 379.488 68.7935 379.42 68.8897 379.31C68.9859 379.2 69.0354 379.057 69.0278 378.911L66.139 332.801C66.1397 332.726 66.1244 332.653 66.0941 332.585C66.0637 332.517 66.019 332.457 65.9631 332.408C65.9071 332.359 65.8413 332.323 65.77 332.301C65.6987 332.28 65.6237 332.275 65.5502 332.286C65.478 332.289 65.4073 332.307 65.3422 332.338C65.277 332.369 65.2188 332.413 65.1708 332.467C65.1228 332.521 65.0861 332.584 65.0628 332.652C65.0394 332.721 65.03 332.793 65.035 332.865L67.9238 378.976C67.9333 379.123 68.0004 379.26 68.1106 379.359C68.2208 379.457 68.3652 379.508 68.5126 379.5Z" fill="#FAFAFA"/>
<path d="M61.7596 376.225H61.824C61.8963 376.218 61.9664 376.197 62.0304 376.162C62.0943 376.128 62.1507 376.081 62.1961 376.024C62.2416 375.968 62.2752 375.902 62.2951 375.833C62.3149 375.763 62.3205 375.69 62.3116 375.618L57.4908 329.507C57.4852 329.434 57.4648 329.363 57.4307 329.299C57.3967 329.234 57.3497 329.177 57.2928 329.132C57.2359 329.086 57.1702 329.052 57.0998 329.033C57.0294 329.014 56.9558 329.009 56.8836 329.019C56.8113 329.026 56.7411 329.048 56.6772 329.082C56.6132 329.116 56.5569 329.163 56.5114 329.22C56.466 329.277 56.4323 329.342 56.4125 329.412C56.3926 329.482 56.387 329.555 56.396 329.627L61.2168 375.737C61.2324 375.871 61.2962 375.994 61.3961 376.083C61.496 376.173 61.6253 376.223 61.7596 376.225Z" fill="#FAFAFA"/>
<path d="M56.3225 370.475H56.3961C56.4681 370.465 56.5373 370.44 56.5998 370.403C56.6624 370.366 56.717 370.317 56.7606 370.259C56.8042 370.201 56.8359 370.135 56.8539 370.065C56.8718 369.994 56.8757 369.921 56.8653 369.849L50.1217 323.739C50.099 323.595 50.0209 323.465 49.9041 323.377C49.7873 323.29 49.6409 323.251 49.4961 323.27C49.4242 323.28 49.355 323.304 49.2924 323.341C49.2299 323.378 49.1752 323.427 49.1316 323.485C49.088 323.543 49.0564 323.609 49.0384 323.68C49.0204 323.75 49.0165 323.823 49.0269 323.895L55.7705 370.006C55.7923 370.136 55.8596 370.255 55.9607 370.341C56.0617 370.427 56.1899 370.474 56.3225 370.475Z" fill="#FAFAFA"/>
<path d="M44.3533 314.852C44.7254 316.671 45.4642 318.396 46.5245 319.921C48.659 322.94 51.4608 325.428 54.7125 327.189C68.8529 335.349 91.8069 335.349 105.966 327.189C109.213 325.425 112.011 322.938 114.144 319.921C115.194 318.39 115.931 316.667 116.316 314.852C117.576 308.706 114.117 302.303 105.956 297.592C91.7977 289.414 68.8437 289.414 54.7033 297.592C46.5429 302.303 43.0929 308.706 44.3533 314.852ZM58.9721 324.76C54.4181 322.12 51.6121 318.863 50.5909 315.459C51.6029 311.779 54.3997 308.292 58.9721 305.449C70.7665 298.144 89.8933 298.144 101.688 305.449C106.288 308.292 109.048 311.806 110.069 315.468C109.038 318.872 106.232 322.129 101.678 324.76C89.8933 331.522 70.7665 331.522 58.9721 324.76Z" class="svg-primary-color"/>
<path opacity="0.75" d="M44.3533 314.852C44.7254 316.671 45.4642 318.396 46.5245 319.921C48.659 322.94 51.4608 325.428 54.7125 327.189C68.8529 335.349 91.8069 335.349 105.966 327.189C109.213 325.425 112.011 322.938 114.144 319.921C115.194 318.39 115.931 316.667 116.316 314.852C117.576 308.706 114.117 302.303 105.956 297.592C91.7977 289.414 68.8437 289.414 54.7033 297.592C46.5429 302.303 43.0929 308.706 44.3533 314.852ZM58.9721 324.76C54.4181 322.12 51.6121 318.863 50.5909 315.459C51.6029 311.779 54.3997 308.292 58.9721 305.449C70.7665 298.144 89.8933 298.144 101.688 305.449C106.288 308.292 109.048 311.806 110.069 315.468C109.038 318.872 106.232 322.129 101.678 324.76C89.8933 331.522 70.7665 331.522 58.9721 324.76Z" fill="white"/>
<path d="M46.5246 319.912C48.6574 322.929 51.4558 325.416 54.7034 327.18C68.8622 335.349 91.807 335.349 105.966 327.18C109.213 325.416 112.012 322.929 114.145 319.912C115.2 318.388 115.935 316.667 116.307 314.852L114.706 321.246C113.97 325.689 110.658 330.022 104.742 333.436C91.255 341.21 69.3958 341.21 55.9086 333.436C50.0758 330.068 46.7638 325.79 45.9818 321.402L45.899 320.832L44.335 314.852C44.717 316.668 45.4618 318.389 46.5246 319.912Z" class="svg-primary-color"/>
<path opacity="0.6" d="M46.5246 319.912C48.6574 322.929 51.4558 325.416 54.7034 327.18C68.8622 335.349 91.807 335.349 105.966 327.18C109.213 325.416 112.012 322.929 114.145 319.912C115.2 318.388 115.935 316.667 116.307 314.852L114.706 321.246C113.97 325.689 110.658 330.022 104.742 333.436C91.255 341.21 69.3958 341.21 55.9086 333.436C50.0758 330.068 46.7638 325.79 45.9818 321.402L45.899 320.832L44.335 314.852C44.717 316.668 45.4618 318.389 46.5246 319.912Z" fill="white"/>
<path d="M50.2873 314.152C50.3701 314.576 50.4713 314.99 50.5909 315.413C51.6029 311.733 54.3997 308.246 58.9721 305.403C70.7665 298.098 89.8933 298.098 101.688 305.403C106.288 308.246 109.048 311.76 110.069 315.422C110.206 315.004 110.31 314.577 110.382 314.143C111.302 309.12 108.358 303.913 101.679 300.049C89.8933 293.241 70.7665 293.241 58.9721 300.049C52.3021 303.913 49.4041 309.12 50.2873 314.152Z" class="svg-primary-color"/>
<path opacity="0.6" d="M50.2873 314.152C50.3701 314.576 50.4713 314.99 50.5909 315.413C51.6029 311.733 54.3997 308.246 58.9721 305.403C70.7665 298.098 89.8933 298.098 101.688 305.403C106.288 308.246 109.048 311.76 110.069 315.422C110.206 315.004 110.31 314.577 110.382 314.143C111.302 309.12 108.358 303.913 101.679 300.049C89.8933 293.241 70.7665 293.241 58.9721 300.049C52.3021 303.913 49.4041 309.12 50.2873 314.152Z" fill="white"/>
</svg>
