<svg width="460" height="460" viewBox="0 0 460 460" fill="none" xmlns="http://www.w3.org/2000/svg">
<path d="M376.28 234.683C294.943 187.763 163.502 187.763 82.6897 234.683C1.87689 281.603 2.34609 357.788 83.7201 404.745C165.094 451.702 296.498 451.711 377.31 404.745C458.123 357.779 457.654 281.649 376.28 234.683Z" fill="#F5F5F5"/>
<path d="M398.424 346.84C391.598 342.893 380.567 342.893 373.787 346.84C367.006 350.787 367.034 357.172 373.86 361.109C380.687 365.047 391.727 365.056 398.507 361.109C405.288 357.162 405.251 350.787 398.424 346.84Z" fill="#E6E6E6"/>
<path d="M276 218.38L402.96 291.686C403.239 291.848 403.47 292.08 403.631 292.359C403.792 292.639 403.877 292.955 403.877 293.278C403.877 293.6 403.792 293.917 403.631 294.196C403.47 294.475 403.239 294.707 402.96 294.869L353.813 323.132C352.974 323.616 352.022 323.871 351.053 323.871C350.085 323.871 349.133 323.616 348.293 323.132L221.333 249.826C221.055 249.664 220.823 249.432 220.662 249.153C220.501 248.873 220.417 248.557 220.417 248.234C220.417 247.912 220.501 247.595 220.662 247.316C220.823 247.037 221.055 246.805 221.333 246.643L270.48 218.38C271.319 217.896 272.271 217.641 273.24 217.641C274.209 217.641 275.161 217.896 276 218.38Z" fill="#E6E6E6"/>
<path d="M113.565 299.58C140.153 284.225 183.126 284.225 209.548 299.58C232.898 313.15 235.483 334.153 217.433 349.453C231.996 348.533 247.094 351.293 258.216 357.797C277.739 369.141 277.638 387.532 257.986 398.875C238.335 410.219 206.577 410.228 187.054 398.875C171.525 389.85 168.424 376.363 177.707 365.516C155.314 368.754 130.686 365.314 113.252 355.184C86.8295 339.83 86.9675 314.934 113.565 299.58Z" fill="#E6E6E6"/>
<path d="M336.159 93.38L335.947 155.609L340.087 157.992L340.29 95.7628L336.159 93.38Z" fill="#E0E0E0"/>
<path d="M340.299 95.7628H340.29L340.087 157.992L343.675 155.903L343.878 97.8328L340.299 95.7628Z" fill="#F0F0F0"/>
<path opacity="0.2" d="M340.28 99.1024L340.289 95.7628L336.159 93.38L336.149 96.7104L340.28 99.1024Z" fill="black"/>
<path opacity="0.2" d="M340.28 99.1024L343.187 97.428L340.299 95.7628H340.289L340.28 99.1024Z" fill="black"/>
<path d="M336.159 60.4348L335.947 88.4764L340.087 90.8592L340.29 62.8176L336.159 60.4348Z" fill="#E0E0E0"/>
<path d="M340.299 62.8176H340.29L340.087 90.8592L343.675 88.7708L343.878 64.8876L340.299 62.8176Z" fill="#F0F0F0"/>
<path opacity="0.2" d="M340.28 66.1572L340.289 62.8176L336.159 60.4348L336.149 63.7652L340.28 66.1572Z" fill="black"/>
<path opacity="0.2" d="M340.28 66.1572L343.187 64.492L340.299 62.8176H340.289L340.28 66.1572Z" fill="black"/>
<path d="M286.396 64.6484L289.993 62.56L289.782 124.789L286.184 126.877L286.396 64.6484Z" fill="#F0F0F0"/>
<path d="M286.184 126.877L289.782 124.789L393.447 184.635L389.85 186.723L286.184 126.877Z" fill="#F5F5F5"/>
<path d="M282.274 57.5092L394.211 122.13L393.972 193.89L282.035 129.242L282.274 57.5092ZM389.85 186.76L390.062 124.531L286.396 64.7312L286.184 126.96L389.85 186.76Z" fill="#E0E0E0"/>
<path d="M282.274 57.5092L285.872 55.4208L397.799 120.042L394.211 122.13L282.274 57.5092Z" fill="#F5F5F5"/>
<path d="M394.211 122.13L397.799 120.042L397.569 191.774L393.972 193.862L394.211 122.13Z" fill="#F0F0F0"/>
<path d="M286.396 31.7032L289.993 29.6148L289.782 57.6564L286.184 59.7448L286.396 31.7032Z" fill="#F0F0F0"/>
<path d="M286.184 59.7448L289.782 57.6564L393.447 117.502L389.85 119.591L286.184 59.7448Z" fill="#F5F5F5"/>
<path d="M282.274 24.564L394.211 89.1848L393.972 126.73L282.035 62.1092L282.274 24.564ZM389.85 119.6L390.08 91.5492L286.396 31.7032L286.184 59.7448L389.85 119.6Z" fill="#E0E0E0"/>
<path d="M282.274 24.564L285.872 22.4756L397.799 87.0964L394.211 89.1848L282.274 24.564Z" fill="#F5F5F5"/>
<path d="M394.211 89.1848L397.799 87.0964L397.569 124.642L393.972 126.73L394.211 89.1848Z" fill="#F0F0F0"/>
<path d="M99.1853 93.5824L99.2497 116.021L101.973 117.594L101.899 92.0184L99.1853 93.5824Z" fill="#F0F0F0"/>
<path d="M69.8923 132.968L69.9015 136.114L101.973 117.594L99.2495 116.021L69.8923 132.968Z" fill="#F5F5F5"/>
<path d="M105.174 86.3512L66.5344 108.652L66.6264 141.772L105.266 119.462L105.174 86.3512ZM69.92 136.16V133.014L69.8556 110.575L99.2128 93.6284L101.973 92.0644L102.046 117.64L69.92 136.16Z" fill="#E0E0E0"/>
<path d="M105.174 86.3512L102.451 84.7688L63.8113 107.079L66.5345 108.652L105.174 86.3512Z" fill="#F5F5F5"/>
<path d="M63.8113 107.079L63.9125 140.208L66.6265 141.781L66.5345 108.652L63.8113 107.079Z" fill="#F0F0F0"/>
<path d="M99.1667 143.934L99.2311 166.373L101.945 167.955L101.881 142.37L99.1667 143.934Z" fill="#F0F0F0"/>
<path d="M69.874 183.319L69.8832 186.466L101.945 167.955L99.2312 166.373L69.874 183.319Z" fill="#F5F5F5"/>
<path d="M105.156 136.703L66.5161 159.013L66.6081 192.133L105.248 169.823L105.156 136.703ZM69.9201 186.466V183.319L69.8557 160.88L99.2129 143.934L101.927 142.37L101.991 167.955L69.9201 186.466Z" fill="#E0E0E0"/>
<path d="M105.156 136.703L102.433 135.12L63.7927 157.43L66.5159 159.013L105.156 136.703Z" fill="#F5F5F5"/>
<path d="M63.7927 157.43L63.8847 190.56L66.6079 192.142L66.5159 159.013L63.7927 157.43Z" fill="#F0F0F0"/>
<path d="M156.667 116.582V111.136L156.4 111.32L155.94 111.587C151.92 114.016 147.881 117.834 144.118 121.964C143.505 122.645 142.891 123.335 142.278 124.034C139.113 127.668 136.004 131.505 132.82 135.074V143.879L136.666 141.662C141.671 132.102 148.46 123.589 156.667 116.582Z" fill="#EBEBEB"/>
<path d="M156.713 130.097V122.811C153.375 126.359 150.62 130.415 148.552 134.826L156.713 130.097Z" fill="#EBEBEB"/>
<path d="M148.525 134.826C150.593 130.415 153.347 126.359 156.685 122.811V116.582C148.477 123.595 141.688 132.114 136.684 141.68L148.525 134.844V134.826Z" fill="#FAFAFA"/>
<path d="M140.493 109.075L141.045 108.882C142.076 108.514 143.115 108.082 144.164 107.603L144.541 107.419C144.9 107.254 145.25 107.079 145.599 106.895C146.206 106.591 146.814 106.269 147.439 105.92C146.823 106.269 146.216 106.591 145.599 106.895L145.82 106.794C146.354 106.518 146.887 106.223 147.43 105.874L147.77 105.68L148.046 105.515C150.954 103.796 153.706 101.825 156.271 99.6268L156.621 99.3232V90.1232C150.779 93.1132 145.029 94.0424 140.392 92.598C137.21 91.5802 134.49 89.4723 132.71 86.6456L132.774 110.566C135.404 110.431 138.002 109.929 140.493 109.075Z" fill="#FAFAFA"/>
<path d="M144.127 121.928C147.89 117.797 151.929 113.979 155.949 111.55L156.409 111.283L156.658 111.136V105.864C148.863 110.454 141.64 115.951 135.139 122.24C134.357 122.986 133.584 123.749 132.802 124.476V135.074C135.985 131.468 139.095 127.632 142.26 124.034C142.879 123.311 143.502 122.608 144.127 121.928Z" fill="#FAFAFA"/>
<path d="M156.639 105.864V99.3692L156.29 99.6728C153.725 101.871 150.973 103.842 148.065 105.561L147.789 105.726L147.448 105.92C146.906 106.223 146.372 106.518 145.838 106.84L145.618 106.941L145.47 107.024L145.618 106.941C145.268 107.125 144.918 107.29 144.569 107.465L144.182 107.649C143.134 108.128 142.094 108.569 141.064 108.928L141.652 108.716L141.064 108.928L140.512 109.121C138.014 109.993 135.406 110.511 132.765 110.658V124.522C133.547 123.795 134.32 123.032 135.102 122.286C141.606 115.98 148.836 110.467 156.639 105.864Z" fill="#EBEBEB"/>
<path d="M156.575 82.7172V75.9092C152.895 75.0444 150.015 72.358 148.516 68.3376L140.355 73.048C141.783 76.0956 144.092 78.6455 146.983 80.3689C149.874 82.0924 153.215 82.9103 156.575 82.7172Z" fill="#FAFAFA"/>
<path d="M140.364 92.6348C144.964 94.0792 150.751 93.15 156.593 90.16V82.7172C153.227 82.9178 149.878 82.1035 146.98 80.3796C144.082 78.6558 141.767 76.1017 140.337 73.048L132.655 77.4824V86.6824C134.442 89.5142 137.173 91.6227 140.364 92.6348Z" fill="#EBEBEB"/>
<path d="M157.863 61.3824L131.302 76.7188L131.496 146.197L158.056 130.861L157.863 61.3824ZM132.839 143.879V135.074V124.476V110.612L132.774 86.6916V77.4916L140.456 73.0572L148.617 68.3468L156.639 63.7468V75.9552V82.7632V90.206V99.406V105.901V111.173V116.619V122.848V130.134L148.451 134.863L136.684 141.68L132.839 143.879Z" fill="white"/>
<path d="M156.556 75.9092V63.7008L148.534 68.3008C149.96 72.358 152.867 75.0444 156.556 75.9092Z" fill="#EBEBEB"/>
<path d="M158.056 130.861L131.496 146.197L131.505 148.037L159.657 131.79L158.056 130.861Z" fill="#CACACA"/>
<path d="M157.863 61.3824L158.056 130.861L159.657 131.79L159.454 60.4624L157.863 61.3824Z" fill="#F0F0F0"/>
<path d="M163.76 53.0656L127.006 74.2716L127.236 155.48L163.953 134.32L163.76 53.0656ZM131.56 148.046V146.206L131.367 76.728L157.927 61.3916L159.519 60.4716L159.721 131.799L131.56 148.046Z" fill="#E0E0E0"/>
<path d="M163.723 53.0656L160.696 51.4372L123.97 72.6432L127.006 74.2716L163.723 53.0656Z" fill="#F5F5F5"/>
<path d="M123.97 72.6432L124.2 153.815L127.236 155.434L127.006 74.2716L123.97 72.6432Z" fill="#F0F0F0"/>
<path d="M89.8564 102.102L97.8696 108.404L97.8788 114.558L71.254 129.932L71.2356 123.777L76.314 113.694L80.868 117.236L79.258 122.24L81.5948 117.797L89.8564 102.102Z" fill="#E0E0E0"/>
<path d="M81.1165 105.202C82.3677 104.475 83.3889 105.064 83.3889 106.499C83.3454 107.282 83.1177 108.043 82.7244 108.721C82.3311 109.398 81.7834 109.974 81.1257 110.4C79.8745 111.127 78.8533 110.538 78.8533 109.103C78.8953 108.32 79.1224 107.558 79.5158 106.88C79.9092 106.202 80.4577 105.627 81.1165 105.202Z" fill="#E0E0E0"/>
<path d="M89.8381 152.453L97.8421 158.755L97.8605 164.91L71.2357 180.292L71.2173 174.128L76.2957 164.054L80.8497 167.587L79.2397 172.592L81.5765 168.148L89.8381 152.453Z" fill="#E0E0E0"/>
<path d="M81.0887 155.554C82.3491 154.836 83.3611 155.416 83.3703 156.851C83.3289 157.636 83.1023 158.401 82.709 159.082C82.3156 159.763 81.7667 160.342 81.1071 160.77C79.8559 161.497 78.8347 160.917 78.8347 159.473C78.8751 158.688 79.1003 157.924 79.492 157.243C79.8837 156.562 80.4308 155.983 81.0887 155.554Z" fill="#E0E0E0"/>
<path d="M226.541 176.714V249.706L350.695 321.006V248.014L226.541 176.714Z" fill="#E0E0E0"/>
<path d="M399.666 219.825V292.827L350.695 321.006V248.014L399.666 219.825Z" fill="#E0E0E0"/>
<path opacity="0.1" d="M226.541 176.714V249.706L350.695 321.006V248.014L226.541 176.714Z" fill="black"/>
<path opacity="0.2" d="M399.666 219.825V292.827L350.695 321.006V248.014L399.666 219.825Z" fill="black"/>
<path d="M286.718 256.882L344.834 290.26V273.12L286.718 239.752V256.882Z" fill="#E0E0E0"/>
<path d="M344.834 269.026V251.408L286.718 218.04V235.649L344.834 269.026Z" fill="#E0E0E0"/>
<path d="M280.858 214.673L232.41 186.843V204.461L280.858 232.282V214.673Z" fill="#E0E0E0"/>
<path d="M286.718 277.509L344.834 310.877V294.354L286.718 260.976V277.509Z" fill="#E0E0E0"/>
<path d="M280.858 236.385L232.41 208.555V225.694L280.858 253.515V236.385Z" fill="#E0E0E0"/>
<path d="M232.41 229.788V246.312L280.858 274.142V257.609L232.41 229.788Z" fill="#E0E0E0"/>
<path d="M224.784 169.915L351.827 242.88L401.424 214.332L274.307 141.321L224.784 169.915Z" fill="#EBEBEB"/>
<path d="M224.784 169.915V177.367L351.826 250.341V242.88L224.784 169.915Z" fill="#E0E0E0"/>
<path d="M401.424 214.332V221.794L351.826 250.341V242.88L401.424 214.332Z" fill="#E0E0E0"/>
<path opacity="0.1" d="M401.424 214.332V221.794L351.826 250.341V242.88L401.424 214.332Z" fill="black"/>
<path d="M402.675 324.162L386.115 324.64L369.555 324.162C368.846 335.331 371.027 346.702 374.035 352.259C374.744 353.69 375.891 354.857 377.31 355.589C382.186 358.404 390.062 358.404 394.91 355.589C396.348 354.843 397.499 353.643 398.185 352.176C401.23 346.582 403.383 335.276 402.675 324.162Z" fill="white"/>
<path d="M397.799 317.4C404.239 321.144 404.303 327.207 397.872 330.942C391.442 334.678 380.972 334.687 374.495 330.942C368.018 327.198 368 321.135 374.44 317.4C380.88 313.665 391.322 313.656 397.799 317.4Z" fill="#EBEBEB"/>
<path d="M395.232 318.881C400.292 321.798 400.31 326.526 395.296 329.443C390.282 332.359 382.113 332.359 377.053 329.443C371.993 326.526 371.974 321.798 376.998 318.881C382.021 315.965 390.181 315.965 395.232 318.881Z" fill="#E0E0E0"/>
<g opacity="0.15">
<path opacity="0.15" d="M395.232 318.881C400.292 321.798 400.31 326.526 395.296 329.443C390.282 332.359 382.113 332.359 377.053 329.443C371.993 326.526 371.974 321.798 376.998 318.881C382.021 315.965 390.181 315.965 395.232 318.881Z" fill="black"/>
</g>
<path d="M413.319 253.626C376.068 265.825 375.737 290.748 384.128 308.494C386.253 312.082 392.656 314.014 398.24 291.934L388.452 293.186L399.86 287.408L402.822 278.548L393.309 279.257L405.38 274.16C407.602 267.159 410.254 260.301 413.319 253.626Z" class="svg-primary-color"/>
<path opacity="0.2" d="M413.319 253.626C376.068 265.825 375.737 290.748 384.128 308.494C386.253 312.082 392.656 314.014 398.24 291.934L388.452 293.186L399.86 287.408L402.822 278.548L393.309 279.257L405.38 274.16C407.602 267.159 410.254 260.301 413.319 253.626Z" fill="black"/>
<path opacity="0.2" d="M413.319 253.626C376.068 265.825 375.737 290.748 384.128 308.494C386.253 312.082 392.656 314.014 398.24 291.934L388.452 293.186L399.86 287.408L402.822 278.548L393.309 279.257L405.38 274.16C407.602 267.159 410.254 260.301 413.319 253.626Z" fill="white"/>
<path d="M402.785 259.854C383.143 274.767 381.367 291.861 386.915 309.709C384.955 293.995 382.83 278.107 402.785 259.854Z" fill="white"/>
<path d="M350.226 278.944C386.952 284.114 391.405 307.262 386.529 325.192C385.158 328.872 379.509 331.752 370.64 312.119L379.96 311.659L368.386 308.2L364.154 300.444L373.124 299.524L361.045 296.764C357.81 290.606 354.197 284.655 350.226 278.944Z" class="svg-primary-color"/>
<path opacity="0.2" d="M350.226 278.944C386.952 284.114 391.405 307.262 386.529 325.192C385.158 328.872 379.509 331.752 370.64 312.119L379.96 311.659L368.386 308.2L364.154 300.444L373.124 299.524L361.045 296.764C357.81 290.606 354.197 284.655 350.226 278.944Z" fill="white"/>
<path opacity="0.1" d="M350.226 278.944C386.952 284.114 391.405 307.262 386.529 325.192C385.158 328.872 379.509 331.752 370.64 312.119L379.96 311.659L368.386 308.2L364.154 300.444L373.124 299.524L361.045 296.764C357.81 290.606 354.197 284.655 350.226 278.944Z" fill="black"/>
<path d="M361.072 282.992C381.846 293.618 386.345 309.24 384.137 326.784C383.355 311.825 382.72 296.672 361.072 282.992Z" fill="white"/>
<path d="M424.12 287.62C390.439 288.162 383.833 308.54 386.225 325.238C387.044 328.725 391.819 331.936 402.003 315.238L393.65 313.784L404.478 311.944L409.161 305.431L401.12 303.6L412.316 302.496C415.938 297.297 419.88 292.328 424.12 287.62Z" class="svg-primary-color"/>
<path d="M413.844 290.058C393.925 297.307 388.129 310.886 388.157 326.94C390.531 313.545 392.84 299.966 413.844 290.058Z" fill="white"/>
<path opacity="0.2" d="M424.12 287.62C390.439 288.162 383.833 308.54 386.225 325.238C387.044 328.725 391.819 331.936 402.003 315.238L393.65 313.784L404.478 311.944L409.161 305.431L401.12 303.6L412.316 302.496C415.938 297.297 419.88 292.328 424.12 287.62Z" fill="white"/>
<path d="M196.705 246.68C205.767 252.982 216.025 257.333 223.56 265.779C237.701 281.548 238.032 306.921 226.927 324.962C215.823 343.004 195.151 353.841 174.11 356.316C152.03 358.92 128.874 352.82 111.55 338.891C94.2265 324.962 83.2049 303.186 83.2141 280.931C83.2233 258.676 94.6129 236.569 113.225 224.434C130.217 213.394 154.625 210.192 171.663 222.87C180.274 229.31 186.024 238.731 194.663 245.162C195.307 245.704 196.006 246.201 196.705 246.68Z" class="svg-primary-color"/>
<path opacity="0.2" d="M196.705 246.68C205.767 252.982 216.025 257.333 223.56 265.779C237.701 281.548 238.032 306.921 226.927 324.962C215.823 343.004 195.151 353.841 174.11 356.316C152.03 358.92 128.874 352.82 111.55 338.891C94.2265 324.962 83.2049 303.186 83.2141 280.931C83.2233 258.676 94.6129 236.569 113.225 224.434C130.217 213.394 154.625 210.192 171.663 222.87C180.274 229.31 186.024 238.731 194.663 245.162C195.307 245.704 196.006 246.201 196.705 246.68Z" fill="black"/>
<path opacity="0.1" d="M196.705 246.68C205.767 252.982 216.025 257.333 223.56 265.779C237.701 281.548 238.032 306.921 226.927 324.962C215.823 343.004 195.151 353.841 174.11 356.316C152.03 358.92 128.874 352.82 111.55 338.891C94.2265 324.962 83.2049 303.186 83.2141 280.931C83.2233 258.676 94.6129 236.569 113.225 224.434C130.217 213.394 154.625 210.192 171.663 222.87C180.274 229.31 186.024 238.731 194.663 245.162C195.307 245.704 196.006 246.201 196.705 246.68Z" fill="white"/>
<path opacity="0.1" d="M193.007 339.084C193.007 338.937 193.007 338.781 192.942 338.634C192.187 333.722 189.921 329.168 186.459 325.603C182.996 322.039 178.51 319.641 173.622 318.743C164.868 317.07 156.48 313.858 148.847 309.258C143.428 305.983 138.313 301.962 132.241 300.196C126.329 298.5 120.016 298.863 114.338 301.226C119.444 295.872 128.193 293.517 135.194 295.936C130.355 288.53 126.095 280.545 124.421 271.851C122.746 263.157 123.942 253.626 129.177 246.486C131.412 243.446 134.293 240.939 137.613 239.146C140.934 237.353 144.61 236.319 148.378 236.118C152.146 235.918 155.912 236.555 159.404 237.986C162.896 239.416 166.027 241.603 168.572 244.389C173.77 250.065 176.695 258.051 180.099 264.951C182.546 269.9 185.086 274.97 189.115 278.751C195.206 284.446 203.964 286.497 210.275 291.944C217.442 298.126 220.524 308.007 220.561 317.455C220.446 323.837 219.518 330.177 217.801 336.324C210.398 343.391 201.567 348.79 191.903 352.158C193.299 347.948 193.677 343.468 193.007 339.084Z" fill="black"/>
<path d="M95.073 277.914C95.3498 262.563 101.064 247.808 111.199 236.274C121.334 224.741 135.232 217.178 150.42 214.93C152.528 215.133 154.618 215.483 156.676 215.979C140.711 216.827 125.659 223.689 114.548 235.185C103.436 246.68 97.0895 261.956 96.7842 277.941C96.3794 298.632 106.499 319.718 123.86 334.346C137.457 345.81 155.526 353.418 175.38 356.15L174.11 356.316C172.325 356.528 170.531 356.675 168.737 356.776C151.092 353.354 135.121 346.076 122.737 335.616C105.009 320.694 94.659 299.11 95.073 277.914Z" fill="white"/>
<path d="M201.02 354.292L198.72 358.8C195.5 355.828 194.92 353.427 194.92 353.427C195.96 349.747 197.174 346.012 197.772 344.227C198.085 346.757 199.815 348.938 200.532 351.403C200.811 352.343 200.975 353.313 201.02 354.292Z" class="svg-primary-color"/>
<path d="M200.91 358.91L198.72 358.8L200.993 354.292C201.085 355.819 200.956 357.365 200.91 358.91Z" class="svg-primary-color"/>
<path opacity="0.1" d="M201.02 354.292L198.72 358.8C195.5 355.828 194.92 353.427 194.92 353.427C195.96 349.747 197.174 346.012 197.772 344.227C198.085 346.757 199.815 348.938 200.532 351.403C200.811 352.343 200.975 353.313 201.02 354.292Z" fill="black"/>
<path opacity="0.4" d="M200.91 358.91L198.72 358.8L200.993 354.292C201.085 355.819 200.956 357.365 200.91 358.91Z" fill="black"/>
<path d="M199.263 338.873C200.046 337.736 200.947 336.685 201.949 335.736C201.388 337.702 201.388 339.786 201.949 341.752C202.63 344.365 203.854 346.812 204.461 349.444C205.206 352.636 205.041 356.077 206.393 359.067C207.067 360.521 208.071 361.799 209.325 362.798C210.578 363.798 212.047 364.492 213.615 364.826C214.766 365.137 215.993 364.988 217.037 364.412C217.477 364.099 217.8 363.649 217.957 363.133C218.64 364.554 219.466 365.901 220.423 367.154C221.49 368.543 222.824 370.061 222.53 371.754C222.356 372.461 221.977 373.1 221.44 373.591C220.903 374.083 220.232 374.404 219.512 374.514C218.075 374.719 216.61 374.6 215.225 374.164C212.179 373.504 209.271 372.318 206.632 370.659C203.982 368.968 202.042 366.367 201.177 363.345C200.863 361.88 200.752 360.378 200.845 358.883C200.891 357.337 201.02 355.792 200.956 354.283C200.925 353.296 200.774 352.317 200.505 351.366C199.778 348.901 198.049 346.72 197.745 344.19C197.745 344.052 197.699 343.914 197.69 343.776C197.673 342.015 198.225 340.296 199.263 338.873Z" fill="#455A64"/>
<path d="M199.263 338.873C200.046 337.736 200.947 336.685 201.949 335.736C201.388 337.702 201.388 339.786 201.949 341.752C202.63 344.365 203.854 346.812 204.461 349.444C205.206 352.636 205.041 356.077 206.393 359.067C207.067 360.521 208.071 361.799 209.325 362.798C210.578 363.798 212.047 364.492 213.615 364.826C214.766 365.137 215.993 364.988 217.037 364.412C217.477 364.099 217.8 363.649 217.957 363.133C218.64 364.554 219.466 365.901 220.423 367.154C221.49 368.543 222.824 370.061 222.53 371.754C222.356 372.461 221.977 373.1 221.44 373.591C220.903 374.083 220.232 374.404 219.512 374.514C218.075 374.719 216.61 374.6 215.225 374.164C212.179 373.504 209.271 372.318 206.632 370.659C203.982 368.968 202.042 366.367 201.177 363.345C200.863 361.88 200.752 360.378 200.845 358.883C200.891 357.337 201.02 355.792 200.956 354.283C200.925 353.296 200.774 352.317 200.505 351.366C199.778 348.901 198.049 346.72 197.745 344.19C197.745 344.052 197.699 343.914 197.69 343.776C197.673 342.015 198.225 340.296 199.263 338.873Z" class="svg-primary-color"/>
<path d="M213.652 364.826C212.084 364.492 210.615 363.798 209.361 362.798C208.108 361.799 207.104 360.521 206.43 359.067C205.077 356.077 205.243 352.627 204.498 349.444C203.891 346.812 202.658 344.365 201.986 341.752C201.425 339.786 201.425 337.702 201.986 335.736L202.768 334.963C206.641 336.978 211.048 338.643 214.581 341.2C214.497 345.724 214.784 350.247 215.437 354.724C215.918 357.635 216.8 360.465 218.059 363.133C217.901 363.649 217.578 364.099 217.139 364.412C216.077 365.006 214.823 365.154 213.652 364.826Z" fill="#AD5755"/>
<path d="M226.808 352.894C227.452 356.638 230.313 364.256 230.313 364.256C230.313 364.256 216.881 364.798 216.586 364.182L212.64 358.082L226.808 352.894Z" fill="#C77371"/>
<path d="M186.604 263.874L220.855 282.964C223.96 284.693 226.443 287.352 227.955 290.568C229.467 293.783 229.932 297.393 229.283 300.886L222.64 336.72L228.087 354.044C223.385 360.355 212.585 360.677 212.585 360.677C206.568 348.588 202.143 343.454 198.72 333.334C195.298 323.214 193.016 316.232 193.016 316.232L164.57 308.448C158.065 306.681 152.24 303.003 147.847 297.891C143.453 292.78 140.693 286.468 139.923 279.772C139.435 275.466 139.417 272.532 139.417 272.532L186.604 263.874Z" fill="#37474F"/>
<path opacity="0.2" d="M186.346 273.498C186.341 277.322 184.982 281.022 182.51 283.94L206.687 299.074C210.22 301.299 212.832 304.721 214.047 308.715L222.64 336.72L214.921 305.569C214.035 301.984 211.779 298.889 208.638 296.948L186.319 283.148C188.6 277.426 186.346 273.498 186.346 273.498Z" fill="black"/>
<path d="M223.026 381.616L222.714 386.648C218.592 385.176 217.111 383.208 217.111 383.208C216.623 379.417 216.264 375.498 216.099 373.594C217.378 375.802 219.825 377.126 221.472 379.114C222.091 379.881 222.613 380.721 223.026 381.616Z" class="svg-primary-color"/>
<path d="M224.747 385.903L222.714 386.648L223.026 381.616C223.689 382.987 224.186 384.459 224.747 385.903Z" class="svg-primary-color"/>
<path opacity="0.3" d="M224.747 385.903L222.714 386.648L223.026 381.616C223.689 382.987 224.186 384.459 224.747 385.903Z" fill="black"/>
<path d="M215.354 368.129C215.626 366.774 216.039 365.451 216.586 364.182C216.856 366.21 217.688 368.122 218.988 369.702C220.644 371.846 222.732 373.612 224.324 375.783C226.265 378.433 227.461 381.662 229.844 383.879C231.035 384.953 232.46 385.734 234.006 386.16C235.552 386.587 237.176 386.647 238.749 386.336C239.346 386.255 239.922 386.057 240.441 385.752C240.961 385.448 241.415 385.042 241.776 384.56C242.061 384.098 242.191 383.556 242.144 383.014C243.328 384.064 244.617 384.988 245.99 385.774C247.517 386.621 249.338 387.495 249.752 389.197C249.865 389.915 249.764 390.651 249.463 391.313C249.163 391.975 248.675 392.535 248.06 392.923C246.817 393.676 245.421 394.141 243.975 394.284C240.913 394.879 237.772 394.932 234.692 394.441C231.589 393.926 228.783 392.289 226.808 389.841C225.941 388.62 225.248 387.286 224.747 385.876C224.186 384.431 223.689 382.959 223.026 381.588C222.613 380.69 222.091 379.847 221.472 379.077C219.825 377.099 217.378 375.774 216.099 373.557C216.034 373.437 215.952 373.327 215.887 373.207C215.179 371.613 214.992 369.836 215.354 368.129Z" class="svg-primary-color"/>
<path opacity="0.2" d="M215.354 368.129C215.626 366.774 216.039 365.451 216.586 364.182C216.856 366.21 217.688 368.122 218.988 369.702C220.644 371.846 222.732 373.612 224.324 375.783C226.265 378.433 227.461 381.662 229.844 383.879C231.035 384.953 232.46 385.734 234.006 386.16C235.552 386.587 237.176 386.647 238.749 386.336C239.346 386.255 239.922 386.057 240.441 385.752C240.961 385.448 241.415 385.042 241.776 384.56C242.061 384.098 242.191 383.556 242.144 383.014C243.328 384.064 244.617 384.988 245.99 385.774C247.517 386.621 249.338 387.495 249.752 389.197C249.865 389.915 249.764 390.651 249.463 391.313C249.163 391.975 248.675 392.535 248.06 392.923C246.817 393.676 245.421 394.141 243.975 394.284C240.913 394.879 237.772 394.932 234.692 394.441C231.589 393.926 228.783 392.289 226.808 389.841C225.941 388.62 225.248 387.286 224.747 385.876C224.186 384.431 223.689 382.959 223.026 381.588C222.613 380.69 222.091 379.847 221.472 379.077C219.825 377.099 217.378 375.774 216.099 373.557C216.034 373.437 215.952 373.327 215.887 373.207C215.179 371.613 214.992 369.836 215.354 368.129Z" fill="white"/>
<path d="M238.786 386.326C237.213 386.638 235.589 386.578 234.043 386.151C232.497 385.725 231.072 384.944 229.88 383.87C227.461 381.653 226.265 378.424 224.36 375.774C222.769 373.603 220.68 371.836 219.024 369.693C217.724 368.113 216.893 366.201 216.623 364.173L217.037 363.161C221.389 363.483 226.099 363.271 230.35 364.246C232.049 368.437 234.086 372.483 236.44 376.344C238.023 378.837 239.95 381.095 242.163 383.051C242.209 383.593 242.08 384.135 241.795 384.597C241.061 385.549 239.979 386.171 238.786 386.326Z" fill="#C77371"/>
<path d="M222.576 134.118C222.797 134.976 222.847 135.87 222.721 136.748C222.595 137.625 222.296 138.469 221.842 139.231C221.387 139.992 220.786 140.656 220.074 141.184C219.361 141.712 218.551 142.093 217.691 142.306C215.774 139.569 214.245 136.582 213.146 133.428C213.583 132.233 213.909 131.002 214.121 129.748C217.488 129.518 221.72 130.852 222.576 134.118Z" fill="#AD5755"/>
<path d="M212.805 132.406C212.805 131.394 212.805 130.382 212.805 129.361C212.744 128.543 212.883 127.722 213.21 126.969C213.405 126.612 213.683 126.307 214.021 126.08C214.359 125.853 214.747 125.711 215.151 125.665C215.556 125.62 215.965 125.673 216.345 125.82C216.724 125.967 217.063 126.204 217.332 126.509C217.611 126.275 217.952 126.125 218.313 126.076C218.674 126.027 219.042 126.082 219.374 126.233C219.696 126.388 219.965 126.633 220.15 126.939C220.334 127.244 220.426 127.597 220.414 127.954C220.675 127.735 220.991 127.59 221.327 127.534C221.663 127.477 222.008 127.511 222.327 127.632C222.625 127.741 222.886 127.933 223.078 128.186C223.271 128.439 223.387 128.741 223.413 129.058C223.722 129.091 224.017 129.203 224.271 129.381C224.525 129.56 224.73 129.8 224.867 130.079C225.089 130.588 225.154 131.152 225.051 131.698C224.888 132.819 224.368 133.858 223.569 134.66C223.314 134.934 223 135.145 222.649 135.277C222.471 135.339 222.28 135.356 222.093 135.325C221.907 135.295 221.731 135.218 221.582 135.102C221.44 134.979 221.348 134.807 221.324 134.621C221.3 134.434 221.346 134.245 221.453 134.09C221.108 134.349 220.678 134.471 220.248 134.43C220.08 134.373 219.928 134.277 219.805 134.148C219.681 134.02 219.59 133.865 219.54 133.694C219.44 133.351 219.4 132.993 219.42 132.636C219.265 132.942 219.008 133.184 218.695 133.321C218.381 133.459 218.029 133.483 217.7 133.391C217.387 133.264 217.129 133.032 216.971 132.734C216.813 132.436 216.765 132.092 216.835 131.762C216.662 132.057 216.462 132.334 216.237 132.59C216.124 132.701 215.987 132.784 215.837 132.834C215.687 132.883 215.527 132.897 215.371 132.875C215.214 132.853 215.065 132.795 214.934 132.705C214.804 132.616 214.695 132.498 214.618 132.36C214.434 132.066 214.312 131.737 214.259 131.394C213.836 131.753 213.238 132.048 212.805 132.406Z" fill="#C77371"/>
<path d="M209.41 146.004L211.6 139.84V133.952C211.601 133.554 211.71 133.164 211.914 132.823C212.118 132.481 212.41 132.201 212.759 132.011L213.624 131.551C213.952 131.368 214.321 131.272 214.696 131.272C215.071 131.272 215.44 131.368 215.768 131.551L219.889 133.924C219.562 134.53 219.019 134.991 218.369 135.218C217.719 135.444 217.008 135.419 216.375 135.148L215.28 134.688C219.99 138.892 218.215 141.882 218.215 141.882L215.381 148.865L209.41 146.004Z" fill="#C77371"/>
<path d="M181.709 203.32L207.92 143.584C214.848 142.425 217.543 146.492 218.123 149.104L191.443 221.242L181.709 203.32Z" class="svg-primary-color"/>
<path opacity="0.3" d="M181.709 203.32L207.92 143.584C214.848 142.425 217.543 146.492 218.123 149.104L191.443 221.242L181.709 203.32Z" fill="white"/>
<path d="M147.255 237.461C142.462 234.968 137.706 232.19 134.201 228.261C130.695 224.333 128.589 218.951 129.867 213.946C131.036 209.346 134.762 205.776 138.534 202.658C142.306 199.539 146.391 196.521 148.709 192.335C151.469 187.321 151.313 181.396 151.681 175.775C152.049 170.154 153.355 163.999 158.01 160.42C161.635 157.66 166.704 156.961 171.323 157.66C175.941 158.36 180.228 160.328 184.396 162.334C187.303 163.732 192.179 166.097 194.516 168.231C196.853 170.366 198.619 173.273 198.555 176.346C198.52 177.93 197.958 179.457 196.959 180.687C195.959 181.916 194.578 182.778 193.035 183.135C193.955 189.134 191.323 196.172 184.939 200.615C179.906 204.093 182.289 211.168 178.775 216.255C175.26 221.343 171.709 226.449 166.925 230.497C162.141 234.545 152.895 240.387 147.255 237.461Z" fill="#263238"/>
<path d="M182.445 199.796C188.628 200.781 191.774 220.763 193.78 226.697C195.859 232.824 193.035 237.268 189.897 240.976C189.329 241.648 188.907 242.431 188.658 243.275C188.409 244.119 188.34 245.006 188.453 245.879L194.948 270.02C177.211 283.185 147.476 276.8 139.417 272.504C139.326 264.074 141.104 255.729 144.624 248.069C147.004 243.122 148.341 237.739 148.553 232.254L148.856 223.394L147.936 197.533L162.113 204.442L175.683 203.835C175.683 203.835 180.431 199.484 182.445 199.796Z" class="svg-primary-color"/>
<path opacity="0.1" d="M182.445 199.796C188.628 200.781 191.774 220.763 193.78 226.697C195.859 232.824 193.035 237.268 189.897 240.976C189.329 241.648 188.907 242.431 188.658 243.275C188.409 244.119 188.34 245.006 188.453 245.879L194.948 270.02C177.211 283.185 147.476 276.8 139.417 272.504C139.326 264.074 141.104 255.729 144.624 248.069C147.004 243.122 148.341 237.739 148.553 232.254L148.856 223.394L147.936 197.533L162.113 204.442L175.683 203.835C175.683 203.835 180.431 199.484 182.445 199.796Z" fill="white"/>
<path d="M175.72 197.8V209.935L177.284 216.2C177.369 216.548 177.336 216.915 177.191 217.242C177.046 217.57 176.797 217.841 176.483 218.013C176.168 218.185 175.806 218.248 175.452 218.193C175.098 218.138 174.772 217.968 174.524 217.709L162.123 204.433V191.489L175.72 197.8Z" fill="#C77371"/>
<path d="M162.656 191.728C163.806 200.302 171.792 206.292 175.692 207.23V197.8L162.656 191.728Z" fill="#AD5755"/>
<path d="M166.677 181.985C166.547 183.068 166.284 184.131 165.895 185.15C165.55 185.909 164.969 186.535 164.239 186.935C163.887 187.125 163.493 187.224 163.093 187.224C162.693 187.224 162.3 187.125 161.948 186.935C162.515 185.959 162.671 184.797 162.382 183.706C162.093 182.615 161.383 181.683 160.407 181.116C159.431 180.549 158.269 180.392 157.178 180.681C156.087 180.97 155.155 181.681 154.588 182.657C154.196 183.332 153.957 184.084 153.887 184.861C153.817 185.639 153.918 186.422 154.183 187.156C154.728 188.617 155.603 189.934 156.741 191.001C157.432 191.484 158.272 191.708 159.112 191.636C159.953 191.564 160.741 191.199 161.341 190.606C163.806 196.816 169.621 202.639 176.245 204.019C178.049 204.45 179.939 204.354 181.691 203.743C184.709 202.575 185.739 199.769 186.889 197.027C188.406 193.586 189.452 189.956 189.999 186.236C190.661 181.074 189.907 175.582 187.036 171.24C181.654 181.286 170.669 182.307 166.677 181.985Z" fill="#C77371"/>
<path d="M180.219 187.671L183.034 194.46L178.489 194.654L180.219 187.671Z" fill="#AD5755"/>
<path d="M180.246 198.131L174.533 195.96C174.045 196.792 173.856 197.766 174 198.72C174.079 199.192 174.273 199.637 174.565 200.015C174.857 200.394 175.238 200.695 175.674 200.891C176.135 201.058 176.629 201.115 177.116 201.057C177.603 201 178.07 200.829 178.48 200.56C179.263 199.911 179.87 199.076 180.246 198.131Z" fill="#AD5755"/>
<path opacity="0.3" d="M180.246 198.131L174.533 195.96C174.045 196.792 173.856 197.766 174 198.72C174.079 199.192 174.273 199.637 174.565 200.015C174.857 200.394 175.238 200.695 175.674 200.891C176.135 201.058 176.629 201.115 177.116 201.057C177.603 201 178.07 200.829 178.48 200.56C179.263 199.911 179.87 199.076 180.246 198.131Z" fill="black"/>
<path d="M173.77 186.999C173.705 187.246 173.715 187.506 173.798 187.748C173.881 187.989 174.034 188.2 174.238 188.354C174.441 188.508 174.686 188.598 174.94 188.613C175.195 188.628 175.448 188.567 175.668 188.437C175.888 188.308 176.065 188.116 176.176 187.886C176.286 187.657 176.326 187.399 176.291 187.146C176.255 186.894 176.145 186.657 175.974 186.467C175.804 186.277 175.581 186.142 175.334 186.079C175.004 185.995 174.655 186.045 174.362 186.217C174.069 186.389 173.856 186.671 173.77 186.999Z" fill="#263238"/>
<path d="M184.34 189.198C184.287 189.518 184.357 189.846 184.535 190.117C184.713 190.388 184.987 190.582 185.302 190.66C185.617 190.738 185.949 190.694 186.233 190.537C186.517 190.38 186.732 190.122 186.834 189.814C186.887 189.494 186.817 189.166 186.639 188.895C186.461 188.624 186.187 188.431 185.872 188.353C185.557 188.275 185.225 188.319 184.941 188.475C184.657 188.632 184.442 188.89 184.34 189.198Z" fill="#263238"/>
<path d="M185.95 183.264L189.014 184.874C189.095 184.508 189.063 184.127 188.922 183.78C188.781 183.433 188.537 183.137 188.223 182.933C187.851 182.77 187.441 182.715 187.039 182.773C186.638 182.832 186.26 183.002 185.95 183.264Z" fill="#263238"/>
<path d="M176.732 181.442L173.31 181.967C173.353 181.595 173.508 181.246 173.754 180.965C174.001 180.684 174.327 180.485 174.69 180.394C175.094 180.361 175.499 180.442 175.86 180.627C176.221 180.813 176.523 181.095 176.732 181.442Z" fill="#263238"/>
<path d="M173.954 197.947C173.927 198.204 173.927 198.463 173.954 198.72C174.007 199.128 174.153 199.519 174.381 199.862C174.608 200.205 174.91 200.492 175.265 200.7C175.62 200.909 176.018 201.033 176.429 201.065C176.839 201.096 177.251 201.034 177.634 200.882C177.443 200.057 176.988 199.317 176.336 198.775C175.656 198.244 174.818 197.952 173.954 197.947Z" fill="#AD5755"/>
<path d="M236.054 278.751C236.058 278.809 236.058 278.867 236.054 278.926V278.751V278.521C236.063 278.597 236.063 278.674 236.054 278.751Z" fill="#E0E0E0"/>
<path opacity="0.2" d="M236.054 278.751C236.058 278.809 236.058 278.867 236.054 278.926V278.751V278.521C236.063 278.597 236.063 278.674 236.054 278.751Z" fill="black"/>
<path d="M236.063 278.935C236.03 279.015 235.99 279.092 235.943 279.165C235.921 279.22 235.894 279.272 235.861 279.321C235.797 279.41 235.723 279.49 235.64 279.56C235.608 279.607 235.571 279.651 235.529 279.689C235.384 279.814 235.227 279.925 235.06 280.02L193.66 303.94C193.484 304.043 193.3 304.129 193.108 304.198H193.016C192.85 304.257 192.682 304.306 192.51 304.345H192.409C192.216 304.391 192.023 304.419 191.82 304.446H191.728C191.535 304.446 191.333 304.446 191.13 304.446H191.029C190.827 304.446 190.615 304.446 190.413 304.446H190.311L189.861 304.373L189.502 304.281L189.226 304.198C188.973 304.12 188.729 304.015 188.499 303.885L163.438 289.312C163.273 289.219 163.119 289.108 162.978 288.981C162.865 288.879 162.763 288.765 162.675 288.641C162.599 288.532 162.537 288.415 162.491 288.291C162.448 288.145 162.433 287.992 162.445 287.84C162.488 287.534 162.607 287.244 162.792 286.997C162.977 286.749 163.221 286.552 163.503 286.424L204.903 262.55C205.698 262.141 206.58 261.928 207.474 261.928C208.368 261.928 209.25 262.141 210.045 262.55L235.115 277.113C235.406 277.248 235.657 277.456 235.843 277.718C236.028 277.979 236.142 278.285 236.173 278.604C236.182 278.68 236.182 278.757 236.173 278.834C236.139 278.87 236.102 278.904 236.063 278.935Z" fill="#E0E0E0"/>
<path d="M232.622 278.53L192.437 301.76L192.28 301.843H192.197L191.885 301.935L191.664 301.981H191.507C191.376 301.988 191.244 301.988 191.112 301.981H190.698L190.431 301.935L190.109 301.843C190.015 301.812 189.923 301.775 189.833 301.732L176.907 294.216L218.408 270.25L232.622 278.53Z" fill="#E0E0E0"/>
<path d="M194.396 272.145L201.959 276.598C202.073 276.665 202.168 276.762 202.234 276.877C202.3 276.992 202.334 277.123 202.334 277.256C202.334 277.389 202.3 277.519 202.234 277.635C202.168 277.75 202.073 277.846 201.959 277.914L190.652 284.436C190.461 284.549 190.243 284.608 190.022 284.608C189.8 284.608 189.582 284.549 189.391 284.436L181.829 279.993C181.712 279.926 181.616 279.829 181.548 279.713C181.481 279.597 181.445 279.465 181.445 279.33C181.445 279.196 181.481 279.064 181.548 278.948C181.616 278.831 181.712 278.735 181.829 278.668L193.127 272.145C193.319 272.032 193.538 271.972 193.761 271.972C193.985 271.972 194.204 272.032 194.396 272.145Z" fill="#E0E0E0"/>
<path opacity="0.4" d="M232.622 278.53L192.437 301.76L192.28 301.843H192.197L191.885 301.935L191.664 301.981H191.507C191.376 301.988 191.244 301.988 191.112 301.981H190.698L190.431 301.935L190.109 301.843C190.015 301.812 189.923 301.775 189.833 301.732L176.907 294.216L218.408 270.25L232.622 278.53Z" fill="black"/>
<path opacity="0.4" d="M194.396 272.145L201.959 276.598C202.073 276.665 202.168 276.762 202.234 276.877C202.3 276.992 202.334 277.123 202.334 277.256C202.334 277.389 202.3 277.519 202.234 277.635C202.168 277.75 202.073 277.846 201.959 277.914L190.652 284.436C190.461 284.549 190.243 284.608 190.022 284.608C189.8 284.608 189.582 284.549 189.391 284.436L181.829 279.993C181.712 279.926 181.616 279.829 181.548 279.713C181.481 279.597 181.445 279.465 181.445 279.33C181.445 279.196 181.481 279.064 181.548 278.948C181.616 278.831 181.712 278.735 181.829 278.668L193.127 272.145C193.319 272.032 193.538 271.972 193.761 271.972C193.985 271.972 194.204 272.032 194.396 272.145Z" fill="black"/>
<path d="M191.36 302.422L195.638 275.19C195.755 274.453 196.034 273.751 196.456 273.136C196.878 272.52 197.431 272.006 198.076 271.63L239.725 247.416C239.89 247.319 240.076 247.262 240.268 247.249C240.459 247.236 240.651 247.268 240.828 247.342L241.822 247.83L241.491 247.958C241.6 248.187 241.635 248.445 241.592 248.694L237.36 275.926C237.244 276.664 236.965 277.366 236.543 277.982C236.121 278.598 235.567 279.112 234.922 279.487L193.2 303.701C193.115 303.747 193.026 303.784 192.933 303.812V304.207L192.013 303.738C191.779 303.617 191.589 303.424 191.471 303.187C191.354 302.951 191.315 302.683 191.36 302.422Z" fill="#E0E0E0"/>
<path opacity="0.3" d="M191.36 302.422L195.638 275.19C195.755 274.453 196.034 273.751 196.456 273.136C196.878 272.52 197.431 272.006 198.076 271.63L239.725 247.416C239.89 247.319 240.076 247.262 240.268 247.249C240.459 247.236 240.651 247.268 240.828 247.342L241.822 247.83L241.491 247.958C241.6 248.187 241.635 248.445 241.592 248.694L237.36 275.926C237.244 276.664 236.965 277.366 236.543 277.982C236.121 278.598 235.567 279.112 234.922 279.487L193.2 303.701C193.115 303.747 193.026 303.784 192.933 303.812V304.207L192.013 303.738C191.779 303.617 191.589 303.424 191.471 303.187C191.354 302.951 191.315 302.683 191.36 302.422Z" fill="black"/>
<path d="M198.923 272.044L240.571 247.839C240.775 247.727 241.006 247.674 241.239 247.686C241.471 247.698 241.696 247.775 241.887 247.908C242.078 248.041 242.229 248.225 242.321 248.438C242.414 248.652 242.445 248.887 242.411 249.118L238.133 276.34C238.018 277.079 237.739 277.783 237.318 278.401C236.896 279.018 236.341 279.534 235.695 279.91L194.12 304.115C193.916 304.227 193.685 304.28 193.452 304.268C193.22 304.256 192.995 304.179 192.804 304.046C192.613 303.913 192.462 303.729 192.37 303.516C192.277 303.302 192.246 303.067 192.28 302.836L196.558 275.614C196.667 274.882 196.935 274.183 197.343 273.566C197.752 272.949 198.291 272.43 198.923 272.044Z" fill="#E0E0E0"/>
<path d="M219.107 272.752C218.052 273.413 217.141 274.282 216.431 275.305C215.721 276.328 215.226 277.485 214.976 278.705C214.7 280.83 216.108 281.621 218.123 280.453C219.178 279.792 220.089 278.924 220.799 277.9C221.509 276.877 222.004 275.721 222.254 274.5C222.53 272.375 221.113 271.593 219.107 272.752Z" fill="white"/>
<path d="M122.001 148.865C115.037 145.452 108.854 152.748 110.961 156.52C113.068 160.292 126.564 156.05 122.001 148.865Z" class="svg-primary-color"/>
<path opacity="0.3" d="M122.001 148.865C115.037 145.452 108.854 152.748 110.961 156.52C113.068 160.292 126.564 156.05 122.001 148.865Z" fill="black"/>
<path d="M104.687 137.88C106.012 143.272 107.981 145.875 111.789 148.874L118.8 145.618L116.205 133.023L114.439 131.339L104.687 137.88Z" fill="#AD5755"/>
<path d="M113.455 127.54C113.176 127.333 112.852 127.196 112.509 127.141C112.167 127.087 111.816 127.115 111.486 127.224C111.157 127.333 110.859 127.52 110.617 127.769C110.375 128.017 110.197 128.321 110.097 128.653C109.808 128.422 109.451 128.29 109.082 128.279C108.712 128.267 108.348 128.376 108.045 128.588C107.733 128.815 107.5 129.135 107.38 129.501C107.259 129.868 107.257 130.263 107.373 130.631C107.204 130.463 106.987 130.351 106.753 130.308C106.518 130.266 106.276 130.295 106.058 130.392C105.636 130.607 105.308 130.971 105.138 131.413C104.945 131.858 104.806 132.324 104.724 132.802C104.469 132.704 104.191 132.682 103.924 132.737C103.656 132.793 103.41 132.924 103.215 133.115C103.027 133.312 102.899 133.558 102.846 133.825C102.792 134.092 102.815 134.369 102.911 134.624C103.326 135.641 103.851 136.609 104.475 137.512C104.633 137.846 104.857 138.144 105.133 138.388C105.41 138.632 105.734 138.816 106.085 138.929C106.346 138.973 106.613 138.943 106.857 138.842C107.101 138.741 107.312 138.574 107.465 138.359C107.614 138.14 107.7 137.883 107.711 137.618C107.722 137.353 107.66 137.09 107.53 136.859C107.831 137.213 108.237 137.46 108.69 137.564C109.142 137.669 109.616 137.625 110.041 137.439C110.4 137.202 110.665 136.847 110.79 136.435C110.914 136.023 110.89 135.581 110.722 135.185C110.855 135.447 111.064 135.663 111.322 135.805C111.579 135.946 111.874 136.006 112.167 135.976C112.452 135.93 112.721 135.811 112.946 135.63C113.172 135.45 113.347 135.214 113.455 134.946C113.556 134.676 113.602 134.389 113.59 134.101C113.577 133.813 113.506 133.531 113.381 133.271C113.469 133.52 113.621 133.742 113.821 133.915C114.021 134.088 114.262 134.205 114.522 134.256C114.773 134.308 115.034 134.29 115.276 134.204C115.517 134.118 115.731 133.967 115.893 133.768C116.11 133.398 116.231 132.979 116.246 132.55C116.26 132.121 116.167 131.696 115.975 131.312C115.585 129.806 114.697 128.476 113.455 127.54Z" fill="#C77371"/>
<path d="M122.36 152.803L118.772 145.618L120.18 140.686C120.437 139.788 120.507 138.847 120.383 137.92C120.26 136.994 119.946 136.104 119.462 135.304L118.616 133.888C118.383 133.486 118.008 133.187 117.564 133.05C117.121 132.914 116.642 132.95 116.224 133.152L109.535 136.215V136.307C109.711 136.775 109.98 137.203 110.326 137.564C110.672 137.924 111.089 138.211 111.549 138.405C112.01 138.6 112.505 138.699 113.005 138.695C113.505 138.692 113.999 138.587 114.457 138.386C110.014 141.855 109.857 144.771 111.697 148.874C113.537 152.978 116.399 159.473 116.399 159.473L122.36 152.803Z" fill="#C77371"/>
<path d="M155.738 201.333L122.001 148.893C120.511 157.237 110.961 156.547 110.961 156.547L148.829 223.422C153.879 231.84 171.028 223.56 155.738 201.333Z" class="svg-primary-color"/>
<path opacity="0.3" d="M155.738 201.333L122.001 148.893C120.511 157.237 110.961 156.547 110.961 156.547L148.829 223.422C153.879 231.84 171.028 223.56 155.738 201.333Z" fill="white"/>
<path opacity="0.2" d="M177.937 238.28C175.626 239.737 172.843 240.247 170.165 239.706C167.488 239.165 165.121 237.613 163.558 235.373C163.732 238.795 165.83 242.089 169.188 242.806C172.546 243.524 176.382 241.316 177.937 238.28Z" fill="black"/>
</svg>
