<svg width="621" height="94" viewBox="0 0 621 94" fill="none" xmlns="http://www.w3.org/2000/svg">
<path class="svg-primary-color" opacity="0.1" fill-rule="evenodd" clip-rule="evenodd" d="M104.255 1.10423C58.6453 3.60423 -0.496399 40.1042 -0.496399 40.1042V89H0H0.00474107H619.489V37.7428C603.89 29.7511 551.038 4.13188 511.731 2.60413C492.307 1.84919 461.743 14.2006 428.38 27.6829C381.681 46.5544 329.5 67.6416 294.711 58.1042C273.336 52.2442 248.677 42.9421 223.735 33.533C179.081 16.6882 133.518 -0.49981 104.255 1.10423Z"/>
<path class="svg-primary-color-80" opacity="1" d="M50.1249 58.604C-1.99989 58.604 -0.499999 48.5 -0.499999 48.5L-0.5 94.104H621.5V5.5C549.829 2 519.75 60.604 433.544 59.604C347.337 58.604 310.749 2.10402 228.051 2.104C145.353 2.10399 102.25 58.604 50.1249 58.604Z"/>
</svg>
