<svg width="626" height="99" viewBox="0 0 626 99" fill="none" xmlns="http://www.w3.org/2000/svg">
<path class="svg-primary-color" opacity=".1" fill-rule="evenodd" clip-rule="evenodd" d="M106.255 0.104225C60.6453 2.60423 1.5036 39.1042 1.5036 39.1042V91.6043L2.00474 91.6095V88H621.489L621.489 36.7428C605.89 28.7511 553.038 3.13188 513.731 1.60413C494.307 0.849185 463.743 13.2006 430.38 26.6829C383.681 45.5544 331.5 66.6416 296.711 57.1042C275.336 51.2442 250.677 41.9421 225.735 32.533C181.081 15.6882 135.518 -1.49981 106.255 0.104225ZM626 98H621.489H615.983L626 98.1043V98Z" fill="#666666"/>
<path class="svg-primary-color-80" opacity="1" d="M52.1249 57.604C0.000107068 57.604 0 47.604 0 47.604V93.104H621.99V4.604C550.319 1.104 521.75 59.604 435.544 58.604C349.337 57.604 312.749 1.10402 230.051 1.104C147.353 1.10399 104.25 57.604 52.1249 57.604Z" fill="#666666"/>
</svg>
