<svg width="621" height="94" viewBox="0 0 621 94" fill="none" xmlns="http://www.w3.org/2000/svg">
<path class="svg-primary-color" opacity="0.1" d="M-5074 296L-4714 2L-4354 247L-3994 198H-3634L-3274 394L-2914 149L-2554 247L-2194 2L-1834 247L-1474 -47L-1114 345L-754 100H-394L127 2L235 59L342 11L498 30L686 2L1046 345L1406 394L1766 51L2126 198L2486 247L2846 296L3206 2L3566 345V443H3206H2846H2486H2126H1766H1406H1046H686H326H-34H-394H-754H-1114H-1474H-1834H-2194H-2554H-2914H-3274H-3634H-3994H-4354H-4714H-5074V296Z"/>
<path class="svg-primary-color" opacity="0.2" d="M-3057 -233L-2697 -86L-2337 -37L-1977 -184L-1617 159L-1257 -135L-897 61L-537 -135L-177 61L269 9L543 61L903 110L1263 -86L1623 12L1983 -184L2343 12L2703 -86L3063 -37L3423 -135L3783 110L4143 -86L4503 110L4863 -86L5223 12L5583 -86V208H5223H4863H4503H4143H3783H3423H3063H2703H2343H1983H1623H1263H903H543H183H-177H-537H-897H-1257H-1617H-1977H-2337H-2697H-3057V-233Z"/>
<path class="svg-primary-color-80" opacity="1" d="M-671 129L-311 31L-13 14.5L168 59.5L330 36.5L510.5 53.5L622 8L769 129L1129 -18L1489 -67L1849 178L2209 -116H2569L2929 178L3289 -18H3649L4009 227L4369 80L4729 227H5089L5449 31L5809 178L6169 -116H6529L6889 276L7249 -165L7609 227H7969V325H7609H7249H6889H6529H6169H5809H5449H5089H4729H4369H4009H3649H3289H2929H2569H2209H1849H1489H1129H769H409H49H-311H-671V129Z"/>
</svg>
